<svg xmlns="http://www.w3.org/2000/svg" version="1.1" viewBox="0.00 0.00 44.00 44.00">
  <path fill="#000000"
    d="
  M 0.00 15.41
  L 0.00 12.66
  C 2.05 3.67 13.44 2.08 17.28 10.62
  A 0.66 0.66 0.0 0 1 17.01 11.46
  L 16.79 11.60
  A 0.92 0.91 59.0 0 1 15.55 11.29
  C 8.31 -0.40 -5.09 14.35 6.49 20.65
  A 0.66 0.66 0.0 0 1 6.70 21.64
  L 6.51 21.88
  A 1.13 1.12 -55.2 0 1 5.04 22.15
  Q 0.97 19.68 0.00 15.41
  Z"
  />
  <path fill="#000000"
    d="
  M 44.00 23.03
  L 44.00 26.64
  C 42.05 32.67 36.48 38.87 29.58 38.96
  Q 20.46 39.07 10.53 38.92
  A 2.55 2.55 0.0 0 1 8.02 36.32
  L 8.03 35.83
  Q 8.11 32.20 11.68 31.62
  L 19.23 30.39
  Q 19.84 30.29 19.41 29.86
  L 6.10 16.55
  A 3.59 3.59 0.0 0 1 6.09 11.48
  L 6.50 11.06
  A 3.50 3.49 -45.5 0 1 11.42 11.01
  L 14.76 14.25
  Q 15.19 14.67 15.52 14.16
  Q 17.40 11.25 20.75 12.50
  Q 21.22 12.68 21.49 12.25
  Q 23.33 9.19 26.71 10.50
  Q 27.19 10.69 27.46 10.25
  C 29.46 7.00 32.29 7.80 34.66 10.14
  Q 40.81 16.21 44.00 23.03
  Z
  M 21.81 22.66
  Q 21.15 23.62 20.33 22.79
  L 10.20 12.66
  Q 8.86 11.32 7.66 12.78
  L 7.44 13.04
  A 1.51 1.51 0.0 0 0 7.54 15.07
  L 22.75 30.28
  A 1.00 0.99 62.8 0 1 22.21 31.97
  L 12.01 33.59
  Q 10.32 33.85 10.05 35.54
  L 10.00 35.81
  A 1.02 1.02 0.0 0 0 11.01 37.00
  Q 20.00 37.02 29.47 36.98
  C 33.93 36.96 35.45 35.06 38.29 32.26
  C 47.25 23.46 37.66 16.61 31.99 10.41
  A 1.36 1.36 0.0 0 0 30.22 10.21
  Q 28.11 11.68 29.92 13.54
  A 0.64 0.63 43.3 0 1 29.95 14.40
  L 29.69 14.70
  A 0.98 0.97 -46.7 0 1 28.25 14.75
  L 25.92 12.38
  A 1.40 1.39 44.3 0 0 23.91 12.40
  L 23.60 12.73
  A 1.73 1.73 0.0 0 0 23.66 15.17
  Q 24.92 16.39 25.64 17.31
  Q 26.44 18.34 25.48 18.96
  A 0.86 0.85 -38.7 0 1 24.42 18.85
  L 19.93 14.39
  A 1.43 1.43 0.0 0 0 17.95 14.37
  L 17.65 14.67
  A 1.74 1.74 0.0 0 0 17.62 17.16
  L 21.90 21.45
  A 0.75 0.74 39.8 0 1 21.99 22.40
  L 21.81 22.66
  Z"
  />
</svg>