<svg width="126" height="61" viewBox="0 0 126 61" fill="none" xmlns="http://www.w3.org/2000/svg">
<path d="M25.959 58.1449C25.5442 58.1449 25.1692 58.0682 24.834 57.9148C24.4988 57.7585 24.2332 57.5327 24.0371 57.2372C23.844 56.9418 23.7474 56.5795 23.7474 56.1506C23.7474 55.7812 23.8184 55.4773 23.9604 55.2386C24.1025 55 24.2942 54.8111 24.5357 54.6719C24.7772 54.5327 25.0471 54.4276 25.3454 54.3565C25.6437 54.2855 25.9477 54.2315 26.2573 54.1946C26.6494 54.1491 26.9675 54.1122 27.2119 54.0838C27.4562 54.0526 27.6337 54.0028 27.7445 53.9347C27.8553 53.8665 27.9107 53.7557 27.9107 53.6023V53.5724C27.9107 53.2003 27.8056 52.9119 27.5954 52.7074C27.388 52.5028 27.0783 52.4006 26.6664 52.4006C26.2374 52.4006 25.8994 52.4957 25.6522 52.6861C25.4079 52.8736 25.2388 53.0824 25.1451 53.3125L23.9477 53.0398C24.0897 52.642 24.2971 52.321 24.5698 52.0767C24.8454 51.8295 25.1621 51.6506 25.5201 51.5398C25.8781 51.4261 26.2545 51.3693 26.6494 51.3693C26.9107 51.3693 27.1877 51.4006 27.4803 51.4631C27.7758 51.5227 28.0513 51.6335 28.307 51.7955C28.5656 51.9574 28.7772 52.1889 28.942 52.4901C29.1067 52.7884 29.1891 53.1761 29.1891 53.6534V58H27.9448V57.1051H27.8937C27.8113 57.2699 27.6877 57.4318 27.5229 57.5909C27.3582 57.75 27.1465 57.8821 26.888 57.9872C26.6295 58.0923 26.3198 58.1449 25.959 58.1449ZM26.236 57.1222C26.5883 57.1222 26.8894 57.0526 27.1394 56.9134C27.3923 56.7741 27.584 56.5923 27.7147 56.3679C27.8482 56.1406 27.915 55.8977 27.915 55.6392V54.7955C27.8695 54.8409 27.7815 54.8835 27.6508 54.9233C27.5229 54.9602 27.3766 54.9929 27.2119 55.0213C27.0471 55.0469 26.8866 55.071 26.7303 55.0938C26.5741 55.1136 26.4434 55.1307 26.3383 55.1449C26.0911 55.1761 25.8653 55.2287 25.6607 55.3026C25.459 55.3764 25.2971 55.483 25.1749 55.6222C25.0556 55.7585 24.996 55.9403 24.996 56.1676C24.996 56.483 25.1124 56.7216 25.3454 56.8835C25.5783 57.0426 25.8752 57.1222 26.236 57.1222ZM36.9911 53.0526L35.8362 53.2571C35.7879 53.1094 35.7112 52.9687 35.6061 52.8352C35.5038 52.7017 35.3646 52.5923 35.1885 52.5071C35.0124 52.4219 34.7922 52.3793 34.528 52.3793C34.1672 52.3793 33.8661 52.4602 33.6246 52.6222C33.3831 52.7812 33.2624 52.9872 33.2624 53.2401C33.2624 53.4588 33.3433 53.6349 33.5053 53.7685C33.6672 53.902 33.9286 54.0114 34.2893 54.0966L35.3291 54.3352C35.9314 54.4744 36.3803 54.6889 36.6757 54.9787C36.9712 55.2685 37.1189 55.6449 37.1189 56.108C37.1189 56.5 37.0053 56.8494 36.778 57.1562C36.5536 57.4602 36.2396 57.6989 35.8362 57.8722C35.4357 58.0455 34.9712 58.1321 34.4428 58.1321C33.7098 58.1321 33.1118 57.9759 32.6487 57.6634C32.1857 57.348 31.9016 56.9006 31.7964 56.321L33.028 56.1335C33.1047 56.4545 33.2624 56.6974 33.501 56.8622C33.7396 57.0241 34.0507 57.1051 34.4342 57.1051C34.8518 57.1051 35.1857 57.0185 35.4357 56.8452C35.6857 56.669 35.8107 56.4545 35.8107 56.2017C35.8107 55.9972 35.7339 55.8253 35.5805 55.6861C35.43 55.5469 35.1984 55.4418 34.8859 55.3707L33.778 55.1278C33.1672 54.9886 32.7155 54.767 32.4229 54.4631C32.1331 54.1591 31.9882 53.7741 31.9882 53.3082C31.9882 52.9219 32.0962 52.5838 32.3121 52.294C32.528 52.0043 32.8263 51.7784 33.207 51.6165C33.5876 51.4517 34.0237 51.3693 34.5152 51.3693C35.2226 51.3693 35.7794 51.5227 36.1857 51.8295C36.5919 52.1335 36.8604 52.5412 36.9911 53.0526ZM44.901 60.4545C44.7107 60.4545 44.5374 60.4389 44.3811 60.4077C44.2249 60.3793 44.1084 60.348 44.0317 60.3139L44.3385 59.2699C44.5714 59.3324 44.7788 59.3594 44.9607 59.3509C45.1425 59.3423 45.303 59.2741 45.4422 59.1463C45.5842 59.0185 45.7092 58.8097 45.8172 58.5199L45.9749 58.0852L43.58 51.4545H44.9436L46.6013 56.5341H46.6695L48.3271 51.4545H49.695L46.9976 58.8736C46.8726 59.2145 46.7135 59.5028 46.5203 59.7386C46.3271 59.9773 46.097 60.1563 45.83 60.2756C45.5629 60.3949 45.2533 60.4545 44.901 60.4545ZM54.6269 58.1321C54.0133 58.1321 53.4778 57.9915 53.0204 57.7102C52.563 57.429 52.2079 57.0355 51.955 56.5298C51.7022 56.0241 51.5758 55.4332 51.5758 54.7571C51.5758 54.0781 51.7022 53.4844 51.955 52.9759C52.2079 52.4673 52.563 52.0724 53.0204 51.7912C53.4778 51.5099 54.0133 51.3693 54.6269 51.3693C55.2406 51.3693 55.7761 51.5099 56.2334 51.7912C56.6908 52.0724 57.0459 52.4673 57.2988 52.9759C57.5516 53.4844 57.6781 54.0781 57.6781 54.7571C57.6781 55.4332 57.5516 56.0241 57.2988 56.5298C57.0459 57.0355 56.6908 57.429 56.2334 57.7102C55.7761 57.9915 55.2406 58.1321 54.6269 58.1321ZM54.6312 57.0625C55.0289 57.0625 55.3584 56.9574 55.6198 56.7472C55.8812 56.5369 56.0744 56.2571 56.1994 55.9077C56.3272 55.5582 56.3911 55.1733 56.3911 54.7528C56.3911 54.3352 56.3272 53.9517 56.1994 53.6023C56.0744 53.25 55.8812 52.9673 55.6198 52.7543C55.3584 52.5412 55.0289 52.4347 54.6312 52.4347C54.2306 52.4347 53.8982 52.5412 53.634 52.7543C53.3727 52.9673 53.1781 53.25 53.0502 53.6023C52.9252 53.9517 52.8627 54.3352 52.8627 54.7528C52.8627 55.1733 52.9252 55.5582 53.0502 55.9077C53.1781 56.2571 53.3727 56.5369 53.634 56.7472C53.8982 56.9574 54.2306 57.0625 54.6312 57.0625ZM64.4466 55.2855V51.4545H65.725V58H64.4722V56.8665H64.404C64.2534 57.2159 64.0119 57.5071 63.6795 57.7401C63.35 57.9702 62.9395 58.0852 62.448 58.0852C62.0276 58.0852 61.6554 57.9929 61.3315 57.8082C61.0105 57.6207 60.7577 57.3438 60.573 56.9773C60.3912 56.6108 60.3003 56.1577 60.3003 55.6179V51.4545H61.5744V55.4645C61.5744 55.9105 61.698 56.2656 61.9452 56.5298C62.1923 56.794 62.5134 56.9261 62.9082 56.9261C63.1469 56.9261 63.3841 56.8665 63.6199 56.7472C63.8585 56.6278 64.056 56.4474 64.2122 56.206C64.3713 55.9645 64.4494 55.6577 64.4466 55.2855ZM74.9176 58.1449C74.5028 58.1449 74.1278 58.0682 73.7926 57.9148C73.4574 57.7585 73.1918 57.5327 72.9957 57.2372C72.8026 56.9418 72.706 56.5795 72.706 56.1506C72.706 55.7812 72.777 55.4773 72.919 55.2386C73.0611 55 73.2528 54.8111 73.4943 54.6719C73.7358 54.5327 74.0057 54.4276 74.304 54.3565C74.6023 54.2855 74.9063 54.2315 75.2159 54.1946C75.608 54.1491 75.9261 54.1122 76.1705 54.0838C76.4148 54.0526 76.5923 54.0028 76.7031 53.9347C76.8139 53.8665 76.8693 53.7557 76.8693 53.6023V53.5724C76.8693 53.2003 76.7642 52.9119 76.554 52.7074C76.3466 52.5028 76.0369 52.4006 75.625 52.4006C75.196 52.4006 74.858 52.4957 74.6108 52.6861C74.3665 52.8736 74.1974 53.0824 74.1037 53.3125L72.9062 53.0398C73.0483 52.642 73.2557 52.321 73.5284 52.0767C73.804 51.8295 74.1207 51.6506 74.4787 51.5398C74.8366 51.4261 75.2131 51.3693 75.608 51.3693C75.8693 51.3693 76.1463 51.4006 76.4389 51.4631C76.7344 51.5227 77.0099 51.6335 77.2656 51.7955C77.5241 51.9574 77.7358 52.1889 77.9006 52.4901C78.0653 52.7884 78.1477 53.1761 78.1477 53.6534V58H76.9034V57.1051H76.8523C76.7699 57.2699 76.6463 57.4318 76.4815 57.5909C76.3168 57.75 76.1051 57.8821 75.8466 57.9872C75.5881 58.0923 75.2784 58.1449 74.9176 58.1449ZM75.1946 57.1222C75.5469 57.1222 75.848 57.0526 76.098 56.9134C76.3509 56.7741 76.5426 56.5923 76.6733 56.3679C76.8068 56.1406 76.8736 55.8977 76.8736 55.6392V54.7955C76.8281 54.8409 76.7401 54.8835 76.6094 54.9233C76.4815 54.9602 76.3352 54.9929 76.1705 55.0213C76.0057 55.0469 75.8452 55.071 75.6889 55.0938C75.5327 55.1136 75.402 55.1307 75.2969 55.1449C75.0497 55.1761 74.8239 55.2287 74.6193 55.3026C74.4176 55.3764 74.2557 55.483 74.1335 55.6222C74.0142 55.7585 73.9545 55.9403 73.9545 56.1676C73.9545 56.483 74.071 56.7216 74.304 56.8835C74.5369 57.0426 74.8338 57.1222 75.1946 57.1222ZM81.0448 58V51.4545H82.2763V52.4943H82.3445C82.4638 52.142 82.6741 51.8651 82.9752 51.6634C83.2792 51.4588 83.6229 51.3565 84.0065 51.3565C84.086 51.3565 84.1798 51.3594 84.2877 51.3651C84.3985 51.3707 84.4852 51.3778 84.5477 51.3864V52.6051C84.4965 52.5909 84.4056 52.5753 84.2749 52.5582C84.1442 52.5384 84.0136 52.5284 83.8829 52.5284C83.5817 52.5284 83.3133 52.5923 83.0775 52.7202C82.8445 52.8452 82.6599 53.0199 82.5235 53.2443C82.3871 53.4659 82.319 53.7187 82.319 54.0028V58H81.0448ZM89.4369 58.1321C88.792 58.1321 88.2366 57.9943 87.7707 57.7188C87.3077 57.4403 86.9497 57.0497 86.6969 56.5469C86.4469 56.0412 86.3219 55.4489 86.3219 54.7699C86.3219 54.0994 86.4469 53.5085 86.6969 52.9972C86.9497 52.4858 87.302 52.0866 87.7537 51.7997C88.2082 51.5128 88.7395 51.3693 89.3474 51.3693C89.7168 51.3693 90.0747 51.4304 90.4213 51.5526C90.7679 51.6747 91.079 51.8665 91.3545 52.1278C91.6301 52.3892 91.8474 52.7287 92.0065 53.1463C92.1656 53.5611 92.2452 54.0653 92.2452 54.6591V55.1108H87.042V54.1562H90.9966C90.9966 53.821 90.9284 53.5241 90.792 53.2656C90.6557 53.0043 90.4639 52.7983 90.2168 52.6477C89.9724 52.4972 89.6855 52.4219 89.356 52.4219C88.998 52.4219 88.6855 52.5099 88.4185 52.6861C88.1543 52.8594 87.9497 53.0866 87.8048 53.3679C87.6628 53.6463 87.5918 53.9489 87.5918 54.2756V55.0213C87.5918 55.4588 87.6685 55.831 87.8219 56.1378C87.9781 56.4446 88.1954 56.679 88.4739 56.8409C88.7523 57 89.0776 57.0795 89.4497 57.0795C89.6912 57.0795 89.9114 57.0455 90.1102 56.9773C90.3091 56.9062 90.481 56.8011 90.6258 56.6619C90.7707 56.5227 90.8815 56.3509 90.9582 56.1463L92.1642 56.3636C92.0676 56.7187 91.8943 57.0298 91.6443 57.2969C91.3972 57.5611 91.0861 57.767 90.7111 57.9148C90.3389 58.0597 89.9142 58.1321 89.4369 58.1321Z" fill="white"/>
<path d="M6.77273 27.9091V38H1.93182V20.5455H6.54545V23.625H6.75C7.13636 22.6098 7.78409 21.8068 8.69318 21.2159C9.60227 20.6174 10.7045 20.3182 12 20.3182C13.2121 20.3182 14.2689 20.5833 15.1705 21.1136C16.072 21.6439 16.7727 22.4015 17.2727 23.3864C17.7727 24.3636 18.0227 25.5303 18.0227 26.8864V38H13.1818V27.75C13.1894 26.6818 12.9167 25.8485 12.3636 25.25C11.8106 24.6439 11.0492 24.3409 10.0795 24.3409C9.42803 24.3409 8.85227 24.4811 8.35227 24.7614C7.85985 25.0417 7.47348 25.4508 7.19318 25.9886C6.92045 26.5189 6.7803 27.1591 6.77273 27.9091ZM30.0153 38.3295C28.9017 38.3295 27.9093 38.1364 27.0381 37.75C26.1669 37.3561 25.4775 36.7765 24.9699 36.0114C24.4699 35.2386 24.2199 34.2765 24.2199 33.125C24.2199 32.1553 24.3979 31.3409 24.754 30.6818C25.11 30.0227 25.5949 29.4924 26.2085 29.0909C26.8222 28.6894 27.5191 28.3864 28.2994 28.1818C29.0873 27.9773 29.9131 27.8333 30.7767 27.75C31.7919 27.6439 32.61 27.5455 33.2313 27.4545C33.8525 27.3561 34.3032 27.2121 34.5835 27.0227C34.8638 26.8333 35.004 26.553 35.004 26.1818V26.1136C35.004 25.3939 34.7767 24.8371 34.3222 24.4432C33.8752 24.0492 33.2388 23.8523 32.4131 23.8523C31.5419 23.8523 30.8487 24.0455 30.3335 24.4318C29.8184 24.8106 29.4775 25.2879 29.3108 25.8636L24.8335 25.5C25.0608 24.4394 25.5078 23.5227 26.1744 22.75C26.8411 21.9697 27.7009 21.3712 28.754 20.9545C29.8146 20.5303 31.0419 20.3182 32.4358 20.3182C33.4055 20.3182 34.3335 20.4318 35.2199 20.6591C36.1138 20.8864 36.9055 21.2386 37.5949 21.7159C38.2919 22.1932 38.8411 22.8068 39.2426 23.5568C39.6441 24.2992 39.8449 25.1894 39.8449 26.2273V38H35.254V35.5795H35.1176C34.8373 36.125 34.4623 36.6061 33.9926 37.0227C33.5229 37.4318 32.9585 37.7538 32.2994 37.9886C31.6403 38.2159 30.879 38.3295 30.0153 38.3295ZM31.4017 34.9886C32.1138 34.9886 32.7426 34.8485 33.2881 34.5682C33.8335 34.2803 34.2616 33.8939 34.5722 33.4091C34.8828 32.9242 35.0381 32.375 35.0381 31.7614V29.9091C34.8866 30.0076 34.6782 30.0985 34.4131 30.1818C34.1555 30.2576 33.8638 30.3295 33.5381 30.3977C33.2123 30.4583 32.8866 30.5152 32.5608 30.5682C32.235 30.6136 31.9396 30.6553 31.6744 30.6932C31.1063 30.7765 30.61 30.9091 30.1858 31.0909C29.7616 31.2727 29.432 31.5189 29.1972 31.8295C28.9623 32.1326 28.8449 32.5114 28.8449 32.9659C28.8449 33.625 29.0835 34.1288 29.5608 34.4773C30.0456 34.8182 30.6593 34.9886 31.4017 34.9886ZM56.0847 20.5455V24.1818H45.5733V20.5455H56.0847ZM47.9597 16.3636H52.8006V32.6364C52.8006 33.0833 52.8688 33.4318 53.0051 33.6818C53.1415 33.9242 53.3309 34.0947 53.5733 34.1932C53.8233 34.2917 54.1112 34.3409 54.4369 34.3409C54.6642 34.3409 54.8915 34.322 55.1188 34.2841C55.346 34.2386 55.5203 34.2045 55.6415 34.1818L56.4028 37.7841C56.1604 37.8598 55.8195 37.947 55.3801 38.0455C54.9407 38.1515 54.4066 38.2159 53.7778 38.2386C52.6112 38.2841 51.5884 38.1288 50.7097 37.7727C49.8384 37.4167 49.1604 36.8636 48.6756 36.1136C48.1907 35.3636 47.9521 34.4167 47.9597 33.2727V16.3636ZM62.4381 38V20.5455H67.279V38H62.4381ZM64.8699 18.2955C64.1502 18.2955 63.5328 18.0568 63.0176 17.5795C62.51 17.0947 62.2562 16.5152 62.2562 15.8409C62.2562 15.1742 62.51 14.6023 63.0176 14.125C63.5328 13.6402 64.1502 13.3977 64.8699 13.3977C65.5896 13.3977 66.2032 13.6402 66.7108 14.125C67.2259 14.6023 67.4835 15.1742 67.4835 15.8409C67.4835 16.5152 67.2259 17.0947 66.7108 17.5795C66.2032 18.0568 65.5896 18.2955 64.8699 18.2955ZM90.6295 20.5455L84.5273 38H79.0727L72.9705 20.5455H78.0841L81.7091 33.0341H81.8909L85.5045 20.5455H90.6295ZM103.699 38.3409C101.903 38.3409 100.358 37.9773 99.0625 37.25C97.7746 36.5152 96.7822 35.4773 96.0852 34.1364C95.3883 32.7879 95.0398 31.1932 95.0398 29.3523C95.0398 27.5568 95.3883 25.9811 96.0852 24.625C96.7822 23.2689 97.7633 22.2121 99.0284 21.4545C100.301 20.697 101.794 20.3182 103.506 20.3182C104.657 20.3182 105.729 20.5038 106.722 20.875C107.722 21.2386 108.593 21.7879 109.335 22.5227C110.085 23.2576 110.669 24.1818 111.085 25.2955C111.502 26.4015 111.71 27.697 111.71 29.1818V30.5114H96.9716V27.5114H107.153C107.153 26.8144 107.002 26.197 106.699 25.6591C106.396 25.1212 105.975 24.7008 105.438 24.3977C104.907 24.0871 104.29 23.9318 103.585 23.9318C102.85 23.9318 102.199 24.1023 101.631 24.4432C101.07 24.7765 100.631 25.2273 100.312 25.7955C99.9943 26.3561 99.8314 26.9811 99.8239 27.6705V30.5227C99.8239 31.3864 99.983 32.1326 100.301 32.7614C100.627 33.3902 101.085 33.875 101.676 34.2159C102.267 34.5568 102.968 34.7273 103.778 34.7273C104.316 34.7273 104.809 34.6515 105.256 34.5C105.703 34.3485 106.085 34.1212 106.403 33.8182C106.722 33.5152 106.964 33.1439 107.131 32.7045L111.608 33C111.381 34.0758 110.915 35.0152 110.21 35.8182C109.513 36.6136 108.612 37.2348 107.506 37.6818C106.407 38.1212 105.138 38.3409 103.699 38.3409ZM120.899 38.2955C120.149 38.2955 119.505 38.0303 118.967 37.5C118.437 36.9621 118.172 36.3182 118.172 35.5682C118.172 34.8258 118.437 34.1894 118.967 33.6591C119.505 33.1288 120.149 32.8636 120.899 32.8636C121.626 32.8636 122.262 33.1288 122.808 33.6591C123.353 34.1894 123.626 34.8258 123.626 35.5682C123.626 36.0682 123.497 36.5265 123.24 36.9432C122.99 37.3523 122.66 37.6818 122.251 37.9318C121.842 38.1742 121.391 38.2955 120.899 38.2955Z" fill="white"/>
<path d="M25.959 45.1449C25.5442 45.1449 25.1692 45.0682 24.834 44.9148C24.4988 44.7585 24.2332 44.5327 24.0371 44.2372C23.844 43.9418 23.7474 43.5795 23.7474 43.1506C23.7474 42.7812 23.8184 42.4773 23.9604 42.2386C24.1025 42 24.2942 41.8111 24.5357 41.6719C24.7772 41.5327 25.0471 41.4276 25.3454 41.3565C25.6437 41.2855 25.9477 41.2315 26.2573 41.1946C26.6494 41.1491 26.9675 41.1122 27.2119 41.0838C27.4562 41.0526 27.6337 41.0028 27.7445 40.9347C27.8553 40.8665 27.9107 40.7557 27.9107 40.6023V40.5724C27.9107 40.2003 27.8056 39.9119 27.5954 39.7074C27.388 39.5028 27.0783 39.4006 26.6664 39.4006C26.2374 39.4006 25.8994 39.4957 25.6522 39.6861C25.4079 39.8736 25.2388 40.0824 25.1451 40.3125L23.9477 40.0398C24.0897 39.642 24.2971 39.321 24.5698 39.0767C24.8454 38.8295 25.1621 38.6506 25.5201 38.5398C25.8781 38.4261 26.2545 38.3693 26.6494 38.3693C26.9107 38.3693 27.1877 38.4006 27.4803 38.4631C27.7758 38.5227 28.0513 38.6335 28.307 38.7955C28.5656 38.9574 28.7772 39.1889 28.942 39.4901C29.1067 39.7884 29.1891 40.1761 29.1891 40.6534V45H27.9448V44.1051H27.8937C27.8113 44.2699 27.6877 44.4318 27.5229 44.5909C27.3582 44.75 27.1465 44.8821 26.888 44.9872C26.6295 45.0923 26.3198 45.1449 25.959 45.1449ZM26.236 44.1222C26.5883 44.1222 26.8894 44.0526 27.1394 43.9134C27.3923 43.7741 27.584 43.5923 27.7147 43.3679C27.8482 43.1406 27.915 42.8977 27.915 42.6392V41.7955C27.8695 41.8409 27.7815 41.8835 27.6508 41.9233C27.5229 41.9602 27.3766 41.9929 27.2119 42.0213C27.0471 42.0469 26.8866 42.071 26.7303 42.0938C26.5741 42.1136 26.4434 42.1307 26.3383 42.1449C26.0911 42.1761 25.8653 42.2287 25.6607 42.3026C25.459 42.3764 25.2971 42.483 25.1749 42.6222C25.0556 42.7585 24.996 42.9403 24.996 43.1676C24.996 43.483 25.1124 43.7216 25.3454 43.8835C25.5783 44.0426 25.8752 44.1222 26.236 44.1222ZM36.9911 40.0526L35.8362 40.2571C35.7879 40.1094 35.7112 39.9687 35.6061 39.8352C35.5038 39.7017 35.3646 39.5923 35.1885 39.5071C35.0124 39.4219 34.7922 39.3793 34.528 39.3793C34.1672 39.3793 33.8661 39.4602 33.6246 39.6222C33.3831 39.7812 33.2624 39.9872 33.2624 40.2401C33.2624 40.4588 33.3433 40.6349 33.5053 40.7685C33.6672 40.902 33.9286 41.0114 34.2893 41.0966L35.3291 41.3352C35.9314 41.4744 36.3803 41.6889 36.6757 41.9787C36.9712 42.2685 37.1189 42.6449 37.1189 43.108C37.1189 43.5 37.0053 43.8494 36.778 44.1562C36.5536 44.4602 36.2396 44.6989 35.8362 44.8722C35.4357 45.0455 34.9712 45.1321 34.4428 45.1321C33.7098 45.1321 33.1118 44.9759 32.6487 44.6634C32.1857 44.348 31.9016 43.9006 31.7964 43.321L33.028 43.1335C33.1047 43.4545 33.2624 43.6974 33.501 43.8622C33.7396 44.0241 34.0507 44.1051 34.4342 44.1051C34.8518 44.1051 35.1857 44.0185 35.4357 43.8452C35.6857 43.669 35.8107 43.4545 35.8107 43.2017C35.8107 42.9972 35.7339 42.8253 35.5805 42.6861C35.43 42.5469 35.1984 42.4418 34.8859 42.3707L33.778 42.1278C33.1672 41.9886 32.7155 41.767 32.4229 41.4631C32.1331 41.1591 31.9882 40.7741 31.9882 40.3082C31.9882 39.9219 32.0962 39.5838 32.3121 39.294C32.528 39.0043 32.8263 38.7784 33.207 38.6165C33.5876 38.4517 34.0237 38.3693 34.5152 38.3693C35.2226 38.3693 35.7794 38.5227 36.1857 38.8295C36.5919 39.1335 36.8604 39.5412 36.9911 40.0526ZM44.901 47.4545C44.7107 47.4545 44.5374 47.4389 44.3811 47.4077C44.2249 47.3793 44.1084 47.348 44.0317 47.3139L44.3385 46.2699C44.5714 46.3324 44.7788 46.3594 44.9607 46.3509C45.1425 46.3423 45.303 46.2741 45.4422 46.1463C45.5842 46.0185 45.7092 45.8097 45.8172 45.5199L45.9749 45.0852L43.58 38.4545H44.9436L46.6013 43.5341H46.6695L48.3271 38.4545H49.695L46.9976 45.8736C46.8726 46.2145 46.7135 46.5028 46.5203 46.7386C46.3271 46.9773 46.097 47.1563 45.83 47.2756C45.5629 47.3949 45.2533 47.4545 44.901 47.4545ZM54.6269 45.1321C54.0133 45.1321 53.4778 44.9915 53.0204 44.7102C52.563 44.429 52.2079 44.0355 51.955 43.5298C51.7022 43.0241 51.5758 42.4332 51.5758 41.7571C51.5758 41.0781 51.7022 40.4844 51.955 39.9759C52.2079 39.4673 52.563 39.0724 53.0204 38.7912C53.4778 38.5099 54.0133 38.3693 54.6269 38.3693C55.2406 38.3693 55.7761 38.5099 56.2334 38.7912C56.6908 39.0724 57.0459 39.4673 57.2988 39.9759C57.5516 40.4844 57.6781 41.0781 57.6781 41.7571C57.6781 42.4332 57.5516 43.0241 57.2988 43.5298C57.0459 44.0355 56.6908 44.429 56.2334 44.7102C55.7761 44.9915 55.2406 45.1321 54.6269 45.1321ZM54.6312 44.0625C55.0289 44.0625 55.3584 43.9574 55.6198 43.7472C55.8812 43.5369 56.0744 43.2571 56.1994 42.9077C56.3272 42.5582 56.3911 42.1733 56.3911 41.7528C56.3911 41.3352 56.3272 40.9517 56.1994 40.6023C56.0744 40.25 55.8812 39.9673 55.6198 39.7543C55.3584 39.5412 55.0289 39.4347 54.6312 39.4347C54.2306 39.4347 53.8982 39.5412 53.634 39.7543C53.3727 39.9673 53.1781 40.25 53.0502 40.6023C52.9252 40.9517 52.8627 41.3352 52.8627 41.7528C52.8627 42.1733 52.9252 42.5582 53.0502 42.9077C53.1781 43.2571 53.3727 43.5369 53.634 43.7472C53.8982 43.9574 54.2306 44.0625 54.6312 44.0625ZM64.4466 42.2855V38.4545H65.725V45H64.4722V43.8665H64.404C64.2534 44.2159 64.0119 44.5071 63.6795 44.7401C63.35 44.9702 62.9395 45.0852 62.448 45.0852C62.0276 45.0852 61.6554 44.9929 61.3315 44.8082C61.0105 44.6207 60.7577 44.3438 60.573 43.9773C60.3912 43.6108 60.3003 43.1577 60.3003 42.6179V38.4545H61.5744V42.4645C61.5744 42.9105 61.698 43.2656 61.9452 43.5298C62.1923 43.794 62.5134 43.9261 62.9082 43.9261C63.1469 43.9261 63.3841 43.8665 63.6199 43.7472C63.8585 43.6278 64.056 43.4474 64.2122 43.206C64.3713 42.9645 64.4494 42.6577 64.4466 42.2855ZM74.9176 45.1449C74.5028 45.1449 74.1278 45.0682 73.7926 44.9148C73.4574 44.7585 73.1918 44.5327 72.9957 44.2372C72.8026 43.9418 72.706 43.5795 72.706 43.1506C72.706 42.7812 72.777 42.4773 72.919 42.2386C73.0611 42 73.2528 41.8111 73.4943 41.6719C73.7358 41.5327 74.0057 41.4276 74.304 41.3565C74.6023 41.2855 74.9063 41.2315 75.2159 41.1946C75.608 41.1491 75.9261 41.1122 76.1705 41.0838C76.4148 41.0526 76.5923 41.0028 76.7031 40.9347C76.8139 40.8665 76.8693 40.7557 76.8693 40.6023V40.5724C76.8693 40.2003 76.7642 39.9119 76.554 39.7074C76.3466 39.5028 76.0369 39.4006 75.625 39.4006C75.196 39.4006 74.858 39.4957 74.6108 39.6861C74.3665 39.8736 74.1974 40.0824 74.1037 40.3125L72.9062 40.0398C73.0483 39.642 73.2557 39.321 73.5284 39.0767C73.804 38.8295 74.1207 38.6506 74.4787 38.5398C74.8366 38.4261 75.2131 38.3693 75.608 38.3693C75.8693 38.3693 76.1463 38.4006 76.4389 38.4631C76.7344 38.5227 77.0099 38.6335 77.2656 38.7955C77.5241 38.9574 77.7358 39.1889 77.9006 39.4901C78.0653 39.7884 78.1477 40.1761 78.1477 40.6534V45H76.9034V44.1051H76.8523C76.7699 44.2699 76.6463 44.4318 76.4815 44.5909C76.3168 44.75 76.1051 44.8821 75.8466 44.9872C75.5881 45.0923 75.2784 45.1449 74.9176 45.1449ZM75.1946 44.1222C75.5469 44.1222 75.848 44.0526 76.098 43.9134C76.3509 43.7741 76.5426 43.5923 76.6733 43.3679C76.8068 43.1406 76.8736 42.8977 76.8736 42.6392V41.7955C76.8281 41.8409 76.7401 41.8835 76.6094 41.9233C76.4815 41.9602 76.3352 41.9929 76.1705 42.0213C76.0057 42.0469 75.8452 42.071 75.6889 42.0938C75.5327 42.1136 75.402 42.1307 75.2969 42.1449C75.0497 42.1761 74.8239 42.2287 74.6193 42.3026C74.4176 42.3764 74.2557 42.483 74.1335 42.6222C74.0142 42.7585 73.9545 42.9403 73.9545 43.1676C73.9545 43.483 74.071 43.7216 74.304 43.8835C74.5369 44.0426 74.8338 44.1222 75.1946 44.1222ZM81.0448 45V38.4545H82.2763V39.4943H82.3445C82.4638 39.142 82.6741 38.8651 82.9752 38.6634C83.2792 38.4588 83.6229 38.3565 84.0065 38.3565C84.086 38.3565 84.1798 38.3594 84.2877 38.3651C84.3985 38.3707 84.4852 38.3778 84.5477 38.3864V39.6051C84.4965 39.5909 84.4056 39.5753 84.2749 39.5582C84.1442 39.5384 84.0136 39.5284 83.8829 39.5284C83.5817 39.5284 83.3133 39.5923 83.0775 39.7202C82.8445 39.8452 82.6599 40.0199 82.5235 40.2443C82.3871 40.4659 82.319 40.7187 82.319 41.0028V45H81.0448ZM89.4369 45.1321C88.792 45.1321 88.2366 44.9943 87.7707 44.7188C87.3077 44.4403 86.9497 44.0497 86.6969 43.5469C86.4469 43.0412 86.3219 42.4489 86.3219 41.7699C86.3219 41.0994 86.4469 40.5085 86.6969 39.9972C86.9497 39.4858 87.302 39.0866 87.7537 38.7997C88.2082 38.5128 88.7395 38.3693 89.3474 38.3693C89.7168 38.3693 90.0747 38.4304 90.4213 38.5526C90.7679 38.6747 91.079 38.8665 91.3545 39.1278C91.6301 39.3892 91.8474 39.7287 92.0065 40.1463C92.1656 40.5611 92.2452 41.0653 92.2452 41.6591V42.1108H87.042V41.1562H90.9966C90.9966 40.821 90.9284 40.5241 90.792 40.2656C90.6557 40.0043 90.4639 39.7983 90.2168 39.6477C89.9724 39.4972 89.6855 39.4219 89.356 39.4219C88.998 39.4219 88.6855 39.5099 88.4185 39.6861C88.1543 39.8594 87.9497 40.0866 87.8048 40.3679C87.6628 40.6463 87.5918 40.9489 87.5918 41.2756V42.0213C87.5918 42.4588 87.6685 42.831 87.8219 43.1378C87.9781 43.4446 88.1954 43.679 88.4739 43.8409C88.7523 44 89.0776 44.0795 89.4497 44.0795C89.6912 44.0795 89.9114 44.0455 90.1102 43.9773C90.3091 43.9062 90.481 43.8011 90.6258 43.6619C90.7707 43.5227 90.8815 43.3509 90.9582 43.1463L92.1642 43.3636C92.0676 43.7187 91.8943 44.0298 91.6443 44.2969C91.3972 44.5611 91.0861 44.767 90.7111 44.9148C90.3389 45.0597 89.9142 45.1321 89.4369 45.1321Z" fill="#231F20"/>
<path d="M6.77273 14.9091V25H1.93182V7.54545H6.54545V10.625H6.75C7.13636 9.60985 7.78409 8.80682 8.69318 8.21591C9.60227 7.61742 10.7045 7.31818 12 7.31818C13.2121 7.31818 14.2689 7.58333 15.1705 8.11364C16.072 8.64394 16.7727 9.40151 17.2727 10.3864C17.7727 11.3636 18.0227 12.5303 18.0227 13.8864V25H13.1818V14.75C13.1894 13.6818 12.9167 12.8485 12.3636 12.25C11.8106 11.6439 11.0492 11.3409 10.0795 11.3409C9.42803 11.3409 8.85227 11.4811 8.35227 11.7614C7.85985 12.0417 7.47348 12.4508 7.19318 12.9886C6.92045 13.5189 6.7803 14.1591 6.77273 14.9091ZM30.0153 25.3295C28.9017 25.3295 27.9093 25.1364 27.0381 24.75C26.1669 24.3561 25.4775 23.7765 24.9699 23.0114C24.4699 22.2386 24.2199 21.2765 24.2199 20.125C24.2199 19.1553 24.3979 18.3409 24.754 17.6818C25.11 17.0227 25.5949 16.4924 26.2085 16.0909C26.8222 15.6894 27.5191 15.3864 28.2994 15.1818C29.0873 14.9773 29.9131 14.8333 30.7767 14.75C31.7919 14.6439 32.61 14.5455 33.2313 14.4545C33.8525 14.3561 34.3032 14.2121 34.5835 14.0227C34.8638 13.8333 35.004 13.553 35.004 13.1818V13.1136C35.004 12.3939 34.7767 11.8371 34.3222 11.4432C33.8752 11.0492 33.2388 10.8523 32.4131 10.8523C31.5419 10.8523 30.8487 11.0455 30.3335 11.4318C29.8184 11.8106 29.4775 12.2879 29.3108 12.8636L24.8335 12.5C25.0608 11.4394 25.5078 10.5227 26.1744 9.75C26.8411 8.9697 27.7009 8.37121 28.754 7.95454C29.8146 7.5303 31.0419 7.31818 32.4358 7.31818C33.4055 7.31818 34.3335 7.43182 35.2199 7.65909C36.1138 7.88636 36.9055 8.23864 37.5949 8.71591C38.2919 9.19318 38.8411 9.80682 39.2426 10.5568C39.6441 11.2992 39.8449 12.1894 39.8449 13.2273V25H35.254V22.5795H35.1176C34.8373 23.125 34.4623 23.6061 33.9926 24.0227C33.5229 24.4318 32.9585 24.7538 32.2994 24.9886C31.6403 25.2159 30.879 25.3295 30.0153 25.3295ZM31.4017 21.9886C32.1138 21.9886 32.7426 21.8485 33.2881 21.5682C33.8335 21.2803 34.2616 20.8939 34.5722 20.4091C34.8828 19.9242 35.0381 19.375 35.0381 18.7614V16.9091C34.8866 17.0076 34.6782 17.0985 34.4131 17.1818C34.1555 17.2576 33.8638 17.3295 33.5381 17.3977C33.2123 17.4583 32.8866 17.5152 32.5608 17.5682C32.235 17.6136 31.9396 17.6553 31.6744 17.6932C31.1063 17.7765 30.61 17.9091 30.1858 18.0909C29.7616 18.2727 29.432 18.5189 29.1972 18.8295C28.9623 19.1326 28.8449 19.5114 28.8449 19.9659C28.8449 20.625 29.0835 21.1288 29.5608 21.4773C30.0456 21.8182 30.6593 21.9886 31.4017 21.9886ZM56.0847 7.54545V11.1818H45.5733V7.54545H56.0847ZM47.9597 3.36364H52.8006V19.6364C52.8006 20.0833 52.8688 20.4318 53.0051 20.6818C53.1415 20.9242 53.3309 21.0947 53.5733 21.1932C53.8233 21.2917 54.1112 21.3409 54.4369 21.3409C54.6642 21.3409 54.8915 21.322 55.1188 21.2841C55.346 21.2386 55.5203 21.2045 55.6415 21.1818L56.4028 24.7841C56.1604 24.8598 55.8195 24.947 55.3801 25.0455C54.9407 25.1515 54.4066 25.2159 53.7778 25.2386C52.6112 25.2841 51.5884 25.1288 50.7097 24.7727C49.8384 24.4167 49.1604 23.8636 48.6756 23.1136C48.1907 22.3636 47.9521 21.4167 47.9597 20.2727V3.36364ZM62.4381 25V7.54545H67.279V25H62.4381ZM64.8699 5.29545C64.1502 5.29545 63.5328 5.05682 63.0176 4.57954C62.51 4.0947 62.2562 3.51515 62.2562 2.84091C62.2562 2.17424 62.51 1.60227 63.0176 1.125C63.5328 0.640151 64.1502 0.397726 64.8699 0.397726C65.5896 0.397726 66.2032 0.640151 66.7108 1.125C67.2259 1.60227 67.4835 2.17424 67.4835 2.84091C67.4835 3.51515 67.2259 4.0947 66.7108 4.57954C66.2032 5.05682 65.5896 5.29545 64.8699 5.29545ZM90.6295 7.54545L84.5273 25H79.0727L72.9705 7.54545H78.0841L81.7091 20.0341H81.8909L85.5045 7.54545H90.6295ZM103.699 25.3409C101.903 25.3409 100.358 24.9773 99.0625 24.25C97.7746 23.5152 96.7822 22.4773 96.0852 21.1364C95.3883 19.7879 95.0398 18.1932 95.0398 16.3523C95.0398 14.5568 95.3883 12.9811 96.0852 11.625C96.7822 10.2689 97.7633 9.21212 99.0284 8.45454C100.301 7.69697 101.794 7.31818 103.506 7.31818C104.657 7.31818 105.729 7.50379 106.722 7.875C107.722 8.23864 108.593 8.78788 109.335 9.52273C110.085 10.2576 110.669 11.1818 111.085 12.2955C111.502 13.4015 111.71 14.697 111.71 16.1818V17.5114H96.9716V14.5114H107.153C107.153 13.8144 107.002 13.197 106.699 12.6591C106.396 12.1212 105.975 11.7008 105.438 11.3977C104.907 11.0871 104.29 10.9318 103.585 10.9318C102.85 10.9318 102.199 11.1023 101.631 11.4432C101.07 11.7765 100.631 12.2273 100.312 12.7955C99.9943 13.3561 99.8314 13.9811 99.8239 14.6705V17.5227C99.8239 18.3864 99.983 19.1326 100.301 19.7614C100.627 20.3902 101.085 20.875 101.676 21.2159C102.267 21.5568 102.968 21.7273 103.778 21.7273C104.316 21.7273 104.809 21.6515 105.256 21.5C105.703 21.3485 106.085 21.1212 106.403 20.8182C106.722 20.5152 106.964 20.1439 107.131 19.7045L111.608 20C111.381 21.0758 110.915 22.0152 110.21 22.8182C109.513 23.6136 108.612 24.2348 107.506 24.6818C106.407 25.1212 105.138 25.3409 103.699 25.3409ZM120.899 25.2955C120.149 25.2955 119.505 25.0303 118.967 24.5C118.437 23.9621 118.172 23.3182 118.172 22.5682C118.172 21.8258 118.437 21.1894 118.967 20.6591C119.505 20.1288 120.149 19.8636 120.899 19.8636C121.626 19.8636 122.262 20.1288 122.808 20.6591C123.353 21.1894 123.626 21.8258 123.626 22.5682C123.626 23.0682 123.497 23.5265 123.24 23.9432C122.99 24.3523 122.66 24.6818 122.251 24.9318C121.842 25.1742 121.391 25.2955 120.899 25.2955Z" fill="#231F20"/>
</svg>
