<svg width="146" height="128" viewBox="0 0 146 128" fill="none" xmlns="http://www.w3.org/2000/svg">
<g clip-path="url(#clip0_104_347)">
<path d="M7.04482 43.6185L0.00506468 39.6466C-0.0898939 35.397 0.852132 31.1885 2.74934 27.3864C4.37239 34.7657 12.9139 38.2766 16.8549 44.7198C18.0687 46.7387 18.8134 49.0055 19.0337 51.3519C19.2541 53.6984 18.9446 56.0645 18.128 58.2748L18.591 63.9963C14.9526 62.9047 11.5937 61.0358 8.74575 58.5186C5.89778 56.0014 3.62844 52.8956 2.09409 49.4152C1.25264 47.4541 0.661053 45.3948 0.333307 43.2857C3.61554 43.6355 7.04482 43.6185 7.04482 43.6185Z" fill="#F2F2F2"/>
<path d="M133.596 115.879L133.812 111.016C136.062 109.812 138.572 109.175 141.124 109.162C137.612 112.038 138.051 117.583 135.67 121.45C134.918 122.651 133.906 123.667 132.709 124.422C131.513 125.178 130.161 125.654 128.756 125.815L125.817 127.618C125.414 125.366 125.502 123.053 126.077 120.839C126.652 118.624 127.7 116.561 129.147 114.792C129.969 113.807 130.911 112.93 131.952 112.181C132.656 114.04 133.596 115.879 133.596 115.879Z" fill="#F2F2F2"/>
<path d="M126.024 125.115L123.363 125.115L122.097 114.833L126.025 114.834L126.024 125.115Z" fill="#FFB6B6"/>
<path d="M126.703 127.699L118.123 127.699V127.59C118.123 126.703 118.474 125.852 119.101 125.225C119.727 124.597 120.576 124.245 121.462 124.245L123.03 123.054L125.954 124.245L126.703 124.245L126.703 127.699Z" fill="#2F2E41"/>
<path d="M113.661 125.115L111.001 125.115L109.735 114.833L113.662 114.834L113.661 125.115Z" fill="#FFB6B6"/>
<path d="M114.34 127.699L105.76 127.699V127.59C105.76 126.703 106.112 125.852 106.738 125.225C107.365 124.597 108.214 124.245 109.1 124.245L110.667 123.054L113.591 124.245L114.34 124.245L114.34 127.699Z" fill="#2F2E41"/>
<path d="M112.51 68.9048L129.818 69.3382C133.105 71.1268 133.155 74.9979 132.078 79.5939C132.078 79.5939 132.442 82.3257 131.715 83.0541C130.987 83.7826 130.624 83.7826 130.987 85.0574C131.351 86.3323 129.43 88.4144 129.663 88.6482C129.896 88.8819 130.442 90.1567 130.442 90.1567L128.624 100.537C128.624 100.537 127.351 118.567 126.988 118.931C126.624 119.295 126.26 118.931 126.624 119.842C126.988 120.752 127.351 120.388 126.988 120.752C126.666 121.1 126.362 121.465 126.079 121.845H121.683C121.683 121.845 121.352 120.024 121.352 119.842C121.352 119.66 120.988 118.567 120.988 118.385C120.988 118.203 121.31 117.881 121.31 117.881C121.421 117.511 121.496 117.131 121.534 116.746C121.534 116.382 122.624 102.359 122.624 102.359L120.443 84.1469L115.17 101.994C115.17 101.994 115.17 117.656 114.807 118.021C114.443 118.385 114.443 118.203 114.625 118.931C114.807 119.66 115.534 119.478 114.989 120.024C114.443 120.57 114.261 119.66 114.443 120.57L114.625 121.481L109.171 121.559C109.171 121.559 108.444 120.024 108.807 119.478C109.171 118.931 109.149 119.08 108.706 118.186C108.262 117.292 108.08 117.11 108.262 116.928C108.444 116.746 108.444 115.777 108.444 115.777L109.353 98.352C109.353 98.352 109.535 79.9582 109.535 79.4118C109.548 79.1307 109.497 78.8502 109.384 78.5925V77.8509L110.08 75.2231L112.51 68.9048Z" fill="#2F2E41"/>
<path d="M122.907 32.8524C125.877 32.8524 128.285 30.4405 128.285 27.4652C128.285 24.49 125.877 22.0781 122.907 22.0781C119.937 22.0781 117.529 24.49 117.529 27.4652C117.529 30.4405 119.937 32.8524 122.907 32.8524Z" fill="#FFB6B6"/>
<path d="M120.218 36.413C119.06 37.103 118.367 38.3707 117.969 39.6607C117.232 42.049 116.789 44.5184 116.648 47.0141L116.228 54.4859L111.024 70.3955C115.534 74.2186 132.488 71.2644 132.488 71.2644C132.488 71.2644 133.009 71.0906 132.488 70.5693C131.968 70.0479 131.461 70.5098 131.982 69.9885C132.502 69.4671 132.143 70.0479 131.97 69.5266C131.796 69.0052 131.97 69.3528 132.143 69.179C132.317 69.0052 130.8 67.4412 130.8 67.4412L132.188 58.309L133.923 39.8885C131.841 37.2819 127.655 35.7452 127.655 35.7452L126.573 33.7947L121.164 34.2281L120.218 36.413Z" fill="#E6E6E6"/>
<path d="M119.481 24.3038C119.689 24.3054 119.896 24.3326 120.097 24.3848C120.494 24.4805 120.898 24.5482 121.304 24.5876C122.549 24.7049 123.719 25.2368 124.627 26.0982C125.535 26.9597 126.128 28.101 126.312 29.34C126.625 29.067 127.336 28.565 127.919 29.0316C127.928 29.039 127.933 29.0428 127.953 29.0331C128.34 28.8491 129.028 26.5851 129.048 24.5917C129.059 23.5337 128.893 22.1826 128.039 21.7548L127.994 21.7322L127.982 21.6832C127.925 21.4452 127.287 21.039 126.179 20.7228C124.165 20.1481 121.163 19.0287 119.473 20.6761C119.345 21.2315 118.929 22.42 118.508 22.5547C118.043 22.7038 117.64 22.8325 117.577 23.4046C117.524 24.2187 117.528 25.0355 117.589 25.8491C117.746 25.3513 118.056 24.9155 118.474 24.6032C118.771 24.4028 119.122 24.2983 119.481 24.3038Z" fill="#2F2E41"/>
<path d="M109.471 54.0699L118.256 48.4342L113.831 42.5424L109.462 47.9259L95.8493 48.7623C95.4913 48.4077 95.038 48.1652 94.5447 48.0643C94.0515 47.9633 93.5395 48.0083 93.0714 48.1938C92.6032 48.3793 92.199 48.6972 91.9081 49.1088C91.6172 49.5204 91.4521 50.0079 91.433 50.5118C91.4139 51.0158 91.5416 51.5144 91.8005 51.947C92.0594 52.3795 92.4383 52.7272 92.8911 52.9477C93.3439 53.1682 93.8509 53.252 94.3504 53.1889C94.8499 53.1257 95.3202 52.9183 95.7041 52.592L109.471 54.0699Z" fill="#FFB6B6"/>
<path d="M126.409 40.568C126.919 43.6589 117.291 49.5612 117.291 49.5612C117.291 48.8357 111.544 54.3127 111.285 53.711C110.547 52.0009 110.029 47.9506 108.999 47.3023C108.41 46.9315 112.547 43.4487 112.547 43.4487C112.547 43.4487 114.713 41.2632 117.554 38.5066C118.343 37.7123 119.32 37.1309 120.394 36.8166C121.468 36.5022 122.603 36.465 123.695 36.7086C123.695 36.7086 125.899 37.4771 126.409 40.568Z" fill="#E6E6E6"/>
<path d="M144.516 55.5492L138.705 46.8706L132.918 51.4266L138.384 55.6882L139.507 69.3037C139.16 69.6698 138.928 70.1289 138.838 70.6251C138.747 71.1212 138.803 71.633 138.998 72.0979C139.193 72.5628 139.519 72.9609 139.936 73.2435C140.353 73.5262 140.843 73.6812 141.346 73.6896C141.85 73.6981 142.345 73.5597 142.771 73.2912C143.197 73.0228 143.536 72.6359 143.747 72.1778C143.957 71.7196 144.03 71.2101 143.956 70.7112C143.883 70.2123 143.666 69.7456 143.332 69.3681L144.516 55.5492Z" fill="#FFB6B6"/>
<path d="M130.681 38.8716C133.755 38.2955 139.85 47.8133 139.85 47.8133C139.126 47.8288 144.714 53.4681 144.119 53.7406C142.428 54.5152 138.396 55.12 137.771 56.1654C137.414 56.7633 133.85 52.6936 133.85 52.6936C133.85 52.6936 131.623 50.571 128.812 47.7832C128.002 47.0098 127.401 46.0439 127.065 44.9753C126.728 43.9066 126.667 42.7701 126.887 41.6715C126.887 41.6715 127.607 39.4476 130.681 38.8716Z" fill="#E6E6E6"/>
<path d="M146 127.742C146 127.776 145.993 127.81 145.981 127.841C145.968 127.872 145.949 127.901 145.925 127.925C145.901 127.949 145.872 127.968 145.841 127.981C145.81 127.993 145.776 128 145.742 128H85.1005C85.0322 128 84.9667 127.973 84.9184 127.924C84.8701 127.876 84.843 127.81 84.843 127.742C84.843 127.674 84.8701 127.608 84.9184 127.56C84.9667 127.511 85.0322 127.484 85.1005 127.484H145.742C145.776 127.484 145.81 127.491 145.841 127.504C145.872 127.516 145.901 127.535 145.925 127.559C145.949 127.583 145.968 127.612 145.981 127.643C145.993 127.675 146 127.708 146 127.742Z" fill="#CCCCCC"/>
<path d="M89.822 49.5859H16.2247C15.0748 49.5872 13.9725 50.0454 13.1594 50.8599C12.3463 51.6743 11.889 52.7786 11.8877 53.9304V99.8311C11.889 100.983 12.3464 102.087 13.1594 102.902C13.9725 103.716 15.0748 104.174 16.2247 104.176H89.822C90.9718 104.174 92.0742 103.716 92.8873 102.902C93.7004 102.087 94.1577 100.983 94.159 99.8311V53.9304C94.1577 52.7786 93.7004 51.6743 92.8873 50.8598C92.0743 50.0454 90.9719 49.5872 89.822 49.5859Z" fill="#BE94C6"/>
<path d="M89.822 49.5859H16.2247C15.0748 49.5872 13.9725 50.0454 13.1594 50.8599C12.3463 51.6743 11.889 52.7786 11.8877 53.9304V99.8311C11.889 100.983 12.3464 102.087 13.1594 102.902C13.9725 103.716 15.0748 104.174 16.2247 104.176H89.822C90.9718 104.174 92.0742 103.716 92.8873 102.902C93.7004 102.087 94.1577 100.983 94.159 99.8311V53.9304C94.1577 52.7786 93.7004 51.6743 92.8873 50.8598C92.0743 50.0454 90.9719 49.5872 89.822 49.5859ZM91.2453 82.557C91.2277 87.2299 89.3825 91.7099 86.1055 95.0357C82.8285 98.3615 78.3808 100.268 73.7166 100.347C66.2488 100.444 77.8485 100.482 68.8418 100.482C48.2464 100.482 26.7711 100.285 18.7585 100.157C17.7042 100.136 16.7003 99.7018 15.9609 98.9486C15.2216 98.1955 14.8055 97.1827 14.8014 96.1264V53.9338C14.8018 53.5556 14.9518 53.1929 15.2184 52.9251C15.4851 52.6573 15.8468 52.5062 16.2244 52.5049H89.8191C90.1966 52.5053 90.5585 52.6555 90.8258 52.9226C91.0931 53.1896 91.2439 53.5519 91.2453 53.93V82.557Z" fill="#3F3D56"/>
<path d="M80.7624 23.1549H24.689C24.1928 23.1556 23.709 23.3097 23.3036 23.5961C22.8981 23.8825 22.5908 24.2873 22.4235 24.7552L13.7634 49.0938C13.6341 49.4571 13.5938 49.8462 13.6458 50.2283C13.6979 50.6104 13.8407 50.9745 14.0624 51.2898C14.284 51.6051 14.578 51.8626 14.9196 52.0404C15.2612 52.2183 15.6404 52.3114 16.0254 52.312L91.2291 52.4457H91.2325C91.6304 52.4457 92.0222 52.3467 92.3726 52.1577C92.723 51.9687 93.0212 51.6955 93.2402 51.3627C93.4593 51.0299 93.5925 50.6478 93.6279 50.2507C93.6633 49.8536 93.5998 49.4539 93.443 49.0874L82.973 24.6151C82.7879 24.1815 82.4797 23.8119 82.0867 23.5523C81.6937 23.2927 81.2332 23.1545 80.7624 23.1549Z" fill="#3F3D56"/>
<path d="M93.6378 49.616C93.6376 49.9423 93.5713 50.2652 93.4431 50.5652L82.9737 69.4033C82.7873 69.836 82.4787 70.2046 82.0858 70.4637C81.6929 70.7229 81.233 70.8613 80.7626 70.8619H24.6899C24.1936 70.8614 23.7096 70.7076 23.3038 70.4213C22.898 70.1351 22.5903 69.7304 22.4225 69.2625L13.764 50.5587C13.6579 50.2607 13.6114 49.9447 13.6273 49.6288C13.6432 49.3128 13.721 49.003 13.8564 48.7172C13.9919 48.4314 14.1822 48.1751 14.4166 47.963C14.6509 47.7509 14.9247 47.5872 15.2223 47.4812C15.4797 47.3881 15.7513 47.3404 16.0249 47.3403L25.2114 47.323L28.9608 47.3165L78.2983 47.2298L82.0499 47.2233L91.2298 47.2059H91.232C91.87 47.206 92.4819 47.46 92.933 47.9119C93.3842 48.3639 93.6377 48.9768 93.6378 49.616Z" fill="#3F3D56"/>
<path d="M21.7423 84.0167C22.8542 84.0167 38.1234 84.9515 38.1234 86.0654C38.1234 87.1792 22.8542 88.0503 21.7423 88.0503C21.2084 88.0503 20.6963 87.8378 20.3187 87.4596C19.9411 87.0814 19.729 86.5684 19.729 86.0335C19.729 85.4986 19.9411 84.9857 20.3187 84.6074C20.6963 84.2292 21.2084 84.0167 21.7423 84.0167Z" fill="#3F3D56"/>
<path d="M77.2704 8.34851H29.9905C28.7234 8.34998 27.5086 8.85485 26.6126 9.75237C25.7166 10.6499 25.2126 11.8668 25.2112 13.1361V70.8619H80.7624C81.2185 70.8633 81.6654 70.7332 82.0497 70.4869V13.1361C82.0482 11.8668 81.5442 10.6499 80.6483 9.75237C79.7523 8.85485 78.5375 8.34998 77.2704 8.34851Z" fill="#E6E6E6"/>
<path d="M59.2244 12.2301H33.3138C32.16 12.2312 31.0537 12.6907 30.2377 13.5078C29.4216 14.3248 28.9624 15.4328 28.9607 16.5885V70.8619H78.2982V31.337C78.2924 26.2713 76.2809 21.4148 72.7052 17.8328C69.1294 14.2509 64.2813 12.2359 59.2244 12.2301Z" fill="white"/>
<path d="M69.8928 66.0419H37.366C37.0849 66.0419 36.8152 66.1538 36.6164 66.3529C36.4176 66.5521 36.3059 66.8222 36.3059 67.1038C36.3059 67.3855 36.4176 67.6556 36.6164 67.8548C36.8152 68.0539 37.0849 68.1658 37.366 68.1658H69.8928C70.174 68.1658 70.4436 68.0539 70.6424 67.8548C70.8412 67.6556 70.9529 67.3855 70.9529 67.1038C70.9529 66.8222 70.8412 66.5521 70.6424 66.3529C70.4436 66.1538 70.174 66.0419 69.8928 66.0419Z" fill="#E4E4E4"/>
<path d="M69.8929 61.8417H37.3662C37.0847 61.8417 36.8148 61.9537 36.6158 62.153C36.4167 62.3524 36.3049 62.6228 36.3049 62.9047C36.3049 63.1867 36.4167 63.4571 36.6158 63.6564C36.8148 63.8558 37.0847 63.9678 37.3662 63.9678H69.8929C70.1744 63.9678 70.4443 63.8558 70.6433 63.6564C70.8423 63.4571 70.9541 63.1867 70.9541 62.9047C70.9541 62.6228 70.8423 62.3524 70.6433 62.153C70.4443 61.9537 70.1744 61.8417 69.8929 61.8417Z" fill="#E4E4E4"/>
<path d="M51.4659 57.6436H37.366C37.0849 57.6436 36.8152 57.7554 36.6164 57.9546C36.4176 58.1538 36.3059 58.4239 36.3059 58.7055C36.3059 58.9872 36.4176 59.2573 36.6164 59.4565C36.8152 59.6556 37.0849 59.7675 37.366 59.7675H51.4659C51.747 59.7675 52.0167 59.6556 52.2155 59.4565C52.4143 59.2573 52.526 58.9872 52.526 58.7055C52.526 58.4239 52.4143 58.1538 52.2155 57.9546C52.0167 57.7554 51.747 57.6436 51.4659 57.6436Z" fill="#E4E4E4"/>
<path d="M69.8929 48.8488H37.3662C37.0847 48.8488 36.8148 48.9608 36.6158 49.1601C36.4167 49.3595 36.3049 49.6299 36.3049 49.9118C36.3049 50.1938 36.4167 50.4641 36.6158 50.6635C36.8148 50.8629 37.0847 50.9749 37.3662 50.9749H69.8929C70.1744 50.9749 70.4443 50.8629 70.6433 50.6635C70.8423 50.4641 70.9541 50.1938 70.9541 49.9118C70.9541 49.6299 70.8423 49.3595 70.6433 49.1601C70.4443 48.9608 70.1744 48.8488 69.8929 48.8488Z" fill="#E4E4E4"/>
<path d="M69.8928 44.6506H37.366C37.0849 44.6506 36.8152 44.7625 36.6164 44.9617C36.4176 45.1608 36.3059 45.431 36.3059 45.7126C36.3059 45.9943 36.4176 46.2644 36.6164 46.4635C36.8152 46.6627 37.0849 46.7746 37.366 46.7746H69.8928C70.174 46.7746 70.4436 46.6627 70.6424 46.4635C70.8412 46.2644 70.9529 45.9943 70.9529 45.7126C70.9529 45.431 70.8412 45.1608 70.6424 44.9617C70.4436 44.7625 70.174 44.6506 69.8928 44.6506Z" fill="#E4E4E4"/>
<path d="M51.466 40.4504H37.3662C37.0847 40.4504 36.8148 40.5624 36.6158 40.7618C36.4167 40.9612 36.3049 41.2316 36.3049 41.5135C36.3049 41.7954 36.4167 42.0658 36.6158 42.2652C36.8148 42.4646 37.0847 42.5766 37.3662 42.5766H51.466C51.7474 42.5766 52.0174 42.4646 52.2164 42.2652C52.4154 42.0658 52.5272 41.7954 52.5272 41.5135C52.5272 41.2316 52.4154 40.9612 52.2164 40.7618C52.0174 40.5624 51.7474 40.4504 51.466 40.4504Z" fill="#E4E4E4"/>
<path d="M69.8929 31.6556H37.3662C37.0847 31.6556 36.8148 31.7676 36.6158 31.967C36.4167 32.1664 36.3049 32.4368 36.3049 32.7187C36.3049 33.0006 36.4167 33.271 36.6158 33.4704C36.8148 33.6698 37.0847 33.7818 37.3662 33.7818H69.8929C70.1744 33.7818 70.4443 33.6698 70.6433 33.4704C70.8423 33.271 70.9541 33.0006 70.9541 32.7187C70.9541 32.4368 70.8423 32.1664 70.6433 31.967C70.4443 31.7676 70.1744 31.6556 69.8929 31.6556Z" fill="#BE94C6"/>
<path d="M69.8929 27.4575H37.3662C37.0847 27.4575 36.8148 27.5695 36.6158 27.7689C36.4167 27.9682 36.3049 28.2386 36.3049 28.5206C36.3049 28.8025 36.4167 29.0729 36.6158 29.2723C36.8148 29.4716 37.0847 29.5836 37.3662 29.5836H69.8929C70.1744 29.5836 70.4443 29.4716 70.6433 29.2723C70.8423 29.0729 70.9541 28.8025 70.9541 28.5206C70.9541 28.2386 70.8423 27.9682 70.6433 27.7689C70.4443 27.5695 70.1744 27.4575 69.8929 27.4575Z" fill="#BE94C6"/>
<path d="M51.466 23.2573H37.3662C37.0847 23.2573 36.8148 23.3693 36.6158 23.5687C36.4167 23.768 36.3049 24.0384 36.3049 24.3204C36.3049 24.6023 36.4167 24.8727 36.6158 25.0721C36.8148 25.2714 37.0847 25.3834 37.3662 25.3834H51.466C51.7474 25.3834 52.0174 25.2714 52.2164 25.0721C52.4154 24.8727 52.5272 24.6023 52.5272 24.3204C52.5272 24.0384 52.4154 23.768 52.2164 23.5687C52.0174 23.3693 51.7474 23.2573 51.466 23.2573Z" fill="#BE94C6"/>
<path d="M80.2772 16.542C84.8373 16.542 88.5339 12.8389 88.5339 8.271C88.5339 3.70305 84.8373 0 80.2772 0C75.7172 0 72.0205 3.70305 72.0205 8.271C72.0205 12.8389 75.7172 16.542 80.2772 16.542Z" fill="#BE94C6"/>
<path d="M79.1509 12.5757C79.0084 12.5757 78.8677 12.5424 78.7402 12.4785C78.6127 12.4146 78.5018 12.3219 78.4163 12.2076L76.1637 9.19893C76.091 9.1023 76.0379 8.99225 76.0077 8.87506C75.9775 8.75788 75.9706 8.63587 75.9876 8.51604C76.0045 8.3962 76.0449 8.28089 76.1064 8.1767C76.1678 8.07252 76.2493 7.98151 76.3459 7.9089C76.4426 7.83628 76.5526 7.78349 76.6697 7.75353C76.7867 7.72358 76.9085 7.71706 77.0281 7.73434C77.1477 7.75163 77.2627 7.79238 77.3665 7.85426C77.4704 7.91614 77.561 7.99794 77.6332 8.09496L79.1069 10.0632L82.8919 4.37589C83.027 4.17286 83.2371 4.03191 83.476 3.98406C83.7149 3.9362 83.9629 3.98536 84.1656 4.12071C84.3683 4.25607 84.509 4.46653 84.5567 4.70581C84.6045 4.94508 84.5554 5.19356 84.4203 5.39659L79.9152 12.166C79.8337 12.2884 79.7241 12.3895 79.5956 12.4607C79.467 12.5319 79.3233 12.5713 79.1765 12.5754C79.168 12.5755 79.1595 12.5757 79.1509 12.5757Z" fill="white"/>
</g>
<defs>
<clipPath id="clip0_104_347">
<rect width="146" height="128" fill="white"/>
</clipPath>
</defs>
</svg>
