<svg width="68" height="134" viewBox="0 0 68 134" fill="none" xmlns="http://www.w3.org/2000/svg">
<path d="M0.737305 31.6525H1.47019V11.6037C1.47019 10.0799 1.77075 8.57099 2.35472 7.16317C2.93868 5.75534 3.79461 4.47616 4.87364 3.39865C5.95266 2.32115 7.23365 1.46643 8.64347 0.883284C10.0533 0.300143 11.5643 1.16749e-06 13.0903 0H55.6265C57.1525 -3.11321e-06 58.6635 0.300133 60.0733 0.883271C61.4832 1.46641 62.7642 2.32113 63.8432 3.39863C64.9222 4.47613 65.7782 5.75531 66.3621 7.16313C66.9461 8.57095 67.2467 10.0799 67.2467 11.6037V121.593C67.2467 123.117 66.9461 124.626 66.3621 126.033C65.7782 127.441 64.9222 128.721 63.8432 129.798C62.7642 130.876 61.4832 131.73 60.0734 132.313C58.6636 132.897 57.1525 133.197 55.6266 133.197H13.0904C10.0085 133.197 7.05288 131.974 4.87368 129.798C2.69448 127.622 1.47021 124.671 1.4702 121.593V45.9236H0.737305V31.6525Z" fill="#3F3D56"/>
<path d="M12.6211 3.01856H18.1735C17.9182 3.64369 17.8207 4.32192 17.8897 4.99353C17.9587 5.66513 18.192 6.30948 18.5691 6.86982C18.9462 7.43016 19.4556 7.8893 20.0522 8.20678C20.6489 8.52426 21.3146 8.69034 21.9907 8.69039H46.3591C47.0352 8.69034 47.7009 8.52426 48.2976 8.20679C48.8942 7.88931 49.4036 7.43017 49.7807 6.86983C50.1578 6.30948 50.3911 5.66513 50.4601 4.99353C50.5291 4.32192 50.4316 3.64368 50.1763 3.01855H55.3622C57.6637 3.01855 59.8709 3.93152 61.4983 5.55662C63.1257 7.18171 64.04 9.38582 64.04 11.6841V121.512C64.04 122.65 63.8155 123.777 63.3794 124.828C62.9433 125.879 62.3041 126.835 61.4983 127.639C60.6925 128.444 59.7359 129.082 58.6831 129.518C57.6302 129.953 56.5018 130.177 55.3622 130.177H12.6211C11.4816 130.177 10.3531 129.953 9.3003 129.518C8.24747 129.082 7.29083 128.444 6.48503 127.639C5.67922 126.835 5.04001 125.879 4.60391 124.828C4.16781 123.777 3.94336 122.65 3.94336 121.512V11.6841C3.94336 10.5461 4.16781 9.41927 4.60391 8.36792C5.04001 7.31657 5.67922 6.36129 6.48503 5.55663C7.29083 4.75196 8.24747 4.11366 9.3003 3.67818C10.3531 3.2427 11.4816 3.01856 12.6211 3.01856Z" fill="white"/>
<path d="M43.1493 33.7871H24.835V38.2003H43.1493V33.7871Z" fill="#BE94C6"/>
<path d="M44.0211 52.75H23.9629V57.1632H44.0211V52.75Z" fill="#E5E5E5"/>
<path d="M56.3764 62.2305H11.6084V66.6436H56.3764V62.2305Z" fill="#E5E5E5"/>
<path d="M56.3764 71.7109H11.6084V76.1241H56.3764V71.7109Z" fill="#E5E5E5"/>
<path d="M34.0143 114.209C41.0994 114.209 46.843 108.474 46.843 101.399C46.843 94.3234 41.0994 88.5879 34.0143 88.5879C26.9292 88.5879 21.1855 94.3234 21.1855 101.399C21.1855 108.474 26.9292 114.209 34.0143 114.209Z" fill="#BE94C6"/>
<path d="M32.7925 106.806L28.9531 101.876L31.1859 100.142L33.0038 102.476L39.1458 96.002L41.1996 97.945L32.7925 106.806Z" fill="white"/>
</svg>
