<svg width="393" height="225" viewBox="0 0 393 225" fill="none" xmlns="http://www.w3.org/2000/svg">
<g opacity="0.4">
<path d="M158.919 167.066C85.0787 158.484 6.96349 187.623 -7.40756 187.623C-18.2583 187.623 -16.3569 78.951 -14.7743 25.7109C-14.2966 9.63857 -1.09271 -2.99995 14.9867 -2.99995L381 -2.99992C397.569 -2.99992 411 10.4316 411 27.0001L411 185.37C411 190.469 409.741 195.519 406.584 199.523C397.507 211.042 374.333 233.122 336.143 221.916C283.611 206.502 214.343 173.507 158.919 167.066Z" fill="#BE94C6"/>
</g>
<path d="M243.623 145.434C318.501 137.944 397.714 163.377 412.287 163.377C423.025 163.377 421.447 73.0366 419.873 25.4951C419.344 9.50316 406.177 -2.99997 390.177 -2.99997L18 -3.00001C1.4315 -3.00001 -12 10.4315 -12 27L-12 159.354C-12 165.126 -10.378 170.831 -6.37289 174.987C3.5502 185.285 26.7019 202.705 63.9091 193.308C117.179 179.855 187.42 151.056 243.623 145.434Z" fill="#BE94C6" fill-opacity="0.6"/>
<path d="M159.959 114.145C159.544 114.145 159.169 114.068 158.834 113.915C158.499 113.759 158.233 113.533 158.037 113.237C157.844 112.942 157.747 112.58 157.747 112.151C157.747 111.781 157.818 111.477 157.96 111.239C158.102 111 158.294 110.811 158.536 110.672C158.777 110.533 159.047 110.428 159.345 110.357C159.644 110.286 159.948 110.232 160.257 110.195C160.649 110.149 160.968 110.112 161.212 110.084C161.456 110.053 161.634 110.003 161.745 109.935C161.855 109.866 161.911 109.756 161.911 109.602V109.572C161.911 109.2 161.806 108.912 161.595 108.707C161.388 108.503 161.078 108.401 160.666 108.401C160.237 108.401 159.899 108.496 159.652 108.686C159.408 108.874 159.239 109.082 159.145 109.312L157.948 109.04C158.09 108.642 158.297 108.321 158.57 108.077C158.845 107.83 159.162 107.651 159.52 107.54C159.878 107.426 160.254 107.369 160.649 107.369C160.911 107.369 161.188 107.401 161.48 107.463C161.776 107.523 162.051 107.634 162.307 107.795C162.566 107.957 162.777 108.189 162.942 108.49C163.107 108.788 163.189 109.176 163.189 109.653V114H161.945V113.105H161.894C161.811 113.27 161.688 113.432 161.523 113.591C161.358 113.75 161.147 113.882 160.888 113.987C160.629 114.092 160.32 114.145 159.959 114.145ZM160.236 113.122C160.588 113.122 160.889 113.053 161.139 112.913C161.392 112.774 161.584 112.592 161.715 112.368C161.848 112.141 161.915 111.898 161.915 111.639V110.795C161.87 110.841 161.781 110.884 161.651 110.923C161.523 110.96 161.377 110.993 161.212 111.021C161.047 111.047 160.887 111.071 160.73 111.094C160.574 111.114 160.443 111.131 160.338 111.145C160.091 111.176 159.865 111.229 159.661 111.303C159.459 111.376 159.297 111.483 159.175 111.622C159.056 111.759 158.996 111.94 158.996 112.168C158.996 112.483 159.112 112.722 159.345 112.884C159.578 113.043 159.875 113.122 160.236 113.122ZM170.991 109.053L169.836 109.257C169.788 109.109 169.711 108.969 169.606 108.835C169.504 108.702 169.365 108.592 169.188 108.507C169.012 108.422 168.792 108.379 168.528 108.379C168.167 108.379 167.866 108.46 167.625 108.622C167.383 108.781 167.262 108.987 167.262 109.24C167.262 109.459 167.343 109.635 167.505 109.768C167.667 109.902 167.929 110.011 168.289 110.097L169.329 110.335C169.931 110.474 170.38 110.689 170.676 110.979C170.971 111.268 171.119 111.645 171.119 112.108C171.119 112.5 171.005 112.849 170.778 113.156C170.554 113.46 170.24 113.699 169.836 113.872C169.436 114.045 168.971 114.132 168.443 114.132C167.71 114.132 167.112 113.976 166.649 113.663C166.186 113.348 165.902 112.901 165.796 112.321L167.028 112.134C167.105 112.455 167.262 112.697 167.501 112.862C167.74 113.024 168.051 113.105 168.434 113.105C168.852 113.105 169.186 113.018 169.436 112.845C169.686 112.669 169.811 112.455 169.811 112.202C169.811 111.997 169.734 111.825 169.581 111.686C169.43 111.547 169.198 111.442 168.886 111.371L167.778 111.128C167.167 110.989 166.715 110.767 166.423 110.463C166.133 110.159 165.988 109.774 165.988 109.308C165.988 108.922 166.096 108.584 166.312 108.294C166.528 108.004 166.826 107.778 167.207 107.616C167.588 107.452 168.024 107.369 168.515 107.369C169.223 107.369 169.779 107.523 170.186 107.83C170.592 108.134 170.86 108.541 170.991 109.053ZM178.901 116.455C178.711 116.455 178.537 116.439 178.381 116.408C178.225 116.379 178.108 116.348 178.032 116.314L178.338 115.27C178.571 115.332 178.779 115.359 178.961 115.351C179.142 115.342 179.303 115.274 179.442 115.146C179.584 115.018 179.709 114.81 179.817 114.52L179.975 114.085L177.58 107.455H178.944L180.601 112.534H180.669L182.327 107.455H183.695L180.998 114.874C180.873 115.214 180.713 115.503 180.52 115.739C180.327 115.977 180.097 116.156 179.83 116.276C179.563 116.395 179.253 116.455 178.901 116.455ZM188.627 114.132C188.013 114.132 187.478 113.991 187.02 113.71C186.563 113.429 186.208 113.036 185.955 112.53C185.702 112.024 185.576 111.433 185.576 110.757C185.576 110.078 185.702 109.484 185.955 108.976C186.208 108.467 186.563 108.072 187.02 107.791C187.478 107.51 188.013 107.369 188.627 107.369C189.241 107.369 189.776 107.51 190.233 107.791C190.691 108.072 191.046 108.467 191.299 108.976C191.552 109.484 191.678 110.078 191.678 110.757C191.678 111.433 191.552 112.024 191.299 112.53C191.046 113.036 190.691 113.429 190.233 113.71C189.776 113.991 189.241 114.132 188.627 114.132ZM188.631 113.062C189.029 113.062 189.358 112.957 189.62 112.747C189.881 112.537 190.074 112.257 190.199 111.908C190.327 111.558 190.391 111.173 190.391 110.753C190.391 110.335 190.327 109.952 190.199 109.602C190.074 109.25 189.881 108.967 189.62 108.754C189.358 108.541 189.029 108.435 188.631 108.435C188.231 108.435 187.898 108.541 187.634 108.754C187.373 108.967 187.178 109.25 187.05 109.602C186.925 109.952 186.863 110.335 186.863 110.753C186.863 111.173 186.925 111.558 187.05 111.908C187.178 112.257 187.373 112.537 187.634 112.747C187.898 112.957 188.231 113.062 188.631 113.062ZM198.447 111.286V107.455H199.725V114H198.472V112.866H198.404C198.253 113.216 198.012 113.507 197.68 113.74C197.35 113.97 196.939 114.085 196.448 114.085C196.028 114.085 195.655 113.993 195.332 113.808C195.011 113.621 194.758 113.344 194.573 112.977C194.391 112.611 194.3 112.158 194.3 111.618V107.455H195.574V111.464C195.574 111.911 195.698 112.266 195.945 112.53C196.192 112.794 196.513 112.926 196.908 112.926C197.147 112.926 197.384 112.866 197.62 112.747C197.859 112.628 198.056 112.447 198.212 112.206C198.371 111.964 198.449 111.658 198.447 111.286ZM208.918 114.145C208.503 114.145 208.128 114.068 207.793 113.915C207.457 113.759 207.192 113.533 206.996 113.237C206.803 112.942 206.706 112.58 206.706 112.151C206.706 111.781 206.777 111.477 206.919 111.239C207.061 111 207.253 110.811 207.494 110.672C207.736 110.533 208.006 110.428 208.304 110.357C208.602 110.286 208.906 110.232 209.216 110.195C209.608 110.149 209.926 110.112 210.17 110.084C210.415 110.053 210.592 110.003 210.703 109.935C210.814 109.866 210.869 109.756 210.869 109.602V109.572C210.869 109.2 210.764 108.912 210.554 108.707C210.347 108.503 210.037 108.401 209.625 108.401C209.196 108.401 208.858 108.496 208.611 108.686C208.366 108.874 208.197 109.082 208.104 109.312L206.906 109.04C207.048 108.642 207.256 108.321 207.528 108.077C207.804 107.83 208.121 107.651 208.479 107.54C208.837 107.426 209.213 107.369 209.608 107.369C209.869 107.369 210.146 107.401 210.439 107.463C210.734 107.523 211.01 107.634 211.266 107.795C211.524 107.957 211.736 108.189 211.901 108.49C212.065 108.788 212.148 109.176 212.148 109.653V114H210.903V113.105H210.852C210.77 113.27 210.646 113.432 210.482 113.591C210.317 113.75 210.105 113.882 209.847 113.987C209.588 114.092 209.278 114.145 208.918 114.145ZM209.195 113.122C209.547 113.122 209.848 113.053 210.098 112.913C210.351 112.774 210.543 112.592 210.673 112.368C210.807 112.141 210.874 111.898 210.874 111.639V110.795C210.828 110.841 210.74 110.884 210.609 110.923C210.482 110.96 210.335 110.993 210.17 111.021C210.006 111.047 209.845 111.071 209.689 111.094C209.533 111.114 209.402 111.131 209.297 111.145C209.05 111.176 208.824 111.229 208.619 111.303C208.418 111.376 208.256 111.483 208.134 111.622C208.014 111.759 207.955 111.94 207.955 112.168C207.955 112.483 208.071 112.722 208.304 112.884C208.537 113.043 208.834 113.122 209.195 113.122ZM215.045 114V107.455H216.276V108.494H216.345C216.464 108.142 216.674 107.865 216.975 107.663C217.279 107.459 217.623 107.357 218.006 107.357C218.086 107.357 218.18 107.359 218.288 107.365C218.399 107.371 218.485 107.378 218.548 107.386V108.605C218.497 108.591 218.406 108.575 218.275 108.558C218.144 108.538 218.014 108.528 217.883 108.528C217.582 108.528 217.313 108.592 217.077 108.72C216.845 108.845 216.66 109.02 216.524 109.244C216.387 109.466 216.319 109.719 216.319 110.003V114H215.045ZM223.437 114.132C222.792 114.132 222.237 113.994 221.771 113.719C221.308 113.44 220.95 113.05 220.697 112.547C220.447 112.041 220.322 111.449 220.322 110.77C220.322 110.099 220.447 109.509 220.697 108.997C220.95 108.486 221.302 108.087 221.754 107.8C222.208 107.513 222.739 107.369 223.347 107.369C223.717 107.369 224.075 107.43 224.421 107.553C224.768 107.675 225.079 107.866 225.355 108.128C225.63 108.389 225.847 108.729 226.007 109.146C226.166 109.561 226.245 110.065 226.245 110.659V111.111H221.042V110.156H224.997C224.997 109.821 224.928 109.524 224.792 109.266C224.656 109.004 224.464 108.798 224.217 108.648C223.972 108.497 223.686 108.422 223.356 108.422C222.998 108.422 222.686 108.51 222.418 108.686C222.154 108.859 221.95 109.087 221.805 109.368C221.663 109.646 221.592 109.949 221.592 110.276V111.021C221.592 111.459 221.668 111.831 221.822 112.138C221.978 112.445 222.195 112.679 222.474 112.841C222.752 113 223.078 113.08 223.45 113.08C223.691 113.08 223.911 113.045 224.11 112.977C224.309 112.906 224.481 112.801 224.626 112.662C224.771 112.523 224.882 112.351 224.958 112.146L226.164 112.364C226.068 112.719 225.894 113.03 225.644 113.297C225.397 113.561 225.086 113.767 224.711 113.915C224.339 114.06 223.914 114.132 223.437 114.132Z" fill="white"/>
<path d="M140.773 83.9091V94H135.932V76.5455H140.545V79.625H140.75C141.136 78.6098 141.784 77.8068 142.693 77.2159C143.602 76.6174 144.705 76.3182 146 76.3182C147.212 76.3182 148.269 76.5833 149.17 77.1136C150.072 77.6439 150.773 78.4015 151.273 79.3864C151.773 80.3636 152.023 81.5303 152.023 82.8864V94H147.182V83.75C147.189 82.6818 146.917 81.8485 146.364 81.25C145.811 80.6439 145.049 80.3409 144.08 80.3409C143.428 80.3409 142.852 80.4811 142.352 80.7614C141.86 81.0417 141.473 81.4508 141.193 81.9886C140.92 82.5189 140.78 83.1591 140.773 83.9091ZM164.015 94.3295C162.902 94.3295 161.909 94.1364 161.038 93.75C160.167 93.3561 159.477 92.7765 158.97 92.0114C158.47 91.2386 158.22 90.2765 158.22 89.125C158.22 88.1553 158.398 87.3409 158.754 86.6818C159.11 86.0227 159.595 85.4924 160.209 85.0909C160.822 84.6894 161.519 84.3864 162.299 84.1818C163.087 83.9773 163.913 83.8333 164.777 83.75C165.792 83.6439 166.61 83.5455 167.231 83.4545C167.852 83.3561 168.303 83.2121 168.584 83.0227C168.864 82.8333 169.004 82.553 169.004 82.1818V82.1136C169.004 81.3939 168.777 80.8371 168.322 80.4432C167.875 80.0492 167.239 79.8523 166.413 79.8523C165.542 79.8523 164.849 80.0455 164.334 80.4318C163.818 80.8106 163.477 81.2879 163.311 81.8636L158.834 81.5C159.061 80.4394 159.508 79.5227 160.174 78.75C160.841 77.9697 161.701 77.3712 162.754 76.9545C163.815 76.5303 165.042 76.3182 166.436 76.3182C167.405 76.3182 168.334 76.4318 169.22 76.6591C170.114 76.8864 170.905 77.2386 171.595 77.7159C172.292 78.1932 172.841 78.8068 173.243 79.5568C173.644 80.2992 173.845 81.1894 173.845 82.2273V94H169.254V91.5795H169.118C168.837 92.125 168.462 92.6061 167.993 93.0227C167.523 93.4318 166.959 93.7538 166.299 93.9886C165.64 94.2159 164.879 94.3295 164.015 94.3295ZM165.402 90.9886C166.114 90.9886 166.743 90.8485 167.288 90.5682C167.834 90.2803 168.262 89.8939 168.572 89.4091C168.883 88.9242 169.038 88.375 169.038 87.7614V85.9091C168.887 86.0076 168.678 86.0985 168.413 86.1818C168.155 86.2576 167.864 86.3295 167.538 86.3977C167.212 86.4583 166.887 86.5152 166.561 86.5682C166.235 86.6136 165.94 86.6553 165.674 86.6932C165.106 86.7765 164.61 86.9091 164.186 87.0909C163.762 87.2727 163.432 87.5189 163.197 87.8295C162.962 88.1326 162.845 88.5114 162.845 88.9659C162.845 89.625 163.084 90.1288 163.561 90.4773C164.046 90.8182 164.659 90.9886 165.402 90.9886ZM190.085 76.5455V80.1818H179.573V76.5455H190.085ZM181.96 72.3636H186.801V88.6364C186.801 89.0833 186.869 89.4318 187.005 89.6818C187.141 89.9242 187.331 90.0947 187.573 90.1932C187.823 90.2917 188.111 90.3409 188.437 90.3409C188.664 90.3409 188.891 90.322 189.119 90.2841C189.346 90.2386 189.52 90.2045 189.641 90.1818L190.403 93.7841C190.16 93.8598 189.82 93.947 189.38 94.0455C188.941 94.1515 188.407 94.2159 187.778 94.2386C186.611 94.2841 185.588 94.1288 184.71 93.7727C183.838 93.4167 183.16 92.8636 182.676 92.1136C182.191 91.3636 181.952 90.4167 181.96 89.2727V72.3636ZM196.438 94V76.5455H201.279V94H196.438ZM198.87 74.2955C198.15 74.2955 197.533 74.0568 197.018 73.5795C196.51 73.0947 196.256 72.5152 196.256 71.8409C196.256 71.1742 196.51 70.6023 197.018 70.125C197.533 69.6402 198.15 69.3977 198.87 69.3977C199.59 69.3977 200.203 69.6402 200.711 70.125C201.226 70.6023 201.484 71.1742 201.484 71.8409C201.484 72.5152 201.226 73.0947 200.711 73.5795C200.203 74.0568 199.59 74.2955 198.87 74.2955ZM224.63 76.5455L218.527 94H213.073L206.97 76.5455H212.084L215.709 89.0341H215.891L219.505 76.5455H224.63ZM237.699 94.3409C235.903 94.3409 234.358 93.9773 233.062 93.25C231.775 92.5152 230.782 91.4773 230.085 90.1364C229.388 88.7879 229.04 87.1932 229.04 85.3523C229.04 83.5568 229.388 81.9811 230.085 80.625C230.782 79.2689 231.763 78.2121 233.028 77.4545C234.301 76.697 235.794 76.3182 237.506 76.3182C238.657 76.3182 239.729 76.5038 240.722 76.875C241.722 77.2386 242.593 77.7879 243.335 78.5227C244.085 79.2576 244.669 80.1818 245.085 81.2955C245.502 82.4015 245.71 83.697 245.71 85.1818V86.5114H230.972V83.5114H241.153C241.153 82.8144 241.002 82.197 240.699 81.6591C240.396 81.1212 239.975 80.7008 239.438 80.3977C238.907 80.0871 238.29 79.9318 237.585 79.9318C236.85 79.9318 236.199 80.1023 235.631 80.4432C235.07 80.7765 234.631 81.2273 234.312 81.7955C233.994 82.3561 233.831 82.9811 233.824 83.6705V86.5227C233.824 87.3864 233.983 88.1326 234.301 88.7614C234.627 89.3902 235.085 89.875 235.676 90.2159C236.267 90.5568 236.968 90.7273 237.778 90.7273C238.316 90.7273 238.809 90.6515 239.256 90.5C239.703 90.3485 240.085 90.1212 240.403 89.8182C240.722 89.5152 240.964 89.1439 241.131 88.7045L245.608 89C245.381 90.0758 244.915 91.0152 244.21 91.8182C243.513 92.6136 242.612 93.2348 241.506 93.6818C240.407 94.1212 239.138 94.3409 237.699 94.3409ZM254.899 94.2955C254.149 94.2955 253.505 94.0303 252.967 93.5C252.437 92.9621 252.172 92.3182 252.172 91.5682C252.172 90.8258 252.437 90.1894 252.967 89.6591C253.505 89.1288 254.149 88.8636 254.899 88.8636C255.626 88.8636 256.262 89.1288 256.808 89.6591C257.353 90.1894 257.626 90.8258 257.626 91.5682C257.626 92.0682 257.497 92.5265 257.24 92.9432C256.99 93.3523 256.66 93.6818 256.251 93.9318C255.842 94.1742 255.391 94.2955 254.899 94.2955Z" fill="white"/>
</svg>
