<svg width="16" height="16" viewBox="0 0 16 16" fill="none" xmlns="http://www.w3.org/2000/svg">
<path d="M8.53921 13.5L10.4988 12.321L12.4583 13.5L11.9375 11.2708L13.6667 9.79167L11.3958 9.58333L10.5 7.5L9.60417 9.58333L7.33333 9.79167L9.05602 11.2707L8.53921 13.5ZM3.5 9.5V11H1.5C1.0875 11 0.734375 10.8531 0.440625 10.5594C0.146875 10.2656 0 9.9125 0 9.5V1.5C0 1.0875 0.146875 0.734376 0.440625 0.440626C0.734375 0.146876 1.0875 0 1.5 0H9.5C9.9125 0 10.2656 0.146876 10.5594 0.440626C10.8531 0.734376 11 1.0875 11 1.5V3.5H9.5V1.5H1.5V9.5H3.5ZM6.5 16C6.0875 16 5.73438 15.8531 5.44063 15.5594C5.14687 15.2656 5 14.9125 5 14.5V6.5C5 6.0875 5.14687 5.73438 5.44063 5.44063C5.73438 5.14688 6.0875 5 6.5 5H14.5C14.9125 5 15.2656 5.14688 15.5594 5.44063C15.8531 5.73438 16 6.0875 16 6.5V14.5C16 14.9125 15.8531 15.2656 15.5594 15.5594C15.2656 15.8531 14.9125 16 14.5 16H6.5ZM6.5 14.5H14.5V6.5H6.5V14.5Z" fill="#1E1E1E" fill-opacity="0.8"/>
</svg>
