<svg width="56" height="62" viewBox="0 0 56 62" fill="none" xmlns="http://www.w3.org/2000/svg">
<circle cx="28" cy="34" r="28" fill="#7BC6CC" fill-opacity="0.5"/>
<g clip-path="url(#clip0_374_495)">
<path d="M39.5398 39.5252H25.6714V20.7559L37.6629 27.3251L39.5398 39.5252Z" fill="#2F2E41"/>
<path d="M28.2334 36.2125C33.2062 36.2125 37.2374 32.1813 37.2374 27.2085C37.2374 22.2358 33.2062 18.2046 28.2334 18.2046C23.2607 18.2046 19.2295 22.2358 19.2295 27.2085C19.2295 32.1813 23.2607 36.2125 28.2334 36.2125Z" fill="#FFB6B6"/>
<path d="M23.0642 37.5439L22.6574 33.432L30.7804 31.9131L35.577 43.5918L27.2351 53.1849L21.2915 41.5063L23.0642 37.5439Z" fill="#FFB6B6"/>
<path d="M47.6571 47.0369C47.556 47.1422 47.4527 47.2465 47.3495 47.3497C47.0221 47.6772 46.6884 47.9952 46.3474 48.3039C41.238 52.9378 34.6823 55.4737 27.7366 55.4737C21.3332 55.4737 15.2613 53.3184 10.349 49.3508C10.3458 49.3487 10.3438 49.3466 10.3406 49.3435C10.1915 49.2236 10.0445 49.1015 9.89746 48.9775C9.92353 48.9024 9.95169 48.8283 9.97984 48.7554C11.5596 44.6397 14.6795 42.6261 16.5731 41.745C17.5115 41.3081 18.1487 41.1486 18.1487 41.1486L20.3718 37.1445L21.9369 40.0641L23.0902 42.2163L27.8221 51.0452L31.9045 40.8806L33.1693 37.7294L33.4936 36.9224L35.0358 38.1226L36.4956 39.2581L39.4351 39.9067L41.8199 40.4333L45.0586 41.1486C46.3683 42.2153 47.1649 44.2445 47.6102 46.7658C47.6269 46.8555 47.6425 46.9462 47.6571 47.0369Z" fill="#BE94C6"/>
<path d="M23.4972 16.9761C24.594 15.1338 26.6083 13.8698 28.7443 13.6835C30.8802 13.4972 33.083 14.3934 34.4822 16.018C35.3159 16.9861 35.8626 18.1717 36.6753 19.1576C38.4242 21.2791 41.4064 22.5195 42.1704 25.1607C42.5038 26.3132 42.3377 27.5437 42.169 28.7315C42.0244 29.7497 41.8798 30.7678 41.7353 31.7859C41.6227 32.5783 41.5148 33.4136 41.8119 34.1567C42.1605 35.0285 42.9947 35.5995 43.534 36.3681C44.4517 37.6758 44.3846 39.5905 43.3776 40.8308C42.9409 41.3687 42.3619 41.7744 41.9041 42.2944C41.4463 42.8144 41.1066 43.5254 41.2984 44.1912C41.6657 45.4666 43.6659 45.7724 43.8853 47.0814C43.9974 47.7507 43.5352 48.419 42.9295 48.7251C42.3239 49.0311 41.6109 49.04 40.9373 48.9581C38.377 48.6469 36.0065 47.0471 34.7599 44.7893C33.5134 42.5314 33.4226 39.673 34.5234 37.3406C35.4275 35.4249 37.1078 33.7321 37.0895 31.6139C37.0796 30.4599 36.5503 29.3821 36.0327 28.3507C34.9733 26.2396 33.914 24.1285 32.8547 22.0174C32.2872 20.8865 31.6287 19.6679 30.4604 19.1821C29.5575 18.8067 28.5331 18.9523 27.5674 19.1058C26.6017 19.2594 25.5787 19.4089 24.6732 19.04C23.7676 18.671 23.0834 17.5749 23.5148 16.6974" fill="#2F2E41"/>
<path d="M25.0747 17.0721C23.3351 16.4995 21.3837 17.4187 20.206 18.8212C19.0283 20.2238 18.457 22.0231 17.9128 23.7717C17.6011 24.7734 17.2893 25.775 16.9776 26.7767C16.6844 27.7189 16.3911 28.6611 16.0979 29.6034C15.753 30.7117 15.4052 31.8891 15.6883 33.0148C15.8929 33.8286 16.4195 34.5676 16.4309 35.4066C16.4427 36.2831 15.8938 37.0526 15.4128 37.7854C14.9317 38.5182 14.4802 39.3888 14.7094 40.2349C15.058 41.5218 16.8472 42.2292 16.7491 43.5589C16.7164 44.0026 16.4598 44.4131 16.4644 44.858C16.4704 45.4242 16.9136 45.9133 17.4329 46.1389C17.9521 46.3644 18.5363 46.3767 19.1023 46.3667C20.8386 46.3362 22.5718 46.13 24.2668 45.7523C24.9189 45.607 25.5821 45.4288 26.1249 45.0392C26.6677 44.6497 27.0727 44.0044 27.002 43.34C26.892 42.3047 25.7788 41.7173 25.2171 40.8408C24.6653 39.9797 24.6781 38.8888 24.4402 37.8942C24.1132 36.5274 23.3057 35.334 22.6995 34.0661C20.4203 29.2991 21.2182 23.2229 24.6507 19.2059C24.9541 18.8507 25.2857 18.4934 25.4123 18.0437C25.5389 17.594 25.3757 17.0211 24.9358 16.8638" fill="#2F2E41"/>
</g>
<defs>
<clipPath id="clip0_374_495">
<rect width="55.4737" height="55.4737" fill="white"/>
</clipPath>
</defs>
</svg>
