<svg width="177" height="175" viewBox="0 0 177 175" fill="none" xmlns="http://www.w3.org/2000/svg">
<g id="undraw_well_done_re_3hpo 1" clip-path="url(#clip0_374_651)">
<path id="Vector" d="M121.965 155.108L123.984 163.519L117.928 165.201L116.583 156.117L121.965 155.108Z" fill="#FFB6B6"/>
<path id="Vector_2" d="M131.721 127.858L125.329 133.241L121.292 139.633L127.012 143.334L136.768 132.232L131.721 127.858Z" fill="#FFB6B6"/>
<path id="Vector_3" d="M129.703 72.3494L135.086 90.5159C135.086 90.5159 158.971 111.374 156.616 115.747C154.261 120.121 138.45 132.232 138.45 132.232C138.45 132.232 139.623 136.104 136.177 134.504C132.731 132.904 129.03 128.531 129.03 128.531C129.03 128.531 129.03 125.167 130.712 125.84C132.394 126.513 140.132 117.429 140.132 117.429L123.311 101.954V153.7C123.311 153.7 127.348 157.23 123.311 157.515C119.274 157.799 115.573 158.472 115.573 158.472C115.573 158.472 110.864 156.79 112.546 155.108L107.499 127.522L103.799 93.8801L106.49 76.3864L129.703 72.3494Z" fill="#2F2E41"/>
<path id="Vector_4" d="M118.938 162.509C118.938 162.509 119.274 161.164 120.62 161.164H124.73C124.73 161.164 126.002 166.883 125.666 166.883C125.33 166.883 131.049 174.284 124.993 174.62C118.938 174.957 117.256 174.284 117.256 174.284L116.583 171.628C116.583 171.628 115.573 169.91 115.91 168.565C116.246 167.219 118.938 162.509 118.938 162.509Z" fill="#2F2E41"/>
<path id="Vector_5" d="M127.348 140.642C127.348 140.642 131.212 140.581 130.289 141.621C129.366 142.661 127.684 144.343 127.684 144.343C127.684 144.343 123.683 152.417 121.815 150.903C119.947 149.389 116.919 132.568 117.928 130.55C118.938 128.531 120.283 128.531 120.283 128.531L126.49 132.264C126.49 132.264 122.638 141.651 127.348 140.642Z" fill="#2F2E41"/>
<path id="Vector_6" d="M117.928 43.7541L119.274 35.3437L110.191 31.6431L108.845 44.4269L117.928 43.7541Z" fill="#FFB6B6"/>
<path id="Vector_7" opacity="0.1" d="M117.928 43.7541L119.274 35.3437L110.191 31.6431L108.845 44.4269L117.928 43.7541Z" fill="black"/>
<path id="Vector_8" d="M108.34 42.5766L119.106 39.8853L130.544 43.5858C130.544 43.5858 135.59 57.7154 133.908 62.7616C132.226 67.8079 132.226 77.6646 132.226 77.6646C132.226 77.6646 132.058 73.3588 122.302 76.3865C112.546 79.4143 105.481 79.0779 105.481 79.0779L105.145 66.9668L100.918 56.2093C99.112 51.6112 101.059 46.3907 105.435 44.0984L108.34 42.5766Z" fill="#E6E6E6"/>
<g id="Group">
<path id="uuid-1b03a630-7e31-41b5-b302-96493ff31189-118" d="M157.758 82.2071C159.277 84.027 159.57 86.2859 158.411 87.2525C157.253 88.219 155.083 87.5271 153.564 85.7064C152.947 84.9874 152.511 84.1311 152.293 83.2092L145.954 75.4171L149.042 72.9182L155.528 80.5096C156.396 80.8892 157.161 81.4713 157.758 82.2071Z" fill="#FFB6B6"/>
<path id="Vector_9" d="M130.055 43.6931L127.849 52.432L138.647 69.7167L149.67 80.7952L153.243 77.8312L142.126 63.9988L133.699 46.1763L130.055 43.6931Z" fill="#E6E6E6"/>
</g>
<g id="Group_2">
<path id="Vector_10" d="M155.76 35.2584C163.45 34.6901 169.101 26.3434 168.382 16.6156C167.663 6.8877 160.847 -0.537632 153.157 0.0306342C145.467 0.5989 139.816 8.94557 140.535 18.6734C141.254 28.4013 148.071 35.8266 155.76 35.2584Z" fill="#BE94C6"/>
<path id="Vector_11" d="M155.468 35.2585H154.795V102.353H155.468V35.2585Z" fill="#2F2E41"/>
<path id="Vector_12" d="M155.635 33.8416L155.716 36.219L156.791 38.4199L152.308 38.1913L154.192 36.2961L153.979 34.1358L155.635 33.8416Z" fill="#BE94C6"/>
</g>
<g id="Group_3">
<path id="Vector_13" d="M115.633 38.0472C120.749 38.0472 124.896 33.9002 124.896 28.7845C124.896 23.6688 120.749 19.5217 115.633 19.5217C110.517 19.5217 106.37 23.6688 106.37 28.7845C106.37 33.9002 110.517 38.0472 115.633 38.0472Z" fill="#FFB6B6"/>
<path id="Vector_14" d="M114.894 16.3313C115.162 16.4878 115.521 16.251 115.607 15.9528C115.693 15.6546 115.593 15.338 115.493 15.044L114.993 13.5637C114.639 12.5139 114.263 11.4273 113.495 10.6283C112.337 9.42223 110.495 9.11541 108.838 9.33769C106.709 9.62313 104.609 10.7758 103.619 12.6819C102.629 14.5879 103.05 17.2476 104.839 18.4368C102.29 21.3583 101.401 24.6142 101.542 28.4888C101.682 32.3634 105.904 35.9293 108.658 38.6589C109.273 38.2861 109.832 36.5392 109.494 35.9046C109.156 35.27 109.64 34.5348 109.221 33.9502C108.803 33.3657 108.452 34.2965 108.876 33.7152C109.143 33.3485 108.1 32.5047 108.497 32.2852C110.418 31.2235 111.057 28.8293 112.263 26.9958C113.718 24.7844 116.209 23.2868 118.844 23.0383C120.296 22.9015 121.83 23.1494 123.02 23.9922C124.21 24.8351 124.98 26.3413 124.704 27.7732C125.419 27.0476 125.774 25.9841 125.64 24.9745C125.506 23.9649 124.885 23.0313 124.006 22.5175C124.54 20.7492 124.082 18.7152 122.841 17.3469C121.6 15.9785 116.565 16.2116 114.754 16.5717" fill="#2F2E41"/>
<path id="Vector_15" d="M114.612 23.092C112.212 23.3511 110.48 25.4299 109.017 27.3496C108.173 28.4561 107.29 29.678 107.311 31.0691C107.333 32.4755 108.273 33.6818 108.722 35.0146C109.457 37.1932 108.741 39.7852 106.992 41.2779C108.72 41.6058 110.588 40.3103 110.886 38.5772C111.233 36.5596 109.704 34.6123 109.885 32.5731C110.045 30.7766 111.46 29.3939 112.664 28.0506C113.868 26.7073 114.998 24.9248 114.444 23.2083" fill="#2F2E41"/>
</g>
<path id="Vector_16" d="M105.778 78.9092H36.5879C28.7416 78.9092 22.381 85.2698 22.381 93.1161V160.209C22.381 168.055 28.7416 174.416 36.5878 174.416H105.778C113.625 174.416 119.985 168.055 119.985 160.209V93.1161C119.985 85.2698 113.625 78.9092 105.778 78.9092Z" fill="white"/>
<path id="Vector_17" d="M105.778 174.752H36.5879C28.5687 174.752 22.0446 168.228 22.0446 160.209V93.1163C22.0446 85.0972 28.5687 78.573 36.5879 78.573H105.778C113.798 78.573 120.322 85.0972 120.322 93.1163V160.209C120.322 168.228 113.798 174.752 105.778 174.752ZM36.5879 79.2458C28.9396 79.2458 22.7174 85.4681 22.7174 93.1163V160.209C22.7174 167.857 28.9396 174.079 36.5879 174.079H105.778C113.427 174.079 119.649 167.857 119.649 160.209V93.1163C119.649 85.4681 113.427 79.2458 105.778 79.2458H36.5879Z" fill="#3F3D56"/>
<path id="Vector_18" d="M98.4777 85.5095C99.3638 85.5095 100.082 84.7912 100.082 83.9052C100.082 83.0191 99.3638 82.3008 98.4777 82.3008C97.5916 82.3008 96.8733 83.0191 96.8733 83.9052C96.8733 84.7912 97.5916 85.5095 98.4777 85.5095Z" fill="#3F3D56"/>
<path id="Vector_19" d="M102.89 85.5095C103.776 85.5095 104.494 84.7912 104.494 83.9052C104.494 83.0191 103.776 82.3008 102.89 82.3008C102.004 82.3008 101.285 83.0191 101.285 83.9052C101.285 84.7912 102.004 85.5095 102.89 85.5095Z" fill="#3F3D56"/>
<path id="Vector_20" d="M107.302 85.5095C108.188 85.5095 108.906 84.7912 108.906 83.9052C108.906 83.0191 108.188 82.3008 107.302 82.3008C106.416 82.3008 105.697 83.0191 105.697 83.9052C105.697 84.7912 106.416 85.5095 107.302 85.5095Z" fill="#3F3D56"/>
<path id="Vector_21" d="M34.3197 150.927C33.8212 150.927 33.4158 151.333 33.4158 151.831C33.4158 152.074 33.5096 152.299 33.68 152.465C33.8518 152.641 34.0769 152.735 34.3197 152.735H106.682C107.181 152.735 107.586 152.33 107.586 151.831C107.586 151.588 107.493 151.363 107.322 151.197C107.15 151.021 106.925 150.927 106.682 150.927H34.3197Z" fill="#E6E6E6"/>
<path id="Vector_22" d="M73.0125 150.626V153.036H34.3197C33.9883 153.036 33.687 152.904 33.4701 152.681C33.2471 152.464 33.1145 152.162 33.1145 151.831C33.1145 151.168 33.6569 150.626 34.3197 150.626L73.0125 150.626Z" fill="#BE94C6"/>
<path id="Vector_23" d="M105.176 146.106H93.1236C91.7945 146.106 90.7131 145.025 90.7131 143.696C90.7131 142.366 91.7945 141.285 93.1236 141.285H105.176C106.505 141.285 107.586 142.366 107.586 143.696C107.586 145.025 106.505 146.106 105.176 146.106Z" fill="#E6E6E6"/>
<g id="Group_4">
<path id="Vector_24" d="M59.8971 147.829L51.4719 119.52L50.827 119.712L59.2227 147.921" fill="#2F2E41"/>
<path id="Vector_25" d="M60.1888 83.4031C67.8784 82.8349 73.5294 74.4882 72.8105 64.7603C72.0916 55.0325 65.2751 47.6071 57.5855 48.1754C49.8958 48.7437 44.2449 57.0903 44.9638 66.8182C45.6827 76.5461 52.4991 83.9714 60.1888 83.4031Z" fill="#BE94C6"/>
<path id="Vector_26" d="M59.8963 83.4033H59.2235V150.498H59.8963V83.4033Z" fill="#2F2E41"/>
<path id="Vector_27" d="M51.8506 118.7L52.6059 120.956L54.2633 122.759L49.9017 123.818L51.1673 121.464L50.3471 119.454L51.8506 118.7Z" fill="#BE94C6"/>
<path id="Vector_28" d="M60.0637 81.9863L60.1444 84.3638L61.2189 86.5647L56.7363 86.3361L58.6205 84.4408L58.4076 82.2806L60.0637 81.9863Z" fill="#BE94C6"/>
<path id="Vector_29" d="M52.0772 119.291C59.2789 116.536 62.2917 106.918 58.8066 97.807C55.3214 88.6964 46.6581 83.5442 39.4564 86.2991C32.2547 89.054 29.2419 98.6729 32.727 107.783C36.2122 116.894 44.8756 122.046 52.0772 119.291Z" fill="#BE94C6"/>
</g>
<path id="uuid-b40723c2-846b-43d4-8d7a-d7be28bdc184-119" d="M113.207 75.4657C115.477 76.1508 116.963 77.8771 116.527 79.3213C116.09 80.7654 113.897 81.3804 111.627 80.6947C110.717 80.4332 109.882 79.9575 109.193 79.3073L99.6141 76.2829L100.82 72.498L110.411 75.2737C111.345 75.1134 112.304 75.1793 113.207 75.4657Z" fill="#FFB6B6"/>
<path id="Vector_30" d="M96.5658 50.6504L106.658 43.2493L106.322 57.3788L96.9022 69.4898L106.995 73.5268L106.658 79.2909C106.658 79.2909 93.8745 76.2181 91.856 75.8817C89.8375 75.5453 88.1554 70.8355 88.1554 70.8355L96.5658 50.6504Z" fill="#E6E6E6"/>
</g>
<defs>
<clipPath id="clip0_374_651">
<rect width="176.508" height="175" fill="white"/>
</clipPath>
</defs>
</svg>
