<svg width="61" height="61" viewBox="0 0 61 61" fill="none" xmlns="http://www.w3.org/2000/svg">
<circle cx="30.5" cy="30.5" r="30.5" fill="#F8F8F8"/>
<path d="M31.3241 31.3171C37.1526 31.3171 41.8776 26.5921 41.8776 20.7635C41.8776 14.9349 37.1526 10.21 31.3241 10.21C25.4955 10.21 20.7705 14.9349 20.7705 20.7635C20.7705 26.5921 25.4955 31.3171 31.3241 31.3171Z" fill="#FFB6B6"/>
<path d="M25.2657 32.8782L24.7889 28.0586L34.31 26.2783L39.9321 39.9669L30.1545 51.2112L23.188 37.5225L25.2657 32.8782Z" fill="#FFB6B6"/>
<path d="M24.6362 30.4708L26.7178 30.9411C26.7178 30.9411 25.0815 25.7523 25.6369 25.257C26.1923 24.7616 27.5533 25.5421 27.5533 25.5421L28.9835 27.1456L30.7256 25.3719C30.7256 25.3719 32.617 23.0202 33.3575 22.3597C34.098 21.6992 32.9085 19.2475 32.9085 19.2475C32.9085 19.2475 43.8951 16.285 39.807 10.9562C39.807 10.9562 37.4102 6.77814 36.6296 8.13916C35.8491 9.50017 34.9183 7.3386 34.9183 7.3386L32.0763 7.87905C32.0763 7.87905 26.4671 4.57174 21.1433 11.647C15.8195 18.7223 24.6362 30.4708 24.6362 30.4708Z" fill="#2F2E41"/>
<path d="M51.1726 46.6763C45.4051 51.3524 38.2699 53.8933 30.7423 53.8933C23.8687 53.8933 17.3214 51.774 11.8447 47.8459C11.8545 47.7432 11.8643 47.6418 11.8728 47.5404C12.0183 45.9515 12.1478 44.4066 12.2334 43.1258C12.5646 38.1527 24.1669 34.8381 24.1669 34.8381C24.1669 34.8381 24.2195 34.8906 24.3246 34.9823C24.965 35.5445 27.5646 37.5831 32.1234 38.1527C36.1885 38.6611 37.5268 36.2497 37.9313 35.0947C38.0535 34.7427 38.0902 34.5068 38.0902 34.5068L50.0237 40.1424C50.8023 41.2546 51.1066 43.6501 51.1665 46.3426C51.1689 46.4538 51.1714 46.5638 51.1726 46.6763Z" fill="#BE94C6"/>
</svg>
