<svg width="13" height="13" viewBox="0 0 13 13" fill="none" xmlns="http://www.w3.org/2000/svg">
<path d="M3.7915 11.375C3.49359 11.375 3.23855 11.2689 3.0264 11.0568C2.81425 10.8446 2.70817 10.5896 2.70817 10.2917V3.25C2.5547 3.25 2.42605 3.19809 2.32223 3.09427C2.21841 2.99045 2.1665 2.86181 2.1665 2.70833C2.1665 2.55486 2.21841 2.42622 2.32223 2.3224C2.42605 2.21858 2.5547 2.16667 2.70817 2.16667H4.87484C4.87484 2.01319 4.92675 1.88455 5.03057 1.78073C5.13439 1.67691 5.26303 1.625 5.4165 1.625H7.58317C7.73664 1.625 7.86529 1.67691 7.96911 1.78073C8.07293 1.88455 8.12484 2.01319 8.12484 2.16667H10.2915C10.445 2.16667 10.5736 2.21858 10.6774 2.3224C10.7813 2.42622 10.8332 2.55486 10.8332 2.70833C10.8332 2.86181 10.7813 2.99045 10.6774 3.09427C10.5736 3.19809 10.445 3.25 10.2915 3.25V10.2917C10.2915 10.5896 10.1854 10.8446 9.97327 11.0568C9.76112 11.2689 9.50609 11.375 9.20817 11.375H3.7915ZM9.20817 3.25H3.7915V10.2917H9.20817V3.25ZM4.87484 9.20833H5.95817V4.33333H4.87484V9.20833ZM7.0415 9.20833H8.12484V4.33333H7.0415V9.20833Z" fill="#FF0000"/>
</svg>
