<svg width="10" height="10" viewBox="0 0 10 10" fill="none" xmlns="http://www.w3.org/2000/svg">
<path d="M1.09433 8.90411H1.86036L6.57965 4.17808L5.81362 3.41096L1.09433 8.13699V8.90411ZM8.91878 3.38356L6.59333 1.08219L7.35936 0.315068C7.56911 0.105023 7.82673 0 8.13223 0C8.43773 0 8.69535 0.105023 8.9051 0.315068L9.67113 1.08219C9.88088 1.29224 9.99031 1.54566 9.99943 1.84247C10.0085 2.13927 9.90824 2.39269 9.69849 2.60274L8.91878 3.38356ZM8.12539 4.19178L2.32545 10H0V7.67123L5.79994 1.86301L8.12539 4.19178ZM6.19664 3.79452L5.81362 3.41096L6.57965 4.17808L6.19664 3.79452Z" fill="#1E1E1E" fill-opacity="0.8"/>
</svg>
