<svg width="200" height="185" viewBox="0 0 200 185" fill="none" xmlns="http://www.w3.org/2000/svg">
<rect width="200" height="185" fill="#1E1E1E"/>
<g id="Search" clip-path="url(#clip0_0_1)">
<rect width="393" height="852" transform="translate(-96 -282)" fill="white"/>
<g id="undraw_searching_re_3ra9 1" clip-path="url(#clip1_0_1)">
<path id="Vector" d="M134.814 130.589H63.0686C57.038 130.589 52.1318 125.742 52.1318 119.785V48.9156C52.1318 42.9586 57.038 38.1123 63.0686 38.1123H134.814C140.845 38.1123 145.751 42.9586 145.751 48.9156V119.785C145.751 125.742 140.845 130.589 134.814 130.589ZM63.0686 39.8408C57.9948 39.8408 53.8817 43.9037 53.8817 48.9156V119.785C53.8817 124.797 57.9948 128.86 63.0686 128.86H113.325C130.267 128.86 144.001 115.293 144.001 98.5581V48.9156C144.001 43.9037 139.888 39.8408 134.814 39.8408L63.0686 39.8408Z" fill="#F2F2F2"/>
<path id="Vector_2" d="M70.8034 47.2109C67.4078 47.2109 64.6454 49.9396 64.6454 53.2938V62.8148C64.6454 66.169 67.4078 68.8977 70.8034 68.8977H80.4421C83.8377 68.8977 86.6001 66.169 86.6001 62.8148V53.2938C86.6001 49.9396 83.8377 47.2109 80.4421 47.2109H70.8034Z" fill="#F2F2F2"/>
<path id="Vector_3" d="M70.8034 74.0137C67.4078 74.0137 64.6454 76.7423 64.6454 80.0965V89.6176C64.6454 92.9718 67.4078 95.7004 70.8034 95.7004H80.4421C83.8377 95.7004 86.6001 92.9718 86.6001 89.6176V80.0965C86.6001 76.7423 83.8377 74.0137 80.4421 74.0137H70.8034Z" fill="#F2F2F2"/>
<path id="Vector_4" d="M70.8034 100.816C67.4078 100.816 64.6454 103.545 64.6454 106.899V116.42C64.6454 119.774 67.4078 122.503 70.8034 122.503H80.4421C83.8377 122.503 86.6001 119.774 86.6001 116.42V106.899C86.6001 103.545 83.8377 100.816 80.4421 100.816H70.8034Z" fill="#F2F2F2"/>
<g id="Group">
<path id="Vector_5" d="M77.1952 23.9814C72.9166 23.9814 69.4359 27.4196 69.4359 31.646V43.6428C69.4359 47.8692 72.9166 51.3074 77.1952 51.3074H89.3402C93.6188 51.3074 97.0995 47.8692 97.0995 43.6428V31.646C97.0995 27.4196 93.6188 23.9814 89.3402 23.9814H77.1952Z" fill="#7BC6CC"/>
<path id="Vector_6" d="M117.18 57.5078C112.901 57.5078 109.42 60.946 109.42 65.1724V77.1692C109.42 81.3956 112.901 84.8338 117.18 84.8338H129.325C133.603 84.8338 137.084 81.3956 137.084 77.1692V65.1724C137.084 60.946 133.603 57.5078 129.325 57.5078H117.18Z" fill="#7BC6CC"/>
<g id="Group_2">
<path id="Vector_7" d="M99.7964 178.259L97.3291 178.239L96.2369 168.619L99.8784 168.649L99.7964 178.259Z" fill="#A0616A"/>
<path id="Vector_8" d="M91.8935 182.135C91.8881 182.735 92.3776 183.228 92.9871 183.234L97.8927 183.274L98.7514 181.555L99.0668 183.283L100.918 183.3L100.45 177.136L99.8064 177.093L97.1798 176.914L96.3323 176.858L96.3175 178.602L92.3768 181.243C92.077 181.444 91.8965 181.777 91.8935 182.135Z" fill="#2F2E41"/>
</g>
<g id="Group_3">
<path id="Vector_9" d="M112.35 178.259L109.882 178.239L108.79 168.619L112.432 168.649L112.35 178.259Z" fill="#A0616A"/>
<path id="Vector_10" d="M104.447 182.135C104.441 182.735 104.931 183.228 105.54 183.234L110.446 183.274L111.305 181.555L111.62 183.283L113.471 183.3L113.004 177.136L112.36 177.093L109.733 176.914L108.886 176.858L108.871 178.602L104.93 181.243C104.63 181.444 104.45 181.777 104.447 182.135Z" fill="#2F2E41"/>
</g>
<path id="Vector_11" d="M90.1145 100.484L100.116 100.796L109.59 102.876C109.59 102.876 108.643 104.02 111.801 107.14C111.801 107.14 116.012 114.419 113.064 121.49L111.801 149.775C111.801 149.775 115.484 169.715 112.67 176.06L108.951 176.29L102.657 150.005L99.5892 121.698L98.1154 149.567C98.1154 149.567 103.754 168.696 100.193 176.29L96.165 176.06L89.2723 149.567C89.2723 149.567 86.3247 118.995 86.7458 113.171C87.1669 107.348 90.1145 100.484 90.1145 100.484Z" fill="#2F2E41"/>
<g id="Group_4">
<path id="Vector_12" d="M123.7 55.7902C122.333 56.1399 121.512 57.5182 121.866 58.8687C122.028 59.4875 122.41 59.9909 122.907 60.3235L122.907 60.3269L122.713 64.9674L126.308 66.6107L126.595 59.4699L126.57 59.4707C126.881 58.9221 126.989 58.2594 126.817 57.6023C126.463 56.2519 125.068 55.4406 123.7 55.7902Z" fill="#A0616A"/>
<path id="Vector_13" d="M103.608 72.3514C102.853 71.6119 102.415 70.6094 102.398 69.5192C102.376 68.0568 103.118 66.7294 104.383 65.9686C105.839 65.0924 107.661 65.1811 109.023 66.1942L120.312 74.5901L122.323 62.4951L126.642 63.8683L125.611 79.6177C125.539 80.7194 124.909 81.6899 123.925 82.2138C122.941 82.7377 121.774 82.7246 120.803 82.1787L104.489 73.0103C104.161 72.8261 103.866 72.604 103.608 72.3514Z" fill="#3F3D56"/>
</g>
<g id="Group_5">
<path id="Vector_14" d="M86.3946 49.0247C87.1163 50.2238 86.7172 51.7738 85.5033 52.4866C84.947 52.8133 84.3167 52.905 83.727 52.7958L83.7247 52.7983L80.5549 56.2286L76.8307 54.8954L81.7165 49.6249L81.7338 49.6428C81.9034 49.0365 82.2993 48.4909 82.8899 48.1441C84.1039 47.4313 85.673 47.8255 86.3946 49.0247Z" fill="#A0616A"/>
<path id="Vector_15" d="M87.7638 74.6144L69.6436 69.7795C68.5647 69.4916 67.7266 68.6892 67.4014 67.633C67.0761 66.5768 67.3203 65.4493 68.0543 64.6168L78.548 52.7158L82.5936 54.744L75.4013 64.7321L89.4022 66.6208C91.0917 66.8487 92.4482 68.0524 92.858 69.6875C93.2138 71.1073 92.7947 72.5659 91.7366 73.5892C90.948 74.3519 89.9223 74.7592 88.8589 74.7591C88.4957 74.7591 88.1278 74.7115 87.7638 74.6144Z" fill="#3F3D56"/>
</g>
<path id="Vector_16" d="M113.597 104.646L88.2585 105.794C87.5626 104.75 87.751 103.181 88.7256 101.215C92.4055 93.7934 89.6108 79.7532 87.7308 72.4424C87.2033 70.3912 88.6193 68.3519 90.7512 68.1414L93.1403 67.9054L95.3487 61.2461H103.083L106.292 64.8672L111.738 68.135C110.746 78.2203 106.523 92.4615 112.54 99.6034C113.856 101.165 114.229 102.855 113.597 104.646Z" fill="#3F3D56"/>
<path id="Vector_17" d="M98.2322 61.4001C102.393 61.4001 105.766 58.0683 105.766 53.9584C105.766 49.8484 102.393 46.5166 98.2322 46.5166C94.0714 46.5166 90.6985 49.8484 90.6985 53.9584C90.6985 58.0683 94.0714 61.4001 98.2322 61.4001Z" fill="#A0616A"/>
<path id="Vector_18" d="M106.757 49.1948C107.805 45.4199 96.3814 42.1829 94.1614 45.2228C93.8527 44.7906 92.7118 44.5281 92.1884 44.6607C91.665 44.7933 91.2248 45.1247 90.7953 45.4455C90.2047 45.8937 89.5927 46.3577 89.2303 47.002C88.8653 47.6436 88.8089 48.5187 89.3001 49.0755C89.6893 49.5183 90.3733 51.8713 90.9585 51.988C91.3665 52.0702 91.71 52.1365 92.0053 52.1842C92.2684 51.805 92.9392 51.3287 92.8909 50.87C93.2882 51.1299 93.143 51.587 93.0629 52.0543C92.7962 53.6101 86.7873 65.6541 90.2289 62.1051C90.5698 62.3039 90.9912 62.4895 91.4771 62.6592C92.3011 61.4316 92.9776 59.9838 93.4232 58.4698L93.4263 58.4978C93.5798 59.8135 94.5532 60.8931 95.841 61.2616C101.007 62.74 105.186 60.5707 106.623 56.6587C106.097 55.6034 105.868 55.718 105.915 55.6866C106.572 55.2493 107.475 55.5353 107.757 56.2664C107.84 56.482 107.916 56.6661 107.982 56.8045C108.731 54.1583 109.621 54.5403 106.757 49.1948Z" fill="#2F2E41"/>
<path id="Vector_19" d="M103.193 46.4558L102.666 43.7909C102.621 43.5668 102.579 43.3238 102.681 43.1191C102.813 42.8561 103.15 42.7471 103.444 42.789C103.738 42.8309 103.958 43.0961 104.25 43.1471C105.267 43.3246 106.611 42.3328 106.975 44.8419C107.127 45.8881 108.817 45.9986 109.381 46.8964C109.945 47.7942 110.015 49.0902 109.244 49.8237C108.629 50.4095 107.641 50.4771 106.842 50.1778C106.043 49.8786 105.402 49.2741 104.842 48.6367C104.282 47.9993 103.775 47.3095 103.129 46.7571" fill="#2F2E41"/>
<path id="Vector_20" d="M107.16 50.5087C105.098 50.2242 103.693 49.4837 102.983 48.3077C102.054 46.7684 102.677 45.0734 102.703 45.002L103.139 45.162C103.133 45.1775 102.569 46.7291 103.385 48.0765C104.02 49.1246 105.312 49.79 107.224 50.0539L107.16 50.5087Z" fill="#7BC6CC"/>
</g>
<path id="Vector_21" d="M116.834 21.7148C110.773 21.7148 105.842 16.8438 105.842 10.8574C105.842 4.87097 110.773 0 116.834 0C122.894 0 127.825 4.87097 127.825 10.8574C127.825 16.8438 122.894 21.7148 116.834 21.7148ZM116.834 4.34295C113.197 4.34295 110.239 7.26511 110.239 10.8574C110.239 14.4496 113.197 17.3718 116.834 17.3718C120.47 17.3718 123.428 14.4496 123.428 10.8574C123.428 7.26511 120.47 4.34295 116.834 4.34295Z" fill="#7BC6CC"/>
<path id="Vector_22" d="M133.745 29.0935C133.206 29.0935 132.666 28.8994 132.242 28.5061L121.926 18.956C121.039 18.1364 120.994 16.7623 121.825 15.8875C122.653 15.0096 124.045 14.9662 124.931 15.7879L135.247 25.3379C136.134 26.1575 136.179 27.5317 135.348 28.4064C134.916 28.8634 134.331 29.0935 133.745 29.0935Z" fill="#7BC6CC"/>
<g id="Group_6">
<path id="Vector_23" d="M180.37 178.017C181.117 178.063 181.53 177.145 180.965 176.611L180.909 176.39C180.916 176.372 180.923 176.355 180.931 176.337C181.687 174.557 184.248 174.569 184.998 176.352C185.663 177.934 186.51 179.52 186.718 181.193C186.812 181.931 186.77 182.684 186.604 183.409C188.163 180.046 188.983 176.373 188.983 172.68C188.983 171.752 188.931 170.824 188.826 169.899C188.74 169.142 188.621 168.389 188.466 167.644C187.632 163.613 185.826 159.775 183.22 156.569C181.968 155.892 180.923 154.835 180.292 153.568C180.066 153.111 179.888 152.619 179.804 152.118C179.947 152.137 180.342 149.993 180.234 149.861C180.433 149.563 180.788 149.415 181.005 149.125C182.084 147.68 183.571 147.932 184.347 149.896C186.005 150.722 186.021 152.093 185.003 153.411C184.356 154.25 184.267 155.385 183.699 156.282C183.758 156.356 183.819 156.428 183.877 156.502C184.948 157.859 185.875 159.318 186.656 160.85C186.435 159.147 186.761 157.095 187.317 155.772C187.949 154.265 189.135 152.996 190.179 151.693C191.433 150.128 194.004 150.811 194.225 152.795C194.227 152.814 194.229 152.833 194.231 152.852C194.076 152.939 193.924 153.031 193.776 153.128C192.929 153.681 193.222 154.977 194.225 155.13L194.247 155.133C194.191 155.685 194.096 156.232 193.955 156.77C195.295 161.886 192.403 163.749 188.275 163.833C188.184 163.879 188.095 163.925 188.004 163.969C188.422 165.132 188.756 166.326 189.004 167.535C189.226 168.604 189.38 169.684 189.466 170.769C189.574 172.138 189.565 173.513 189.448 174.88L189.455 174.831C189.752 173.326 190.579 171.921 191.78 170.947C193.569 169.495 196.097 168.96 198.027 167.793C198.957 167.231 200.147 167.957 199.985 169.021L199.977 169.072C199.69 169.188 199.409 169.322 199.138 169.472C198.983 169.558 198.831 169.65 198.683 169.747C197.836 170.3 198.129 171.596 199.132 171.749L199.155 171.752C199.171 171.754 199.185 171.757 199.201 171.759C198.708 172.915 198.021 173.989 197.161 174.914C196.324 179.381 192.727 179.804 188.88 178.504H188.878C188.457 180.313 187.842 182.081 187.053 183.766H180.533C180.51 183.695 180.489 183.621 180.468 183.549C181.071 183.586 181.678 183.552 182.272 183.443C181.788 182.857 181.304 182.266 180.821 181.68C180.809 181.668 180.8 181.657 180.79 181.645C180.545 181.345 180.297 181.047 180.052 180.747L180.052 180.747C180.036 179.826 180.148 178.908 180.37 178.017Z" fill="#F2F2F2"/>
<path id="Vector_24" d="M0 183.786C0 184.022 0.191758 184.211 0.430549 184.211H199.519C199.758 184.211 199.949 184.022 199.949 183.786C199.949 183.55 199.758 183.36 199.519 183.36H0.430549C0.191758 183.36 0 183.55 0 183.786Z" fill="#CCCCCC"/>
</g>
</g>
</g>
<defs>
<clipPath id="clip0_0_1">
<rect width="393" height="852" fill="white" transform="translate(-96 -282)"/>
</clipPath>
<clipPath id="clip1_0_1">
<rect width="200" height="184.211" fill="white"/>
</clipPath>
</defs>
</svg>
