<svg width="22" height="22" viewBox="0 0 22 22" fill="none" xmlns="http://www.w3.org/2000/svg">
<g id="Vector">
<path d="M0 2C0 0.89543 0.895431 0 2 0H20C21.1046 0 22 0.895431 22 2V20C22 21.1046 21.1046 22 20 22H2C0.89543 22 0 21.1046 0 20V2Z" fill="#BE94C6"/>
<path d="M13.5 17C13.3984 17 13.2988 16.9821 13.2012 16.9463C13.1035 16.9104 13.0117 16.8527 12.9258 16.7731L12.2344 16.1284C11.3828 15.3562 10.6309 14.602 9.97852 13.8657C9.32617 13.1294 9 12.3274 9 11.4597C9 10.7592 9.23438 10.1741 9.70312 9.70448C10.1719 9.23483 10.7539 9 11.4492 9C11.8477 9 12.2246 9.08557 12.5801 9.25672C12.9355 9.42786 13.2422 9.67264 13.5 9.99104C13.7734 9.67264 14.084 9.42786 14.4316 9.25672C14.7793 9.08557 15.1523 9 15.5508 9C16.2461 9 16.8281 9.23483 17.2969 9.70448C17.7656 10.1741 18 10.7592 18 11.4597C18 12.3274 17.6738 13.1294 17.0215 13.8657C16.3691 14.602 15.6172 15.3562 14.7656 16.1284L14.0742 16.7731C13.9883 16.8527 13.8965 16.9104 13.7988 16.9463C13.7012 16.9821 13.6016 17 13.5 17Z" fill="white" fill-opacity="0.8"/>
</g>
</svg>
