<svg width="151" height="185" viewBox="0 0 151 185" fill="none" xmlns="http://www.w3.org/2000/svg">
<g id="undraw_balloons_re_8ymj 1" clip-path="url(#clip0_374_579)">
<path id="Vector" d="M62.6296 181.523H65.8674L67.4082 169.034H62.6296V181.523Z" fill="#FFB8B8"/>
<path id="Vector_2" d="M61.8038 180.466H68.1801C69.2575 180.467 70.2904 180.896 71.0522 181.658C71.814 182.419 72.2426 183.452 72.2438 184.53V184.662H61.8038V180.466Z" fill="#2F2E41"/>
<path id="Vector_3" d="M20.877 175.388L23.6524 177.055L31.405 167.144L27.3088 164.682L20.877 175.388Z" fill="#FFB8B8"/>
<path id="Vector_4" d="M18.5527 177.653L20.7135 174.056L26.1792 177.34C27.1021 177.896 27.7667 178.796 28.0274 179.841C28.288 180.886 28.1234 181.993 27.5696 182.917L27.5016 183.03L18.5527 177.653Z" fill="#2F2E41"/>
<path id="Vector_5" d="M61.7487 178.906C61.0956 178.241 59.4731 167.318 57.0724 150.73C56.2376 144.962 55.4475 139.502 54.7965 135.321C49.2257 147.568 40.2194 160.816 29.3969 172.676L29.3345 172.744L29.2491 172.709C25.7868 171.283 25.1424 170.953 23.5856 170.155C23.1207 169.916 22.5739 169.636 21.8455 169.272L21.8052 169.24C21.4709 168.858 24.5215 163.794 35.1877 146.576C39.8341 139.075 44.6387 131.32 47.8209 125.935L47.8505 125.885L47.9076 125.873C55.6001 124.269 63.0175 126.152 68.7932 131.176L68.8401 131.217L68.8385 131.279C68.6827 137.593 68.8136 147.508 68.9291 156.256C69.1546 173.335 69.1399 178.324 68.6079 178.483L68.5811 178.488C67.8014 178.552 67.1542 178.615 66.5576 178.674C64.9924 178.85 63.4187 178.941 61.8437 178.946L61.7878 178.946L61.7487 178.906Z" fill="#2F2E41"/>
<path id="Vector_6" d="M44.9783 78.3178C43.8884 73.8173 42.965 68.7411 45.0205 64.5961C46.4468 61.72 51.723 60.7515 54.7475 61.7876C57.7721 62.8238 59.9588 65.6348 60.9206 68.6998C61.8823 71.7648 61.7706 75.0675 61.3514 78.2538C55.7888 78.1469 50.2263 78.0401 44.9783 78.3178Z" fill="#2F2E41"/>
<path id="Vector_7" d="M54.3653 78.3167C57.9477 78.3167 60.8518 75.4124 60.8518 71.8299C60.8518 68.2473 57.9477 65.343 54.3653 65.343C50.7829 65.343 47.8788 68.2473 47.8788 71.8299C47.8788 75.4124 50.7829 78.3167 54.3653 78.3167Z" fill="#FFB8B8"/>
<path id="Vector_8" d="M46.4356 70.4935C46.415 69.4017 46.614 68.317 47.0209 67.3036C47.4277 66.2903 48.0341 65.3691 48.804 64.5948C49.5739 63.8204 50.4916 63.2088 51.5025 62.7961C52.5135 62.3834 53.597 62.1782 54.6888 62.1926C55.7807 62.207 56.8584 62.4407 57.8581 62.8799C58.8579 63.3191 59.7591 63.9547 60.5083 64.7491C61.2575 65.5434 61.8394 66.4803 62.2194 67.504C62.5994 68.5277 62.7698 69.6173 62.7204 70.7082C57.1684 70.72 51.6165 70.7318 46.4356 70.4935Z" fill="#2F2E41"/>
<path id="Vector_9" d="M71.9221 133.96C70.726 129.879 70.1302 127.023 69.4421 123.724C68.4989 119.203 67.4298 114.078 64.4848 104.1L64.4775 104.075L64.48 104.05C65.3139 95.3964 61.6789 86.2136 54.9937 80.0849C54.5451 79.7056 53.969 79.5111 53.3823 79.5408C52.7956 79.5705 52.2421 79.8222 51.8341 80.2449C48.0731 84.4687 45.7094 88.4249 44.6082 92.34L44.5844 92.4249C46.1545 97.4774 47.9117 102.555 49.6118 107.468L49.6362 107.538L49.5886 107.595C43.2238 115.259 39.7036 125.503 39.9157 135.728C46.0077 133.599 52.4185 132.526 58.8718 132.555C63.2596 132.556 67.6346 133.027 71.9221 133.96Z" fill="#2F2E41"/>
<path id="Vector_10" opacity="0.1" d="M49.3708 101.013L58.9512 121.871L64.4244 116.331L49.3708 101.013Z" fill="black"/>
<path id="Vector_11" d="M101.58 21.2627C101.671 9.5939 94.0599 0.0744646 84.5795 0.000434313C75.099 -0.073596 67.3397 9.32581 67.2486 20.9946C67.166 31.5738 73.4147 40.3859 81.6474 41.9947L81.079 45.4016L87.3705 45.4507L86.8554 42.0354C95.1122 40.5554 101.498 31.8419 101.58 21.2627Z" fill="#BE94C6"/>
<path id="Vector_12" d="M73.0153 26.5862L70.6385 26.5676C69.8858 22.1063 69.9214 17.5475 70.7437 13.0984L73.1205 13.117C72.0555 17.766 72.0204 22.2557 73.0153 26.5862Z" fill="white"/>
<path id="Vector_13" d="M87.8168 42.0205L80.6863 41.9648L80.674 43.5495L87.8044 43.6051L87.8168 42.0205Z" fill="#3F3D56"/>
<path id="Vector_14" d="M134.613 27.7058C135.537 16.0732 128.624 6.0347 119.173 5.28407C109.722 4.53343 101.311 13.3549 100.388 24.9875C99.5501 35.5337 105.154 44.7695 113.251 46.9619L112.441 50.3195L118.713 50.8176L118.443 47.3742C126.784 46.4874 133.775 38.252 134.613 27.7058Z" fill="#7BC6CC"/>
<path id="Vector_15" d="M105.741 30.9762L103.371 30.788C102.939 26.2843 103.3 21.7396 104.437 17.3606L106.807 17.5488C105.413 22.1099 105.057 26.5857 105.741 30.9762Z" fill="white"/>
<path id="Vector_16" d="M119.402 47.4281L112.294 46.8635L112.169 48.4432L119.277 49.0078L119.402 47.4281Z" fill="#3F3D56"/>
<path id="Vector_17" d="M115.599 47.4748L63.7042 132.184L64.3799 132.598L116.274 47.8887L115.599 47.4748Z" fill="#3F3D56"/>
<path id="Vector_18" d="M148.027 39.1336C153.518 28.8368 151.186 16.8733 142.821 12.4123C134.455 7.95138 123.222 12.6823 117.732 22.9791C112.755 32.3144 114.206 43.0194 120.755 48.2617L118.672 51.0168L124.224 53.9772L125.351 50.7123C133.353 53.229 143.05 48.4689 148.027 39.1336Z" fill="#BE94C6"/>
<path id="Vector_19" d="M120.25 30.607L118.152 29.4886C119.553 25.1867 121.698 21.1639 124.49 17.603L126.587 18.7214C123.488 22.3469 121.376 26.3087 120.25 30.607Z" fill="white"/>
<path id="Vector_20" d="M126.209 51.1447L119.917 47.7896L119.172 49.1879L125.464 52.543L126.209 51.1447Z" fill="#3F3D56"/>
<path id="Vector_21" d="M122.216 50.2178L63.7742 130.549L64.4149 131.015L122.856 50.684L122.216 50.2178Z" fill="#3F3D56"/>
<path id="Vector_22" d="M84.6864 42.7282L67.3163 140.54L68.0963 140.678L85.4665 42.8667L84.6864 42.7282Z" fill="#3F3D56"/>
<path id="Vector_23" d="M70.7301 123.184C70.3427 123.157 69.966 123.046 69.6265 122.858C69.287 122.669 68.9928 122.409 68.7648 122.095C68.5368 121.78 68.3805 121.42 68.3069 121.039C68.2332 120.657 68.2441 120.265 68.3386 119.888L60.4446 114.716L64.9466 112.771L71.7528 117.981C72.3748 118.181 72.9016 118.603 73.2334 119.167C73.5651 119.73 73.6787 120.395 73.5526 121.037C73.4265 121.678 73.0696 122.251 72.5494 122.647C72.0292 123.043 71.3818 123.234 70.7301 123.184Z" fill="#FFB8B8"/>
<path id="Vector_24" d="M63.0543 119.366C58.3336 113.935 53.452 108.319 49.008 102.673L48.9795 102.635L48.9797 102.589C49 97.9785 49.0209 93.2119 49.567 87.8793C49.135 87.4228 48.8103 86.8756 48.6167 86.2776C48.4232 85.6796 48.3656 85.0459 48.4482 84.4228C48.5068 83.7234 48.7219 83.0461 49.0776 82.4411C49.4334 81.836 49.9206 81.3188 50.5033 80.9276C52.7276 79.5224 56.0604 80.2832 57.6357 82.5562C59.1566 84.7505 58.9344 87.8939 57.7739 89.4771L56.489 99.5536L56.3754 99.5448L56.4006 99.5576L56.4095 99.5502L56.4261 99.5705L56.4654 99.5905C56.4633 99.5947 56.4606 99.6006 56.4574 99.6088C60.626 104.699 64.9358 109.96 69.241 114.997L69.3364 115.109L69.2152 115.192C67.1982 116.575 65.1125 118.005 63.2338 119.388L63.1342 119.458L63.0543 119.366Z" fill="#BE94C6"/>
<path id="Vector_25" d="M100.886 185H0.264098C0.194055 185 0.126884 184.972 0.0773564 184.923C0.0278284 184.873 0 184.806 0 184.736C0 184.666 0.0278284 184.599 0.0773564 184.549C0.126884 184.5 0.194055 184.472 0.264098 184.472H100.886C100.956 184.472 101.023 184.5 101.072 184.549C101.122 184.599 101.15 184.666 101.15 184.736C101.15 184.806 101.122 184.873 101.072 184.923C101.023 184.972 100.956 185 100.886 185Z" fill="#3F3D56"/>
<path id="Vector_26" d="M140.502 129.861L140.342 130.365L130.391 127.207C131.274 128.372 134.23 132.012 137.301 132.814C140.97 133.773 142.86 132.433 143.413 130.316C143.966 128.199 142.972 126.107 139.303 125.148C136.193 124.336 131.762 126.12 130.484 126.682L140.502 129.861Z" fill="#F2F2F2"/>
<path id="Vector_27" d="M93.4644 163.625L92.9367 163.652L92.4088 153.225C91.6263 154.46 89.2526 158.503 89.5769 161.661C89.9645 165.434 91.881 166.735 94.0574 166.511C96.2338 166.287 97.8459 164.624 97.4584 160.852C97.13 157.654 93.9074 154.128 92.9328 153.128L93.4644 163.625Z" fill="#F2F2F2"/>
<path id="Vector_28" d="M8.06342 28.5509L8.37818 28.1265L16.763 34.3463C16.3074 32.9575 14.6945 28.5547 12.0505 26.798C8.89184 24.6993 6.66954 25.3521 5.45879 27.1746C4.24804 28.997 4.50731 31.2987 7.66599 33.3975C10.3435 35.1765 15.1132 34.9292 16.5048 34.8125L8.06342 28.5509Z" fill="#F2F2F2"/>
</g>
<defs>
<clipPath id="clip0_374_579">
<rect width="151" height="185" fill="white"/>
</clipPath>
</defs>
</svg>
