<svg width="287" height="137" viewBox="0 0 287 137" fill="none" xmlns="http://www.w3.org/2000/svg">
<g clip-path="url(#clip0_479_1709)">
<path d="M110.211 0H4.2016V135.81H110.211V0Z" fill="#E6E6E6"/>
<path d="M102.954 8.18921H11.2383V66.2846H102.954V8.18921Z" fill="white"/>
<path d="M102.955 63.9021H11.2376V126.168H102.955V63.9021Z" fill="white"/>
<path d="M59.4782 7.89136H54.7138V66.2847H59.4782V7.89136Z" fill="#3F3D56"/>
<path d="M102.954 7.89136H98.1893V66.2847H102.954V7.89136Z" fill="#3F3D56"/>
<path d="M102.954 61.5178H11.2383V66.2846H102.954V61.5178Z" fill="#3F3D56"/>
<path d="M24.1998 39.4714L16.0028 44.984V49.5447L28.4204 39.4714H24.1998Z" fill="white"/>
<path d="M37.7052 39.4714L16.0028 56.4694V60.3546L44.2891 39.4714H37.7052Z" fill="#E6E6E6"/>
<path d="M16.0027 7.89136H11.2383V66.2847H16.0027V7.89136Z" fill="#3F3D56"/>
<path d="M89.7014 12.6582L71.3893 35.8963L77.0472 36.4919L92.8293 11.7644L89.7014 12.6582Z" fill="#E6E6E6"/>
<path d="M102.954 7.89136H11.2383V12.6582H102.954V7.89136Z" fill="#3F3D56"/>
<path d="M102.954 34.7046H11.2383V39.4714H102.954V34.7046Z" fill="#3F3D56"/>
<path d="M283.768 0H177.759V135.81H283.768V0Z" fill="#E6E6E6"/>
<path d="M276.504 8.01855H184.788V66.1139H276.504V8.01855Z" fill="white"/>
<path d="M276.503 63.7307H184.789V125.997H276.503V63.7307Z" fill="white"/>
<path d="M233.028 7.7207H228.264V66.114H233.028V7.7207Z" fill="#3F3D56"/>
<path d="M276.504 7.7207H271.739V66.114H276.504V7.7207Z" fill="#3F3D56"/>
<path d="M276.504 61.3472H184.788V66.114H276.504V61.3472Z" fill="#3F3D56"/>
<path d="M197.75 39.3005L189.552 44.8135V49.3738L201.97 39.3005H197.75Z" fill="#E6E6E6"/>
<path d="M211.255 39.3005L189.552 56.2985V60.1837L217.839 39.3005H211.255Z" fill="#E6E6E6"/>
<path d="M189.553 7.7207H184.788V66.114H189.553V7.7207Z" fill="#3F3D56"/>
<path d="M263.251 12.4875L244.939 35.7257L250.597 36.3213L266.379 11.5938L263.251 12.4875Z" fill="#E6E6E6"/>
<path d="M276.504 7.7207H184.788V12.4875H276.504V7.7207Z" fill="#3F3D56"/>
<path d="M276.504 34.5339H184.788V39.3007H276.504V34.5339Z" fill="#3F3D56"/>
<path d="M228.617 77.8464C228.617 77.8464 228.966 79.01 226.989 80.0572C225.012 81.1044 224.431 85.0605 226.757 86.2241C229.083 87.3877 229.78 88.9003 228.617 89.9475C227.454 90.9947 225.361 93.7873 228.152 94.4854C230.943 95.1836 231.292 96.5798 230.478 97.1616C229.664 97.7434 232.339 96.1144 232.339 96.1144C232.339 96.1144 232.804 98.907 235.247 98.2088C237.689 97.5107 244.55 84.246 241.061 82.3843C237.572 80.5226 228.617 77.8464 228.617 77.8464Z" fill="#2F2E41"/>
<path d="M225.444 104.383L214.285 112.229C214.285 112.229 205.84 103.478 205.84 98.3486C205.84 93.2189 201.316 83.5632 199.205 87.4859C197.094 91.4085 201.618 100.763 201.618 100.763L210.062 120.678C210.062 120.678 214.888 121.583 217.602 119.471C220.317 117.358 227.856 113.134 227.856 113.134L225.444 104.383Z" fill="#FFB9B9"/>
<path d="M236.452 91.2577C241.116 91.2577 244.896 87.475 244.896 82.8089C244.896 78.1428 241.116 74.3601 236.452 74.3601C231.788 74.3601 228.007 78.1428 228.007 82.8089C228.007 87.475 231.788 91.2577 236.452 91.2577Z" fill="#FFB9B9"/>
<path d="M232.079 88.6928C232.079 88.6928 235.095 96.5381 233.888 98.3486C232.682 100.159 231.174 100.159 229.968 100.762C229.364 101.064 223.031 103.478 223.031 105.289C223.06 106.452 223.371 107.591 223.936 108.608L224.841 113.737L232.38 118.565L242.333 117.358L249.873 113.134C249.873 113.134 251.079 101.969 247.762 100.159C244.444 98.3486 240.523 94.1242 240.825 92.6155C241.127 91.1067 241.428 87.4858 241.428 87.4858L232.079 88.6928Z" fill="#FFB9B9"/>
<path d="M248.064 111.627V111.636L247.793 114.301L247.447 117.719L247.053 121.583L246.607 125.997H224.752C224.458 123.584 223.938 121.027 223.029 119.471C222.459 118.546 222.204 117.459 222.305 116.377C222.509 114.356 223.934 112.946 223.934 112.532C223.934 112.079 221.394 109.424 220.124 108.121C219.697 107.685 219.413 107.4 219.413 107.4L223.333 104.383L223.388 104.477L223.938 105.441L225.744 108.606L225.143 111.022C225.143 111.022 226.077 111.184 227.376 111.39C229.623 111.743 232.964 112.228 234.49 112.228C235.906 112.228 237.635 112.956 239.063 113.373C239.108 113.386 239.15 113.399 239.193 113.411C240.091 113.664 240.86 113.78 241.345 113.489C241.374 113.473 241.402 113.454 241.429 113.434C241.682 113.263 241.956 113.125 242.244 113.023H242.247C243.291 112.654 244.36 112.358 245.446 112.137C246.668 111.869 247.741 111.682 248.003 111.636L248.004 111.635L248.006 111.635L248.008 111.635L248.009 111.636C248.045 111.63 248.064 111.627 248.064 111.627Z" fill="#BE94C6"/>
<path d="M249.005 111.167C248.982 111.329 248.963 111.494 248.943 111.656C248.85 112.367 248.772 113.078 248.704 113.79C248.517 115.678 248.404 117.572 248.365 119.471C248.354 120.18 248.279 120.887 248.142 121.583C247.842 123.08 247.438 124.555 246.933 125.996H238.394C238.62 124.315 238.924 121.728 239.073 119.018V119.015C239.096 118.595 239.112 118.171 239.128 117.748C239.184 116.324 239.164 114.898 239.07 113.476C239.066 113.44 239.066 113.405 239.063 113.373C239.047 113.188 239.031 113.01 239.015 112.833C238.414 106.799 242.03 100.16 242.03 100.16C243.255 100.16 244.451 100.836 245.518 101.767C246.82 102.932 247.818 104.396 248.426 106.035C249.034 107.673 249.232 109.435 249.005 111.167Z" fill="#FFB9B9"/>
<path opacity="0.1" d="M248.365 119.471C248.354 120.18 248.279 120.887 248.142 121.583C247.842 123.08 247.438 124.555 246.933 125.997H238.33C238.592 123.278 238.673 120.545 238.572 117.816C238.556 117.415 238.533 117.007 238.501 116.603V116.597C238.478 116.247 238.449 115.898 238.414 115.549C238.36 115.145 238.382 114.735 238.478 114.34V114.333C238.547 114.032 238.711 113.762 238.947 113.563C238.985 113.531 239.026 113.502 239.07 113.476C239.108 113.45 239.149 113.429 239.193 113.411C239.232 113.39 239.273 113.372 239.315 113.357C239.653 113.245 240.011 113.214 240.363 113.266C240.697 113.306 241.026 113.381 241.345 113.489C242.769 114.011 244.1 114.76 245.285 115.707C246.073 116.301 246.797 116.975 247.447 117.719C248.016 118.391 248.365 119.012 248.365 119.471Z" fill="black"/>
<path d="M238.111 114.944L239.072 119.018L244.444 121.583H248.968L251.079 111.927C251.079 111.927 247.352 111.138 245.445 112.136C243.539 113.134 239.063 113.373 239.063 113.373L238.111 114.944Z" fill="#BE94C6"/>
<path d="M236.521 74.3291C236.521 74.3291 236.907 75.6181 234.717 76.7782C232.527 77.9383 231.883 82.3209 234.46 83.6099C237.036 84.8989 237.809 86.5746 236.521 87.7347C235.233 88.8948 232.913 91.9884 236.006 92.7618C239.098 93.5352 239.484 95.082 238.582 95.7265C237.68 96.371 240.644 94.5664 240.644 94.5664C240.644 94.5664 241.159 97.66 243.865 96.8866C246.57 96.1132 249.27 82.0546 246.254 78.4337C243.449 75.0669 236.521 74.3291 236.521 74.3291Z" fill="#2F2E41"/>
<path d="M235.698 73.0021C235.698 71.1137 247.43 73.1868 249.851 75.8235C251.528 77.6493 254.074 80.3963 251.94 82.3327C249.806 84.269 249.514 86.0911 251.067 86.8608C252.62 87.6304 255.687 89.9838 252.918 91.5627C250.149 93.1415 250.193 94.7353 251.235 95.1127C252.278 95.49 248.938 94.5516 248.938 94.5516C248.938 94.5516 249.275 97.6696 246.461 97.6547C243.648 97.6398 235.575 82.1684 237.504 77.868C239.297 73.8694 235.698 73.0021 235.698 73.0021Z" fill="#2F2E41"/>
<path d="M236.921 72.5884C229.369 72.1334 228.612 77.8206 228.612 77.8206C228.664 81.1117 233.888 79.5081 235.339 79.9987C237.089 78.7389 240.463 76.3552 242.876 74.654C241.124 73.4199 239.06 72.704 236.921 72.5884Z" fill="#2F2E41"/>
<path d="M29.8099 125.278V127.179C29.8099 127.179 28.5433 137 25.0602 137C21.5771 137 24.4269 126.862 24.4269 126.862V125.278L29.8099 125.278Z" fill="#9E616A"/>
<path d="M82.6904 89.4791L82.057 87.8951C82.057 87.8951 77.9406 81.8758 80.7905 80.2917C83.6403 78.7077 87.1235 86.6279 87.1235 86.6279L87.7568 89.1623L82.6904 89.4791Z" fill="#9E616A"/>
<path d="M69.5494 87.5454C74.1656 87.5454 77.9078 83.8014 77.9078 79.1829C77.9078 74.5643 74.1656 70.8203 69.5494 70.8203C64.9332 70.8203 61.191 74.5643 61.191 79.1829C61.191 83.8014 64.9332 87.5454 69.5494 87.5454Z" fill="#9E616A"/>
<path d="M63.533 80.1333L57.8337 84.5685L65.7498 91.2213L70.1825 85.8357L63.533 80.1333Z" fill="#9E616A"/>
<path d="M68.7346 126.168H39.6273L41.8348 102.747L43.4734 85.3536V85.3504C43.5084 84.9772 43.6167 84.6146 43.792 84.2833C43.9673 83.952 44.2062 83.6586 44.495 83.4198C44.7838 83.181 45.1169 83.0016 45.4751 82.8917C45.8333 82.7819 46.2096 82.7438 46.5826 82.7797L58.6605 83.9244L67.5484 89.0367L67.807 91.381L76.6755 97.7156L70.6479 109.188L66.8568 116.409L68.7346 126.168Z" fill="#BE94C6"/>
<path d="M43.7425 100.251L35.5096 111.022L30.4432 126.229H22.8436L28.2267 103.735L42.4359 84.2969C42.8014 83.7995 43.3178 83.4336 43.9081 83.2538C44.4984 83.074 45.131 83.0898 45.7115 83.299C45.8929 83.3738 46.0822 83.4277 46.2757 83.4599L43.7425 100.251Z" fill="#BE94C6"/>
<path d="M69.7077 108.804L89.4984 116.883L92.9812 113.398L88.0734 87.895L81.7404 89.1626L84.2736 104.369L76.6742 97.7164L74.1407 97.0826L69.7077 108.804Z" fill="#BE94C6"/>
<path d="M61.3649 81.8916C60.9644 78.5643 61.3368 75.1893 62.453 72.0295C64.3074 67.0492 70.2199 68.5501 73.5869 69.6796C76.9538 70.809 81.4152 75.5334 80.2544 78.1122C79.0936 80.6909 73.5844 77.433 71.6193 75.7721C69.6543 74.1112 66.2209 79.1555 66.2209 79.1555L61.3649 81.8916Z" fill="#2F2E41"/>
<path d="M67.2865 78.8983C67.5951 78.0491 67.4629 77.2216 66.9914 77.0501C66.5198 76.8786 65.8874 77.428 65.5788 78.2772C65.2702 79.1265 65.4024 79.954 65.8739 80.1255C66.3455 80.297 66.9779 79.7476 67.2865 78.8983Z" fill="#9E616A"/>
</g>
<defs>
<clipPath id="clip0_479_1709">
<rect width="287" height="137" fill="white"/>
</clipPath>
</defs>
</svg>
