<svg width="250" height="176" viewBox="0 0 250 176" fill="none" xmlns="http://www.w3.org/2000/svg">
<g id="undraw_playing_cards_cywn 1" clip-path="url(#clip0_479_211)">
<path id="Vector" d="M197.557 175.576C196.314 175.575 195.077 175.405 193.881 175.068L144.2 161.765L144.346 161.242L194.027 174.545C195.176 174.868 196.364 175.032 197.557 175.033C203.404 175.033 208.59 171.644 210.168 166.014L245.533 39.8443L245.61 39.5697C246.539 36.2266 246.105 32.6514 244.405 29.6274C242.704 26.6034 239.874 24.377 236.536 23.4359L156.679 1.03388C153.336 0.100544 149.759 0.531725 146.733 2.23286C143.708 3.93399 141.48 6.76619 140.539 10.1083L137.764 20.0092L137.241 19.8625L140.016 9.96164C140.996 6.48086 143.316 3.5311 146.467 1.7594C149.619 -0.012295 153.344 -0.461279 156.825 0.510934L236.682 22.913C240.116 23.8808 243.035 26.1552 244.814 29.2493C246.593 32.3433 247.09 36.0111 246.2 39.4674L246.202 39.468L246.129 39.7295L210.69 166.16C209.047 172.024 203.646 175.576 197.557 175.576Z" fill="#2F2E41"/>
<path id="Vector_2" d="M140.868 22.8285L141.778 23.0838L144.576 23.8686L144.87 22.8204L143.822 22.5271L144.742 19.244L146.954 17.3214L147.543 23.5726L145.915 23.1137L145.621 24.1619L149.802 25.335L150.095 24.2868L149.207 24.0397L148.355 16.1048L152.698 12.3275L153.917 12.6697L154.21 11.6215L150.027 10.4484L149.734 11.4966L151.113 11.8822L145.589 16.2243L147.12 10.7634L148.168 11.0566L148.461 10.0084L144.278 8.83533L143.985 9.88353L145.554 10.3234L142.255 22.0872L140.687 21.6473L140.646 21.7885L140.478 22.3968L140.868 22.8285Z" fill="#BE94C6"/>
<path id="Vector_3" d="M147.598 32.7403C146.553 33.1928 145.534 33.7014 144.544 34.2637C144.362 34.3669 144.18 34.4728 144.001 34.5787V31.2195C144.003 30.0111 143.832 28.8087 143.494 27.6486C143.651 27.5508 143.811 27.4449 143.969 27.339C144.113 27.244 144.259 27.1462 144.403 27.0485C145.296 29.0372 146.366 30.942 147.598 32.7403Z" fill="#BE94C6"/>
<path id="Vector_4" d="M197.347 166.149L196.13 165.807L195.836 166.853L200.018 168.026L200.311 166.98L198.934 166.594L204.456 162.25L202.925 167.713L201.88 167.42L201.586 168.466L205.768 169.639L206.061 168.593L204.493 168.153L207.791 156.387L209.36 156.827L209.653 155.781L205.471 154.608L205.178 155.654L206.223 155.947L205.303 159.231L203.091 161.154L202.504 154.904L204.132 155.361L204.425 154.315L200.244 153.142L199.95 154.187L200.839 154.437L201.692 162.371L197.347 166.149Z" fill="#BE94C6"/>
<path id="Vector_5" d="M202.447 145.735C204.404 144.896 206.266 143.849 208.001 142.613C208.93 144.584 209.999 146.486 211.198 148.304C209.254 149.17 207.394 150.215 205.645 151.427C204.75 149.438 203.68 147.534 202.447 145.735Z" fill="#BE94C6"/>
<path id="Vector_6" d="M165.824 89.1954C165.824 89.1954 164.451 98.1172 164.043 98.5668C163.635 99.0164 166.893 109.519 166.893 109.519L177.341 103.425C177.341 103.425 179.374 92.1503 180.043 91.774C180.712 91.3977 165.824 89.1954 165.824 89.1954Z" fill="#FFB8B8"/>
<path id="Vector_7" opacity="0.1" d="M165.824 89.1954C165.824 89.1954 164.451 98.1172 164.043 98.5668C163.635 99.0164 166.893 109.519 166.893 109.519L177.341 103.425C177.341 103.425 179.374 92.1503 180.043 91.774C180.712 91.3977 165.824 89.1954 165.824 89.1954Z" fill="black"/>
<path id="Vector_8" d="M173.907 97.8335C179.604 97.8335 184.222 93.2135 184.222 87.5145C184.222 81.8154 179.604 77.1954 173.907 77.1954C168.21 77.1954 163.592 81.8154 163.592 87.5145C163.592 93.2135 168.21 97.8335 173.907 97.8335Z" fill="#FFB8B8"/>
<path id="Vector_9" d="M169.437 103.464L168.538 102.648L164.497 96.8952C164.497 96.8952 164.034 96.5899 163.594 98.1587L163.154 99.7275L159.358 101.201L150.959 137.201L173.436 143.506L182.693 107.465L178.345 102.861L177.864 100.64L171.151 103.381L169.437 103.464Z" fill="white"/>
<path id="Vector_10" d="M144.001 140.89L144.544 141.042L179.549 150.861L191.254 112.124C191.254 112.124 188.485 109.935 186.319 109.609C186.319 109.609 182.682 105.487 181.116 105.047C179.547 104.607 177.812 100.738 177.812 100.738C177.812 100.738 175.98 107.274 172.831 111.467C169.682 115.659 164.199 130.199 164.199 130.199L162.652 103.535L164.389 96.8299C163.379 97.4285 162.46 98.1683 161.658 99.0268C160.434 100.374 157.31 101.471 157.31 101.471C157.31 101.471 149.08 103.676 147.625 103.833C146.173 103.988 145.502 104.366 145.502 104.366L144.544 110.962L144.001 114.698V140.89Z" fill="#2F2E41"/>
<path id="Vector_11" d="M148.778 125.873C148.453 128.037 145.103 136.968 145.103 136.968L144.544 137.531L144.001 138.076V104.998C144.152 104.834 144.337 104.705 144.544 104.621C144.85 104.493 145.173 104.408 145.502 104.366L146.55 104.659C146.55 104.659 149.104 123.706 148.778 125.873Z" fill="#2F2E41"/>
<path id="Vector_12" d="M172.623 137.355C172.623 137.355 177.76 128.079 181.649 130.298C185.538 132.517 179.304 138.665 179.304 138.665L172.623 137.355Z" fill="#FFB8B8"/>
<path id="Vector_13" d="M156.721 133.741C156.721 133.741 146.863 130.693 146.643 131.477C146.423 132.262 143.724 136.863 144.508 137.083C145.292 137.303 151.376 138.728 151.303 138.989C151.23 139.251 154.22 140.654 154.22 140.654L156.721 133.741Z" fill="#FFB8B8"/>
<path id="Vector_14" d="M175.94 104.41L169.666 104.657L168.359 104.29L163.128 100.815L161.395 106.003L167.993 105.597L169.299 105.964L174.725 109.742L175.94 104.41Z" fill="#BE94C6"/>
<path id="Vector_15" d="M159.08 143.429L158.116 145.482L144.272 141.68L144.001 140.89V136.537L144.544 136.748L145.103 136.968L159.08 143.429Z" fill="#2F2E41"/>
<path id="Vector_16" d="M159.596 134.547C159.596 134.547 156.345 133.071 156.272 133.332C156.198 133.594 151.835 141.113 152.881 141.406C153.926 141.7 157.627 143.584 157.627 143.584L159.596 134.547Z" fill="white"/>
<path id="Vector_17" d="M189.425 111.61L191.254 112.123C191.254 112.123 192.3 112.416 192.383 114.132C192.466 115.847 193.884 123.86 193.215 124.236C192.546 124.612 192.358 124.278 192.734 124.947C193.11 125.617 193.445 125.429 193.037 125.878C192.629 126.328 191.693 140.731 188.659 145.52C185.625 150.31 184.704 152.59 183.658 152.296L156.56 144.695C156.56 144.695 157.767 134.034 158.886 134.066C160.004 134.098 178.332 138.111 178.332 138.111C178.332 138.111 185.431 110.771 189.425 111.61Z" fill="#2F2E41"/>
<path id="Vector_18" d="M167.83 76.2044L166.137 74.9902C166.137 74.9902 171.182 72.1537 176.568 74.0344L175.459 72.0593C175.459 72.0593 179.612 71.7456 182.03 76.3058C183.301 78.703 184.761 81.5115 185.358 84.3812L187.376 84.9473L186.062 86.3963L188.537 88.9086L185.596 87.757C185.475 89.2924 184.955 90.7694 184.087 92.0414L182.873 93.7344C182.873 93.7344 181.669 87.4812 181.861 86.7956L181.381 88.5095C181.381 88.5095 179.929 86.4384 180.217 85.4101L178.853 86.3214L178.867 84.292L172 84.3991L173.46 83.1449L169.376 82.5537L171.446 81.101C171.446 81.101 166.368 82.0795 165.668 83.9167C164.968 85.7539 162.069 87.5285 162.069 87.5285L161.521 85.5263C161.521 85.5263 162.141 77.3814 167.83 76.2044Z" fill="#2F2E41"/>
<path id="Vector_19" d="M164.283 79.9167L164.364 79.565C165.149 76.1489 159.115 69.7957 159.054 69.7319L158.947 69.6201L158.989 69.4708C159.108 69.0449 159.587 68.6667 163.782 69.5765C165.416 69.9307 167.045 70.3625 167.726 70.5476C167.65 68.5971 165.233 66.0127 165.208 65.9854L164.904 65.6631L165.329 65.5383C168.115 64.7212 171.376 67.4313 172.419 68.3909L174.161 62.1751L177.609 67.2696C179.725 64.0999 182.787 64.2283 182.921 64.2357L183.35 64.2591L183.144 64.6371C181.693 67.2916 181.432 69.0353 181.417 69.8949C185.276 65.3086 188.753 65.7081 188.905 65.7281L189.432 65.7977L189.066 66.1839C184.015 71.524 183.42 78.5684 183.414 78.6389L183.396 78.8763L164.283 79.9167ZM159.655 69.5797C160.722 70.7364 165.335 75.9561 164.953 79.3363L182.898 78.3597C183.046 77.103 183.956 71.1232 188.247 66.2754C187.077 66.3799 184.319 67.0467 181.413 70.7619L181.08 71.1876L180.937 70.6662C180.915 70.584 180.429 68.6742 182.445 64.7944C181.521 64.8819 179.37 65.3658 177.849 67.9048L177.63 68.2703L174.368 63.4493L172.693 69.4235L172.365 69.0906C172.328 69.0534 168.827 65.5471 165.917 65.9651C166.664 66.8355 168.452 69.1277 168.256 70.9298L168.221 71.2485L167.913 71.162C164.485 70.2004 160.57 69.3798 159.655 69.5797Z" fill="#BE94C6"/>
<path id="Vector_20" d="M190.258 64.2975C190.072 64.2455 189.906 64.1396 189.781 63.9933C189.656 63.847 189.577 63.6668 189.554 63.4755C189.531 63.2843 189.565 63.0905 189.652 62.9187C189.739 62.7469 189.876 62.6049 190.044 62.5105C190.211 62.4161 190.403 62.3736 190.595 62.3884C190.787 62.4033 190.971 62.4747 191.122 62.5938C191.274 62.7128 191.386 62.8741 191.446 63.0572C191.506 63.2404 191.51 63.4371 191.458 63.6226C191.388 63.8712 191.222 64.0818 190.997 64.2084C190.772 64.3349 190.506 64.3669 190.258 64.2975ZM190.637 62.9447C190.555 62.9217 190.468 62.9235 190.387 62.95C190.306 62.9764 190.234 63.0263 190.182 63.0933C190.129 63.1603 190.098 63.2415 190.091 63.3264C190.084 63.4114 190.103 63.4964 190.145 63.5707C190.187 63.645 190.25 63.7053 190.326 63.7439C190.402 63.7824 190.487 63.7976 190.572 63.7875C190.656 63.7773 190.736 63.7423 190.801 63.6869C190.865 63.6314 190.912 63.558 190.935 63.476C190.966 63.3659 190.952 63.2482 190.896 63.1486C190.84 63.049 190.747 62.9757 190.637 62.9447Z" fill="#BE94C6"/>
<path id="Vector_21" d="M183.496 62.4007C183.311 62.3487 183.145 62.2429 183.019 62.0966C182.894 61.9503 182.815 61.7701 182.792 61.5788C182.769 61.3875 182.803 61.1937 182.891 61.022C182.978 60.8502 183.114 60.7081 183.282 60.6137C183.45 60.5194 183.642 60.4769 183.834 60.4917C184.026 60.5065 184.209 60.578 184.36 60.697C184.512 60.8161 184.625 60.9774 184.684 61.1605C184.744 61.3436 184.748 61.5404 184.696 61.7259C184.626 61.9744 184.461 62.1851 184.236 62.3116C184.011 62.4382 183.745 62.4702 183.496 62.4007ZM183.875 61.0479C183.793 61.0249 183.706 61.0268 183.625 61.0532C183.544 61.0797 183.473 61.1296 183.42 61.1966C183.367 61.2636 183.336 61.3447 183.329 61.4297C183.323 61.5147 183.342 61.5997 183.383 61.674C183.425 61.7483 183.488 61.8086 183.564 61.8471C183.64 61.8857 183.725 61.9009 183.81 61.8907C183.895 61.8806 183.974 61.8456 184.039 61.7901C184.104 61.7347 184.151 61.6613 184.174 61.5792C184.204 61.4692 184.19 61.3515 184.134 61.2519C184.078 61.1523 183.985 61.0789 183.875 61.0479Z" fill="#BE94C6"/>
<path id="Vector_22" d="M173.218 61.3415C173.033 61.2895 172.867 61.1837 172.742 61.0374C172.616 60.8911 172.537 60.7109 172.514 60.5196C172.491 60.3283 172.526 60.1345 172.613 59.9628C172.7 59.791 172.836 59.6489 173.004 59.5545C173.172 59.4602 173.364 59.4177 173.556 59.4325C173.748 59.4473 173.931 59.5188 174.083 59.6378C174.234 59.7569 174.347 59.9182 174.407 60.1013C174.466 60.2844 174.47 60.4812 174.418 60.6667C174.348 60.9152 174.183 61.1259 173.958 61.2524C173.733 61.379 173.467 61.411 173.218 61.3415ZM173.597 59.9887C173.515 59.9657 173.428 59.9676 173.347 59.994C173.266 60.0205 173.195 60.0704 173.142 60.1374C173.09 60.2044 173.058 60.2855 173.051 60.3705C173.045 60.4555 173.064 60.5405 173.105 60.6148C173.147 60.6891 173.21 60.7493 173.286 60.7879C173.362 60.8265 173.448 60.8417 173.532 60.8315C173.617 60.8214 173.697 60.7864 173.761 60.7309C173.826 60.6755 173.873 60.6021 173.896 60.52C173.926 60.41 173.912 60.2922 173.856 60.1926C173.8 60.093 173.707 60.0197 173.597 59.9887Z" fill="#BE94C6"/>
<path id="Vector_23" d="M156.81 69.1418C156.625 69.0898 156.459 68.9839 156.334 68.8376C156.209 68.6913 156.129 68.5111 156.107 68.3198C156.084 68.1286 156.118 67.9348 156.205 67.763C156.292 67.5912 156.428 67.4492 156.596 67.3548C156.764 67.2604 156.956 67.2179 157.148 67.2327C157.34 67.2476 157.523 67.319 157.675 67.4381C157.826 67.5571 157.939 67.7184 157.999 67.9015C158.059 68.0847 158.063 68.2814 158.011 68.4669C157.941 68.7155 157.775 68.9261 157.55 69.0527C157.325 69.1792 157.059 69.2112 156.81 69.1418ZM157.19 67.789C157.108 67.766 157.021 67.7678 156.94 67.7943C156.859 67.8207 156.787 67.8706 156.735 67.9376C156.682 68.0046 156.65 68.0858 156.644 68.1707C156.637 68.2557 156.656 68.3407 156.698 68.415C156.739 68.4893 156.802 68.5496 156.878 68.5882C156.954 68.6267 157.04 68.6419 157.125 68.6318C157.209 68.6216 157.289 68.5866 157.354 68.5312C157.418 68.4757 157.465 68.4023 157.488 68.3203C157.519 68.2102 157.505 68.0925 157.449 67.9929C157.393 67.8933 157.299 67.82 157.19 67.789Z" fill="#BE94C6"/>
<path id="Vector_24" d="M163.155 64.72C162.97 64.668 162.804 64.5621 162.679 64.4158C162.553 64.2695 162.474 64.0894 162.451 63.8981C162.428 63.7068 162.463 63.513 162.55 63.3412C162.637 63.1695 162.773 63.0274 162.941 62.933C163.109 62.8386 163.301 62.7962 163.493 62.811C163.685 62.8258 163.868 62.8973 164.02 63.0163C164.171 63.1354 164.284 63.2966 164.344 63.4798C164.403 63.6629 164.407 63.8596 164.355 64.0451C164.285 64.2937 164.12 64.5044 163.895 64.6309C163.67 64.7574 163.404 64.7894 163.155 64.72ZM163.534 63.3672C163.452 63.3442 163.365 63.346 163.284 63.3725C163.203 63.399 163.132 63.4489 163.079 63.5159C163.027 63.5829 162.995 63.664 162.989 63.749C162.982 63.834 163.001 63.919 163.042 63.9933C163.084 64.0676 163.147 64.1278 163.223 64.1664C163.299 64.205 163.385 64.2202 163.469 64.21C163.554 64.1999 163.634 64.1649 163.698 64.1094C163.763 64.054 163.81 63.9806 163.833 63.8985C163.863 63.7885 163.849 63.6707 163.793 63.5711C163.737 63.4715 163.644 63.3982 163.534 63.3672Z" fill="#BE94C6"/>
<path id="Vector_25" d="M195.514 156.186L195.252 156.113L144.085 141.759L144.231 141.236L195.138 155.517L227.312 40.7316L155.568 20.6056L144.625 59.6456L144.102 59.499L155.192 19.9359L155.453 20.0092L227.981 40.3555L227.908 40.6167L195.514 156.186Z" fill="#2F2E41"/>
<path id="Vector_26" d="M11.3011 166.695C14.6747 172.954 21.8348 175.641 21.8348 175.641C21.8348 175.641 23.5251 168.179 20.1514 161.92C16.7778 155.661 9.61779 152.974 9.61779 152.974C9.61779 152.974 7.92748 160.436 11.3011 166.695Z" fill="#2F2E41"/>
<path id="Vector_27" d="M13.6201 164.635C19.7109 168.301 22.0566 175.583 22.0566 175.583C22.0566 175.583 14.5273 176.921 8.43652 173.255C2.34575 169.589 0 162.307 0 162.307C0 162.307 7.52935 160.97 13.6201 164.635Z" fill="#BE94C6"/>
<path id="Vector_28" d="M143.968 27.3391C143.501 25.7999 142.759 24.3581 141.778 23.0838C141.428 22.6284 141.05 22.1958 140.646 21.7885C139.406 20.5397 137.931 19.5489 136.307 18.8731C134.682 18.1973 132.94 17.8499 131.181 17.851H48.2436C44.7005 17.8545 41.3036 19.2642 38.7983 21.7705C36.293 24.2768 34.884 27.6751 34.8804 31.2196V162.527C34.884 166.072 36.293 169.47 38.7983 171.976C41.3036 174.483 44.7005 175.892 48.2436 175.896H131.181C134.724 175.892 138.121 174.483 140.626 171.976C143.131 169.47 144.54 166.072 144.544 162.527V31.2196C144.545 29.9047 144.351 28.5969 143.968 27.3391ZM144.001 162.527C143.997 165.927 142.645 169.187 140.241 171.592C137.838 173.996 134.579 175.349 131.181 175.353H48.2436C44.8447 175.349 41.5861 173.996 39.1828 171.592C36.7794 169.187 35.4274 165.927 35.4233 162.527V31.2196C35.4274 27.8193 36.7794 24.5595 39.1828 22.1551C41.5861 19.7507 44.8447 18.3982 48.2436 18.3941H131.181C132.921 18.3933 134.643 18.7479 136.242 19.4361C137.84 20.1244 139.282 21.1318 140.478 22.3968C140.611 22.538 140.741 22.6819 140.868 22.8286C142.889 25.1567 144.001 28.1364 144.001 31.2196V162.527Z" fill="#2F2E41"/>
<path id="Vector_29" d="M48.1111 38.9533C48.096 38.9179 48.0774 38.8857 48.0609 38.8517C48.6731 37.6532 48.982 36.3228 48.9606 34.9771C48.9606 30.7676 46.3311 27.8276 42.5662 27.8276C38.8014 27.8276 36.1719 30.7676 36.1719 34.9771C36.1719 39.1866 38.8014 42.1267 42.5662 42.1267C43.4549 42.1446 44.3365 41.966 45.1481 41.6034C45.9597 41.2408 46.6812 40.7034 47.261 40.0294C48.4665 41.9808 50.7969 42.2383 50.9042 42.249L51.0313 41.0011C50.9436 40.9917 48.8749 40.7495 48.1111 38.9533ZM42.5662 40.8724C39.5395 40.8724 37.4257 38.4482 37.4257 34.9771C37.4257 31.5061 39.5395 29.0819 42.5662 29.0819C45.593 29.0819 47.7068 31.5061 47.7068 34.9771C47.719 35.9667 47.5239 36.9479 47.134 37.8574C45.2627 36.72 41.781 37.3996 41.3088 37.4992L41.5666 38.7267C42.8455 38.4588 45.3898 38.2439 46.4973 38.939C46.0426 39.5504 45.4489 40.0447 44.7653 40.3809C44.0817 40.7171 43.3279 40.8856 42.5662 40.8724Z" fill="#BE94C6"/>
<path id="Vector_30" d="M43.0239 45.1101C42.6159 44.7025 42.0628 44.4736 41.4861 44.4738C40.9094 44.474 40.3564 44.7033 39.9487 45.1112C39.5409 45.5191 39.3117 46.0724 39.3115 46.6493C39.3113 47.2262 39.5401 47.7795 39.9476 48.1878L43.0239 51.2654L46.1003 48.1877C46.5069 47.7793 46.7349 47.2263 46.7344 46.6498C46.7338 46.0734 46.5046 45.5208 46.0972 45.1132C45.6898 44.7056 45.1374 44.4764 44.5612 44.4758C43.9851 44.4752 43.4322 44.7034 43.0239 45.1101Z" fill="#BE94C6"/>
<path id="Vector_31" d="M131.313 155.634C131.328 155.67 131.347 155.702 131.364 155.736C130.751 156.935 130.442 158.265 130.464 159.611C130.464 163.82 133.093 166.76 136.858 166.76C140.623 166.76 143.253 163.82 143.253 159.611C143.253 155.401 140.623 152.461 136.858 152.461C135.969 152.443 135.088 152.622 134.276 152.984C133.465 153.347 132.743 153.884 132.163 154.558C130.958 152.607 128.628 152.35 128.52 152.339L128.393 153.587C128.481 153.596 130.549 153.838 131.313 155.634ZM136.858 153.715C139.885 153.715 141.999 156.14 141.999 159.611C141.999 163.082 139.885 165.506 136.858 165.506C133.831 165.506 131.718 163.082 131.718 159.611C131.705 158.621 131.9 157.64 132.29 156.73C134.162 157.868 137.643 157.188 138.116 157.089L137.858 155.861C136.579 156.129 134.035 156.344 132.927 155.649C133.382 155.037 133.976 154.543 134.659 154.207C135.343 153.871 136.097 153.702 136.858 153.715Z" fill="#BE94C6"/>
<path id="Vector_32" d="M136.401 149.478C136.809 149.885 137.362 150.113 137.938 150.113C138.514 150.112 139.067 149.883 139.475 149.475C139.882 149.068 140.111 148.515 140.112 147.938C140.112 147.362 139.884 146.808 139.477 146.4L136.401 143.322L133.324 146.4C132.917 146.808 132.689 147.362 132.689 147.938C132.69 148.515 132.919 149.068 133.327 149.475C133.734 149.883 134.287 150.112 134.863 150.113C135.439 150.113 135.992 149.885 136.401 149.478Z" fill="#BE94C6"/>
<path id="Vector_33" d="M96.4021 92.4501C92.7066 86.2033 85.3954 85.9122 85.3954 85.9122C85.3954 85.9122 78.2711 85.0007 73.7008 94.5146C69.441 103.382 63.5619 111.944 72.7544 114.02L74.4148 108.85L75.4431 114.405C76.7519 114.499 78.0649 114.522 79.3762 114.472C89.2205 114.154 98.5958 114.565 98.2939 111.031C97.8926 106.333 99.9579 98.4607 96.4021 92.4501Z" fill="#2F2E41"/>
<path id="Vector_34" d="M82.7691 113.733C82.787 114.436 82.7817 115.178 82.4324 115.788C81.74 116.999 80.0498 117.18 79.0331 118.134C77.964 119.137 77.8429 120.764 77.792 122.23C77.7387 123.762 77.6935 125.344 78.2524 126.772C78.5948 127.558 79.0275 128.302 79.5419 128.988C80.1626 129.883 80.7891 130.774 81.4213 131.661C81.7589 132.161 82.1352 132.633 82.5466 133.074C83.6788 134.228 85.2318 134.866 86.7825 135.322C87.7844 135.617 88.8661 135.846 89.8602 135.526C90.5179 135.269 91.1241 134.896 91.6499 134.425C92.3893 133.838 93.14 133.238 93.6758 132.461C94.5105 131.249 94.7416 129.733 94.9146 128.272C95.4261 123.951 95.6251 119.6 95.5102 115.25C95.5311 114.777 95.4463 114.304 95.2617 113.867C94.7468 112.861 93.368 112.647 92.6415 111.782C92.0203 111.042 91.995 109.986 92.0003 109.02L92.0138 106.561C92.0354 106.354 91.9937 106.145 91.8943 105.962C91.8042 105.864 91.6955 105.784 91.5745 105.727C91.4535 105.671 91.3226 105.639 91.1891 105.633C89.6613 105.379 88.1124 105.276 86.5645 105.323C85.3094 105.362 82.9015 105.257 81.8163 105.956C80.8313 106.591 82.0646 108.344 82.2927 109.329C82.5995 110.777 82.7591 112.253 82.7691 113.733Z" fill="#A0616A"/>
<path id="Vector_35" d="M85.6497 109.51C91.1371 109.51 95.5855 105.06 95.5855 99.5705C95.5855 94.0809 91.1371 89.6306 85.6497 89.6306C80.1623 89.6306 75.7139 94.0809 75.7139 99.5705C75.7139 105.06 80.1623 109.51 85.6497 109.51Z" fill="#A0616A"/>
<path id="Vector_36" d="M81.5584 124.191C80.9264 123.251 80.4064 122.241 80.0089 121.18C79.6535 120.106 79.5603 118.905 79.9819 117.855C78.9082 117.232 77.4505 117.737 76.6686 118.701C75.8867 119.666 75.6474 120.959 75.5785 122.199C75.5095 123.438 75.5826 124.697 75.3129 125.909C74.7162 128.591 72.5018 130.795 72.3371 133.538C72.1751 136.236 74.0245 138.586 74.9343 141.131C75.4858 142.718 75.7163 144.398 75.6124 146.074C75.5829 146.615 75.549 147.232 75.9307 147.617C76.1292 147.79 76.3642 147.917 76.6184 147.987C81.0086 149.532 85.7507 149.666 90.4033 149.784L98.0878 149.979C98.5525 150.034 99.0234 149.955 99.4448 149.751C100.134 149.328 100.226 148.381 100.238 147.572C100.339 140.605 100.043 133.638 99.7467 126.677C99.6394 124.154 99.5302 121.616 98.9954 119.148C98.8592 118.519 98.6358 117.82 98.0559 117.543C97.565 117.308 96.9826 117.46 96.4721 117.649C94.0903 118.535 92.0317 120.12 90.566 122.197C88.9893 124.442 88.2137 127.135 86.6706 129.397C85.5507 131.039 84.9031 129.608 84.1569 128.399C83.2911 126.996 82.4249 125.593 81.5584 124.191Z" fill="white"/>
<path id="Vector_37" d="M80.3692 118.027C80.1738 118.166 79.981 118.312 79.7964 118.467C79.1048 119.038 78.485 119.691 77.9506 120.411C77.066 121.618 76.3619 122.947 75.8605 124.357C74.9593 126.828 74.5684 129.451 74.1938 132.053C74.0303 133.011 73.9423 133.981 73.9305 134.953C73.9875 138.527 76.0994 141.837 76.1021 145.413C76.1021 145.549 76.0994 145.682 76.0912 145.818C76.066 146.403 75.9971 146.986 75.8849 147.561C75.7302 148.4 75.5076 149.229 75.2878 150.054C74.734 152.123 74.1368 154.269 73.0565 156.085C72.9479 156.27 72.8312 156.452 72.7118 156.629H65.1113C65.171 156.447 65.2335 156.267 65.2932 156.085C66.588 152.248 67.8819 148.412 69.1749 144.577C69.5712 143.404 69.9675 142.225 70.2471 141.02C70.5669 139.531 70.7854 138.022 70.9012 136.504C71.1998 133.356 71.3962 130.203 71.4903 127.043C71.5256 125.908 71.55 124.748 71.9164 123.673C72.26 122.796 72.7143 121.968 73.2682 121.207C74.0527 120.026 74.8372 118.844 75.6217 117.663C76.0587 117.006 76.5174 116.33 77.1906 115.92C77.7525 115.575 78.4203 115.45 79.012 115.159C79.3844 114.948 79.7417 114.711 80.0815 114.451C80.9664 113.823 82.006 113.164 82.7688 113.804C82.8925 113.907 82.9988 114.029 83.0837 114.166C83.1271 114.233 83.1661 114.302 83.2004 114.375C83.9333 115.961 81.3545 117.329 80.3692 118.027Z" fill="#2F2E41"/>
<path id="Vector_38" d="M105.407 156.629H70.2065C70.3966 156.455 70.5838 156.273 70.7657 156.085C70.7929 156.058 70.8173 156.031 70.8444 156.004C72.1908 154.605 72.4975 152.887 73.1734 151.067C73.681 149.696 74.1886 148.325 74.6962 146.956C74.7766 146.689 74.9084 146.441 75.0844 146.225C75.2314 146.073 75.4159 145.963 75.6191 145.905C75.7727 145.858 75.9312 145.829 76.0914 145.818C76.3201 145.803 76.5495 145.803 76.7782 145.818C83.0947 146.144 89.4067 146.541 95.7141 147.01C96.5285 147.073 97.3428 147.135 98.1571 147.197C98.8222 147.692 99.4791 148.216 100.106 148.77C102.145 150.562 103.912 152.672 104.924 155.165C105.046 155.466 105.158 155.773 105.25 156.085C105.31 156.265 105.361 156.447 105.407 156.629Z" fill="#2F2E41"/>
<path id="Vector_39" d="M94.7685 91.848L87.5454 88.0627L77.5706 89.6112L75.5068 98.73L80.6442 98.5323L82.0793 95.1821V98.4769L84.4498 98.3856L85.8255 93.0523L86.6854 98.73L95.1124 98.5578L94.7685 91.848Z" fill="#2F2E41"/>
<path id="Vector_40" d="M105.407 156.629H97.4594C97.4024 156.449 97.3481 156.267 97.2965 156.085C96.7352 154.066 96.3233 152.007 96.0641 149.927C95.98 149.332 95.9067 148.734 95.8389 148.14C95.7954 147.762 95.7547 147.388 95.714 147.01C95.258 142.817 94.9078 138.584 93.6266 134.57C93.4719 134.084 93.3036 133.601 93.1407 133.117C92.8398 132.285 92.6039 131.431 92.4349 130.562C92.0875 128.574 92.3481 126.516 91.9898 124.531C91.7889 123.423 91.3899 122.448 91.1483 121.432C90.9945 120.82 90.9341 120.187 90.9691 119.556C91.554 119.004 92.2903 118.639 93.0837 118.508C93.3579 118.462 93.6673 118.426 93.8329 118.206C93.9306 118.039 93.9742 117.845 93.9577 117.652C93.9768 116.371 93.9033 115.091 93.7379 113.821C93.6836 113.375 93.6157 112.93 93.5343 112.487C93.5316 112.466 93.5261 112.447 93.5234 112.425C94.1858 112.137 94.9322 112.134 95.6516 112.137C96.436 112.14 97.2178 112.14 97.9995 112.142C99.4463 112.148 100.893 112.152 102.34 112.156C103.686 112.159 105.079 112.172 106.303 112.729C107.568 113.307 108.529 114.424 109.164 115.662C109.799 116.9 110.144 118.263 110.456 119.618C110.543 119.993 110.588 120.377 110.592 120.762C110.652 123.819 108.371 126.899 108.143 130.024C108.07 131.037 108.154 132.058 108.062 133.071C107.97 134.087 107.698 135.081 107.649 136.096C107.647 136.148 107.644 136.202 107.644 136.254C107.614 137.576 108 138.872 108.445 140.118C109.134 142.054 109.973 143.931 110.839 145.796C111.675 147.602 112.533 149.4 113.304 151.23C113.704 152.08 113.974 152.985 114.104 153.916C114.19 154.664 114.047 155.42 113.694 156.085C113.604 156.25 113.496 156.404 113.371 156.544L113.366 156.55C113.342 156.577 113.317 156.604 113.293 156.629H105.407Z" fill="#2F2E41"/>
<path id="Vector_41" d="M112.978 153.842C112.945 154.204 112.846 154.556 112.687 154.883C112.674 154.915 112.66 154.945 112.647 154.978C112.489 155.35 112.329 155.716 112.164 156.086C112.082 156.265 112.001 156.447 111.917 156.629H107.421C107.584 156.458 107.735 156.277 107.872 156.086C108.561 155.127 108.96 153.962 109.664 152.927C109.759 152.786 109.869 152.655 109.992 152.536C111.118 151.445 113.048 151.667 112.978 153.842Z" fill="#FFB8B8"/>
<path id="Vector_42" d="M115.904 156.629C115.961 156.45 116.009 156.269 116.048 156.086C116.08 155.942 116.108 155.8 116.129 155.656C116.273 154.709 116.27 153.739 116.496 152.808C116.813 151.475 117.766 149.897 116.982 148.775C117.592 148.65 118.167 148.392 118.667 148.02C119.134 147.613 119.406 146.907 119.123 146.353C118.844 145.807 118.086 145.446 118.19 144.84C118.241 144.648 118.332 144.469 118.456 144.314C118.867 143.664 119.08 142.908 119.068 142.139C119.056 141.37 118.82 140.621 118.388 139.985C118.141 139.632 117.837 139.322 117.611 138.953C117.365 138.501 117.176 138.021 117.049 137.522C116.266 134.995 115.11 132.599 113.621 130.413C113.291 129.992 113.035 129.518 112.864 129.011C112.764 128.462 112.744 127.902 112.804 127.347C112.858 125.153 112.039 123.01 110.858 121.164C110.771 121.028 110.681 120.895 110.592 120.762C109.452 119.081 108.038 117.606 106.629 116.143C106.048 116.414 105.535 116.591 105.234 117.155C105.086 117.474 104.995 117.816 104.965 118.166C104.579 120.854 104.245 123.559 103.985 126.261C103.855 127.627 103.722 129.003 103.876 130.367C104.031 131.73 104.495 133.096 105.418 134.109C105.996 134.744 106.729 135.217 107.356 135.803C107.457 135.898 107.554 135.996 107.649 136.096C108.101 136.578 108.502 137.105 108.846 137.669C110.351 140.1 111.048 142.945 110.839 145.796C110.801 146.31 110.733 146.822 110.635 147.328C110.516 148.052 110.272 148.751 109.913 149.392C109.628 149.861 109.254 150.272 108.996 150.758C108.738 151.244 108.616 151.849 108.871 152.335C109.254 152.335 109.633 152.403 109.992 152.536C110.837 152.862 111.572 153.423 112.109 154.152C112.307 154.414 112.487 154.69 112.647 154.978C112.848 155.336 113.027 155.706 113.184 156.086C113.249 156.235 113.312 156.39 113.371 156.544C113.385 156.571 113.396 156.6 113.404 156.629H115.904Z" fill="#2F2E41"/>
<path id="Vector_43" d="M93.7111 109.384L87.9554 111.895L86.6047 112.029L80.4688 110.694L80.7394 116.156L86.7383 113.38L88.089 113.246L94.5157 114.793L93.7111 109.384Z" fill="#BE94C6"/>
<path id="Vector_44" d="M105.25 156.086C105.309 156.265 105.361 156.447 105.407 156.629H107.421C107.584 156.458 107.734 156.277 107.872 156.086H105.25ZM52.0493 36.873V156.629H127.104V36.873H52.0493ZM126.561 156.086H52.5922V37.4161H126.561V156.086ZM105.25 156.086C105.309 156.265 105.361 156.447 105.407 156.629H107.421C107.584 156.458 107.734 156.277 107.872 156.086H105.25Z" fill="#2F2E41"/>
<path id="Vector_45" d="M76.7104 89.2648L76.7569 89.0313C76.7707 88.962 78.0992 82.0185 74.6763 75.5122L74.4287 75.0416L74.9549 75.1169C75.106 75.1386 78.5621 75.6932 81.0399 81.1515C81.2574 80.3197 81.4763 78.5702 80.7963 75.6225L80.6995 75.2029L81.1197 75.2963C81.2505 75.3254 84.2329 76.0287 85.4153 79.6524L90.1099 75.6783V82.1339C91.3725 81.4915 95.2442 79.7629 97.7066 81.3024L98.0823 81.5373L97.7025 81.7655C97.6703 81.7849 94.6456 83.6204 94.0459 85.4779C94.7524 85.4839 96.4374 85.5082 98.1058 85.6083C102.391 85.8655 102.75 86.359 102.75 86.8014V86.9564L102.616 87.0351C102.541 87.0801 95.0163 91.5675 94.8496 95.0687L94.8323 95.4291L76.7104 89.2648ZM93.7007 86.0192H93.3802L93.433 85.7029C93.7308 83.9149 96.0707 82.1906 97.025 81.5544C94.3353 80.3657 90.0184 82.7963 89.9731 82.8222L89.567 83.0541V76.8494L85.1244 80.6101L85.0122 80.199C84.2337 77.3436 82.293 76.2966 81.427 75.9629C82.3205 80.2429 81.3373 81.9506 81.2935 82.0237L81.0156 82.4872L80.8098 81.9873C79.0145 77.6252 76.5385 76.2382 75.4408 75.8217C78.2638 81.6484 77.5262 87.6519 77.3295 88.9019L94.3446 94.6894C94.8889 91.3316 100.739 87.5517 102.079 86.7262C101.252 86.2866 97.2608 86.0192 93.7007 86.0192Z" fill="#BE94C6"/>
<path id="Vector_46" d="M73.0649 72.4001C73.0649 72.2074 73.122 72.0191 73.229 71.8589C73.336 71.6987 73.4881 71.5739 73.666 71.5002C73.8439 71.4265 74.0397 71.4072 74.2285 71.4447C74.4174 71.4823 74.5909 71.5751 74.7271 71.7113C74.8632 71.8475 74.956 72.0211 74.9935 72.21C75.0311 72.399 75.0118 72.5948 74.9381 72.7728C74.8644 72.9508 74.7396 73.1029 74.5795 73.21C74.4194 73.317 74.2312 73.3741 74.0386 73.3741C73.7804 73.3738 73.533 73.2711 73.3504 73.0885C73.1679 72.9059 73.0652 72.6583 73.0649 72.4001ZM73.6078 72.4001C73.6078 72.4853 73.6331 72.5686 73.6804 72.6395C73.7278 72.7103 73.795 72.7656 73.8737 72.7982C73.9525 72.8308 74.0391 72.8393 74.1226 72.8227C74.2062 72.8061 74.2829 72.7651 74.3432 72.7048C74.4034 72.6445 74.4445 72.5677 74.4611 72.4841C74.4777 72.4005 74.4692 72.3139 74.4366 72.2352C74.404 72.1564 74.3487 72.0891 74.2779 72.0418C74.2071 71.9944 74.1238 71.9691 74.0386 71.9691C73.9244 71.9693 73.8149 72.0147 73.7341 72.0955C73.6534 72.1763 73.608 72.2858 73.6078 72.4001Z" fill="#BE94C6"/>
<path id="Vector_47" d="M80.0869 72.4001C80.0869 72.2074 80.144 72.0191 80.251 71.8589C80.358 71.6987 80.5101 71.5739 80.688 71.5002C80.8659 71.4265 81.0616 71.4072 81.2505 71.4447C81.4394 71.4823 81.6129 71.5751 81.749 71.7113C81.8852 71.8475 81.9779 72.0211 82.0155 72.21C82.0531 72.399 82.0338 72.5948 81.9601 72.7728C81.8864 72.9508 81.7616 73.1029 81.6015 73.21C81.4414 73.317 81.2531 73.3741 81.0606 73.3741C80.8024 73.3738 80.5549 73.2711 80.3724 73.0885C80.1899 72.9059 80.0872 72.6583 80.0869 72.4001ZM80.6298 72.4001C80.6298 72.4853 80.6551 72.5686 80.7024 72.6395C80.7497 72.7103 80.817 72.7656 80.8957 72.7982C80.9744 72.8308 81.061 72.8393 81.1446 72.8227C81.2282 72.8061 81.3049 72.7651 81.3652 72.7048C81.4254 72.6445 81.4664 72.5677 81.483 72.4841C81.4997 72.4005 81.4911 72.3139 81.4585 72.2352C81.4259 72.1564 81.3707 72.0891 81.2999 72.0418C81.229 71.9944 81.1458 71.9691 81.0606 71.9691C80.9464 71.9693 80.8369 72.0147 80.7561 72.0955C80.6754 72.1763 80.6299 72.2858 80.6298 72.4001Z" fill="#BE94C6"/>
<path id="Vector_48" d="M90.269 74.1564C90.269 73.9638 90.3261 73.7754 90.4331 73.6153C90.5401 73.4551 90.6922 73.3302 90.8701 73.2565C91.048 73.1828 91.2438 73.1635 91.4326 73.2011C91.6215 73.2387 91.795 73.3314 91.9312 73.4677C92.0673 73.6039 92.1601 73.7774 92.1976 73.9664C92.2352 74.1553 92.2159 74.3512 92.1422 74.5292C92.0685 74.7072 91.9437 74.8593 91.7836 74.9663C91.6235 75.0733 91.4353 75.1305 91.2427 75.1305C90.9845 75.1302 90.7371 75.0275 90.5545 74.8449C90.372 74.6623 90.2693 74.4147 90.269 74.1564ZM90.8119 74.1564C90.8119 74.2417 90.8372 74.325 90.8845 74.3958C90.9319 74.4667 90.9991 74.5219 91.0778 74.5546C91.1566 74.5872 91.2432 74.5957 91.3267 74.5791C91.4103 74.5624 91.487 74.5214 91.5473 74.4611C91.6075 74.4009 91.6486 74.3241 91.6652 74.2405C91.6818 74.1569 91.6733 74.0702 91.6407 73.9915C91.6081 73.9128 91.5528 73.8455 91.482 73.7981C91.4112 73.7508 91.3279 73.7255 91.2427 73.7255C91.1285 73.7256 91.019 73.7711 90.9382 73.8519C90.8575 73.9326 90.8121 74.0422 90.8119 74.1564Z" fill="#BE94C6"/>
<path id="Vector_49" d="M103.962 86.0989C103.962 85.9062 104.02 85.7179 104.126 85.5577C104.233 85.3975 104.386 85.2727 104.563 85.199C104.741 85.1252 104.937 85.1059 105.126 85.1435C105.315 85.1811 105.488 85.2739 105.625 85.4101C105.761 85.5463 105.853 85.7199 105.891 85.9088C105.929 86.0978 105.909 86.2936 105.836 86.4716C105.762 86.6496 105.637 86.8017 105.477 86.9088C105.317 87.0158 105.129 87.0729 104.936 87.0729C104.678 87.0726 104.43 86.9699 104.248 86.7873C104.065 86.6047 103.963 86.3571 103.962 86.0989ZM104.505 86.0989C104.505 86.1841 104.531 86.2674 104.578 86.3383C104.625 86.4091 104.692 86.4644 104.771 86.497C104.85 86.5296 104.937 86.5381 105.02 86.5215C105.104 86.5049 105.18 86.4639 105.241 86.4036C105.301 86.3433 105.342 86.2665 105.359 86.1829C105.375 86.0993 105.367 86.0127 105.334 85.934C105.301 85.8552 105.246 85.7879 105.175 85.7406C105.105 85.6932 105.021 85.6679 104.936 85.6679C104.822 85.6681 104.712 85.7135 104.632 85.7943C104.551 85.8751 104.505 85.9846 104.505 86.0989Z" fill="#BE94C6"/>
<path id="Vector_50" d="M99.0469 80.1276C99.0469 79.935 99.104 79.7466 99.2109 79.5864C99.3179 79.4262 99.47 79.3013 99.6479 79.2276C99.8259 79.1539 100.022 79.1346 100.211 79.1722C100.399 79.2097 100.573 79.3025 100.709 79.4387C100.845 79.575 100.938 79.7486 100.976 79.9375C101.013 80.1265 100.994 80.3224 100.92 80.5004C100.846 80.6784 100.722 80.8305 100.562 80.9375C100.401 81.0446 100.213 81.1017 100.021 81.1017C99.7624 81.1014 99.5149 80.9987 99.3324 80.8161C99.1498 80.6335 99.0471 80.3859 99.0469 80.1276ZM99.5898 80.1276C99.5898 80.2129 99.615 80.2962 99.6623 80.3671C99.7097 80.438 99.777 80.4932 99.8557 80.5259C99.9344 80.5585 100.021 80.567 100.105 80.5504C100.188 80.5338 100.265 80.4927 100.325 80.4324C100.385 80.3722 100.427 80.2954 100.443 80.2118C100.46 80.1281 100.451 80.0415 100.419 79.9627C100.386 79.884 100.331 79.8166 100.26 79.7693C100.189 79.7219 100.106 79.6967 100.021 79.6967C99.9063 79.6968 99.7968 79.7423 99.7161 79.823C99.6353 79.9038 99.5899 80.0134 99.5898 80.1276Z" fill="#BE94C6"/>
</g>
<defs>
<clipPath id="clip0_479_211">
<rect width="250" height="175.896" fill="white"/>
</clipPath>
</defs>
</svg>
