<svg width="40" height="40" viewBox="0 0 40 40" fill="none" xmlns="http://www.w3.org/2000/svg">
<g clip-path="url(#clip0_2475_192)">
<path d="M40 7.95588V9.34588C39.36 12.3509 37.75 15.7409 34.555 16.6109C34.4929 16.6287 34.44 16.6694 34.4074 16.7243C34.3748 16.7793 34.365 16.8444 34.38 16.9059C35.72 22.3609 31 27.4059 26.94 30.2259C26.6467 30.4259 26.3933 30.3859 26.18 30.1059L26.08 29.9709C26.0465 29.9274 26.0222 29.8776 26.0085 29.8244C25.9949 29.7712 25.9922 29.7158 26.0006 29.6616C26.009 29.6073 26.0284 29.5554 26.0575 29.5088C26.0866 29.4623 26.1249 29.4222 26.17 29.3909C29.29 27.2075 31.5267 24.7459 32.88 22.0059C33.6067 20.5359 33.7467 18.8142 33.3 16.8409C33.1767 16.3075 32.8583 15.7392 32.345 15.1359C30.23 12.6609 28.895 8.46088 28.085 5.32588C28.045 5.16254 27.9517 5.03921 27.805 4.95588C24.265 2.96088 21.74 4.26588 18.12 3.78088C16.0033 3.49421 14.0333 3.89421 12.21 4.98088C12.0688 5.0645 11.9663 5.20112 11.925 5.36088C11 8.85088 9.605 13.1859 7.055 15.8459C6.94167 15.9625 6.86833 16.1009 6.835 16.2609C6.515 17.7709 6.46 19.2875 6.67 20.8109C6.67776 20.8639 6.67408 20.918 6.65918 20.9695C6.64429 21.0211 6.61853 21.069 6.58359 21.11C6.54865 21.1511 6.50532 21.1845 6.45645 21.2079C6.40757 21.2313 6.35426 21.2442 6.3 21.2459H6.175C5.825 21.2525 5.61667 21.0842 5.55 20.7409C5.30333 19.4609 5.32333 18.1809 5.61 16.9009C5.65333 16.7175 5.58167 16.6075 5.395 16.5709C2.24 15.9209 0.56 11.9959 0 9.18088V8.02088C0.4 6.39088 1.415 5.25921 3.045 4.62588C3.09782 4.606 3.15406 4.59684 3.21046 4.59893C3.26685 4.60103 3.32226 4.61433 3.37346 4.63807C3.42466 4.6618 3.47062 4.6955 3.50865 4.73719C3.54669 4.77888 3.57604 4.82772 3.595 4.88088L3.645 5.02088C3.76833 5.36421 3.66333 5.60921 3.33 5.75588C-0.625 7.49588 1.81 12.3859 3.94 14.5709C5.495 16.1609 6.555 15.0159 7.405 13.5509C9.16167 10.5209 10.3917 7.28421 11.095 3.84088C11.36 2.53588 10.605 1.66088 9.33 2.37088C7.96333 3.13421 6.60667 3.89088 5.26 4.64088C4.97667 4.79754 4.765 4.73088 4.625 4.44088L4.525 4.23088C4.47964 4.13736 4.47142 4.03 4.50198 3.93001C4.53253 3.83002 4.59963 3.74468 4.69 3.69088C6.09667 2.85088 7.495 2.04254 8.885 1.26588C10.5 0.365876 12.24 1.49588 12.385 3.25088C12.4017 3.42754 12.4917 3.48254 12.655 3.41588C14.7083 2.57921 16.81 2.33588 18.96 2.68588C19.6567 2.79921 20.3483 2.79921 21.035 2.68588C23.2017 2.33254 25.3117 2.57754 27.365 3.42088C27.525 3.48754 27.6167 3.43588 27.64 3.26588C28.195 -0.734123 31.605 1.59588 33.46 2.58588C33.8233 2.77921 33.905 3.05588 33.705 3.41588L33.645 3.53088C33.5928 3.62567 33.5056 3.69622 33.4026 3.72712C33.2996 3.75803 33.189 3.7468 33.095 3.69588C32.3317 3.28588 31.5583 2.86421 30.775 2.43088C29.74 1.86588 28.57 2.23088 28.85 3.56088C29.52 6.71588 31.2 12.5659 33.555 14.8459C36.13 17.3309 38.7 10.2909 38.84 8.74588C39.035 6.64588 36.66 5.66588 35.11 4.84588C34.79 4.67588 34.6933 4.42088 34.82 4.08088L34.865 3.96088C34.8837 3.9098 34.913 3.86327 34.9511 3.82427C34.9891 3.78527 35.035 3.75466 35.0859 3.73442C35.1367 3.71417 35.1914 3.70473 35.2463 3.7067C35.3013 3.70868 35.3553 3.72202 35.405 3.74588C37.44 4.74588 39.33 5.54588 40 7.95588Z" fill="#98C5F5"/>
<path d="M11.9348 9.07546C13.3448 7.87046 15.3898 7.79046 17.1248 8.72546C17.6415 9.00546 17.7565 9.38546 17.4698 9.86546C17.4401 9.91457 17.4007 9.95714 17.3541 9.99054C17.3075 10.0239 17.2547 10.0475 17.1989 10.0596C17.1432 10.0718 17.0856 10.0724 17.0299 10.0614C16.9741 10.0503 16.9214 10.0279 16.8748 9.99546C15.4281 8.98212 13.9715 8.98212 12.5048 9.99546C12.4221 10.0525 12.3205 10.076 12.2205 10.0612C12.1204 10.0464 12.0291 9.99433 11.9648 9.91546L11.8648 9.79046C11.7803 9.68681 11.7403 9.5538 11.7534 9.42007C11.7665 9.28633 11.8316 9.16258 11.9348 9.07546Z" fill="#98C5F5"/>
<path d="M27.5848 10.0496C26.1115 8.97965 24.6231 8.96298 23.1198 9.99964C23.0777 10.0288 23.0303 10.0495 22.9803 10.0605C22.9303 10.0715 22.8788 10.0726 22.8287 10.0638C22.7785 10.055 22.7307 10.0364 22.688 10.0091C22.6453 9.98176 22.6085 9.94628 22.5798 9.90464L22.4398 9.69964C22.3684 9.59704 22.34 9.47075 22.3605 9.34814C22.3811 9.22553 22.4491 9.11648 22.5498 9.04464C24.1665 7.87798 25.8715 7.76965 27.6648 8.71965C27.9815 8.88965 28.1431 9.15298 28.1498 9.50965L28.1548 9.75464C28.1553 9.82109 28.1374 9.88637 28.103 9.94326C28.0687 10.0001 28.0193 10.0464 27.9603 10.077C27.9013 10.1075 27.8349 10.1211 27.7687 10.1163C27.7024 10.1115 27.6388 10.0884 27.5848 10.0496Z" fill="#98C5F5"/>
<path d="M15.6048 14.5345C14.7598 13.7595 13.6298 13.9945 12.7048 14.6145C12.6609 14.6442 12.6106 14.6634 12.558 14.6706C12.5054 14.6777 12.4519 14.6726 12.4015 14.6557C12.3512 14.6387 12.3055 14.6104 12.2679 14.5729C12.2303 14.5354 12.2019 14.4898 12.1848 14.4395L12.1298 14.2795C12.0032 13.9195 12.1048 13.6428 12.4348 13.4495C13.7248 12.6828 14.9948 12.7161 16.2448 13.5495C16.6215 13.7995 16.6498 14.0845 16.3298 14.4045L16.2098 14.5195C16.1307 14.6 16.0233 14.6466 15.9104 14.6494C15.7975 14.6522 15.6879 14.611 15.6048 14.5345Z" fill="#98C5F5"/>
<path d="M27.1849 14.5553C26.0649 13.7303 25.5199 14.0403 24.4149 14.5053C24.1549 14.6153 23.9516 14.6286 23.8049 14.5453C23.6282 14.442 23.5516 14.2436 23.5749 13.9503C23.5916 13.767 23.6749 13.6253 23.8249 13.5253C25.0349 12.7153 26.2899 12.6903 27.5899 13.4503C27.8899 13.6303 27.9815 13.8836 27.8649 14.2103L27.8049 14.3653C27.7837 14.424 27.7492 14.4769 27.7039 14.5199C27.6586 14.563 27.6039 14.5949 27.5438 14.6133C27.4838 14.6317 27.4202 14.636 27.3579 14.626C27.2957 14.6159 27.2365 14.5917 27.1849 14.5553Z" fill="#98C5F5"/>
<path d="M20.8299 23.4344C25.2899 24.5394 27.7399 23.3844 28.8749 18.8294C28.9582 18.4961 29.1716 18.3411 29.5149 18.3644L29.6649 18.3744C29.7169 18.3778 29.7676 18.3922 29.8137 18.4166C29.8598 18.4409 29.9002 18.4747 29.9323 18.5158C29.9644 18.5569 29.9875 18.6043 30 18.6549C30.0125 18.7055 30.0142 18.7581 30.0049 18.8094C29.6582 20.7328 28.8366 22.3478 27.5399 23.6544C26.6299 24.5711 26.0716 25.2428 25.8649 25.6694C24.6949 28.0894 25.1799 32.4344 25.1899 35.1244C25.2049 38.5244 20.8149 39.4844 18.2199 38.8444C14.0799 37.8294 15.0849 34.8194 14.8449 31.6544C14.8282 31.4711 14.7416 31.3311 14.5849 31.2344C11.2982 29.2578 8.63991 26.6444 6.60991 23.3944C6.42658 23.0944 6.47158 22.8361 6.74491 22.6194L6.87491 22.5194C6.9214 22.4832 6.97499 22.4572 7.03219 22.4431C7.08939 22.4289 7.14893 22.427 7.20693 22.4374C7.26493 22.4477 7.32011 22.4702 7.36886 22.5033C7.41761 22.5364 7.45886 22.5794 7.48991 22.6294C9.16325 25.3761 11.3366 27.6561 14.0099 29.4694C14.7632 29.9794 15.0649 29.7861 14.9149 28.8894L14.5449 26.6894C14.3782 25.6994 13.9099 24.8844 13.1399 24.2444C11.4132 22.8111 10.3649 20.9778 9.99491 18.7444C9.98783 18.7045 9.98904 18.6636 9.99848 18.6242C10.0079 18.5847 10.0254 18.5477 10.0498 18.5153C10.0742 18.483 10.105 18.456 10.1403 18.436C10.1756 18.4161 10.2146 18.4036 10.2549 18.3994L10.6199 18.3594C10.7355 18.3481 10.8511 18.3795 10.9451 18.4477C11.0391 18.5159 11.1048 18.6161 11.1299 18.7294C12.1299 23.2494 14.7899 24.6894 19.1999 23.3994C19.3432 23.3594 19.4149 23.2644 19.4149 23.1144V20.7494C19.4149 20.5861 19.3349 20.4828 19.1749 20.4394C18.2699 20.2094 17.0499 19.9544 16.5649 19.1394C16.0249 18.2294 16.0399 16.8294 16.8049 16.0294C17.8299 14.9494 21.2599 15.2494 22.5049 15.5744C24.1799 16.0144 24.1199 18.6944 22.9999 19.6144C22.4599 20.0594 21.5299 20.2194 20.8049 20.4494C20.6582 20.4928 20.5849 20.5928 20.5849 20.7494L20.5899 23.1244C20.5899 23.1961 20.6135 23.2655 20.657 23.3218C20.7005 23.378 20.7614 23.4176 20.8299 23.4344ZM22.0299 16.5344H17.9999C17.9165 16.5344 17.834 16.5509 17.7569 16.5828C17.6799 16.6147 17.6099 16.6615 17.5509 16.7204C17.4919 16.7794 17.4452 16.8494 17.4132 16.9264C17.3813 17.0035 17.3649 17.0861 17.3649 17.1694V17.7494C17.3649 18.1804 17.6299 18.5937 18.1015 18.8985C18.5732 19.2032 19.2129 19.3744 19.8799 19.3744H20.1499C20.8169 19.3744 21.4566 19.2032 21.9283 18.8985C22.3999 18.5937 22.6649 18.1804 22.6649 17.7494V17.1694C22.6649 17.0861 22.6485 17.0035 22.6166 16.9264C22.5847 16.8494 22.5379 16.7794 22.4789 16.7204C22.42 16.6615 22.35 16.6147 22.2729 16.5828C22.1959 16.5509 22.1133 16.5344 22.0299 16.5344ZM18.9499 24.6794C17.7766 24.9194 16.5832 25.0128 15.3699 24.9594C15.2032 24.9528 15.1482 25.0278 15.2049 25.1844L15.7549 26.7544C15.8149 26.9311 15.9232 26.9678 16.0799 26.8644C17.7799 25.7494 20.1049 26.3094 21.7499 26.1394C22.3599 26.0761 23.0816 26.3194 23.9149 26.8694C24.0749 26.9761 24.1899 26.9378 24.2599 26.7544L24.8149 25.2194C24.8782 25.0494 24.8182 24.9661 24.6349 24.9694C23.3849 24.9894 22.1516 24.8844 20.9349 24.6544C20.2849 24.5311 19.6232 24.5394 18.9499 24.6794ZM19.4199 33.3394L19.4099 28.0944C19.4099 27.3578 19.0532 27.0811 18.3399 27.2644L17.1649 27.5694C16.8292 27.6549 16.5315 27.8498 16.3187 28.1232C16.106 28.3966 15.9903 28.733 15.9899 29.0794C15.9899 30.8961 15.9932 32.8061 15.9999 34.8094C16.0149 39.0544 23.9599 38.7544 23.9849 35.0594C24.0016 32.9561 24.0132 30.9811 24.0199 29.1344C24.0214 28.7573 23.8945 28.3909 23.6601 28.0956C23.4256 27.8002 23.0975 27.5935 22.7299 27.5094L21.7699 27.2894C20.9832 27.1094 20.5899 27.4244 20.5899 28.2344V33.2844C20.5899 33.6178 20.4232 33.7794 20.0899 33.7694L19.8399 33.7644C19.5599 33.7578 19.4199 33.6161 19.4199 33.3394Z" fill="#98C5F5"/>
</g>
<defs>
<clipPath id="clip0_2475_192">
<rect width="40" height="40" fill="white"/>
</clipPath>
</defs>
</svg>
