<svg width="40" height="40" viewBox="0 0 40 40" fill="none" xmlns="http://www.w3.org/2000/svg">
<path d="M10.2102 0H11.7252C13.1885 0.363333 14.3385 1.11833 15.1752 2.265C15.2752 2.40167 15.4102 2.47 15.5802 2.47L24.4252 2.48C24.5985 2.48 24.7352 2.41 24.8352 2.27C25.6952 1.11 26.8602 0.353333 28.3302 0H29.8352C34.1552 1.165 35.8752 6.245 32.1202 9.08C31.9835 9.18333 31.9218 9.32 31.9352 9.49C32.2285 13.7 32.2702 17.1617 32.0602 19.875C31.7835 23.4483 30.1635 26.455 27.2002 28.895C27.0468 29.0217 26.8785 29.0483 26.6952 28.975C26.0385 28.7083 25.6885 28.1883 25.6452 27.415C25.6218 27.0283 25.4385 26.9233 25.0952 27.1L24.2252 27.545C24.0752 27.6217 24.0002 27.745 24.0002 27.915V29.865C24.0002 30.0217 24.0785 30.1 24.2352 30.1C29.0502 30.045 33.1402 30.14 34.3902 35.75C34.7902 37.555 34.7302 39.355 32.8052 40H29.2902C28.7335 38.96 29.7352 38.5917 32.2952 38.895C32.532 38.9236 32.7706 38.8586 32.9602 38.7139C33.1498 38.5691 33.2754 38.356 33.3102 38.12C33.9202 33.98 30.7602 30.66 26.5002 31.325C26.3502 31.3517 26.2752 31.44 26.2752 31.59C26.2952 33.595 26.8402 36.315 24.3302 37.105C24.1902 37.1517 24.1202 37.2467 24.1202 37.39L24.1252 38.525C24.1252 38.715 24.2202 38.8117 24.4102 38.815L26.8352 38.855C27.3252 38.865 27.5252 39.11 27.4352 39.59C27.4118 39.73 27.3285 39.8667 27.1852 40H6.86518C4.86185 38.28 4.81185 35.945 6.71518 32.995C8.71018 29.91 12.1952 30.01 15.7552 30.105C15.9185 30.1083 16.0002 30.0283 16.0002 29.865L16.0052 27.89C16.0052 27.74 15.9385 27.6317 15.8052 27.565C13.0885 26.1917 11.3285 24.0333 10.5252 21.09C10.4785 20.92 10.3685 20.8417 10.1952 20.855C7.84018 21.055 5.89018 19.165 6.78518 16.83C7.11518 15.965 8.10018 15.61 7.90518 14.325C7.88723 14.214 7.91246 14.1003 7.97569 14.0073C8.03892 13.9144 8.13535 13.8491 8.24518 13.825L8.50518 13.765C8.5625 13.7521 8.62191 13.7515 8.67957 13.7632C8.73723 13.775 8.79186 13.7988 8.83993 13.8332C8.88799 13.8676 8.92843 13.9118 8.95861 13.9629C8.9888 14.0141 9.00807 14.071 9.01518 14.13L9.07518 14.66C9.09518 14.8467 9.19851 14.94 9.38518 14.94C13.6802 14.96 19.1502 15.915 19.5152 9.81C19.5785 8.76667 20.1318 8.23333 21.1752 8.21L21.6752 8.2C21.8419 8.19602 22.0077 8.22517 22.1631 8.28577C22.3185 8.34637 22.4603 8.4372 22.5803 8.55301C22.7003 8.66882 22.7961 8.8073 22.8621 8.96042C22.9282 9.11353 22.9632 9.27825 22.9652 9.445L23.0202 13.4C23.0197 13.435 23.0297 13.4693 23.0489 13.4986C23.068 13.5278 23.0956 13.5506 23.1279 13.5641C23.1601 13.5775 23.1957 13.581 23.23 13.574C23.2643 13.5671 23.2957 13.55 23.3202 13.525L23.5402 13.315C23.621 13.2358 23.7205 13.1782 23.8294 13.1476C23.9382 13.1169 24.0529 13.1142 24.1628 13.1397C24.2726 13.1651 24.374 13.2179 24.4575 13.2932C24.541 13.3684 24.6038 13.4637 24.6402 13.57L28.6952 25.265C28.7053 25.2943 28.7235 25.3202 28.7476 25.3396C28.7718 25.3591 28.8009 25.3713 28.8317 25.375C28.8625 25.3787 28.8937 25.3736 28.9217 25.3603C28.9498 25.347 28.9735 25.3261 28.9902 25.3C31.3452 21.58 31.0052 17.775 30.9852 13.505C30.9652 9.255 30.1552 6.06 26.2552 4.32C25.2385 3.86667 23.7835 3.63667 21.8902 3.63C19.4352 3.62 16.3852 3.325 14.2702 4.115C11.0052 5.33 9.16518 8.235 9.01018 11.78C9.00635 11.8746 8.96636 11.9642 8.89845 12.0303C8.83055 12.0963 8.7399 12.1338 8.64518 12.135L8.40018 12.14C7.97684 12.1467 7.79518 11.94 7.85518 11.52L8.13018 9.58C8.14232 9.4997 8.13299 9.41761 8.10313 9.34209C8.07327 9.26656 8.02395 9.20029 7.96018 9.15C4.21018 6.24 5.78018 1.075 10.2102 0ZM8.67018 7.955C9.68518 5.855 11.2452 4.13 13.2602 3.27C14.2202 2.86333 14.2385 2.41833 13.3152 1.935L12.2102 1.36C11.7931 1.14313 11.329 1.03241 10.8589 1.03764C10.3889 1.04288 9.92733 1.1639 9.51518 1.39C6.83018 2.865 6.06518 5.945 8.35518 8.015C8.48851 8.135 8.59351 8.115 8.67018 7.955ZM32.2002 7.475L32.5902 6.76C32.9902 6.01667 33.1018 5.23167 32.9252 4.405C32.5885 2.82833 31.6802 1.80333 30.2002 1.33C29.1502 0.993333 28.1468 1.10167 27.1902 1.655L26.7502 1.905C25.9002 2.395 25.9168 2.85333 26.8002 3.28C28.7102 4.2 30.1468 5.595 31.1102 7.465C31.4668 8.15833 31.8302 8.16167 32.2002 7.475ZM22.8802 15.555C22.7915 15.6371 22.6808 15.6917 22.5617 15.7121C22.4426 15.7326 22.3202 15.718 22.2097 15.6702C22.0992 15.6224 22.0053 15.5434 21.9396 15.443C21.874 15.3426 21.8394 15.2251 21.8402 15.105L21.8302 9.85C21.8302 9.44 21.6285 9.26167 21.2252 9.315L20.9902 9.345C20.8885 9.35719 20.7948 9.40609 20.7267 9.48251C20.6585 9.55894 20.6207 9.65761 20.6202 9.76L20.6252 18.27C20.6252 18.5467 20.7268 18.5917 20.9302 18.405L22.1252 17.33C22.2359 17.2308 22.3695 17.1605 22.514 17.1255C22.6585 17.0905 22.8092 17.092 22.9527 17.1297C23.0961 17.1674 23.2277 17.2402 23.3355 17.3415C23.4433 17.4428 23.524 17.5695 23.5702 17.71L26.7602 27.275C26.8435 27.5283 26.9852 27.5667 27.1852 27.39L27.6702 26.965C27.8735 26.7883 27.9302 26.57 27.8402 26.31L23.9002 14.94C23.8435 14.7667 23.7485 14.7433 23.6152 14.87L22.8802 15.555ZM19.1752 14C17.0852 16.235 14.9152 16.175 11.7452 16.115C11.6769 16.1136 11.6105 16.1386 11.5595 16.185C11.5084 16.2314 11.4765 16.2957 11.4702 16.365C11.3268 18.0483 11.3585 19.4283 11.5652 20.505C12.7352 26.645 19.7902 29.15 24.9152 25.84C24.9521 25.8163 24.9801 25.7812 24.9946 25.7404C25.0091 25.6995 25.0093 25.6554 24.9952 25.615L22.7052 18.745C22.6385 18.545 22.5252 18.5133 22.3652 18.65C21.8002 19.135 20.3902 20.905 19.6252 19.6C19.4918 19.3733 19.4352 18.9983 19.4552 18.475C19.5085 17.0383 19.4968 15.575 19.4202 14.085C19.4068 13.865 19.3252 13.8367 19.1752 14ZM9.04018 18.255C8.93018 18.0483 8.92018 17.8383 9.01018 17.625C9.08018 17.455 9.20851 17.3683 9.39518 17.365L10.0102 17.35C10.1668 17.35 10.2468 17.2717 10.2502 17.115V16.37C10.2515 16.3049 10.2274 16.2416 10.1828 16.1933C10.1382 16.1449 10.0764 16.1151 10.0102 16.11C6.88518 15.895 7.03518 20.03 10.1102 19.705C10.2168 19.6917 10.2702 19.6317 10.2702 19.525V18.63C10.2703 18.5906 10.256 18.5526 10.2299 18.5238C10.2039 18.495 10.1683 18.4775 10.1302 18.475L9.28018 18.415C9.22928 18.4102 9.18061 18.393 9.13866 18.3651C9.09671 18.3371 9.06284 18.2992 9.04018 18.255ZM17.3052 28.145C17.2899 28.1412 17.2739 28.141 17.2585 28.1442C17.2431 28.1475 17.2286 28.1541 17.2161 28.1637C17.2037 28.1734 17.1935 28.1856 17.1864 28.1997C17.1793 28.2138 17.1755 28.2293 17.1752 28.245L17.1502 33.49C17.1502 33.6367 17.2235 33.715 17.3702 33.725C18.7768 33.8217 19.4435 34.5783 19.3702 35.995C19.3688 36.0127 19.371 36.0305 19.3767 36.0472C19.3824 36.064 19.3915 36.0792 19.4033 36.092C19.4152 36.1048 19.4295 36.1148 19.4453 36.1213C19.4611 36.1279 19.4781 36.1308 19.4952 36.13L20.5052 36.125C20.522 36.125 20.5387 36.1215 20.5542 36.1147C20.5697 36.1079 20.5837 36.0979 20.5954 36.0852C20.6071 36.0726 20.6162 36.0577 20.6221 36.0413C20.6281 36.025 20.6309 36.0075 20.6302 35.99C20.5502 34.5767 21.2118 33.825 22.6152 33.735C22.7552 33.725 22.8252 33.65 22.8252 33.51L22.8402 28.34C22.8403 28.3118 22.8339 28.284 22.8216 28.2587C22.8093 28.2333 22.7914 28.2111 22.7692 28.1938C22.747 28.1764 22.7212 28.1643 22.6936 28.1585C22.666 28.1526 22.6375 28.1531 22.6102 28.16C20.8368 28.6167 19.0685 28.6117 17.3052 28.145ZM13.7002 31.38C13.7004 31.363 13.6944 31.3466 13.6833 31.3337C13.6723 31.3209 13.657 31.3124 13.6402 31.31C9.48518 30.615 6.22018 33.755 6.63518 37.935C6.69851 38.5417 7.03351 38.845 7.64018 38.845L15.5802 38.835C15.7768 38.835 15.8768 38.7383 15.8802 38.545L15.8852 37.465C15.8885 37.285 15.8052 37.165 15.6352 37.105C13.1552 36.19 13.6502 33.465 13.7002 31.38ZM17.0352 36.535L17.0602 38.545C17.0635 38.785 17.1835 38.89 17.4202 38.86L17.9102 38.795C18.1035 38.7683 18.2002 38.6583 18.2002 38.465L18.1952 35.47C18.1956 35.3409 18.147 35.2162 18.059 35.1209C17.971 35.0255 17.8501 34.9663 17.7202 34.955L16.8252 34.88C16.6612 34.8638 16.5096 34.7871 16.4002 34.665C15.7552 33.94 16.0102 32.365 15.9902 31.455C15.9868 31.2883 15.9018 31.21 15.7352 31.22L15.0952 31.255C14.9418 31.265 14.8652 31.3483 14.8652 31.505C14.8752 32.4817 14.8918 33.5217 14.9152 34.625C14.9452 35.9 15.9402 35.93 16.8102 36.225C16.9568 36.275 17.0318 36.3783 17.0352 36.535ZM21.9602 38.79L22.7352 38.875C22.7688 38.8785 22.8028 38.8751 22.8349 38.8649C22.867 38.8546 22.8965 38.8379 22.9215 38.8157C22.9465 38.7935 22.9665 38.7664 22.98 38.7361C22.9936 38.7058 23.0005 38.6731 23.0002 38.64V36.62C23 36.535 23.0249 36.4515 23.0719 36.3797C23.119 36.3078 23.1861 36.2506 23.2652 36.215C23.7152 36.01 24.2052 35.985 24.5502 35.725C25.4752 35.02 25.2352 33.075 25.2002 31.44C25.1968 31.3167 25.1335 31.2533 25.0102 31.25L24.1302 31.245C24.0435 31.245 24.0002 31.2867 24.0002 31.37V33.925C23.999 34.1886 23.8953 34.4412 23.7112 34.629C23.5272 34.8167 23.2774 34.9248 23.0152 34.93L22.1102 34.95C21.9068 34.9567 21.8052 35.0617 21.8052 35.265L21.7802 38.59C21.7799 38.6398 21.7982 38.6878 21.8315 38.7248C21.8648 38.7618 21.9107 38.785 21.9602 38.79ZM20.6341 37.4339C20.6341 37.4089 20.6291 37.3843 20.6195 37.3612C20.6099 37.3382 20.5959 37.3173 20.5782 37.2997C20.5606 37.282 20.5396 37.2681 20.5165 37.2586C20.4934 37.2491 20.4687 37.2442 20.4438 37.2443L19.5638 37.2458C19.5388 37.2458 19.5141 37.2508 19.4911 37.2603C19.4681 37.2699 19.4471 37.284 19.4295 37.3016C19.4119 37.3193 19.398 37.3403 19.3885 37.3634C19.379 37.3864 19.3741 37.4111 19.3741 37.4361L19.3762 38.6361C19.3763 38.6611 19.3812 38.6857 19.3908 38.7088C19.4004 38.7318 19.4145 38.7527 19.4321 38.7703C19.4498 38.788 19.4708 38.8019 19.4938 38.8114C19.5169 38.8209 19.5416 38.8258 19.5666 38.8257L20.4466 38.8242C20.4715 38.8242 20.4962 38.8192 20.5193 38.8097C20.5423 38.8001 20.5632 38.786 20.5808 38.7684C20.5984 38.7507 20.6124 38.7297 20.6219 38.7066C20.6314 38.6836 20.6363 38.6589 20.6362 38.6339L20.6341 37.4339Z" fill="#B9E9FF"/>
<path d="M15.3936 17.3707L15.3137 17.3698C15.021 17.3662 14.7808 17.6006 14.7772 17.8932L14.7627 19.0832C14.7591 19.3758 14.9935 19.616 15.2862 19.6196L15.3662 19.6206C15.6588 19.6241 15.899 19.3898 15.9026 19.0971L15.9171 17.9072C15.9207 17.6145 15.6863 17.3743 15.3936 17.3707Z" fill="#B9E9FF"/>
<path d="M22.0102 22.2356C22.3136 22.0756 22.5419 22.1472 22.6952 22.4506L22.7852 22.6306C22.9052 22.8639 22.8519 23.0456 22.6252 23.1756C20.5452 24.3589 18.5752 24.1922 16.7152 22.6756C16.6599 22.631 16.6153 22.5747 16.5847 22.5107C16.554 22.4466 16.5381 22.3766 16.5381 22.3056C16.5381 22.2346 16.554 22.1645 16.5847 22.1005C16.6153 22.0364 16.6599 21.9801 16.7152 21.9356L16.8702 21.8106C16.955 21.7427 17.0608 21.7061 17.17 21.707C17.2792 21.708 17.3851 21.7463 17.4702 21.8156C18.8636 22.9689 20.3769 23.1089 22.0102 22.2356Z" fill="#B9E9FF"/>
</svg>
