<svg width="40" height="40" viewBox="0 0 40 40" fill="none" xmlns="http://www.w3.org/2000/svg">
<path d="M40 23.0851V25.0951C38.54 31.5751 30.635 33.1301 27.135 27.3351C27.0583 27.2084 26.9567 27.1834 26.83 27.2601C26.375 27.5301 26.005 27.7501 25.435 27.7501C22.7083 27.7668 19.98 27.7601 17.25 27.7301C15.855 27.7151 15.06 26.1851 13.765 25.7001C13.5917 25.6334 13.4783 25.6901 13.425 25.8701C11.275 33.1451 1.37 32.2851 0 24.9151V23.1551C1.125 18.1451 6.315 15.4601 10.715 18.4451C10.7966 18.5005 10.8553 18.5835 10.8801 18.6783C10.905 18.7731 10.8943 18.8733 10.85 18.9601L10.79 19.0851C10.7578 19.1506 10.7126 19.209 10.6573 19.2565C10.6019 19.3041 10.5374 19.34 10.4678 19.362C10.3981 19.3839 10.3248 19.3915 10.2521 19.3843C10.1794 19.3771 10.109 19.3553 10.045 19.3201C2.015 14.9001 -2.64 27.1801 5.28 29.5601C8.425 30.5101 11.685 28.4551 12.43 25.2651C12.4519 25.1731 12.4433 25.0765 12.4054 24.9899C12.3675 24.9033 12.3024 24.8314 12.22 24.7851L11.515 24.3851C11.3483 24.2884 11.245 24.3334 11.205 24.5201C10.585 27.4167 8.89167 28.7051 6.125 28.3851C3.03 28.0251 1.43 23.8701 3.43 21.4251C4.69 19.8851 7.01 19.1551 8.85 20.2501C8.97667 20.3267 9.04333 20.4401 9.05 20.5901C9.07 21.1867 8.85 21.3984 8.39 21.2251C4.67 19.8451 1.99 23.9451 4.835 26.5451C7.245 28.7501 10.875 26.0101 9.785 22.8351C9.72833 22.6684 9.74167 22.5084 9.825 22.3551L10.555 21.0101C10.6269 20.8784 10.7242 20.7622 10.8414 20.6682C10.9585 20.5743 11.0932 20.5044 11.2376 20.4626C11.3821 20.4208 11.5335 20.4079 11.6832 20.4246C11.8329 20.4413 11.978 20.4874 12.11 20.5601L13.93 21.5701C14.0133 21.6167 14.0867 21.6034 14.15 21.5301L15.56 19.9151C15.6233 19.8418 15.6167 19.7767 15.54 19.7201C11.91 16.9601 8.285 14.1717 4.665 11.3551C4.50167 11.2284 4.41 11.1001 4.39 10.9701C4.37866 10.8988 4.38272 10.826 4.40189 10.7564C4.42107 10.6868 4.45492 10.6219 4.50123 10.5662C4.54754 10.5104 4.60525 10.465 4.67054 10.4329C4.73583 10.4008 4.80722 10.3828 4.88 10.3801C6.33333 10.3401 7.83167 10.3418 9.375 10.3851C10.64 10.4251 11.9 12.4501 12.715 13.3301C12.7543 13.3726 12.8022 13.4065 12.8555 13.4298C12.9089 13.453 12.9666 13.465 13.025 13.4651L15.97 13.4801C16.0505 13.4802 16.1302 13.4639 16.2041 13.4321C16.2781 13.4002 16.3447 13.3536 16.4 13.2951C17.845 11.7451 19.325 11.0151 21.535 10.9851C23.98 10.9601 26.445 10.7851 26.855 13.8751C26.8783 14.0351 26.97 14.1151 27.13 14.1151L30.245 14.1101C30.3742 14.1089 30.4979 14.0582 30.5901 13.9688C30.6824 13.8793 30.7361 13.7579 30.74 13.6301L30.75 13.3951C30.7633 12.9784 30.5617 12.7668 30.145 12.7601L28.545 12.7351C28.4806 12.7342 28.4174 12.7176 28.3609 12.6867C28.3044 12.6558 28.2563 12.6116 28.2208 12.5578C28.1853 12.5041 28.1635 12.4425 28.1573 12.3784C28.151 12.3143 28.1605 12.2497 28.185 12.1901L28.265 12.0001C28.317 11.8802 28.4026 11.7784 28.5111 11.7073C28.6196 11.6361 28.7462 11.5988 28.875 11.6001L29.81 11.6201C30.0333 11.6234 30.1067 11.5217 30.03 11.3151L29.49 9.87008C29.4622 9.79518 29.4513 9.71502 29.4582 9.6355C29.4651 9.55597 29.4896 9.47909 29.5299 9.41051C29.5702 9.34193 29.6252 9.28339 29.691 9.23919C29.7568 9.19499 29.8316 9.16625 29.91 9.15508C31.39 8.93008 32.135 9.02508 33 10.3551C33.9933 11.8817 34.975 13.4101 35.945 14.9401C36.4783 15.7767 36.3033 16.5634 35.42 17.3001C35.2633 17.4334 35.28 17.5401 35.47 17.6201C37.9033 18.6201 39.4133 20.4417 40 23.0851ZM28.09 17.2101C28.0887 17.3564 28.0296 17.4963 27.9257 17.5993C27.8217 17.7023 27.6813 17.7601 27.535 17.7601C25.7283 17.7501 23.9033 17.7534 22.06 17.7701C21.46 17.7751 21.075 18.1151 20.625 18.4651C20.5726 18.5053 20.5377 18.5644 20.5275 18.6304C20.5173 18.6963 20.5325 18.7641 20.57 18.8201C21.47 20.1251 23.03 21.4501 22.245 23.1901C21.45 24.9601 19.27 25.1401 18 23.6301C17.8833 23.4901 17.75 23.4734 17.6 23.5801L16.04 24.6751C15.89 24.7817 15.8367 24.9268 15.88 25.1101C16.115 26.0901 16.605 26.6101 17.705 26.6151C20.3317 26.6284 22.8917 26.6284 25.385 26.6151C25.6738 26.6132 25.9522 26.5076 26.1697 26.3177C26.3872 26.1277 26.5293 25.866 26.57 25.5801C26.82 23.7751 26.99 21.5401 27.805 20.0701C29.115 17.7201 32.125 17.2501 34.43 16.5351C35.0567 16.3418 35.1983 15.9651 34.855 15.4051C33.8583 13.7851 32.8033 12.1301 31.69 10.4401C31.5567 10.2367 31.37 10.1784 31.13 10.2651C30.9667 10.3218 30.915 10.4318 30.975 10.5951C31.635 12.3251 33.095 15.2401 29.645 15.2501C27.0317 15.2534 24.415 15.2568 21.795 15.2601C20.59 15.2651 19.885 15.8201 19.055 16.5601C19.0176 16.5941 18.9948 16.6413 18.9911 16.6923C18.9874 16.7433 19.0031 16.7943 19.035 16.8351L19.655 17.6051C19.6671 17.6207 19.6823 17.6336 19.6996 17.6431C19.7169 17.6526 19.736 17.6585 19.7557 17.6604C19.7754 17.6623 19.7952 17.6601 19.814 17.654C19.8328 17.6479 19.8501 17.6381 19.865 17.6251C20.49 17.0801 21.065 16.6251 21.975 16.6201C23.9083 16.6068 25.815 16.6084 27.695 16.6251C27.9617 16.6284 28.0933 16.7617 28.09 17.0251V17.2101ZM13.31 14.6101C11.69 14.5751 10.945 12.9751 10.035 11.9801C9.89783 11.8303 9.73141 11.7107 9.54633 11.6289C9.36125 11.5471 9.16157 11.505 8.96 11.5051H7.255C6.865 11.5051 6.825 11.6234 7.135 11.8601L18.01 20.1701C18.1467 20.2767 18.2933 20.2951 18.45 20.2251L19.45 19.7851C19.6367 19.7017 19.6683 19.5784 19.545 19.4151L16.13 14.8401C16.02 14.6968 15.8767 14.6251 15.7 14.6251C14.8933 14.6351 14.0967 14.6301 13.31 14.6101ZM18.16 15.6351C18.1727 15.6525 18.189 15.6668 18.208 15.6772C18.2269 15.6875 18.248 15.6936 18.2698 15.695C18.2917 15.6964 18.3137 15.6932 18.3344 15.6854C18.3551 15.6777 18.3741 15.6656 18.39 15.6501C20.385 13.5601 22.725 14.1451 25.1 14.1251C25.6833 14.1217 25.84 13.8601 25.57 13.3401L25.4 13.0201C25.0867 12.4134 24.59 12.1134 23.91 12.1201C21.06 12.1351 19.33 11.8701 17.175 14.0851C17.105 14.1584 17.1017 14.2367 17.165 14.3201L18.16 15.6351ZM34.365 20.5151L34.56 20.3701C34.86 20.1534 35.1617 20.1551 35.465 20.3751C40.605 24.1551 34.945 31.1751 30.305 27.3301C28.2 25.5851 28.33 21.8201 30.94 20.3751C31.07 20.3051 31.1117 20.1984 31.065 20.0551L30.77 19.1401C30.762 19.115 30.7487 19.092 30.7309 19.0727C30.7131 19.0533 30.6913 19.0381 30.667 19.0281C30.6427 19.0181 30.6165 19.0136 30.5902 19.0148C30.564 19.016 30.5383 19.0229 30.515 19.0351C29.445 19.5984 28.7483 20.5084 28.425 21.7651C28.155 22.8051 27.495 25.3201 27.885 26.2501C30.23 31.8951 38.84 30.3051 38.835 24.1251C38.83 20.5701 35.625 17.7751 32.075 18.4951C31.8617 18.5384 31.7933 18.6617 31.87 18.8651L32.97 21.8851C33.04 22.0717 33.17 22.1918 33.36 22.2451C34.54 22.5801 35.405 23.5451 34.825 24.7701C33.58 27.4251 29.98 24.8951 31.8 22.9151C31.9533 22.7518 31.9917 22.5651 31.915 22.3551L31.645 21.6001C31.5617 21.3701 31.4283 21.3351 31.245 21.4951C29.715 22.8418 29.4667 24.3018 30.5 25.8751C33.205 29.9851 39.615 24.3701 34.38 21.0201C34.3379 20.9934 34.303 20.9568 34.2783 20.9134C34.2536 20.8701 34.24 20.8214 34.2385 20.7716C34.237 20.7217 34.2478 20.6723 34.2698 20.6276C34.2919 20.5829 34.3246 20.5442 34.365 20.5151ZM15.35 22.2751C16.21 23.3051 17.705 22.7001 17.635 21.4801C17.6254 21.3179 17.5681 21.1622 17.4703 21.0324C17.3725 20.9026 17.2386 20.8047 17.0853 20.7507C16.9321 20.6968 16.7663 20.6893 16.6088 20.7292C16.4513 20.7691 16.3091 20.8547 16.2 20.9751L15.355 21.9151C15.2483 22.0318 15.2467 22.1517 15.35 22.2751ZM21.305 22.1951C21.305 21.849 21.1675 21.517 20.9228 21.2723C20.678 21.0276 20.3461 20.8901 20 20.8901C19.6539 20.8901 19.322 21.0276 19.0772 21.2723C18.8325 21.517 18.695 21.849 18.695 22.1951C18.695 22.5412 18.8325 22.8731 19.0772 23.1179C19.322 23.3626 19.6539 23.5001 20 23.5001C20.3461 23.5001 20.678 23.3626 20.9228 23.1179C21.1675 22.8731 21.305 22.5412 21.305 22.1951ZM15.1487 23.7201C15.1574 23.7046 15.1629 23.6876 15.165 23.67C15.1671 23.6524 15.1657 23.6346 15.1609 23.6175C15.1561 23.6004 15.148 23.5845 15.1371 23.5705C15.1261 23.5566 15.1125 23.545 15.097 23.5363L11.6785 21.6179C11.6473 21.6004 11.6104 21.596 11.5759 21.6057C11.5415 21.6154 11.5123 21.6383 11.4948 21.6695L10.9613 22.6201C10.9526 22.6355 10.9471 22.6526 10.945 22.6702C10.9429 22.6878 10.9443 22.7056 10.9491 22.7227C10.9539 22.7397 10.962 22.7557 10.9729 22.7696C10.9839 22.7836 10.9975 22.7952 11.0129 22.8039L14.4315 24.7223C14.4627 24.7398 14.4996 24.7442 14.5341 24.7345C14.5685 24.7248 14.5977 24.7018 14.6152 24.6706L15.1487 23.7201ZM33.835 24.0601C33.835 23.9714 33.8175 23.8837 33.7836 23.8018C33.7497 23.7199 33.7 23.6455 33.6373 23.5828C33.5746 23.5201 33.5002 23.4704 33.4183 23.4365C33.3364 23.4025 33.2486 23.3851 33.16 23.3851C32.981 23.3851 32.8093 23.4562 32.6827 23.5828C32.5561 23.7094 32.485 23.8811 32.485 24.0601C32.485 24.2391 32.5561 24.4108 32.6827 24.5374C32.8093 24.664 32.981 24.7351 33.16 24.7351C33.2486 24.7351 33.3364 24.7176 33.4183 24.6837C33.5002 24.6498 33.5746 24.6001 33.6373 24.5374C33.7 24.4747 33.7497 24.4003 33.7836 24.3184C33.8175 24.2365 33.835 24.1487 33.835 24.0601Z" fill="#99C5F4"/>
<path d="M8.67979 24.075C8.67979 24.559 8.48751 25.0232 8.14525 25.3655C7.803 25.7077 7.3388 25.9 6.85478 25.9C6.37076 25.9 5.90657 25.7077 5.56431 25.3655C5.22206 25.0232 5.02979 24.559 5.02979 24.075C5.02979 23.591 5.22206 23.1268 5.56431 22.7845C5.90657 22.4423 6.37076 22.25 6.85478 22.25C7.3388 22.25 7.803 22.4423 8.14525 22.7845C8.48751 23.1268 8.67979 23.591 8.67979 24.075ZM7.53478 24.075C7.53478 23.8947 7.46314 23.7217 7.33562 23.5942C7.20809 23.4666 7.03513 23.395 6.85478 23.395C6.67444 23.395 6.50148 23.4666 6.37395 23.5942C6.24643 23.7217 6.17479 23.8947 6.17479 24.075C6.17479 24.2553 6.24643 24.4283 6.37395 24.5558C6.50148 24.6834 6.67444 24.755 6.85478 24.755C7.03513 24.755 7.20809 24.6834 7.33562 24.5558C7.46314 24.4283 7.53478 24.2553 7.53478 24.075Z" fill="#99C5F4"/>
</svg>
