<svg width="40" height="40" viewBox="0 0 40 40" fill="none" xmlns="http://www.w3.org/2000/svg">
<g clip-path="url(#clip0_2474_147)">
<path d="M10.78 0H11.325C16.97 1.5 19.88 5.985 20.485 11.415C20.4893 11.4512 20.5031 11.4858 20.5249 11.515C20.5466 11.5443 20.5755 11.5673 20.6087 11.5816C20.6418 11.5959 20.678 11.6009 20.7134 11.5962C20.7488 11.5916 20.7821 11.5773 20.81 11.555C24.945 8.39 29.49 7.07 34.73 6.975C34.7764 6.97434 34.8224 6.9829 34.8655 7.00019C34.9085 7.01749 34.9477 7.04316 34.9807 7.07573C35.0138 7.10829 35.04 7.1471 35.0579 7.1899C35.0758 7.23269 35.085 7.27861 35.085 7.325L35.115 11.245C35.1147 11.3144 35.1406 11.3814 35.1878 11.4331C35.2349 11.4848 35.2998 11.5176 35.37 11.525C36.28 11.6183 37.0133 11.9967 37.57 12.66C37.67 12.78 37.7983 12.8283 37.955 12.805C38.8683 12.665 39.55 12.9583 40 13.685V39.11C39.73 39.54 39.38 39.8367 38.95 40H21.335C20.4283 39.01 19.5567 39.01 18.72 40H1.01C0.51 39.7867 0.173333 39.43 0 38.93V35.37C0.186667 35.2133 0.38 35.1233 0.58 35.1C0.654857 35.0907 0.730826 35.0976 0.802831 35.12C0.874837 35.1425 0.941218 35.1801 0.997541 35.2302C1.05386 35.2804 1.09883 35.342 1.12943 35.411C1.16003 35.4799 1.17557 35.5546 1.175 35.63L1.15 38.49C1.15 38.5802 1.18582 38.6667 1.24958 38.7304C1.31335 38.7942 1.39983 38.83 1.49 38.83L18.05 38.81C18.1931 38.8099 18.333 38.7644 18.45 38.68C19.4933 37.9067 20.535 37.9083 21.575 38.685C21.7017 38.7783 21.845 38.825 22.005 38.825L38.63 38.82C38.683 38.82 38.7339 38.7989 38.7714 38.7614C38.8089 38.7239 38.83 38.673 38.83 38.62L38.835 14.275C38.835 14.0683 38.7317 13.9633 38.525 13.96L37.755 13.955C37.7165 13.9543 37.6782 13.9613 37.6425 13.9756C37.6067 13.9899 37.5742 14.0112 37.5467 14.0382C37.5192 14.0651 37.4974 14.0973 37.4825 14.1329C37.4677 14.1684 37.46 14.2065 37.46 14.245L37.465 37.03C37.465 37.1613 37.4128 37.2872 37.32 37.38C37.2272 37.4728 37.1013 37.525 36.97 37.525H3.12C2.96352 37.525 2.81345 37.4628 2.70281 37.3522C2.59216 37.2415 2.53 37.0915 2.53 36.935L2.535 14.24C2.53501 14.2021 2.52747 14.1647 2.51284 14.1298C2.4982 14.0949 2.47676 14.0632 2.44977 14.0367C2.42277 14.0102 2.39076 13.9893 2.3556 13.9752C2.32044 13.9612 2.28285 13.9543 2.245 13.955L1.465 13.965C1.26167 13.9683 1.16 14.0717 1.16 14.275C1.15667 20.105 1.15333 25.9667 1.15 31.86C1.15 32.19 1.07333 32.42 0.92 32.55C0.653333 32.7733 0.346667 32.655 0 32.195V13.765C0.366667 13.0783 1.08833 12.7383 2.165 12.745C2.26622 12.745 2.36522 12.7163 2.45028 12.6623C2.53535 12.6082 2.60292 12.5311 2.645 12.44C2.755 12.21 2.99667 12.03 3.37 11.9C4.31 11.5767 5.26 11.2767 6.22 11C6.29944 10.9771 6.36927 10.9287 6.41889 10.8619C6.46852 10.7951 6.49524 10.7137 6.495 10.63V2.82C6.49468 2.7337 6.51448 2.64851 6.55285 2.5712C6.59121 2.4939 6.64707 2.4266 6.716 2.37467C6.78492 2.32273 6.86501 2.28758 6.9499 2.27202C7.03478 2.25645 7.12213 2.2609 7.205 2.285L10.11 3.135C10.2567 3.17833 10.335 3.12333 10.345 2.97C10.405 2.10333 10.4133 1.44833 10.37 1.005C10.3233 0.495 10.46 0.16 10.78 0ZM18.755 8.58C17.71 5.27 15.285 2.325 11.77 1.425C11.6 1.38167 11.515 1.44833 11.515 1.625V23.625C11.5147 23.6882 11.5351 23.7497 11.573 23.8003C11.6109 23.8508 11.6643 23.8876 11.725 23.905C15.1517 24.8283 17.6033 26.895 19.08 30.105C19.2633 30.5017 19.3567 30.4817 19.36 30.045C19.4233 24.755 19.4217 19.4417 19.355 14.105C19.3217 11.5917 19.1217 9.75 18.755 8.58ZM19.03 33.595C18.1 28.8783 15.3183 25.9383 10.685 24.775C10.5951 24.7518 10.5155 24.6995 10.4585 24.6262C10.4015 24.5529 10.3704 24.4628 10.37 24.37V4.63C10.37 4.58492 10.3555 4.54088 10.3286 4.50409C10.3017 4.46731 10.2637 4.43964 10.22 4.425L7.795 3.6C7.77688 3.59362 7.7575 3.59186 7.73847 3.59489C7.71945 3.59791 7.70134 3.60562 7.68567 3.61738C7.67 3.62913 7.65722 3.64458 7.6484 3.66244C7.63958 3.6803 7.63499 3.70003 7.635 3.72L7.625 25.865C7.625 26.0217 7.70167 26.12 7.855 26.16C12.405 27.39 16.055 29.9017 18.805 33.695C19.0317 34.0083 19.1067 33.975 19.03 33.595ZM33.99 14.34L33.985 8.37C33.9844 8.3387 33.9775 8.30785 33.9648 8.27925C33.952 8.25065 33.9337 8.22488 33.9109 8.20345C33.8881 8.18203 33.8612 8.16538 33.8318 8.15448C33.8025 8.14358 33.7713 8.13866 33.74 8.14C28.88 8.31 24.585 9.92333 20.855 12.98C20.7784 13.0425 20.7167 13.1216 20.6743 13.2115C20.6319 13.3015 20.61 13.4 20.61 13.5V35.11C20.6105 35.1365 20.6182 35.1624 20.6323 35.1848C20.6464 35.2072 20.6664 35.2254 20.6901 35.2372C20.7138 35.2491 20.7404 35.2542 20.7668 35.2521C20.7932 35.2499 20.8185 35.2405 20.84 35.225C24.6567 32.3617 28.9667 30.86 33.77 30.72C33.8279 30.7174 33.8826 30.6926 33.9227 30.6507C33.9627 30.6087 33.9851 30.553 33.985 30.495V17.655C33.985 17.5535 34.0213 17.4554 34.0873 17.3784C34.1533 17.3014 34.2447 17.2505 34.345 17.235L34.55 17.2C34.6193 17.1892 34.69 17.1935 34.7575 17.2126C34.8249 17.2318 34.8874 17.2653 34.9406 17.3109C34.9939 17.3566 35.0366 17.4132 35.0658 17.4769C35.095 17.5406 35.1101 17.6099 35.11 17.68V31.25C35.11 31.331 35.0939 31.4111 35.0626 31.4858C35.0313 31.5604 34.9855 31.6281 34.9278 31.6849C34.8701 31.7417 34.8017 31.7864 34.7265 31.8165C34.6513 31.8465 34.5709 31.8613 34.49 31.86C31.7267 31.8267 29.0317 32.3333 26.405 33.38C26.385 33.39 26.3767 33.405 26.38 33.425C26.38 33.435 26.3817 33.4467 26.385 33.46C26.3883 33.51 26.4267 33.53 26.5 33.52C29.7367 33.07 32.91 33.3283 36.02 34.295C36.1767 34.345 36.255 34.2883 36.255 34.125L36.265 13.26C36.2649 13.1816 36.2403 13.1052 36.1946 13.0415C36.1488 12.9778 36.0843 12.9301 36.01 12.905L35.385 12.695C35.3561 12.6856 35.3253 12.6829 35.2952 12.6871C35.2651 12.6914 35.2366 12.7024 35.2118 12.7195C35.187 12.7365 35.1667 12.7589 35.1525 12.7851C35.1383 12.8112 35.1306 12.8403 35.13 12.87L35.09 14.245C35.0861 14.3644 35.0359 14.4776 34.9501 14.5606C34.8642 14.6437 34.7494 14.6901 34.63 14.69H34.34C34.2472 14.69 34.1582 14.6531 34.0925 14.5875C34.0269 14.5218 33.99 14.4328 33.99 14.34ZM6.495 26.74V12.49C6.495 12.2233 6.36667 12.13 6.11 12.21L4.125 12.83C3.86167 12.9133 3.73 13.0917 3.73 13.365L3.75 34.115C3.75 34.3083 3.84167 34.375 4.025 34.315C8.73167 32.795 13.3683 32.9633 17.935 34.82C18.1717 34.9167 18.2167 34.8617 18.07 34.655C15.28 30.6817 11.51 28.1533 6.76 27.07C6.68503 27.053 6.61802 27.0112 6.56989 26.9513C6.52177 26.8913 6.49537 26.8169 6.495 26.74ZM3.57 36.32L17.99 36.55C17.994 36.55 17.9978 36.5484 18.0006 36.5456C18.0034 36.5428 18.005 36.539 18.005 36.535V36.505C18.0104 36.2599 17.8309 36.0142 17.4766 35.7819C17.1224 35.5497 16.6003 35.3355 15.9404 35.1516C15.2805 34.9677 14.4956 34.8177 13.6307 34.7102C12.7658 34.6026 11.8379 34.5397 10.9 34.525H10.72C8.8294 34.4952 7.01286 34.6627 5.66941 34.9909C4.32596 35.319 3.56547 35.7809 3.555 36.275V36.305C3.555 36.309 3.55658 36.3128 3.55939 36.3156C3.56221 36.3184 3.56602 36.32 3.57 36.32ZM21.97 36.55L36.42 36.32C36.4226 36.32 36.4252 36.3195 36.4277 36.3185C36.4301 36.3175 36.4323 36.316 36.4341 36.3141C36.436 36.3123 36.4375 36.3101 36.4385 36.3077C36.4395 36.3052 36.44 36.3026 36.44 36.3V36.27C36.4298 35.7798 35.6679 35.3217 34.3216 34.9964C32.9753 34.6711 31.1548 34.5051 29.26 34.535H29.07C28.1302 34.5498 27.2004 34.6123 26.3338 34.7191C25.4671 34.8259 24.6807 34.9748 24.0194 35.1573C23.358 35.3398 22.8349 35.5523 22.4798 35.7827C22.1247 36.0131 21.9447 36.2569 21.95 36.5V36.53C21.95 36.5353 21.9521 36.5404 21.9559 36.5441C21.9596 36.5479 21.9647 36.55 21.97 36.55Z" fill="#CBA5D7"/>
</g>
<defs>
<clipPath id="clip0_2474_147">
<rect width="40" height="40" fill="white"/>
</clipPath>
</defs>
</svg>
