<svg width="40" height="40" viewBox="0 0 40 40" fill="none" xmlns="http://www.w3.org/2000/svg">
<path d="M15.925 0H16.64C17.365 2.435 16.98 4.79 13.665 4.63C13.215 4.61 13.1217 4.78167 13.385 5.145L13.63 5.485C13.7431 5.63988 13.8909 5.76589 14.0611 5.85277C14.2314 5.93965 14.4195 5.98495 14.61 5.985H21.025C21.2011 5.9853 21.3712 5.92154 21.5037 5.80562C21.6362 5.68969 21.7219 5.52952 21.745 5.355L21.775 5.13C21.7838 5.06479 21.7783 4.99844 21.7587 4.93561C21.7391 4.87279 21.7059 4.81503 21.6616 4.76641C21.6173 4.71778 21.5628 4.67947 21.5021 4.65417C21.4413 4.62888 21.3758 4.61721 21.31 4.62C18.73 4.725 18.515 1.835 19.18 0H19.82C19.99 0.56 20.0667 1.17833 20.05 1.855C20.025 3.03 20.5 3.775 21.755 3.415C21.9117 3.37167 22.04 3.28667 22.14 3.16C24.28 0.55 28.09 3.19 26.26 6.12C26.1699 6.26452 26.1378 6.43777 26.17 6.605L27.3 12.37C27.33 12.52 27.4067 12.6383 27.53 12.725L33.315 16.825C33.455 16.9217 33.5967 16.925 33.74 16.835C35.41 15.775 36.94 16.72 36.205 18.755C35.75 20.025 33.975 22.035 32.37 20.85C30.84 19.7167 29.32 18.565 27.81 17.395C27.7601 17.3576 27.7027 17.3319 27.642 17.3197C27.5814 17.3076 27.5192 17.3094 27.46 17.325L26.39 17.62C26.19 17.6733 26.1583 17.7783 26.295 17.935C28.1283 20.0883 29.4617 22.5217 30.295 25.235C30.3101 25.287 30.3145 25.3415 30.3079 25.3952C30.3013 25.4488 30.2839 25.5004 30.2567 25.5469C30.2295 25.5933 30.1931 25.6335 30.1498 25.665C30.1065 25.6965 30.0572 25.7186 30.005 25.73L29.855 25.765C29.4917 25.845 29.2517 25.7067 29.135 25.35C28.2783 22.6967 26.9217 20.335 25.065 18.265C24.955 18.1417 24.8183 18.085 24.655 18.095C22.725 18.185 21.265 18.96 21.28 20.845C21.2815 21.0845 21.2068 21.3184 21.0667 21.5133C20.9266 21.7082 20.7282 21.8541 20.5 21.93L18.085 22.725C17.9317 22.775 17.85 22.88 17.84 23.04L17.615 27.12C17.605 27.28 17.6733 27.3883 17.82 27.445C19.59 28.145 21.495 28.71 23.07 29.775C23.2233 29.8783 23.3083 29.8383 23.325 29.655C23.655 26.485 23.675 23.765 22.795 20.91C22.7618 20.8045 22.7696 20.6902 22.8167 20.5894C22.8638 20.4887 22.947 20.4087 23.05 20.365L23.26 20.28C23.5667 20.15 23.77 20.2433 23.87 20.56C25.2 24.675 24.535 28.73 24.315 32.92C24.312 32.9764 24.3255 33.0325 24.3539 33.0814C24.3824 33.1303 24.4244 33.1697 24.475 33.195L26.11 33.975C26.1561 33.997 26.1974 34.028 26.2313 34.0661C26.2653 34.1042 26.2912 34.1487 26.3075 34.1967C26.3239 34.2448 26.3303 34.2956 26.3264 34.346C26.3226 34.3964 26.3085 34.4453 26.285 34.49L26.155 34.75C26.045 34.9667 25.8767 35.035 25.65 34.955C24.97 34.725 24.385 34.455 23.895 34.145C22.515 33.28 23.68 31.75 22.38 30.845C22.2267 30.7383 22.1367 30.7783 22.11 30.965L20.865 40H19.89L21.055 30.2C21.075 30.0367 21.0083 29.925 20.855 29.865L18.65 29.01C18.4667 28.94 18.38 29.0017 18.39 29.195L18.945 40H17.955L17.235 28.66C17.225 28.4867 17.1483 28.35 17.005 28.25C16.6383 27.99 16.4567 27.7 16.46 27.38C16.47 26.2767 16.175 25.41 15.575 24.78C15.335 24.53 15.2183 24.5767 15.225 24.92C15.2317 25.7033 14.9117 26.2683 14.265 26.615C14.105 26.6983 14.0417 26.83 14.075 27.01C14.7717 31.02 15.4533 35.0167 16.12 39C16.1933 39.4567 16.09 39.79 15.81 40H15.185L12.995 27.405C12.965 27.2283 12.865 27.17 12.695 27.23C11.4417 27.6833 10.205 28.1467 8.98501 28.62C6.69501 29.515 6.70001 27.505 7.05001 25.93C7.08668 25.7633 7.01834 25.67 6.84501 25.65C5.88834 25.5367 5.05834 25.1617 4.35501 24.525C2.94001 23.245 3.70501 21.775 5.54001 21.75C5.80334 21.7467 5.97834 21.62 6.06501 21.37L10.325 9.335C10.385 9.16833 10.3917 8.99833 10.345 8.825C9.42501 5.445 10.965 2.96 14.685 3.485C14.8181 3.50372 14.9537 3.49204 15.0817 3.45085C15.2096 3.40966 15.3266 3.34003 15.4238 3.24717C15.521 3.15431 15.5959 3.04065 15.6428 2.91471C15.6898 2.78877 15.7076 2.65382 15.695 2.52C15.615 1.65667 15.6917 0.816667 15.925 0ZM25.605 4.625C25.605 4.26165 25.4607 3.91319 25.2037 3.65626C24.9468 3.39934 24.5984 3.255 24.235 3.255C23.8717 3.255 23.5232 3.39934 23.2663 3.65626C23.0093 3.91319 22.865 4.26165 22.865 4.625C22.865 4.98835 23.0093 5.33681 23.2663 5.59374C23.5232 5.85066 23.8717 5.995 24.235 5.995C24.5984 5.995 24.9468 5.85066 25.2037 5.59374C25.4607 5.33681 25.605 4.98835 25.605 4.625ZM19.745 7.125C17.945 7.135 13.055 7.88 12.305 5.53C12.0983 4.87333 11.8617 4.86167 11.595 5.495C10.69 7.68 11.675 10.41 14.095 11.005C14.2271 11.0372 14.3676 11.0194 14.49 10.955C16.4067 9.985 18.2 8.82833 19.87 7.485C20.17 7.245 20.1283 7.125 19.745 7.125ZM21.74 11.87C21.8138 11.8985 21.8738 11.954 21.9074 12.0249C21.941 12.0958 21.9455 12.1765 21.92 12.25C21.31 14.03 21.1017 15.8633 21.295 17.75C21.3083 17.8833 21.3767 17.92 21.5 17.86C23.15 17.02 24.97 16.775 26.73 16.325C26.7796 16.3131 26.8228 16.2826 26.8507 16.2398C26.8786 16.197 26.8891 16.1452 26.88 16.095L25.105 7.155C25.1017 7.13833 25.0917 7.13 25.075 7.13L24.935 7.155C24.875 7.165 24.8483 7.2 24.855 7.26C25.145 9.74 25.0483 12.2 24.565 14.64C24.5335 14.7921 24.4469 14.9271 24.3221 15.0187C24.1973 15.1102 24.0432 15.1517 23.89 15.135L23.745 15.12C23.6874 15.1135 23.6317 15.0951 23.5816 15.066C23.5315 15.0369 23.488 14.9978 23.4541 14.9511C23.4202 14.9045 23.3965 14.8513 23.3846 14.7952C23.3727 14.739 23.3728 14.681 23.385 14.625C23.8683 12.275 23.98 9.90167 23.72 7.505C23.6767 7.115 23.61 7.11167 23.52 7.495L23.165 9.005C23.1017 9.275 22.9333 9.38833 22.66 9.345L22.49 9.315C22.4225 9.30363 22.358 9.27879 22.3003 9.24195C22.2426 9.20511 22.1929 9.15702 22.1541 9.10057C22.1154 9.04411 22.0884 8.98043 22.0748 8.91333C22.0613 8.84623 22.0613 8.77708 22.075 8.71L22.43 6.99C22.5133 6.57333 22.4117 6.52167 22.125 6.835C20.825 8.26167 19.3283 9.48667 17.635 10.51C15.7117 11.6733 14.5383 12.4533 14.115 12.85C12.085 14.75 10.875 17.19 9.83501 19.735C9.79052 19.8421 9.7064 19.9279 9.6002 19.9744C9.49401 20.021 9.37393 20.0248 9.26501 19.985L9.14501 19.94C9.07352 19.9135 9.00816 19.8727 8.95292 19.8203C8.89768 19.7678 8.85373 19.7048 8.82377 19.6351C8.79381 19.5653 8.77846 19.4903 8.77868 19.4146C8.77889 19.3389 8.79466 19.2642 8.82501 19.195C9.61501 17.35 10.55 15.75 11.025 13.82C11.2383 12.9633 11.4667 12.12 11.71 11.29C11.736 11.203 11.7395 11.111 11.7202 11.0226C11.701 10.9343 11.6596 10.8525 11.6 10.785L11.5 10.67C11.2967 10.4367 11.1433 10.465 11.04 10.755L6.87501 22.53C6.78501 22.79 6.60168 22.9233 6.32501 22.93L5.00001 22.96C4.96174 22.9615 4.92455 22.9732 4.8923 22.9938C4.86005 23.0145 4.83391 23.0434 4.81657 23.0775C4.79924 23.1117 4.79135 23.1499 4.79371 23.1881C4.79607 23.2263 4.8086 23.2632 4.83001 23.295C5.35668 24.0717 6.09834 24.4733 7.05501 24.5C7.21834 24.5067 7.31834 24.4317 7.35501 24.275L7.98001 21.78C8.00612 21.6786 8.06958 21.5909 8.15767 21.5343C8.24576 21.4777 8.35196 21.4566 8.45501 21.475L8.64501 21.505C8.96501 21.565 9.09168 21.7533 9.02501 22.07L7.91501 27.45C7.90682 27.4893 7.9095 27.53 7.92279 27.5679C7.93607 27.6058 7.95948 27.6395 7.99058 27.6655C8.02168 27.6915 8.05935 27.7089 8.09969 27.7158C8.14003 27.7228 8.18157 27.719 8.22001 27.705L13.735 25.595C13.8074 25.5671 13.8699 25.518 13.9145 25.4538C13.959 25.3897 13.9836 25.3135 13.985 25.235C14.01 21.595 13.41 15.915 16.19 13.015C16.4333 12.7583 16.6817 12.7533 16.935 13L17.05 13.115C17.1231 13.1875 17.1662 13.2848 17.1708 13.3876C17.1755 13.4904 17.1413 13.5912 17.075 13.67C15.2 15.88 14.98 19.455 15.15 22.395C15.1533 22.485 15.1967 22.515 15.28 22.485L20.005 20.865C20.0917 20.835 20.135 20.7733 20.135 20.68C20.145 18.01 19.77 14.64 20.805 12.105C20.9417 11.775 21.1783 11.67 21.515 11.79L21.74 11.87ZM12.61 12.6199C12.6597 12.6478 12.7317 12.6313 12.81 12.5742C12.8883 12.5171 12.9665 12.4239 13.0275 12.3152C13.0885 12.2065 13.1272 12.0912 13.1352 11.9946C13.1432 11.898 13.1197 11.8281 13.07 11.8001C13.0203 11.7722 12.9484 11.7887 12.8701 11.8458C12.7918 11.9029 12.7135 11.9961 12.6525 12.1048C12.5915 12.2135 12.5528 12.3288 12.5448 12.4254C12.5368 12.522 12.5603 12.5919 12.61 12.6199ZM33.175 18.12L28.01 14.465C27.76 14.2917 27.6667 14.3533 27.73 14.65L27.94 15.615C28.02 15.9783 28.2083 16.2733 28.505 16.5L33.135 20.005C33.216 20.0662 33.3144 20.1002 33.4159 20.102C33.5174 20.1038 33.6169 20.0733 33.7 20.015C34.3067 19.595 34.7883 19.0617 35.145 18.415C35.655 17.485 35.4367 17.2583 34.49 17.735L33.66 18.155C33.4933 18.2417 33.3317 18.23 33.175 18.12ZM16.36 23.975C16.4035 23.9931 16.4519 23.9943 16.4956 23.9785C16.5393 23.9628 16.5748 23.9311 16.595 23.89C16.6483 23.7867 16.665 23.6783 16.645 23.565C16.6117 23.355 16.495 23.2867 16.295 23.36C16.2483 23.3767 16.2017 23.3983 16.155 23.425C16.1261 23.441 16.101 23.4631 16.0816 23.4899C16.0622 23.5166 16.0489 23.5473 16.0427 23.5797C16.0365 23.6122 16.0375 23.6456 16.0457 23.6776C16.0539 23.7097 16.069 23.7395 16.09 23.765C16.1633 23.855 16.2533 23.925 16.36 23.975Z" fill="#FDF148"/>
<path d="M30.7901 36.0897C30.8419 36.1137 30.8991 36.1236 30.956 36.1184C31.0129 36.1132 31.0674 36.0931 31.114 36.0602C31.1606 36.0272 31.1978 35.9826 31.2216 35.9307C31.2455 35.8788 31.2553 35.8216 31.2501 35.7647C31.0301 33.0847 30.5934 30.4414 29.9401 27.8347C29.9161 27.7405 29.9259 27.6407 29.968 27.553C30.01 27.4653 30.0815 27.3951 30.1701 27.3547L30.3251 27.2847C30.7084 27.1114 30.9517 27.2281 31.0551 27.6347C31.6484 29.9114 32.0584 32.2514 32.2851 34.6547C32.3701 35.5647 32.6201 36.2697 31.8401 36.9597C30.9151 37.7747 28.7401 36.4297 27.9001 36.0097C27.5634 35.8431 27.4884 35.5964 27.6751 35.2697L27.7651 35.1147C27.8146 35.029 27.8941 34.9646 27.9883 34.9342C28.0825 34.9037 28.1847 34.9092 28.2751 34.9497L30.7901 36.0897Z" fill="#FDF148"/>
</svg>
