<svg width="40" height="40" viewBox="0 0 40 40" fill="none" xmlns="http://www.w3.org/2000/svg">
<path d="M10.0271 8.90717C10.7208 9.4766 11.5409 9.78938 12.4872 9.84552C16.9143 10.0982 19.6933 5.53875 17.2451 1.70717C17.1248 1.52271 16.9845 1.50467 16.8241 1.65304L15.3324 3.03048C15.2911 3.06914 15.2425 3.09922 15.1895 3.11895C15.1365 3.13869 15.0801 3.14771 15.0236 3.14547C14.967 3.14323 14.9115 3.12978 14.8602 3.10592C14.809 3.08205 14.7629 3.04823 14.7248 3.00642L14.5504 2.81394C14.4853 2.74201 14.4497 2.64814 14.4508 2.55111C14.4519 2.45408 14.4896 2.36104 14.5564 2.29063L16.3549 0.444017C16.4441 0.352702 16.551 0.280435 16.6688 0.23164C16.7867 0.182846 16.9131 0.158549 17.0404 0.160239C17.1676 0.161928 17.293 0.189567 17.4089 0.241465C17.5248 0.293362 17.6287 0.368426 17.7143 0.462062C23.0075 6.26657 14.9955 14.3688 8.72182 9.38838C8.63232 9.31799 8.55875 9.22944 8.50595 9.12856C8.45315 9.02767 8.42233 8.91675 8.41551 8.80309C8.40869 8.68943 8.42603 8.57561 8.46639 8.46914C8.50674 8.36267 8.5692 8.26595 8.64964 8.18537L12.7459 4.09514C12.7909 4.04907 12.8453 4.01317 12.9054 3.9898C12.9655 3.96643 13.0301 3.95611 13.0948 3.95951C13.1596 3.96292 13.223 3.97998 13.2811 4.00957C13.3391 4.03917 13.3904 4.08063 13.4316 4.13123L13.6181 4.35981C13.666 4.41824 13.6906 4.49229 13.6873 4.56777C13.6839 4.64324 13.6529 4.71484 13.6 4.76883L10.003 8.40793C9.96964 8.44115 9.9436 8.48101 9.92657 8.52493C9.90955 8.56885 9.90192 8.61585 9.90419 8.66289C9.90646 8.70994 9.91856 8.75599 9.93973 8.79807C9.9609 8.84014 9.99066 8.87731 10.0271 8.90717Z" fill="#A8FDB1"/>
<path d="M27.0738 0.157752L28.8663 0.975797C29.0716 1.07037 29.2391 1.23143 29.3415 1.43294L30.352 3.40587C30.4208 3.5404 30.4584 3.68871 30.4619 3.83976C30.4654 3.99081 30.4348 4.14071 30.3724 4.2783C30.31 4.41589 30.2173 4.53762 30.1013 4.63443C29.9853 4.73124 29.8489 4.80064 29.7024 4.83745L25.9009 5.81189C25.7309 5.85574 25.5524 5.85426 25.3831 5.80761C25.2139 5.76096 25.0598 5.67077 24.9363 5.54602C24.8127 5.42126 24.724 5.26631 24.679 5.09661C24.6341 4.9269 24.6343 4.74837 24.6798 4.5788L25.6844 0.813391C25.7219 0.671941 25.7898 0.540397 25.8835 0.427961C25.9772 0.315525 26.0943 0.224912 26.2266 0.162463C26.359 0.100014 26.5034 0.0672356 26.6497 0.0664218C26.7961 0.065608 26.9408 0.0967782 27.0738 0.157752ZM26.1535 4.62692L28.8783 3.90512C28.9364 3.89059 28.9905 3.86331 29.0368 3.82521C29.0831 3.78711 29.1205 3.73912 29.1463 3.68463C29.1721 3.63013 29.1858 3.57046 29.1862 3.50982C29.1867 3.44918 29.174 3.38906 29.149 3.33369C28.732 2.43545 28.0623 1.79785 27.14 1.42091C27.0978 1.40365 27.0525 1.39531 27.007 1.39643C26.9615 1.39754 26.9169 1.40809 26.876 1.42738C26.8352 1.44667 26.799 1.47428 26.7699 1.5084C26.7407 1.54252 26.7193 1.58239 26.7069 1.62542L25.8889 4.35625C25.8778 4.39326 25.8769 4.43254 25.8862 4.47002C25.8955 4.50751 25.9146 4.54183 25.9416 4.56944C25.9686 4.59705 26.0025 4.61694 26.0397 4.62705C26.077 4.63715 26.1163 4.63711 26.1535 4.62692Z" fill="#A8FDB1"/>
<path d="M16.1128 5.37777C16.6543 5.37399 17.0914 5.10163 17.0891 4.76944C17.0868 4.43725 16.6459 4.17102 16.1045 4.1748C15.563 4.17858 15.1259 4.45094 15.1282 4.78313C15.1305 5.11532 15.5714 5.38155 16.1128 5.37777Z" fill="#A8FDB1"/>
<path d="M33.6361 23.7783C33.2712 23.9708 33.2953 24.0791 33.7083 24.1031C35.2963 24.1874 36.0161 24.8771 35.8677 26.1723C35.2261 31.634 32.5955 35.8084 27.976 38.6956C26.797 39.4355 25.7564 39.8505 24.2827 39.8505C20.9745 39.8465 17.6562 39.8465 14.3279 39.8505C13.9358 39.8505 13.5493 39.7621 13.197 39.5919C7.42259 36.8009 4.19853 32.1773 3.52484 25.7212C3.5048 25.5347 3.52373 25.3461 3.58043 25.1674C3.63713 24.9886 3.73037 24.8236 3.85423 24.6827C3.97809 24.5419 4.12986 24.4284 4.29993 24.3493C4.46999 24.2702 4.65463 24.2274 4.84214 24.2235L5.86469 24.2054C6.08925 24.2014 6.15742 24.0951 6.0692 23.8866C5.78449 23.1929 5.75041 22.4911 5.96695 21.7813C6.0271 21.5849 5.98299 21.4164 5.83462 21.2761C0.481234 16.1874 6.05116 8.82495 12.1624 12.1994C12.3442 12.3001 12.5564 12.3301 12.7579 12.2836C14.4301 11.8706 15.9279 12.2034 17.2512 13.2821C17.4436 13.4385 17.6181 13.4204 17.7745 13.228C18.1233 12.8069 18.5324 12.462 19.0015 12.1934C19.194 12.0811 19.2702 11.9167 19.2301 11.7001C18.8451 9.71919 19.2441 7.82646 20.4271 6.02195C21.2572 4.75277 21.9669 5.14375 22.803 6.09413C23.3765 6.74776 24 7.34526 24.6737 7.88661C24.8381 8.01894 25.0045 8.02095 25.173 7.89262C27.1419 6.37683 29.2652 6.14626 31.5429 7.20089C31.6187 7.23572 31.6806 7.29493 31.7187 7.36908C31.7569 7.44322 31.7691 7.52802 31.7534 7.60992L31.7113 7.83849C31.6977 7.91155 31.6673 7.98043 31.6225 8.03985C31.5777 8.09928 31.5198 8.14768 31.453 8.18134C31.3862 8.21501 31.3125 8.23306 31.2374 8.2341C31.1622 8.23514 31.0877 8.21916 31.0196 8.18736C29.1469 7.30516 27.4246 7.50766 25.8527 8.79488C25.8037 8.8335 25.7715 8.88973 25.7625 8.95223C25.7536 9.01474 25.7686 9.07887 25.8045 9.13172L25.9429 9.3242C25.9753 9.37024 26.0168 9.40919 26.0647 9.43862C26.1125 9.46805 26.1658 9.48732 26.2212 9.49523C26.2765 9.50313 26.3327 9.4995 26.3862 9.48456C26.4398 9.46963 26.4895 9.4437 26.5324 9.40841C28.9324 7.49563 31.597 8.75277 32.385 11.4656C32.4371 11.65 32.5554 11.7142 32.7399 11.658L32.9865 11.5859C33.179 11.5297 33.2431 11.4054 33.179 11.2129L32.6136 9.61292C32.5133 9.3242 32.6116 9.14175 32.9083 9.06556L33.1188 9.01744C33.2176 8.99179 33.3219 8.99912 33.4154 9.03828C33.509 9.07744 33.5866 9.14624 33.6361 9.23398C34.0572 9.95177 34.2918 10.7277 34.3399 11.5618C34.3454 11.655 34.3722 11.7454 34.4181 11.8258C34.4641 11.9062 34.5279 11.9744 34.6045 12.025C37.1188 13.625 36.6015 16.2896 35.0316 18.3167C34.9033 18.4851 34.9233 18.6335 35.0918 18.7618C36.6316 19.9247 36.8582 21.1818 35.7715 22.5332C35.2121 23.231 34.376 23.3874 33.6361 23.7783ZM20.7399 12.1693C21.7504 12.6986 22.1414 12.9513 22.4963 14.0641C22.5564 14.2565 22.6827 14.3869 22.8752 14.455C23.1559 14.5513 23.4466 14.6014 23.7474 14.6054C23.8352 14.6051 23.9202 14.5752 23.989 14.5207C24.0577 14.4661 24.1061 14.39 24.1263 14.3047C24.4191 13.0896 25.1088 12.1834 26.1955 11.5859C26.404 11.4696 26.4241 11.3272 26.2557 11.1588L21.7504 6.68962C21.7217 6.65973 21.6868 6.63652 21.6482 6.6216C21.6096 6.60669 21.5681 6.60045 21.5268 6.60332C21.4855 6.60619 21.4453 6.6181 21.4091 6.63821C21.3729 6.65832 21.3416 6.68613 21.3173 6.71969C20.2426 8.21142 19.9258 9.86957 20.3669 11.6941C20.4191 11.9067 20.5434 12.0651 20.7399 12.1693ZM30.003 9.8415C29.935 9.77096 29.8524 9.71611 29.761 9.68079C29.6695 9.64547 29.5715 9.63052 29.4737 9.63699L27.976 9.73924C27.8464 9.74862 27.7223 9.79525 27.6187 9.87352C27.515 9.9518 27.4362 10.0584 27.3917 10.1804C27.3472 10.3025 27.3389 10.4348 27.3679 10.5614C27.3968 10.688 27.4618 10.8036 27.5549 10.8941L29.173 12.452C29.2802 12.5554 29.4186 12.6202 29.5666 12.6366C29.7146 12.6529 29.8639 12.6197 29.991 12.5422L30.9233 11.9708C31.009 11.9181 31.0818 11.8468 31.1363 11.7622C31.1908 11.6777 31.2257 11.582 31.2384 11.4822C31.2511 11.3824 31.2413 11.281 31.2096 11.1855C31.178 11.09 31.1254 11.0027 31.0557 10.9302L30.003 9.8415ZM7.38048 19.9047C3.51883 17.2159 6.80905 11.8024 10.5805 13.6009C10.6777 13.6483 10.7877 13.6633 10.8947 13.6439C11.0017 13.6244 11.1002 13.5715 11.176 13.4926L11.3203 13.3362C11.4807 13.1638 11.4527 13.0295 11.2361 12.9332C6.27372 10.7859 2.47221 16.5783 6.43612 20.3016C6.52126 20.3815 6.62789 20.4345 6.74248 20.4537C6.85707 20.473 6.97445 20.4578 7.07973 20.4099L7.34439 20.2896C7.57697 20.1813 7.589 20.053 7.38048 19.9047ZM32.1444 22.9783C33.185 22.7317 34.773 22.5092 35.182 21.3483C35.5489 20.3016 34.406 19.4836 33.5519 19.225C33.464 19.1982 33.3853 19.1473 33.3247 19.0782C33.2641 19.0091 33.224 18.9244 33.209 18.8337C33.194 18.743 33.2046 18.6499 33.2397 18.5649C33.2748 18.4799 33.3329 18.4065 33.4076 18.3528C38.0512 15.0505 32.8662 9.84751 29.5339 14.5152C29.4919 14.5747 29.4359 14.6229 29.3707 14.6554C29.3055 14.6879 29.2332 14.7036 29.1605 14.7012C29.0877 14.6989 29.0166 14.6784 28.9537 14.6417C28.8908 14.605 28.838 14.5533 28.8 14.4911L27.9459 13.0896C27.8596 12.9487 27.7429 12.8289 27.6043 12.739C27.4657 12.6491 27.3088 12.5913 27.145 12.57C26.9811 12.5487 26.8146 12.5643 26.6576 12.6157C26.5006 12.6671 26.3571 12.753 26.2376 12.8671C25.4918 13.5808 25.0787 14.4631 24.9985 15.5137C24.991 15.6037 24.9613 15.6905 24.9121 15.7663C24.8629 15.8421 24.7956 15.9045 24.7164 15.948C24.6372 15.9915 24.5484 16.0147 24.4581 16.0155C24.3677 16.0164 24.2785 15.9948 24.1985 15.9528C23.7053 15.6961 23.188 15.5939 22.6466 15.646C22.37 15.6741 22.1795 15.8184 22.0752 16.0791C21.7705 16.845 21.7043 17.631 21.8767 18.437C21.8862 18.4782 21.9075 18.5157 21.938 18.545C21.9685 18.5742 22.0069 18.5939 22.0485 18.6016C22.0901 18.6093 22.133 18.6046 22.1719 18.5882C22.2109 18.5718 22.2442 18.5443 22.2677 18.5092L23.1218 17.1979C23.2041 17.0709 23.3136 16.9639 23.4425 16.8846C23.5713 16.8053 23.7162 16.7558 23.8667 16.7397C24.0171 16.7235 24.1692 16.7412 24.312 16.7913C24.4547 16.8414 24.5845 16.9228 24.6918 17.0295L27.182 19.4836C27.3344 19.632 27.4847 19.632 27.6331 19.4836L30.791 16.3498C30.834 16.3079 30.8853 16.2753 30.9415 16.2543C30.9978 16.2333 31.0578 16.2241 31.1177 16.2275C31.1777 16.2309 31.2363 16.2468 31.2898 16.274C31.3433 16.3013 31.3906 16.3394 31.4286 16.3859L31.573 16.5603C31.7414 16.7648 31.7314 16.9613 31.5429 17.1498L28.4331 20.2896C28.2888 20.434 28.2867 20.5783 28.4271 20.7227L31.6512 23.9949C31.9359 24.2876 32.0361 24.2335 31.9519 23.8325L31.8617 23.4235C31.8404 23.3279 31.8581 23.2277 31.911 23.1445C31.9639 23.0612 32.0477 23.0015 32.1444 22.9783ZM13.3775 19.6641C12.792 19.9006 12.2867 20.2455 11.8617 20.6986C11.6844 20.8853 11.5856 21.1329 11.5856 21.3904C11.5856 21.6478 11.6844 21.8954 11.8617 22.0821L12.4632 22.7137C12.8602 23.1347 13.183 23.0846 13.4316 22.5633C14.1173 21.1277 15.192 20.1212 16.6557 19.5438C16.7034 19.5259 16.7458 19.4962 16.7789 19.4575C16.812 19.4188 16.8347 19.3723 16.8449 19.3224C16.8551 19.2725 16.8525 19.2208 16.8373 19.1722C16.8221 19.1236 16.7948 19.0797 16.7579 19.0445L15.3384 17.655C15.2609 17.5799 15.2138 17.4789 15.206 17.3713C15.1983 17.2637 15.2304 17.157 15.2963 17.0716C15.593 16.6906 15.9198 16.6505 16.2767 16.9513C16.5975 17.228 17.2752 17.9177 18.3098 19.0204C18.3745 19.0889 18.4525 19.1438 18.5393 19.182C18.626 19.2202 18.7197 19.241 18.8151 19.243C19.4968 19.251 20.1444 19.4034 20.7579 19.7001C20.7937 19.7193 20.8346 19.7267 20.8748 19.7213C20.915 19.7158 20.9525 19.6978 20.9818 19.6698C21.0112 19.6417 21.0309 19.6052 21.0383 19.5652C21.0456 19.5253 21.0401 19.4841 21.0226 19.4475C20.2968 17.8355 20.4512 16.3578 21.4857 15.0144C21.602 14.8701 21.6201 14.7137 21.5399 14.5453C21.2592 13.9357 20.8301 13.4605 20.2527 13.1197C20.1677 13.0698 20.0711 13.0421 19.9714 13.0389C19.8717 13.0358 19.772 13.0573 19.6812 13.1016C18.9915 13.4425 18.5344 13.9839 18.3098 14.7257C18.2801 14.8211 18.2252 14.9067 18.1508 14.9734C18.0764 15.0401 17.9854 15.0854 17.8873 15.1045C17.7892 15.1236 17.6878 15.1158 17.5938 15.082C17.4998 15.0481 17.4168 14.9894 17.3534 14.9122C16.2888 13.6069 13.4076 12.2475 12.1985 14.0039C10.779 16.0791 12.5173 17.4024 13.5519 19.1588C13.6883 19.3914 13.6301 19.5598 13.3775 19.6641ZM7.77747 18.3347C7.86169 16.9232 8.55341 15.9909 9.85266 15.5377C11.1198 15.0926 11.0918 14.7538 9.76845 14.5212C8.28474 14.2605 7.30028 14.84 6.81507 16.2595C6.65868 16.7207 6.68875 17.1678 6.90529 17.6009L7.31432 18.425C7.33879 18.4735 7.37871 18.513 7.42777 18.5372C7.47684 18.5614 7.53227 18.569 7.58533 18.5586C7.63839 18.5483 7.68607 18.5207 7.72086 18.4801C7.75564 18.4396 7.77556 18.3885 7.77747 18.3347ZM9.22108 20.6565C7.77747 21.3663 6.20153 21.8595 7.35642 23.9287C7.46469 24.1172 7.6271 24.2114 7.84364 24.2114H12.0421C12.1054 24.2113 12.1664 24.1885 12.2143 24.1472C12.2622 24.1059 12.2937 24.0488 12.3031 23.9863C12.3126 23.9238 12.2993 23.86 12.2658 23.8064C12.2323 23.7528 12.1807 23.713 12.1203 23.6941C10.0271 23.0505 9.99101 20.3859 11.7835 19.3092C12.0121 19.1768 12.0401 19.0104 11.8677 18.8099C11.4146 18.2846 11.0597 17.6891 10.803 17.0235C10.7645 16.9264 10.703 16.84 10.624 16.7717C10.545 16.7035 10.4508 16.6555 10.3496 16.6318C10.2483 16.6081 10.143 16.6095 10.0428 16.6358C9.94262 16.6621 9.85052 16.7126 9.77447 16.7828L9.35943 17.1738C8.90229 17.5949 8.76795 18.1021 8.95642 18.6956L9.42559 20.1813C9.49377 20.3979 9.42559 20.5563 9.22108 20.6565ZM25.3113 24.0129C24.4451 22.6014 24.387 21.1478 25.1369 19.652C25.2852 19.3513 25.2351 19.0906 24.9865 18.8701L24.2587 18.2265C23.9459 17.9498 23.7153 18.0059 23.5669 18.3949L22.6948 20.6806C22.6566 20.7809 22.646 20.8895 22.664 20.9953C22.6819 21.101 22.7279 21.2001 22.797 21.2821C23.4346 22.052 23.8396 22.9222 24.0121 23.8926C24.0401 24.0771 24.1484 24.1813 24.3369 24.2054C24.6416 24.2375 24.9444 24.2214 25.2451 24.1573C25.2605 24.1533 25.2749 24.1461 25.2871 24.136C25.2992 24.126 25.3089 24.1135 25.3154 24.0995C25.3218 24.0855 25.3248 24.0703 25.3241 24.0553C25.3234 24.0403 25.319 24.0258 25.3113 24.0129ZM22.5143 24.1934L22.7068 24.1573C22.7372 24.1502 22.7659 24.137 22.7911 24.1187C22.8163 24.1004 22.8374 24.0773 22.8532 24.0508C22.869 24.0243 22.8791 23.995 22.8829 23.9647C22.8867 23.9344 22.8841 23.9037 22.8752 23.8746C21.576 19.1768 15.5008 19.0806 14.2376 23.8325C14.2279 23.8698 14.2263 23.9087 14.2328 23.9467C14.2394 23.9847 14.2539 24.0208 14.2756 24.0527C14.2972 24.0846 14.3254 24.1115 14.3583 24.1316C14.3912 24.1517 14.428 24.1646 14.4662 24.1693L14.6527 24.1934C14.7587 24.2066 14.8659 24.1801 14.9537 24.119C15.0414 24.058 15.1034 23.9666 15.1279 23.8625C15.994 20.3077 20.788 20.4039 22.0211 23.9167C22.0554 24.015 22.1245 24.0974 22.2153 24.1484C22.3062 24.1993 22.4125 24.2153 22.5143 24.1934ZM26.8933 24.1152C26.9157 24.1451 26.9447 24.1693 26.9781 24.186C27.0116 24.2027 27.0484 24.2114 27.0857 24.2114L29.7023 24.2174C29.7506 24.218 29.798 24.204 29.8383 24.1772C29.8785 24.1504 29.9098 24.1121 29.928 24.0673C29.9461 24.0225 29.9504 23.9733 29.9402 23.926C29.93 23.8788 29.9058 23.8357 29.8707 23.8024L26.2677 20.2174C26.2356 20.1854 26.1951 20.1632 26.1509 20.1532C26.1067 20.1432 26.0605 20.1459 26.0178 20.161C25.975 20.1761 25.9374 20.2029 25.9093 20.2384C25.8811 20.274 25.8636 20.3167 25.8587 20.3618L25.6421 22.3588C25.6349 22.421 25.6521 22.4836 25.6903 22.5332L26.8933 24.1152ZM16.397 24.2174L20.6918 24.2054C20.7109 24.2054 20.7293 24.1978 20.7428 24.1843C20.7563 24.1707 20.7639 24.1524 20.7639 24.1332V24.1031C20.7624 23.6461 20.5342 23.2084 20.1294 22.8859C19.7246 22.5634 19.1762 22.3825 18.6045 22.3828H18.4842C18.2002 22.383 17.9189 22.428 17.6565 22.5152C17.3942 22.6024 17.1558 22.7302 16.9553 22.8911C16.7547 23.052 16.5957 23.243 16.4875 23.453C16.3794 23.6631 16.3241 23.8881 16.3248 24.1152V24.1453C16.3248 24.1644 16.3324 24.1828 16.346 24.1963C16.3595 24.2098 16.3779 24.2174 16.397 24.2174ZM26.6466 28.6746C26.6284 28.7712 26.5769 28.8584 26.5011 28.921C26.4253 28.9836 26.3299 29.0177 26.2316 29.0174L5.55793 29.0235C5.52547 29.0236 5.49353 29.0315 5.46473 29.0464C5.43593 29.0614 5.4111 29.083 5.39229 29.1094C5.37348 29.1359 5.36124 29.1664 5.35657 29.1985C5.3519 29.2307 5.35495 29.2634 5.36544 29.2941C6.67271 33.2159 9.15893 36.1693 12.8241 38.1543C13.582 38.5673 14.1695 38.7738 14.5865 38.7738C17.57 38.7618 20.5594 38.7598 23.5549 38.7678C28.4451 38.7798 32.5775 33.5588 34.0391 29.3242C34.1073 29.1237 34.0371 29.0235 33.8286 29.0235L28.8602 29.0174C28.7357 29.0179 28.6155 28.9712 28.5231 28.8867C28.4308 28.8021 28.3729 28.6857 28.3609 28.5603L28.3369 28.2656C28.3318 28.2113 28.3382 28.1565 28.3556 28.1048C28.373 28.0531 28.401 28.0057 28.4378 27.9655C28.4746 27.9252 28.5194 27.8932 28.5694 27.8713C28.6194 27.8494 28.6733 27.8383 28.7278 27.8385L34.1474 27.8144C34.2322 27.815 34.3143 27.7842 34.3785 27.7278C34.4427 27.6713 34.4846 27.5931 34.4963 27.5077L34.7248 25.7212C34.7609 25.4485 34.6406 25.3122 34.3639 25.3122L4.84815 25.3062C4.82521 25.3061 4.8025 25.3107 4.78152 25.3197C4.76053 25.3287 4.74175 25.3419 4.72641 25.3584C4.71106 25.3749 4.69951 25.3943 4.6925 25.4153C4.68549 25.4364 4.68319 25.4586 4.68575 25.4806L4.93838 27.6701C4.94285 27.7116 4.96318 27.7501 4.99542 27.7779C5.02766 27.8057 5.06951 27.8208 5.11281 27.8204H26.1053C26.1915 27.8206 26.2767 27.8398 26.3546 27.8767C26.4326 27.9137 26.5013 27.9675 26.556 28.0342C26.6106 28.101 26.6498 28.179 26.6707 28.2626C26.6916 28.3463 26.6936 28.4336 26.6767 28.5182L26.6466 28.6746Z" fill="#A8FDB1"/>
<path d="M14.7092 7.31372C15.0751 7.71732 15.5673 7.86722 15.8085 7.64853C16.0497 7.42985 15.9485 6.92539 15.5826 6.52179C15.2166 6.1182 14.7244 5.96829 14.4832 6.18698C14.2421 6.40566 14.3432 6.91012 14.7092 7.31372Z" fill="#A8FDB1"/>
<path d="M12.3608 7.77911C12.3636 8.31063 12.6297 8.74012 12.9553 8.73842C13.2808 8.73671 13.5425 8.30445 13.5397 7.77294C13.5369 7.24142 13.2708 6.81193 12.9452 6.81363C12.6196 6.81534 12.358 7.2476 12.3608 7.77911Z" fill="#A8FDB1"/>
<path d="M22.6013 10.7491C23.1661 10.7462 23.6225 10.4852 23.6209 10.1663C23.6192 9.84743 23.16 9.5913 22.5953 9.59426C22.0306 9.59721 21.5741 9.85814 21.5758 10.177C21.5774 10.496 22.0366 10.7521 22.6013 10.7491Z" fill="#A8FDB1"/>
<path d="M23.9499 13.0674C24.3592 12.6735 24.5006 12.1563 24.2656 11.9121C24.0307 11.668 23.5084 11.7894 23.099 12.1833C22.6897 12.5772 22.5484 13.0944 22.7833 13.3386C23.0183 13.5827 23.5406 13.4613 23.9499 13.0674Z" fill="#A8FDB1"/>
</svg>
