<svg width="40" height="40" viewBox="0 0 40 40" fill="none" xmlns="http://www.w3.org/2000/svg">
<g clip-path="url(#clip0_2455_123)">
<path d="M20.9498 0H24.8598C26.4548 0.25 28.5348 0.365 29.7898 1.115C31.9148 2.39 32.3498 5.785 30.4448 7.52C29.4048 8.465 27.5048 8.745 26.3048 9.43C23.2648 11.1667 22.1382 13.7067 22.9248 17.05C23.3248 18.75 24.7898 19.95 25.5398 21.485C25.7998 22.025 26.0465 22.59 26.2798 23.18C26.3398 23.3333 26.4065 23.3383 26.4798 23.195L30.5798 15.275C30.6498 15.1383 30.6882 14.99 30.6948 14.83C30.7315 13.8833 31.0648 13.0417 31.6948 12.305C31.7414 12.2489 31.7746 12.1833 31.7919 12.1131C31.8092 12.0429 31.8102 11.97 31.7948 11.9C30.8348 7.525 33.9398 4.65 37.6098 2.725C39.4948 1.74 39.7448 5.46 39.8198 6.805C39.9998 9.975 39.3098 12.25 36.6398 13.97C36.5721 14.0126 36.514 14.0688 36.4692 14.1351C36.4244 14.2014 36.394 14.2763 36.3798 14.355C36.0898 15.955 35.0498 16.695 34.6298 18.095C33.4898 21.8617 32.0948 25.6067 30.4448 29.33C30.4218 29.3809 30.3885 29.4266 30.3472 29.4641C30.3059 29.5016 30.2575 29.5302 30.2049 29.548C30.1523 29.5659 30.0967 29.5726 30.0416 29.5678C29.9865 29.563 29.9331 29.5467 29.8848 29.52L29.7098 29.425C29.4432 29.2783 29.3665 29.0633 29.4798 28.78L31.8448 22.875C31.8915 22.755 31.8565 22.67 31.7398 22.62L28.8498 21.375C28.7665 21.3417 28.7048 21.365 28.6648 21.445C26.3048 26.265 24.2798 31.25 22.5898 36.4C22.3798 37.0367 22.3132 37.5267 22.3898 37.87C22.6448 39.015 24.2898 39.175 24.8798 38.125C26.1132 35.9317 27.2732 33.6333 28.3598 31.23C28.42 31.0952 28.531 30.9896 28.6687 30.9363C28.8063 30.8829 28.9595 30.886 29.0948 30.945C29.4548 31.0983 29.5432 31.4067 29.3598 31.87C28.0965 35.0067 26.5282 37.7167 24.6548 40H23.1448C21.7548 39.4867 21.0998 38.5167 21.1798 37.09C21.1898 36.8933 21.1098 36.845 20.9398 36.945C19.3765 37.865 17.6848 38.3683 15.8648 38.455C15.7314 38.462 15.6006 38.4169 15.4998 38.3292C15.399 38.2415 15.3363 38.1181 15.3248 37.985L15.3098 37.83C15.3036 37.771 15.3094 37.7114 15.3269 37.6547C15.3444 37.598 15.3731 37.5454 15.4114 37.5001C15.4497 37.4548 15.4968 37.4177 15.5498 37.391C15.6028 37.3644 15.6606 37.3487 15.7198 37.345C17.8398 37.195 19.7548 36.5017 21.4648 35.265C21.6115 35.1583 21.7182 35.02 21.7848 34.85L25.4548 25.45C25.5115 25.3033 25.5298 25.1533 25.5098 25C25.1748 22.745 24.2098 21.415 23.0148 19.735C19.9998 15.51 21.6998 10.25 26.2198 8.21C27.3698 7.69 29.0098 7.34 29.7898 6.525C30.9098 5.36 30.7098 3.16 29.3998 2.23C28.9798 1.93333 28.2698 1.70167 27.2698 1.535C19.2198 0.2 10.1998 2.555 5.06482 8.975C1.08482 13.96 0.25982 20.705 2.67482 26.625C4.55482 31.215 8.16482 36.33 13.4148 37.22C13.4643 37.2283 13.5116 37.2466 13.5539 37.2738C13.5961 37.301 13.6323 37.3364 13.6604 37.3781C13.6885 37.4197 13.7078 37.4666 13.7171 37.5159C13.7265 37.5653 13.7257 37.616 13.7148 37.665L13.6648 37.875C13.5815 38.245 13.3548 38.3917 12.9848 38.315C7.93482 37.28 4.73982 33.35 2.45482 28.85C-3.99518 16.14 3.78982 3.485 17.0048 0.65C17.7315 0.493333 19.0465 0.276667 20.9498 0ZM35.8748 13.13C39.3498 10.835 38.9998 7.63 38.1948 3.93C38.1648 3.79 38.0865 3.755 37.9598 3.825C34.9748 5.55 32.0048 7.885 32.8898 11.835C32.9265 12.0017 33.0248 12.12 33.1848 12.19L35.4798 13.165C35.5433 13.1911 35.6123 13.2016 35.681 13.1955C35.7497 13.1894 35.8162 13.1669 35.8748 13.13ZM35.163 14.6181C35.1774 14.5851 35.1852 14.5494 35.1859 14.5133C35.1866 14.4772 35.1802 14.4413 35.167 14.4077C35.1538 14.3741 35.1342 14.3434 35.1091 14.3174C35.0841 14.2913 35.0542 14.2705 35.0211 14.2561L32.6752 13.2311C32.6421 13.2167 32.6065 13.2089 32.5704 13.2082C32.5342 13.2075 32.4984 13.2139 32.4647 13.2271C32.4311 13.2403 32.4004 13.26 32.3744 13.285C32.3484 13.31 32.3275 13.34 32.3131 13.373L31.8767 14.3719C31.8622 14.4049 31.8544 14.4406 31.8537 14.4767C31.853 14.5128 31.8595 14.5487 31.8726 14.5823C31.8858 14.6159 31.9055 14.6466 31.9305 14.6726C31.9556 14.6987 31.9855 14.7195 32.0186 14.7339L34.3645 15.7589C34.3976 15.7733 34.4332 15.7811 34.4693 15.7818C34.5054 15.7825 34.5413 15.7761 34.5749 15.7629C34.6085 15.7497 34.6392 15.73 34.6653 15.705C34.6913 15.68 34.7121 15.65 34.7266 15.617L35.163 14.6181ZM33.7798 17.01C33.7969 16.9535 33.7926 16.8927 33.7677 16.8392C33.7428 16.7857 33.699 16.7433 33.6448 16.72L31.8298 15.935C31.775 15.9115 31.7134 15.9092 31.6571 15.9286C31.6007 15.948 31.5535 15.9877 31.5248 16.04L29.3398 20.025C29.323 20.0545 29.3126 20.0871 29.3094 20.1209C29.3061 20.1547 29.3101 20.1887 29.3209 20.2208C29.3318 20.253 29.3493 20.2824 29.3724 20.3073C29.3955 20.3321 29.4236 20.3518 29.4548 20.365L32.0798 21.48C32.1105 21.4935 32.1437 21.5005 32.1772 21.5004C32.2107 21.5004 32.2439 21.4933 32.2745 21.4796C32.3051 21.4659 32.3325 21.446 32.355 21.4211C32.3774 21.3962 32.3944 21.3669 32.4048 21.335L33.7798 17.01Z" fill="#FDC798"/>
<path d="M19.76 7.56578C19.76 8.39856 19.4292 9.19723 18.8403 9.7861C18.2514 10.375 17.4528 10.7058 16.62 10.7058C16.2076 10.7058 15.7993 10.6246 15.4184 10.4668C15.0374 10.309 14.6912 10.0777 14.3997 9.7861C14.1081 9.49452 13.8768 9.14837 13.719 8.76741C13.5612 8.38645 13.48 7.97813 13.48 7.56578C13.48 7.15343 13.5612 6.74512 13.719 6.36416C13.8768 5.98319 14.1081 5.63704 14.3997 5.34547C14.6912 5.05389 15.0374 4.8226 15.4184 4.6648C15.7993 4.507 16.2076 4.42578 16.62 4.42578C17.4528 4.42578 18.2514 4.7566 18.8403 5.34547C19.4292 5.93433 19.76 6.733 19.76 7.56578ZM18.62 7.57578C18.62 7.04535 18.4093 6.53664 18.0342 6.16157C17.6591 5.78649 17.1504 5.57578 16.62 5.57578C16.0895 5.57578 15.5808 5.78649 15.2058 6.16157C14.8307 6.53664 14.62 7.04535 14.62 7.57578C14.62 8.10621 14.8307 8.61492 15.2058 8.99C15.5808 9.36507 16.0895 9.57578 16.62 9.57578C17.1504 9.57578 17.6591 9.36507 18.0342 8.99C18.4093 8.61492 18.62 8.10621 18.62 7.57578Z" fill="#FDC798"/>
<path d="M14.1002 14.1158C14.1002 15.1276 13.6983 16.0979 12.9828 16.8134C12.2674 17.5288 11.297 17.9308 10.2852 17.9308C9.27341 17.9308 8.30305 17.5288 7.5876 16.8134C6.87215 16.0979 6.47021 15.1276 6.47021 14.1158C6.47021 13.104 6.87215 12.1336 7.5876 11.4182C8.30305 10.7027 9.27341 10.3008 10.2852 10.3008C11.297 10.3008 12.2674 10.7027 12.9828 11.4182C13.6983 12.1336 14.1002 13.104 14.1002 14.1158ZM12.9552 14.1208C12.9552 13.414 12.6744 12.7361 12.1747 12.2363C11.6749 11.7366 10.997 11.4558 10.2902 11.4558C9.58341 11.4558 8.90556 11.7366 8.40578 12.2363C7.90599 12.7361 7.62522 13.414 7.62522 14.1208C7.62522 14.8276 7.90599 15.5054 8.40578 16.0052C8.90556 16.505 9.58341 16.7858 10.2902 16.7858C10.6402 16.7858 10.9867 16.7168 11.3101 16.5829C11.6334 16.449 11.9272 16.2527 12.1747 16.0052C12.4221 15.7578 12.6184 15.464 12.7524 15.1406C12.8863 14.8173 12.9552 14.4708 12.9552 14.1208Z" fill="#FDC798"/>
<path d="M13.0099 23.4205C13.0099 24.4323 12.6079 25.4026 11.8925 26.1181C11.177 26.8335 10.2067 27.2355 9.19488 27.2355C8.18308 27.2355 7.21272 26.8335 6.49727 26.1181C5.78182 25.4026 5.37988 24.4323 5.37988 23.4205C5.37988 22.9195 5.47856 22.4234 5.67028 21.9605C5.862 21.4977 6.14301 21.0771 6.49727 20.7229C6.85153 20.3686 7.27209 20.0876 7.73495 19.8959C8.1978 19.7041 8.69389 19.6055 9.19488 19.6055C9.69588 19.6055 10.192 19.7041 10.6548 19.8959C11.1177 20.0876 11.5382 20.3686 11.8925 20.7229C12.2468 21.0771 12.5278 21.4977 12.7195 21.9605C12.9112 22.4234 13.0099 22.9195 13.0099 23.4205ZM11.8649 23.4205C11.8649 22.7123 11.5836 22.0332 11.0829 21.5325C10.5821 21.0318 9.90301 20.7505 9.19488 20.7505C8.48675 20.7505 7.80763 21.0318 7.30691 21.5325C6.80619 22.0332 6.52488 22.7123 6.52488 23.4205C6.52488 24.1286 6.80619 24.8077 7.30691 25.3084C7.80763 25.8092 8.48675 26.0905 9.19488 26.0905C9.90301 26.0905 10.5821 25.8092 11.0829 25.3084C11.5836 24.8077 11.8649 24.1286 11.8649 23.4205Z" fill="#FDC798"/>
<path d="M19.0552 30.5305C19.0552 31.484 18.6765 32.3984 18.0023 33.0726C17.3281 33.7468 16.4137 34.1255 15.4602 34.1255C14.5068 34.1255 13.5924 33.7468 12.9182 33.0726C12.244 32.3984 11.8652 31.484 11.8652 30.5305C11.8652 29.5771 12.244 28.6627 12.9182 27.9885C13.5924 27.3143 14.5068 26.9355 15.4602 26.9355C16.4137 26.9355 17.3281 27.3143 18.0023 27.9885C18.6765 28.6627 19.0552 29.5771 19.0552 30.5305ZM17.9102 30.5355C17.9102 29.8858 17.6521 29.2626 17.1926 28.8031C16.7332 28.3437 16.11 28.0855 15.4602 28.0855C14.8105 28.0855 14.1873 28.3437 13.7278 28.8031C13.2684 29.2626 13.0102 29.8858 13.0102 30.5355C13.0102 31.1853 13.2684 31.8085 13.7278 32.268C14.1873 32.7274 14.8105 32.9855 15.4602 32.9855C16.11 32.9855 16.7332 32.7274 17.1926 32.268C17.6521 31.8085 17.9102 31.1853 17.9102 30.5355Z" fill="#FDC798"/>
</g>
<defs>
<clipPath id="clip0_2455_123">
<rect width="40" height="40" fill="white"/>
</clipPath>
</defs>
</svg>
