<svg width="40" height="40" viewBox="0 0 40 40" fill="none" xmlns="http://www.w3.org/2000/svg">
<g clip-path="url(#clip0_2474_149)">
<path d="M26.33 0H28.355C32.77 1.31 35.365 3.62 35.375 8.5C35.38 10.585 35.925 17.13 34.815 18.62C34.7083 18.7633 34.74 18.8633 34.91 18.92C38.055 19.945 38.775 21.16 38.79 24.55C38.7967 26.19 38.8033 27.8333 38.81 29.48C38.81 29.6433 38.8817 29.765 39.025 29.845C39.445 30.075 39.77 30.395 40 30.805V34.36C39.5567 35.1833 38.865 35.4833 37.925 35.26C37.8881 35.2511 37.8497 35.2505 37.8126 35.2582C37.7755 35.266 37.7405 35.282 37.7103 35.305C37.6802 35.328 37.6555 35.3574 37.6381 35.3912C37.6208 35.4249 37.6112 35.4621 37.61 35.5L37.48 40H36.645L36.505 35.525C36.5017 35.365 36.42 35.285 36.26 35.285L32.825 35.31C32.7226 35.3117 32.6228 35.2784 32.5419 35.2157C32.461 35.153 32.4039 35.0645 32.38 34.965L32.325 34.75C32.225 34.3367 32.3867 34.13 32.81 34.13L38.535 34.125C38.725 34.125 38.8217 34.0283 38.825 33.835L38.855 31.345C38.8557 31.294 38.8462 31.2434 38.8271 31.1961C38.8081 31.1488 38.7798 31.1058 38.744 31.0695C38.7082 31.0332 38.6655 31.0044 38.6185 30.9848C38.5715 30.9651 38.521 30.955 38.47 30.955L1.285 30.96C1.21167 30.96 1.175 30.9967 1.175 31.07L1.15 33.985C1.15 34.0783 1.19667 34.125 1.29 34.125H30.015C30.365 34.125 30.5767 34.2967 30.65 34.64L30.685 34.795C30.6984 34.857 30.6978 34.9212 30.6832 34.9829C30.6686 35.0446 30.6404 35.1023 30.6006 35.1517C30.5608 35.2011 30.5104 35.2409 30.4532 35.2683C30.396 35.2957 30.3334 35.3099 30.27 35.31L3.75 35.315C3.68455 35.315 3.62171 35.3401 3.57497 35.3849C3.52822 35.4298 3.50131 35.4909 3.5 35.555L3.35 40H2.53L2.4 35.61C2.39333 35.4333 2.3 35.3383 2.12 35.325C1.105 35.26 0.36 35.375 0 34.175V30.77C0.79 29.41 2.745 29.825 3.875 29.82C3.9136 29.8203 3.95183 29.8124 3.9871 29.7967C4.02237 29.781 4.05386 29.7579 4.07945 29.729C4.10503 29.7001 4.12413 29.666 4.13544 29.6291C4.14674 29.5922 4.15001 29.5533 4.145 29.515C3.89167 27.6417 4.69333 26.6983 6.55 26.685C6.76333 26.6817 6.86833 26.5733 6.865 26.36L6.86 24.875C6.85962 24.8267 6.84912 24.7791 6.82918 24.7352C6.80925 24.6913 6.78035 24.6522 6.7444 24.6205C6.70845 24.5889 6.66628 24.5653 6.62069 24.5514C6.5751 24.5375 6.52714 24.5336 6.48 24.54C3.89667 24.8833 1.73667 24.6833 0 23.94V20.575C0.92 19.965 1.30833 20.825 1.165 23.155C1.14833 23.3817 1.25333 23.495 1.48 23.495L6.625 23.49C6.785 23.49 6.865 23.41 6.865 23.25V19.75C6.86167 18.6567 7.40667 18.11 8.5 18.11H9.5C10.5933 18.11 11.1383 18.6567 11.135 19.75V23.25C11.135 23.4133 11.2167 23.495 11.38 23.495L16.49 23.49C16.5373 23.49 16.5841 23.4807 16.6278 23.4626C16.6714 23.4445 16.7111 23.418 16.7446 23.3846C16.778 23.3511 16.8045 23.3114 16.8226 23.2678C16.8407 23.2241 16.85 23.1773 16.85 23.13L16.845 13.58C16.845 13.4766 16.8039 13.3774 16.7308 13.3042C16.6576 13.2311 16.5584 13.19 16.455 13.19H1.49C1.4038 13.19 1.32114 13.2237 1.26019 13.2837C1.19924 13.3437 1.165 13.4251 1.165 13.51L1.145 18.255C1.14505 18.3217 1.13162 18.3878 1.1055 18.4492C1.07938 18.5106 1.04112 18.566 0.99302 18.6123C0.944915 18.6585 0.88796 18.6946 0.825576 18.7182C0.763192 18.7419 0.696668 18.7527 0.63 18.75C0.373333 18.74 0.163333 18.6417 0 18.455V13.14C0.33 12.45 0.705 12.1033 1.125 12.1C6.40167 12.0967 11.5583 12.0983 16.595 12.105C16.9668 12.105 17.3234 12.2523 17.5867 12.5147C17.8501 12.7772 17.9987 13.1332 18 13.505L18.005 19.22C18.0054 19.2583 18.0149 19.2959 18.0324 19.3299C18.05 19.3638 18.0753 19.393 18.1061 19.415C18.137 19.437 18.1725 19.4512 18.2097 19.4565C18.2469 19.4617 18.2847 19.4578 18.32 19.445L19.645 18.985C19.8383 18.9183 19.8783 18.7983 19.765 18.625C18.65 16.935 19.125 12.78 19.125 10.72C19.1217 7.99333 19.3683 6.045 19.865 4.875C20.965 2.28833 23.12 0.663333 26.33 0ZM21.93 7.72C22.0533 7.62667 22.2417 7.59833 22.495 7.635C24.99 7.985 26.4 7.125 28.385 5.87C28.5283 5.77667 28.6733 5.77667 28.82 5.87C30.02 6.64 30.44 7.72 32.01 7.49C32.1404 7.47066 32.2734 7.47955 32.4 7.51609C32.5267 7.55262 32.644 7.61594 32.744 7.70176C32.8441 7.78757 32.9245 7.89388 32.9799 8.01349C33.0352 8.13309 33.0643 8.2632 33.065 8.395C33.09 11.495 33.585 14.81 30.64 16.795C30.5181 16.8768 30.4229 16.9925 30.3661 17.1279C30.3093 17.2633 30.2936 17.4123 30.3207 17.5566C30.3479 17.7008 30.4167 17.834 30.5188 17.9395C30.6209 18.0449 30.7517 18.1181 30.895 18.15L32.785 18.56C32.9583 18.5967 33.1233 18.5733 33.28 18.49C33.9067 18.1567 34.2317 17.66 34.255 17C34.3183 15.39 34.3217 12.785 34.265 9.185C34.2383 7.47167 34.0567 6.21 33.72 5.4C31.495 0.0599999 23.545 -0.28 21.07 4.9C20.58 5.92 20.33 7.525 20.32 9.715C20.3067 12.1417 20.3017 14.57 20.305 17C20.305 17.59 20.64 18.0917 21.31 18.505C21.4433 18.5883 21.5867 18.6133 21.74 18.58L23.625 18.17C23.7664 18.1391 23.8958 18.068 23.9976 17.9652C24.0995 17.8624 24.1694 17.7323 24.199 17.5907C24.2286 17.449 24.2166 17.3019 24.1644 17.1669C24.1123 17.0319 24.0222 16.9149 23.905 16.83C21.05 14.765 21.445 11.595 21.52 8.52C21.5246 8.36518 21.5637 8.21311 21.6346 8.07476C21.7055 7.93642 21.8064 7.81524 21.93 7.72ZM31.64 8.685C30.4933 8.605 29.5383 8.14 28.775 7.29C28.645 7.14667 28.5017 7.135 28.345 7.255C26.7817 8.455 25.0083 8.95167 23.025 8.745C22.8483 8.72833 22.7517 8.80667 22.735 8.98C22.465 11.54 22.415 14.35 24.495 15.845C26.75 17.47 29.86 16.89 31.265 14.475C32.17 12.925 31.925 10.775 31.895 8.955C31.8939 8.88547 31.867 8.81897 31.8197 8.76887C31.7724 8.71877 31.7082 8.68881 31.64 8.685ZM29.295 17.77C29.2717 17.6533 29.2017 17.61 29.085 17.64C27.935 17.9567 26.785 17.9683 25.635 17.675C25.4483 17.6283 25.33 17.695 25.28 17.875C25.09 18.555 24.6633 19.02 24 19.27C23.9753 19.2795 23.9537 19.2955 23.9375 19.3164C23.9212 19.3373 23.911 19.3622 23.9079 19.3884C23.9048 19.4147 23.909 19.4413 23.9199 19.4654C23.9309 19.4894 23.9482 19.5101 23.97 19.525C26.14 21.005 28.3183 21.025 30.505 19.585C30.7117 19.4483 30.7017 19.3317 30.475 19.235C29.8217 18.9517 29.4283 18.4633 29.295 17.77ZM9.995 19.47C9.995 19.413 9.97235 19.3583 9.93203 19.318C9.89171 19.2777 9.83702 19.255 9.78 19.255H8.22C8.16298 19.255 8.10829 19.2777 8.06797 19.318C8.02765 19.3583 8.005 19.413 8.005 19.47V26.52C8.005 26.577 8.02765 26.6317 8.06797 26.672C8.10829 26.7123 8.16298 26.735 8.22 26.735H9.78C9.83702 26.735 9.89171 26.7123 9.93203 26.672C9.97235 26.6317 9.995 26.577 9.995 26.52V19.47ZM34.085 26.865C34.185 27.075 34.2433 27.295 34.26 27.525C34.2733 27.6783 34.355 27.755 34.505 27.755L37.475 27.75C37.6217 27.75 37.6967 27.6767 37.7 27.53C37.7133 26.25 37.7067 24.9067 37.68 23.5C37.62 20.3 34.815 20.17 32.435 19.655C32.3793 19.6426 32.3209 19.6438 32.2645 19.6586C32.2081 19.6733 32.1552 19.7012 32.11 19.74C29.4967 22.0333 26.7633 22.4 23.91 20.84C23.44 20.58 22.995 20.07 22.505 19.73C22.448 19.6921 22.3841 19.666 22.3172 19.6531C22.2502 19.6402 22.1815 19.6409 22.115 19.655L18.865 20.41C18.275 20.5467 17.9867 20.9167 18 21.52C18.025 22.73 18.265 23.69 17.105 24.54C16.955 24.65 16.88 24.8 16.88 24.99V27.375C16.88 27.625 17.0033 27.75 17.25 27.75L20.01 27.755C20.2567 27.755 20.3733 27.6333 20.36 27.39C20.3533 27.24 20.3717 27.1017 20.415 26.975C20.4683 26.825 20.5733 26.7317 20.73 26.695C21.2933 26.555 21.56 26.74 21.53 27.25C21.4833 27.98 21.4817 28.7367 21.525 29.52C21.5383 29.72 21.645 29.82 21.845 29.82L32.875 29.81C33.015 29.81 33.0817 29.74 33.075 29.6C33.0417 28.8167 33.0583 27.9917 33.125 27.125C33.155 26.7317 33.3617 26.5617 33.745 26.615C33.8174 26.6257 33.8862 26.654 33.9455 26.6976C34.0047 26.7412 34.0526 26.7986 34.085 26.865ZM11.27 26.735C13.175 26.465 14.065 27.685 13.835 29.43C13.8017 29.6867 13.915 29.8167 14.175 29.82L15.395 29.83C15.6317 29.83 15.75 29.7133 15.75 29.48V24.875C15.75 24.7117 15.6667 24.63 15.5 24.63L11.255 24.64C11.2245 24.64 11.1952 24.6521 11.1737 24.6737C11.1521 24.6952 11.14 24.7245 11.14 24.755L11.135 26.615C11.1349 26.6321 11.1384 26.649 11.1453 26.6647C11.1523 26.6803 11.1625 26.6943 11.1753 26.7056C11.1881 26.717 11.2031 26.7255 11.2195 26.7306C11.2358 26.7356 11.253 26.7371 11.27 26.735ZM5.53 29.815H12.47C12.5416 29.815 12.6103 29.7866 12.6609 29.7359C12.7116 29.6853 12.74 29.6166 12.74 29.545V28.75C12.74 28.5073 12.6499 28.2746 12.4896 28.103C12.3292 27.9314 12.1118 27.835 11.885 27.835H6.115C5.88824 27.835 5.67077 27.9314 5.51042 28.103C5.35008 28.2746 5.26 28.5073 5.26 28.75V29.545C5.26 29.6166 5.28845 29.6853 5.33908 29.7359C5.38972 29.7866 5.45839 29.815 5.53 29.815ZM20.3703 29.178C20.3704 29.1064 20.3421 29.0377 20.2916 28.987C20.241 28.9363 20.1724 28.9077 20.1008 28.9076L17.1408 28.9024C17.1053 28.9023 17.0702 28.9093 17.0374 28.9228C17.0047 28.9363 16.9749 28.9561 16.9497 28.9812C16.9246 29.0062 16.9047 29.0359 16.8911 29.0687C16.8775 29.1014 16.8704 29.1365 16.8703 29.1719L16.8697 29.542C16.8696 29.6136 16.8979 29.6823 16.9484 29.733C16.999 29.7837 17.0676 29.8123 17.1392 29.8124L20.0992 29.8176C20.1347 29.8177 20.1698 29.8107 20.2026 29.7972C20.2353 29.7837 20.2651 29.7639 20.2903 29.7388C20.3154 29.7138 20.3353 29.6841 20.3489 29.6513C20.3625 29.6186 20.3696 29.5835 20.3696 29.548L20.3703 29.178ZM37.7195 29.1989C37.7193 29.1588 37.7113 29.1192 37.6958 29.0822C37.6804 29.0453 37.6578 29.0117 37.6294 28.9835C37.601 28.9553 37.5673 28.9329 37.5302 28.9177C37.4931 28.9025 37.4535 28.8948 37.4134 28.8949L34.5034 28.9051C34.4225 28.9054 34.3451 28.9378 34.2881 28.9952C34.2311 29.0526 34.1992 29.1303 34.1995 29.2111L34.2006 29.5112C34.2007 29.5512 34.2087 29.5908 34.2242 29.6278C34.2396 29.6647 34.2622 29.6983 34.2906 29.7265C34.319 29.7547 34.3527 29.7771 34.3898 29.7923C34.4269 29.8075 34.4665 29.8152 34.5066 29.8151L37.4166 29.8049C37.4975 29.8046 37.5749 29.7722 37.6319 29.7148C37.6889 29.6574 37.7208 29.5797 37.7205 29.4988L37.7195 29.1989Z" fill="#F3C6D5"/>
<path d="M24.7948 9.75987L24.7148 9.76141C24.4249 9.76697 24.1945 10.0065 24.2 10.2964L24.2204 11.3562C24.2259 11.6461 24.4655 11.8766 24.7554 11.871L24.8353 11.8695C25.1252 11.8639 25.3557 11.6244 25.3502 11.3345L25.3298 10.2747C25.3242 9.9848 25.0847 9.7543 24.7948 9.75987Z" fill="#F3C6D5"/>
<path d="M29.843 9.75482L29.763 9.75496C29.4786 9.75546 29.2484 9.98643 29.2489 10.2709L29.2508 11.3609C29.2513 11.6453 29.4823 11.8755 29.7667 11.875L29.8467 11.8748C30.1312 11.8743 30.3613 11.6433 30.3608 11.3589L30.3589 10.2689C30.3584 9.98449 30.1275 9.75432 29.843 9.75482Z" fill="#F3C6D5"/>
<path d="M26.5049 13.7558C27.0782 14.0325 27.6466 14.0192 28.2099 13.7158C28.2822 13.6772 28.3659 13.666 28.4451 13.6845C28.5244 13.7029 28.5937 13.7496 28.6399 13.8158L28.7899 14.0258C28.8295 14.0803 28.857 14.1426 28.8707 14.2085C28.8843 14.2745 28.8838 14.3426 28.8691 14.4083C28.8545 14.474 28.826 14.5359 28.7856 14.5898C28.7453 14.6436 28.6939 14.6883 28.6349 14.7208C27.6849 15.2475 26.7499 15.2175 25.8299 14.6308C25.7545 14.5832 25.6994 14.5093 25.6754 14.4234C25.6514 14.3375 25.6601 14.2457 25.6999 14.1658L25.7749 14.0058C25.8394 13.8767 25.9521 13.7781 26.0887 13.7313C26.2253 13.6846 26.3748 13.6934 26.5049 13.7558Z" fill="#F3C6D5"/>
</g>
<defs>
<clipPath id="clip0_2474_149">
<rect width="40" height="40" fill="white"/>
</clipPath>
</defs>
</svg>
