<svg width="40" height="40" viewBox="0 0 40 40" fill="none" xmlns="http://www.w3.org/2000/svg">
<g clip-path="url(#clip0_2456_139)">
<path d="M17.67 0H22.01C32.13 1.76 38.1267 7.72 40 17.88V22.02C38.2867 32.0333 32.4067 38.0267 22.36 40H17.74C7.76 38.1333 1.84667 32.1733 0 22.12V17.97C1.70667 8.03667 7.59667 2.04667 17.67 0ZM19.77 6.53C18.01 5.43667 17.3633 3.85333 17.83 1.78C17.8439 1.72452 17.8435 1.66655 17.8291 1.61116C17.8146 1.55577 17.7864 1.50464 17.7469 1.46222C17.7075 1.41981 17.658 1.38741 17.6027 1.36785C17.5475 1.34829 17.4882 1.34216 17.43 1.35C15.7967 1.58333 14.2367 1.95333 12.75 2.46C11.9167 2.74667 11.6567 3.40667 11.97 4.44C12.1233 4.93333 12.3833 4.99667 12.75 4.63C13.4167 3.95 14.2333 3.51667 15.2 3.33C15.3616 3.2997 15.528 3.30602 15.6868 3.3485C15.8455 3.39098 15.9924 3.46852 16.1165 3.5753C16.2406 3.68208 16.3387 3.81534 16.4033 3.96509C16.468 4.11484 16.4977 4.2772 16.49 4.44C16.39 6.51333 15.36 7.87667 13.4 8.53C13.0267 8.65667 12.8733 8.91 12.94 9.29C13.1667 10.55 13.7533 11.63 14.7 12.53C14.7568 12.5873 14.8288 12.6265 14.9076 12.643C14.9864 12.6595 15.0686 12.6526 15.1444 12.6231C15.2202 12.5936 15.2865 12.5428 15.3353 12.4767C15.3842 12.4105 15.4136 12.3319 15.42 12.25C15.52 10.63 16.2967 9.47667 17.75 8.79C17.9015 8.71792 18.0671 8.68016 18.2348 8.67949C18.4024 8.67881 18.5679 8.71522 18.7192 8.78609C18.8705 8.85695 19.0038 8.96048 19.1095 9.08915C19.2151 9.21783 19.2905 9.36843 19.33 9.53C19.83 11.5367 19.2433 13.1033 17.57 14.23C17.25 14.4433 17.1667 14.73 17.32 15.09C17.9933 16.6833 18.25 18.3533 18.09 20.1C18.05 20.54 18.25 20.76 18.69 20.76L21.51 20.75C21.85 20.7433 22.0167 20.5733 22.01 20.24L21.98 19.06C21.9733 18.66 21.7733 18.42 21.38 18.34C19.9533 18.06 19.1133 17.22 18.86 15.82C18.831 15.6625 18.8384 15.5005 18.8816 15.3462C18.9249 15.1919 19.0028 15.0492 19.1096 14.9289C19.2164 14.8086 19.3493 14.7139 19.4984 14.6517C19.6474 14.5895 19.8086 14.5616 19.97 14.57C20.79 14.61 21.51 14.8767 22.13 15.37C22.2088 15.4332 22.3019 15.4762 22.4011 15.4952C22.5003 15.5142 22.6027 15.5087 22.6993 15.4791C22.7959 15.4496 22.8838 15.3968 22.9554 15.3255C23.027 15.2542 23.0801 15.1665 23.11 15.07L23.2 14.78C23.2762 14.54 23.2876 14.2842 23.2332 14.0383C23.1787 13.7925 23.0603 13.5654 22.89 13.38C21.73 12.1267 21.4067 10.6633 21.92 8.99C21.97 8.82926 22.0546 8.68143 22.1679 8.55712C22.2812 8.43282 22.4203 8.33513 22.5752 8.27108C22.73 8.20702 22.8969 8.17818 23.0637 8.18664C23.2305 8.1951 23.3932 8.24065 23.54 8.32C24.7467 8.96 25.41 9.96667 25.53 11.34C25.57 11.7867 25.75 11.8533 26.07 11.54C26.7567 10.8667 27.0833 10.05 27.05 9.09C27.0438 8.95964 26.996 8.83438 26.9134 8.73204C26.8308 8.6297 26.7177 8.5555 26.59 8.52C24.51 7.98667 23.3233 6.65667 23.03 4.53C23.0075 4.36434 23.022 4.19575 23.0725 4.03639C23.123 3.87702 23.2083 3.73085 23.3221 3.60841C23.4359 3.48597 23.5755 3.39031 23.7308 3.32833C23.8861 3.26635 24.0531 3.2396 24.22 3.25C25.48 3.33 26.49 3.86333 27.25 4.85C27.2949 4.90754 27.3549 4.95181 27.4232 4.97774C27.4915 5.00368 27.5653 5.01025 27.6362 4.99669C27.7071 4.98313 27.7723 4.95 27.8242 4.90107C27.8762 4.85215 27.9128 4.7894 27.93 4.72L28.2 3.68C28.2429 3.51409 28.2254 3.33802 28.1504 3.18262C28.0755 3.02722 27.9479 2.90239 27.79 2.83C25.65 1.85 23.39 1.31 21.01 1.21C20.53 1.19 20.4267 1.37667 20.7 1.77C21.8 3.35 21.78 4.88333 20.64 6.37C20.5405 6.49964 20.3965 6.58776 20.2358 6.61732C20.0751 6.64688 19.9091 6.61576 19.77 6.53ZM20.0057 5.1399C20.1819 5.09038 20.3049 4.8796 20.3478 4.55392C20.3907 4.22825 20.3498 3.81436 20.2343 3.4033C20.1771 3.19974 20.1032 3.00301 20.017 2.82434C19.9307 2.64567 19.8338 2.48855 19.7316 2.36196C19.6295 2.23538 19.5242 2.1418 19.4217 2.08657C19.3192 2.03135 19.2215 2.01556 19.1343 2.0401C18.9581 2.08962 18.8351 2.3004 18.7922 2.62608C18.7493 2.95175 18.7902 3.36564 18.9057 3.7767C18.9629 3.98026 19.0368 4.17699 19.123 4.35566C19.2093 4.53433 19.3062 4.69145 19.4084 4.81804C19.5105 4.94462 19.6158 5.0382 19.7183 5.09343C19.8208 5.14865 19.9185 5.16444 20.0057 5.1399ZM33.83 10.06C32.27 11.7267 30.4 12.1133 28.22 11.22C28.06 11.1533 27.9267 11.1867 27.82 11.32L26.07 13.46C25.9567 13.5933 25.9867 13.6867 26.16 13.74C27.7067 14.1933 28.7567 15.17 29.31 16.67C29.3836 16.8659 29.4076 17.0769 29.38 17.2844C29.3524 17.492 29.274 17.6898 29.1516 17.8605C29.0293 18.0312 28.8667 18.1697 28.6781 18.2637C28.4896 18.3578 28.2808 18.4046 28.07 18.4C26.59 18.36 25.45 17.74 24.65 16.54C23.75 15.2 23.2667 15.3367 23.2 16.95L23.06 20.22C23.0526 20.4285 23.1052 20.6346 23.2115 20.8141C23.3177 20.9936 23.4733 21.1388 23.6597 21.2325C23.846 21.3262 24.0553 21.3645 24.2628 21.3427C24.4702 21.321 24.6671 21.2403 24.83 21.11C26.7167 19.5833 29.0233 18.9733 31.75 19.28C32.2367 19.3333 32.7667 19.0867 33.34 18.54C33.58 18.3133 33.57 18.1 33.31 17.9C31.73 16.7 31.18 15.1233 31.66 13.17C31.6989 13.012 31.7732 12.8649 31.8775 12.74C31.9817 12.6151 32.1131 12.5156 32.2615 12.449C32.41 12.3825 32.5717 12.3507 32.7344 12.3561C32.897 12.3614 33.0562 12.4038 33.2 12.48C34.52 13.2 35.3733 14.2767 35.76 15.71C35.7685 15.7367 35.7838 15.7607 35.8045 15.7795C35.8252 15.7984 35.8504 15.8116 35.8777 15.8176C35.9051 15.8237 35.9335 15.8225 35.9602 15.8141C35.987 15.8058 36.011 15.7906 36.03 15.77L37.51 13.96C37.67 13.7667 37.7033 13.5567 37.61 13.33C36.0833 9.38333 33.5367 6.26667 29.97 3.98C29.5967 3.74667 29.3633 3.84333 29.27 4.27L28.57 7.53C28.4633 8.03 28.6467 8.18667 29.12 8C30.5333 7.43333 31.9567 7.44333 33.39 8.03C33.5792 8.10744 33.7468 8.22978 33.8782 8.38644C34.0096 8.5431 34.1009 8.72939 34.1442 8.92922C34.1875 9.12905 34.1815 9.33642 34.1268 9.53342C34.072 9.73043 33.9702 9.91115 33.83 10.06ZM15.03 21.1C15.39 21.48 15.9933 21.3533 16.84 20.72C16.9933 20.6067 17.0633 20.4567 17.05 20.27L16.86 17.3C16.8588 17.26 16.8462 17.2212 16.8236 17.1882C16.8011 17.1551 16.7696 17.1292 16.7328 17.1134C16.6961 17.0977 16.6556 17.0927 16.6161 17.0992C16.5766 17.1057 16.5398 17.1233 16.51 17.15C14.93 18.49 13.2567 18.62 11.49 17.54C11.3436 17.4495 11.2193 17.3273 11.1264 17.1824C11.0335 17.0375 10.9743 16.8736 10.9532 16.7028C10.9321 16.5319 10.9496 16.3585 11.0044 16.1954C11.0592 16.0322 11.15 15.8834 11.27 15.76C12.17 14.8267 13.2633 14.4067 14.55 14.5C15.1633 14.54 15.2167 14.39 14.71 14.05C13.7967 13.43 13.0833 12.6267 12.57 11.64C12.495 11.4969 12.37 11.3863 12.2189 11.3292C12.0678 11.2721 11.9009 11.2723 11.75 11.33C9.57 12.1633 7.73 11.7167 6.23 9.99C6.10274 9.84549 6.01152 9.67298 5.96367 9.48634C5.91582 9.29971 5.91269 9.10416 5.95452 8.91544C5.99635 8.72673 6.08197 8.5501 6.20451 8.39979C6.32704 8.24947 6.48305 8.12966 6.66 8.05C8.14667 7.39 9.61333 7.4 11.06 8.08C11.44 8.26667 11.5867 8.15333 11.5 7.74L10.78 4.2C10.7677 4.13688 10.7401 4.07785 10.6995 4.02791C10.6588 3.97796 10.6064 3.93857 10.5465 3.91306C10.4867 3.88756 10.4212 3.87669 10.3557 3.88138C10.2901 3.88607 10.2265 3.90617 10.17 3.94C6.52333 6.22 3.91333 9.36333 2.34 13.37C2.30961 13.4501 2.30008 13.5364 2.31234 13.6204C2.3246 13.7045 2.35823 13.7836 2.41 13.85L4.46 16.48C4.47639 16.5019 4.49883 16.5185 4.52455 16.5278C4.55027 16.5371 4.57814 16.5386 4.60473 16.5322C4.63132 16.5258 4.65546 16.5118 4.67416 16.4919C4.69287 16.4719 4.70533 16.4469 4.71 16.42C5.01667 14.5533 6.01667 13.2133 7.71 12.4C7.86274 12.326 8.02987 12.2865 8.19941 12.2841C8.36894 12.2818 8.53668 12.3168 8.69058 12.3866C8.84448 12.4564 8.98073 12.5592 9.08956 12.6877C9.19838 12.8163 9.27707 12.9673 9.32 13.13C9.80667 14.9633 9.41 16.5533 8.13 17.9C6.85 19.24 7.05333 19.73 8.74 19.37C10.58 18.97 13.5 19.47 15.03 21.1ZM12.9265 7.2855C13.0757 7.41294 13.3372 7.39658 13.6535 7.24001C13.9697 7.08343 14.3147 6.79948 14.6127 6.4506C14.7602 6.27784 14.8918 6.09434 14.9998 5.91058C15.1079 5.72682 15.1903 5.5464 15.2424 5.37961C15.2944 5.21283 15.3152 5.06295 15.3033 4.93854C15.2915 4.81412 15.2474 4.7176 15.1735 4.6545C15.0243 4.52706 14.7628 4.54342 14.4465 4.69999C14.1303 4.85657 13.7853 5.14052 13.4873 5.4894C13.3398 5.66216 13.2082 5.84566 13.1002 6.02942C12.9921 6.21318 12.9097 6.3936 12.8576 6.56039C12.8056 6.72717 12.7848 6.87705 12.7967 7.00146C12.8085 7.12588 12.8526 7.2224 12.9265 7.2855ZM26.9958 7.3197C27.1494 7.17337 27.1624 6.89189 27.0317 6.53719C26.9011 6.18248 26.6377 5.7836 26.2993 5.4283C25.9609 5.073 25.5754 4.79037 25.2275 4.64259C24.8796 4.49481 24.5979 4.49399 24.4442 4.6403C24.2906 4.78663 24.2776 5.06811 24.4083 5.42281C24.5389 5.77752 24.8023 6.1764 25.1407 6.5317C25.4791 6.887 25.8646 7.16963 26.2125 7.31741C26.5604 7.46519 26.8421 7.46601 26.9958 7.3197ZM11.2852 9.9913C11.3285 9.76197 11.163 9.50292 10.8251 9.27113C10.4872 9.03933 10.0046 8.85379 9.4834 8.7553C9.22532 8.70654 8.96554 8.68062 8.71889 8.67902C8.47225 8.67743 8.24356 8.70019 8.04591 8.746C7.84825 8.79182 7.68548 8.8598 7.5669 8.94605C7.44832 9.0323 7.37625 9.13514 7.3548 9.2487C7.31148 9.47803 7.47698 9.73708 7.81488 9.96887C8.15278 10.2007 8.63541 10.3862 9.1566 10.4847C9.41468 10.5335 9.67446 10.5594 9.92111 10.561C10.1678 10.5626 10.3964 10.5398 10.5941 10.494C10.7918 10.4482 10.9545 10.3802 11.0731 10.294C11.1917 10.2077 11.2638 10.1049 11.2852 9.9913ZM32.7622 9.2211C32.7193 9.00249 32.4693 8.8338 32.0673 8.75215C31.6652 8.67049 31.144 8.68256 30.6183 8.7857C30.358 8.83677 30.1044 8.90866 29.872 8.99727C29.6397 9.08588 29.4331 9.18947 29.264 9.30213C29.095 9.41478 28.9668 9.5343 28.8868 9.65385C28.8068 9.77341 28.7766 9.89065 28.7978 9.9989C28.8407 10.2175 29.0907 10.3862 29.4927 10.4679C29.8948 10.5495 30.416 10.5374 30.9417 10.4343C31.202 10.3832 31.4556 10.3113 31.688 10.2227C31.9203 10.1341 32.1269 10.0305 32.296 9.91787C32.465 9.80522 32.5932 9.6857 32.6732 9.56615C32.7532 9.4466 32.7834 9.32935 32.7622 9.2211ZM24.1274 12.7154C24.2151 12.6879 24.2894 12.6205 24.3459 12.5169C24.4025 12.4134 24.4402 12.2757 24.457 12.1119C24.4738 11.948 24.4692 11.7611 24.4437 11.5619C24.4181 11.3626 24.372 11.155 24.308 10.9507C24.1787 10.5382 23.9844 10.1646 23.7677 9.91217C23.551 9.65972 23.3298 9.54909 23.1526 9.6046C23.0649 9.63207 22.9906 9.69951 22.9341 9.80307C22.8775 9.90662 22.8398 10.0443 22.823 10.2081C22.8062 10.372 22.8108 10.5589 22.8363 10.7581C22.8619 10.9574 22.908 11.165 22.972 11.3693C23.1013 11.7818 23.2956 12.1554 23.5123 12.4078C23.729 12.6603 23.9502 12.7709 24.1274 12.7154ZM16.7475 13.1145C16.9218 13.1988 17.1651 13.1221 17.4238 12.9014C17.6826 12.6807 17.9356 12.3341 18.1272 11.9377C18.3188 11.5414 18.4333 11.1278 18.4456 10.7879C18.4578 10.4481 18.3668 10.2098 18.1925 10.1255C18.0182 10.0412 17.7749 10.1179 17.5162 10.3386C17.2574 10.5593 17.0044 10.9059 16.8128 11.3023C16.6212 11.6986 16.5067 12.1122 16.4944 12.4521C16.4822 12.7919 16.5732 13.0302 16.7475 13.1145ZM6.2396 17.5626C6.46548 17.6742 6.78013 17.5829 7.11433 17.3088C7.44854 17.0347 7.77493 16.6002 8.0217 16.1009C8.14389 15.8537 8.24285 15.598 8.31293 15.3484C8.38301 15.0988 8.42284 14.8603 8.43015 14.6464C8.43746 14.4325 8.4121 14.2474 8.35552 14.1017C8.29894 13.9561 8.21225 13.8527 8.1004 13.7974C7.87453 13.6858 7.55987 13.7771 7.22567 14.0512C6.89146 14.3253 6.56507 14.7598 6.3183 15.2591C6.19611 15.5063 6.09715 15.762 6.02707 16.0116C5.95699 16.2612 5.91716 16.4997 5.90985 16.7136C5.90254 16.9275 5.9279 17.1126 5.98448 17.2583C6.04106 17.4039 6.12775 17.5073 6.2396 17.5626ZM34.3747 17.0961C34.4643 17.0553 34.5336 16.972 34.5784 16.851C34.6233 16.7301 34.643 16.5738 34.6363 16.3912C34.6296 16.2085 34.5966 16.003 34.5394 15.7865C34.4821 15.5699 34.4016 15.3465 34.3025 15.129C34.1023 14.6898 33.8385 14.3013 33.5689 14.049C33.2994 13.7968 33.0463 13.7014 32.8653 13.7839C32.7757 13.8247 32.7064 13.908 32.6616 14.029C32.6167 14.1499 32.597 14.3062 32.6037 14.4888C32.6104 14.6715 32.6434 14.877 32.7006 15.0935C32.7579 15.3101 32.8384 15.5335 32.9375 15.751C33.1377 16.1902 33.4015 16.5787 33.6711 16.831C33.9406 17.0832 34.1937 17.1786 34.3747 17.0961ZM28.0405 17.162C28.1564 17.0136 28.119 16.7552 27.9365 16.4436C27.7539 16.132 27.4412 15.7928 27.0671 15.5005C26.693 15.2082 26.2882 14.9869 25.9417 14.8852C25.5952 14.7834 25.3354 14.8096 25.2195 14.958C25.1036 15.1064 25.141 15.3648 25.3235 15.6764C25.5061 15.988 25.8188 16.3272 26.1929 16.6195C26.567 16.9118 26.9718 17.1331 27.3183 17.2348C27.6648 17.3366 27.9246 17.3104 28.0405 17.162ZM13.65 22.14C13.55 23.8533 12.7533 25.1033 11.26 25.89C11.0682 25.9903 10.8554 26.0437 10.6388 26.0459C10.4222 26.0482 10.2079 25.9991 10.0132 25.9027C9.81854 25.8064 9.64893 25.6654 9.51808 25.4912C9.38723 25.317 9.29883 25.1145 9.26 24.9C9.00667 23.44 9.34667 22.16 10.28 21.06C10.6067 20.68 10.52 20.46 10.02 20.4L8.75 20.24C8.59248 20.2212 8.43367 20.2582 8.30182 20.3443C8.16998 20.4303 8.07365 20.5599 8.03 20.71C7.37667 22.8433 5.93 23.9767 3.69 24.11C3.59279 24.1154 3.49547 24.1016 3.40362 24.0693C3.31176 24.037 3.22719 23.9869 3.15473 23.9219C3.08227 23.8568 3.02335 23.7782 2.98136 23.6903C2.93936 23.6025 2.91511 23.5072 2.91 23.41C2.81667 21.79 3.46333 20.5333 4.85 19.64C5.30333 19.3533 5.34667 19.0133 4.98 18.62L2.28 15.66C1.91333 15.26 1.67333 15.3267 1.56 15.86C0.91 19.04 1.19 31.95 7.12 31.07C7.94667 30.9433 8.02667 30.6267 7.36 30.12C6.32667 29.3267 5.80333 28.26 5.79 26.92C5.78763 26.7253 5.8339 26.533 5.92462 26.3607C6.01535 26.1884 6.14765 26.0414 6.30954 25.9332C6.47142 25.8249 6.65777 25.7588 6.85169 25.7408C7.0456 25.7227 7.24094 25.7534 7.42 25.83C8.67333 26.37 9.47667 27.2867 9.83 28.58C9.91 28.88 10.1 29.07 10.4 29.15L12.89 29.83C13.116 29.8909 13.3531 29.8985 13.5823 29.8521C13.8116 29.8057 14.0267 29.7067 14.2104 29.5628C14.3941 29.419 14.5412 29.2344 14.6402 29.0238C14.7391 28.8132 14.787 28.5824 14.78 28.35L14.6 22.14C14.5933 21.9867 14.5133 21.9033 14.36 21.89L13.96 21.87C13.7667 21.8567 13.6633 21.9467 13.65 22.14ZM30.36 24.99C30.3176 25.1301 30.2456 25.2594 30.149 25.3691C30.0523 25.4787 29.9332 25.566 29.8001 25.625C29.6669 25.684 29.5228 25.7132 29.3778 25.7106C29.2327 25.708 29.0902 25.6737 28.96 25.61C27.4533 24.8767 26.6 23.6733 26.4 22C26.38 21.8867 26.3133 21.8367 26.2 21.85L25.89 21.9C25.7671 21.9187 25.6547 21.9801 25.5724 22.0733C25.4901 22.1665 25.4433 22.2857 25.44 22.41L25.37 28.67C25.3667 28.8622 25.4081 29.0524 25.491 29.226C25.5738 29.3995 25.6959 29.5517 25.8478 29.6707C25.9997 29.7897 26.1772 29.8723 26.3667 29.9121C26.5561 29.9518 26.7523 29.9477 26.94 29.9L29.5 29.23C29.88 29.1367 30.1233 28.9 30.23 28.52C30.65 27.02 31.6167 26.1133 33.13 25.8C33.2577 25.7741 33.3894 25.7756 33.5164 25.8045C33.6435 25.8333 33.7629 25.8888 33.8669 25.9673C33.9709 26.0457 34.0571 26.1454 34.1196 26.2596C34.1822 26.3739 34.2199 26.5001 34.23 26.63C34.3567 28.23 33.7667 29.4233 32.46 30.21C32.3931 30.2511 32.3394 30.3105 32.3053 30.3812C32.2712 30.4519 32.2581 30.5309 32.2676 30.6089C32.277 30.6868 32.3087 30.7604 32.3588 30.8209C32.4088 30.8813 32.4752 30.9261 32.55 30.95C34.36 31.55 35.59 30.76 36.49 29.12C38.81 24.8667 39.42 20.2967 38.32 15.41C38.3147 15.3791 38.3006 15.3507 38.2794 15.3278C38.2581 15.3049 38.2305 15.2884 38.1996 15.2801C38.1686 15.2719 38.1355 15.2722 38.1038 15.281C38.0721 15.2898 38.0432 15.3067 38.02 15.33L34.83 18.84C34.61 19.0867 34.6467 19.28 34.94 19.42C36.54 20.2 37.47 21.4633 37.73 23.21C37.7544 23.3773 37.7409 23.5479 37.6906 23.7094C37.6403 23.8708 37.5543 24.0188 37.4392 24.1426C37.324 24.2664 37.1826 24.3628 37.0252 24.4246C36.8679 24.4865 36.6986 24.5122 36.53 24.5C34.1433 24.34 32.6433 23.0867 32.03 20.74C31.9433 20.4067 31.7267 20.2567 31.38 20.29L29.8 20.42C29.4 20.46 29.3267 20.6333 29.58 20.94C30.54 22.1467 30.8 23.4967 30.36 24.99ZM15.6344 16.2053C15.6263 16.1085 15.5767 16.0161 15.4886 15.9334C15.4004 15.8507 15.2754 15.7793 15.1207 15.7233C14.966 15.6674 14.7846 15.6279 14.5868 15.6072C14.389 15.5865 14.1788 15.5849 13.9681 15.6026C13.5426 15.6383 13.141 15.7503 12.8518 15.9138C12.5625 16.0774 12.4092 16.2791 12.4256 16.4747C12.4337 16.5715 12.4833 16.6639 12.5714 16.7466C12.6596 16.8293 12.7846 16.9007 12.9393 16.9567C13.094 17.0126 13.2754 17.0521 13.4732 17.0728C13.671 17.0935 13.8812 17.0951 14.0919 17.0774C14.5174 17.0417 14.919 16.9297 15.2082 16.7662C15.4975 16.6026 15.6508 16.4009 15.6344 16.2053ZM6.6279 20.4746C6.49479 20.3304 6.24093 20.3086 5.92218 20.4139C5.60343 20.5192 5.24589 20.743 4.9282 21.0362C4.61051 21.3294 4.3587 21.6678 4.22815 21.9771C4.09761 22.2864 4.09903 22.5412 4.2321 22.6854C4.36521 22.8296 4.61907 22.8514 4.93782 22.7461C5.25657 22.6408 5.61411 22.417 5.9318 22.1238C6.24949 21.8306 6.50131 21.4922 6.63185 21.1829C6.76239 20.8736 6.76097 20.6188 6.6279 20.4746ZM36.418 23.1578C36.493 23.0734 36.528 22.9549 36.521 22.8091C36.514 22.6634 36.4651 22.4932 36.3772 22.3083C36.2892 22.1234 36.164 21.9275 36.0085 21.7316C35.853 21.5358 35.6704 21.3439 35.471 21.1669C35.0684 20.8095 34.6221 20.5344 34.2304 20.4022C33.8386 20.2701 33.5334 20.2917 33.382 20.4622C33.307 20.5466 33.272 20.6651 33.279 20.8109C33.286 20.9566 33.3349 21.1268 33.4228 21.3117C33.5108 21.4966 33.636 21.6925 33.7915 21.8884C33.947 22.0842 34.1296 22.2761 34.329 22.4531C34.7316 22.8105 35.1779 23.0856 35.5696 23.2178C35.9614 23.3499 36.2666 23.3283 36.418 23.1578ZM10.483 24.6691C10.683 24.7841 10.9778 24.7154 11.3025 24.4781C11.6271 24.2408 11.9551 23.8543 12.2142 23.4037C12.3425 23.1806 12.45 22.9484 12.5307 22.7205C12.6113 22.4925 12.6635 22.2733 12.6842 22.0752C12.7049 21.8772 12.6937 21.7042 12.6513 21.5662C12.6089 21.4282 12.536 21.3278 12.437 21.2709C12.237 21.1559 11.9422 21.2246 11.6175 21.4619C11.2929 21.6992 10.9649 22.0857 10.7058 22.5363C10.5775 22.7594 10.47 22.9916 10.3893 23.2195C10.3087 23.4475 10.2565 23.6667 10.2358 23.8648C10.2151 24.0628 10.2263 24.2358 10.2687 24.3738C10.3111 24.5118 10.384 24.6122 10.483 24.6691ZM28.74 24.25C28.7817 24.2908 28.8325 24.3211 28.8882 24.3385C28.9439 24.356 29.0029 24.36 29.0605 24.3502C29.118 24.3405 29.1724 24.3172 29.2192 24.2824C29.2661 24.2476 29.304 24.2023 29.33 24.15C29.6833 23.4167 29.54 22.64 28.9 21.82C28.6067 21.4467 28.28 21.2967 27.92 21.37C27.5533 21.4433 27.4133 21.66 27.5 22.02C27.7 22.9 28.1133 23.6433 28.74 24.25ZM22.3 31.56C22.16 32.5267 22.4567 33.2867 23.19 33.84C23.4767 34.06 23.7833 34.09 24.11 33.93C25.9967 32.99 27.5633 33.2867 28.81 34.82C28.9376 34.9751 29.1033 35.0945 29.2908 35.1663C29.4784 35.2382 29.6814 35.2601 29.88 35.23C31.4467 34.9967 32.71 34.2233 33.67 32.91C33.9567 32.5167 33.8567 32.31 33.37 32.29C31.37 32.21 31.01 29.93 28.83 30.52C22.75 32.15 24.27 26.88 24.23 23.23C24.2233 22.4167 23.8133 22.0067 23 22L19.77 21.99C19.1167 21.99 18.79 22.32 18.79 22.98L18.77 26.78C18.77 26.9867 18.6667 27.0767 18.46 27.05L18.03 26.98C17.9222 26.9652 17.8238 26.9111 17.7536 26.828C17.6834 26.7449 17.6465 26.6387 17.65 26.53L17.7 22.76C17.7067 22.2 17.4367 21.9867 16.89 22.12L16.62 22.18C16.3669 22.2435 16.1429 22.3918 15.9848 22.6008C15.8267 22.8098 15.7439 23.0669 15.75 23.33C15.7967 24.8767 15.7933 26.5233 15.74 28.27C15.63 32.28 12.59 30.75 10.25 30.37C10.0847 30.3427 9.91444 30.3618 9.75762 30.4252C9.60079 30.4886 9.46332 30.594 9.36 30.73C8.69333 31.6433 7.82333 32.1833 6.75 32.35C6.24333 32.43 6.15 32.67 6.47 33.07C7.27667 34.0633 8.27333 34.75 9.46 35.13C9.79333 35.2433 10.1233 35.2333 10.45 35.1C11.13 34.8267 11.72 34.42 12.22 33.88C12.4324 33.6483 12.7241 33.5024 13.04 33.47C14.0267 33.37 14.9767 33.5133 15.89 33.9C16.0798 33.9808 16.2866 34.0129 16.4921 33.9936C16.6975 33.9743 16.8952 33.9041 17.0674 33.7892C17.2397 33.6744 17.3812 33.5185 17.4794 33.3354C17.5775 33.1523 17.6293 32.9478 17.63 32.74L17.64 29.53C17.6467 29.31 17.7567 29.1867 17.97 29.16L18.36 29.11C18.4132 29.1044 18.4669 29.11 18.5177 29.1266C18.5686 29.1431 18.6153 29.1702 18.655 29.2061C18.6946 29.242 18.7262 29.2858 18.7478 29.3347C18.7693 29.3836 18.7803 29.4365 18.78 29.49V32.98C18.7796 33.3545 18.6849 33.723 18.5046 34.0513C18.3243 34.3796 18.0643 34.6572 17.7484 34.8584C17.4325 35.0597 17.071 35.1782 16.6973 35.2029C16.3236 35.2277 15.9496 35.1579 15.61 35C13.8167 34.16 12.3667 34.5667 11.26 36.22C11.0533 36.5267 11.1233 36.7467 11.47 36.88L14.96 38.22C15.133 38.286 15.3216 38.3014 15.5038 38.2642C15.6861 38.227 15.8547 38.1389 15.99 38.01C18.65 35.43 21.3567 35.43 24.11 38.01C24.41 38.29 24.7467 38.3533 25.12 38.2L28.68 36.81C29.0867 36.65 29.1267 36.4233 28.8 36.13L27.12 34.65C27.0131 34.5581 26.8851 34.4951 26.7485 34.4671C26.6118 34.439 26.4711 34.4469 26.34 34.49C23.69 35.31 20.6 35.53 21.34 31.45C21.36 31.37 21.41 31.3233 21.49 31.31L21.96 31.23C22.2267 31.1833 22.34 31.2933 22.3 31.56ZM8.6381 29.2843C8.69472 29.2461 8.73169 29.18 8.7469 29.0897C8.76212 28.9995 8.75527 28.8868 8.72677 28.7582C8.69826 28.6296 8.64864 28.4875 8.58076 28.3401C8.51287 28.1927 8.42803 28.0429 8.3311 27.8992C8.13534 27.609 7.90217 27.3613 7.68291 27.2106C7.46364 27.0599 7.27623 27.0186 7.1619 27.0957C7.10528 27.1339 7.06831 27.2 7.0531 27.2903C7.03788 27.3805 7.04473 27.4932 7.07323 27.6218C7.10174 27.7504 7.15136 27.8925 7.21924 28.0399C7.28713 28.1873 7.37197 28.3371 7.4689 28.4808C7.66466 28.771 7.89783 29.0187 8.11709 29.1694C8.33636 29.3201 8.52377 29.3614 8.6381 29.2843ZM31.3326 29.2919C31.3908 29.3347 31.4688 29.3493 31.5622 29.3349C31.6555 29.3206 31.7624 29.2775 31.8767 29.2082C31.991 29.1389 32.1104 29.0447 32.2282 28.931C32.346 28.8173 32.4599 28.6864 32.5633 28.5456C32.6667 28.4048 32.7576 28.257 32.8309 28.1106C32.9041 27.9642 32.9583 27.8221 32.9902 27.6923C33.0222 27.5625 33.0313 27.4477 33.0171 27.3543C33.0029 27.2609 32.9656 27.1909 32.9074 27.1481C32.8492 27.1053 32.7712 27.0907 32.6778 27.1051C32.5845 27.1194 32.4776 27.1625 32.3633 27.2318C32.249 27.3011 32.1296 27.3953 32.0118 27.509C31.894 27.6227 31.7801 27.7536 31.6767 27.8944C31.5733 28.0352 31.4824 28.183 31.4091 28.3294C31.3359 28.4758 31.2817 28.618 31.2498 28.7477C31.2178 28.8775 31.2087 28.9923 31.2229 29.0857C31.2371 29.1791 31.2744 29.2491 31.3326 29.2919ZM17.49 38.79L22.59 38.87C22.6351 38.87 22.6783 38.8521 22.7102 38.8202C22.7421 38.7883 22.76 38.7451 22.76 38.7V38.64C22.7652 38.2979 22.4984 37.9656 22.0183 37.7162C21.5382 37.4668 20.8841 37.3207 20.2 37.31H19.92C19.5811 37.3047 19.245 37.3328 18.9309 37.3927C18.6168 37.4527 18.3309 37.5433 18.0894 37.6594C17.848 37.7754 17.6558 37.9147 17.5237 38.0693C17.3917 38.2238 17.3225 38.3906 17.32 38.56V38.62C17.32 38.6651 17.3379 38.7083 17.3698 38.7402C17.4017 38.7721 17.4449 38.79 17.49 38.79Z" fill="#80C159" fill-opacity="0.996"/>
<path d="M21.8256 23.5107L21.7856 23.5107C21.4984 23.5102 21.2652 23.7426 21.2647 24.0298L21.2557 29.1698C21.2552 29.4569 21.4877 29.6902 21.7748 29.6907L21.8148 29.6907C22.102 29.6912 22.3352 29.4588 22.3357 29.1716L22.3447 24.0316C22.3452 23.7445 22.1128 23.5112 21.8256 23.5107Z" fill="#80C159" fill-opacity="0.996"/>
</g>
<defs>
<clipPath id="clip0_2456_139">
<rect width="40" height="40" fill="white"/>
</clipPath>
</defs>
</svg>
