<svg width="40" height="40" viewBox="0 0 40 40" fill="none" xmlns="http://www.w3.org/2000/svg">
<g clip-path="url(#clip0_2513_2)">
<path d="M34.7374 0H35.3874L35.8999 3.6625C35.929 3.8875 36.0561 4.01667 36.2811 4.05L39.9999 4.6375V5.275C37.8832 7.35833 35.7915 9.44583 33.7249 11.5375C32.5811 12.6937 30.8436 12.0625 29.4936 11.8813C29.3517 11.8618 29.2068 11.8759 29.0702 11.9225C28.9335 11.9692 28.8089 12.047 28.7061 12.15L21.2186 19.6375C21.0311 19.8208 21.004 20.0271 21.1374 20.2563L21.3936 20.6938C21.4811 20.8396 21.4915 20.9917 21.4249 21.15C21.229 21.6375 20.9582 21.7271 20.6124 21.4188C19.9082 20.7896 19.2124 20.0875 18.5249 19.3125C18.4646 19.2426 18.4266 19.1563 18.4158 19.0647C18.405 18.973 18.4218 18.8802 18.4642 18.7982C18.5065 18.7162 18.5724 18.6488 18.6534 18.6046C18.7344 18.5603 18.8267 18.5413 18.9186 18.55C19.2561 18.5833 19.5519 18.7 19.8061 18.9C19.8704 18.9534 19.9526 18.9805 20.036 18.9758C20.1195 18.9712 20.1981 18.9352 20.2561 18.875L27.8061 11.3312C27.9193 11.2179 28.0057 11.081 28.0587 10.9306C28.1117 10.7802 28.13 10.6202 28.1124 10.4625L27.7436 7.375C27.7299 7.25821 27.7431 7.13999 27.7821 7.02947C27.8212 6.91894 27.8849 6.81905 27.9686 6.7375L34.7374 0ZM28.9874 7.36875C28.9661 7.38968 28.95 7.41523 28.9402 7.44342C28.9305 7.4716 28.9273 7.50166 28.9311 7.53125L29.1811 9.50625C29.1854 9.54261 29.1999 9.57701 29.2229 9.60547C29.2459 9.63393 29.2766 9.65528 29.3112 9.66706C29.3459 9.67883 29.3832 9.68054 29.4188 9.67199C29.4544 9.66344 29.4868 9.64498 29.5124 9.61875L33.3311 5.81875C33.3496 5.80004 33.3718 5.78531 33.3962 5.77545C33.4206 5.76558 33.4468 5.7608 33.4731 5.76138C33.4994 5.76197 33.5253 5.76791 33.5493 5.77885C33.5732 5.78979 33.5947 5.80549 33.6124 5.825L34.1436 6.40625C34.1775 6.44315 34.1958 6.49177 34.1947 6.54189C34.1935 6.592 34.173 6.63971 34.1374 6.675L30.3624 10.5188C30.3379 10.5445 30.3211 10.5765 30.3136 10.6111C30.3061 10.6458 30.3083 10.6819 30.3199 10.7154C30.3315 10.749 30.3521 10.7787 30.3794 10.8013C30.4067 10.8239 30.4397 10.8386 30.4749 10.8438L32.4499 11.0625C32.4794 11.0663 32.5095 11.0631 32.5377 11.0534C32.5659 11.0436 32.5914 11.0275 32.6124 11.0063L37.8624 5.7375C37.8886 5.71196 37.907 5.67952 37.9156 5.64392C37.9241 5.60832 37.9224 5.57103 37.9107 5.53637C37.8989 5.5017 37.8775 5.47108 37.8491 5.44805C37.8206 5.42502 37.7862 5.41053 37.7499 5.40625L35.0624 5.1125C35.0174 5.10832 34.9752 5.08854 34.9433 5.05658C34.9113 5.02462 34.8915 4.9825 34.8874 4.9375L34.6061 2.2C34.6029 2.16312 34.5891 2.12794 34.5665 2.09863C34.5439 2.06932 34.5133 2.0471 34.4785 2.03461C34.4436 2.02212 34.4059 2.01987 34.3698 2.02814C34.3338 2.0364 34.3008 2.05483 34.2749 2.08125L28.9874 7.36875Z" fill="#ED7777"/>
<path d="M0.825 40.0009H0V39.0697L4.51875 30.8509C4.5642 30.7684 4.63261 30.7008 4.71568 30.6563C4.79876 30.6118 4.89295 30.5923 4.98685 30.6003C5.08075 30.6082 5.17034 30.6432 5.24477 30.701C5.31921 30.7588 5.3753 30.8369 5.40625 30.9259L6.00625 32.6697C6.01917 32.7065 6.04122 32.7395 6.07033 32.7655C6.09945 32.7916 6.13468 32.8098 6.17275 32.8185C6.21081 32.8273 6.25047 32.8262 6.28803 32.8155C6.32558 32.8048 6.3598 32.7847 6.3875 32.7572L8.94375 30.2009C9.10208 30.0426 9.09792 29.8884 8.93125 29.7384C4.26875 25.4634 0.24375 18.7197 2.51875 12.4884C5.1875 5.18841 13.1125 3.23841 19.7563 7.21966C19.9479 7.33216 20.1354 7.32383 20.3187 7.19466C21.9687 5.99466 23.8167 5.28425 25.8625 5.06341C26.0367 5.04492 26.2122 5.07994 26.3653 5.16376C26.5184 5.24759 26.6418 5.37617 26.7188 5.53216L26.7937 5.68216C26.8109 5.71636 26.8194 5.75422 26.8183 5.79253C26.8173 5.83085 26.8068 5.86848 26.7878 5.90223C26.7688 5.93598 26.7418 5.96484 26.7091 5.98638C26.6764 6.00791 26.639 6.02147 26.6 6.02591C24.3292 6.27591 22.2792 7.08008 20.45 8.43841C20.3103 8.54339 20.1391 8.59805 19.9644 8.59351C19.7897 8.58897 19.6216 8.5255 19.4875 8.41341C12.7375 2.71341 3.11875 8.05716 3.00625 16.4134C2.9 24.6572 13.1625 32.7009 19.6875 36.0947C19.875 36.1947 20.0625 36.1947 20.25 36.0947C27.6125 32.2072 40.65 22.0947 36.0437 12.0509C35.986 11.9251 35.9784 11.782 36.0225 11.6507C36.0666 11.5195 36.1592 11.41 36.2812 11.3447L36.4438 11.2572C36.4898 11.2316 36.5406 11.2157 36.5931 11.2103C36.6456 11.205 36.6988 11.2103 36.7495 11.2261C36.8002 11.2418 36.8474 11.2676 36.8883 11.3019C36.9291 11.3362 36.9629 11.3784 36.9875 11.4259C39.1688 15.6822 37.8188 21.1447 35.1938 24.8884C31.4375 30.2447 26.2188 34.2509 20.5 37.3009C20.1458 37.4884 19.7938 37.4822 19.4438 37.2822C16.2188 35.4613 13.1729 33.378 10.3062 31.0322C10.1229 30.8863 9.95 30.8947 9.7875 31.0572L7.3375 33.5134C7.29898 33.5517 7.27113 33.5993 7.25661 33.6517C7.24208 33.7041 7.24136 33.7595 7.2545 33.8127C7.26765 33.8659 7.29423 33.9151 7.33172 33.9557C7.36921 33.9963 7.41638 34.0269 7.46875 34.0447L8.95625 34.5384C9.05717 34.5712 9.14629 34.6328 9.21263 34.7156C9.27897 34.7984 9.31963 34.8988 9.3296 35.0045C9.33956 35.1101 9.3184 35.2164 9.26872 35.3101C9.21904 35.4039 9.14301 35.4811 9.05 35.5322L0.825 40.0009ZM2.375 37.3197C2.35187 37.3609 2.34273 37.4085 2.34895 37.4554C2.35517 37.5023 2.37642 37.5459 2.4095 37.5797C2.44259 37.6135 2.48573 37.6356 2.53247 37.6428C2.57921 37.6501 2.62702 37.6419 2.66875 37.6197L6.775 35.4447C6.81442 35.4245 6.8468 35.3928 6.86784 35.3539C6.88889 35.3149 6.89762 35.2705 6.89288 35.2265C6.88814 35.1825 6.87015 35.1409 6.84129 35.1073C6.81243 35.0737 6.77406 35.0497 6.73125 35.0384L5.53125 34.7009C5.49878 34.6916 5.46891 34.6749 5.44397 34.6522C5.41903 34.6294 5.3997 34.6012 5.3875 34.5697L4.90625 33.3759C4.89017 33.338 4.86372 33.3054 4.82993 33.2818C4.79615 33.2583 4.7564 33.2448 4.71527 33.2428C4.67413 33.2409 4.63328 33.2505 4.59741 33.2708C4.56154 33.291 4.53211 33.3209 4.5125 33.3572L2.375 37.3197Z" fill="#ED7777"/>
</g>
<defs>
<clipPath id="clip0_2513_2">
<rect width="40" height="40" fill="white"/>
</clipPath>
</defs>
</svg>
