<svg width="40" height="40" viewBox="0 0 40 40" fill="none" xmlns="http://www.w3.org/2000/svg">
<g clip-path="url(#clip0_2475_183)">
<path d="M16.835 0H19.85C22.8633 0.41 25.5733 1.34833 27.98 2.815C28.3033 3.01167 28.3717 3.27333 28.185 3.6L28.11 3.73C27.98 3.95667 27.8017 4.005 27.575 3.875C23.1683 1.305 18.7583 0.555 14.345 1.625C-1.325 5.42 -3.535 26.275 10.75 33.6C11.4467 33.9567 12.2317 34.1333 13.105 34.13C16.5317 34.1267 19.9633 34.125 23.4 34.125C24.2733 34.125 25.0583 33.9467 25.755 33.59C36.905 27.89 38.66 13.375 29.21 5.14C28.92 4.88667 28.915 4.62667 29.195 4.36L29.3 4.265C29.3844 4.18522 29.4951 4.13913 29.6112 4.13545C29.7273 4.13176 29.8407 4.17074 29.93 4.245C37.2 10.385 38.525 20.515 33.325 28.47C33.225 28.6233 33.2383 28.7683 33.365 28.905L34.685 30.335C34.865 30.5283 35.05 30.535 35.24 30.355L37.22 28.5C37.4233 28.3067 37.43 28.1067 37.24 27.9L36.065 26.625C35.7917 26.3283 35.8283 26.0767 36.175 25.87L36.355 25.765C36.4024 25.7367 36.4571 25.7229 36.5123 25.7256C36.5674 25.7283 36.6206 25.7472 36.665 25.78C38.2883 26.9733 39.4 28.39 40 30.03V31.625C39.3033 33.385 38.6017 35.1417 37.895 36.895C37.2283 38.545 36.0317 39.58 34.305 40H2.16C1.87667 38.2467 1.83 36.4483 2.02 34.605C2.03356 34.475 2.09466 34.3547 2.19155 34.267C2.28845 34.1793 2.41433 34.1305 2.545 34.13H4.92C5.0597 34.13 5.19376 34.1857 5.29301 34.2849C5.39226 34.3842 5.44868 34.519 5.45 34.66V34.92C5.45066 34.9683 5.44171 35.0164 5.42366 35.0612C5.40562 35.1061 5.37884 35.1469 5.34488 35.1813C5.31092 35.2158 5.27046 35.2431 5.22584 35.2617C5.18123 35.2804 5.13336 35.29 5.085 35.29L3.345 35.3C3.195 35.3033 3.12 35.38 3.12 35.53L3.13 38.715C3.13 38.785 3.165 38.82 3.235 38.82L6.505 38.83C6.585 38.8333 6.625 38.7933 6.625 38.71V34.935C6.625 34.8282 6.64611 34.7225 6.68713 34.6239C6.72815 34.5253 6.78826 34.4358 6.86401 34.3605C6.93975 34.2852 7.02964 34.2256 7.12849 34.1852C7.22734 34.1448 7.33321 34.1243 7.44 34.125L8.855 34.13C9.095 34.1333 9.115 34.07 8.915 33.94C3.75167 30.6733 0.78 25.9583 0 19.795V16.64C0.14 15.91 0.285 15.185 0.435 14.465C2.135 6.27 8.605 1.125 16.835 0ZM38.845 31.555C38.8771 31.4882 38.8893 31.4135 38.88 31.34L38.67 29.51C38.6613 29.4389 38.633 29.3716 38.5882 29.3157C38.5433 29.2598 38.4838 29.2175 38.4163 29.1936C38.3487 29.1697 38.2758 29.1651 38.2058 29.1804C38.1358 29.1957 38.0715 29.2302 38.02 29.28L36.045 31.2C35.9736 31.2698 35.9321 31.3646 35.9293 31.4645C35.9265 31.5643 35.9626 31.6613 36.03 31.735L37.425 33.25C37.4673 33.2963 37.5203 33.3316 37.5793 33.3528C37.6384 33.374 37.7017 33.3804 37.7638 33.3716C37.8259 33.3627 37.8849 33.3388 37.9356 33.3019C37.9864 33.265 38.0274 33.2163 38.055 33.16L38.845 31.555ZM32.265 29.925C30.51 31.88 29.375 32.61 27.665 33.89C27.455 34.05 27.4817 34.1283 27.745 34.125H36.16C36.208 34.1261 36.2552 34.1129 36.2956 34.0869C36.3359 34.0609 36.3675 34.0234 36.3864 33.9793C36.4052 33.9351 36.4104 33.8864 36.4012 33.8393C36.3921 33.7921 36.369 33.7489 36.335 33.715L32.705 29.915C32.555 29.7583 32.4083 29.7617 32.265 29.925ZM37.275 35.29C37.2881 35.261 37.2927 35.2289 37.2884 35.1974C37.2842 35.1658 37.2711 35.1362 37.2508 35.1117C37.2305 35.0872 37.2037 35.0689 37.1735 35.0589C37.1433 35.0489 37.1109 35.0475 37.08 35.055L36.04 35.32C36.0047 35.3297 35.9735 35.3505 35.951 35.3793C35.9285 35.4081 35.9159 35.4434 35.915 35.48L35.89 37.57C35.89 37.6089 35.9033 37.6466 35.9277 37.6769C35.9521 37.7072 35.9862 37.7282 36.0242 37.7364C36.0622 37.7446 36.1019 37.7395 36.1366 37.7219C36.1714 37.7044 36.199 37.6755 36.215 37.64L37.275 35.29ZM11.335 35.49C11.335 35.4383 11.3145 35.3887 11.2779 35.3521C11.2413 35.3155 11.1917 35.295 11.14 35.295H7.98C7.92828 35.295 7.87868 35.3155 7.84211 35.3521C7.80554 35.3887 7.785 35.4383 7.785 35.49V38.63C7.785 38.6817 7.80554 38.7313 7.84211 38.7679C7.87868 38.8045 7.92828 38.825 7.98 38.825H11.14C11.1917 38.825 11.2413 38.8045 11.2779 38.7679C11.3145 38.7313 11.335 38.6817 11.335 38.63V35.49ZM15.9972 35.452C15.9972 35.4303 15.9929 35.4088 15.9845 35.3888C15.9762 35.3688 15.964 35.3507 15.9487 35.3354C15.9333 35.3201 15.9151 35.3079 15.8951 35.2997C15.875 35.2914 15.8536 35.2872 15.8319 35.2873L12.6619 35.2928C12.6402 35.2928 12.6188 35.2971 12.5988 35.3054C12.5788 35.3138 12.5606 35.3259 12.5453 35.3413C12.53 35.3566 12.5179 35.3749 12.5096 35.3949C12.5014 35.4149 12.4972 35.4364 12.4972 35.458L12.5028 38.6781C12.5028 38.6997 12.5071 38.7212 12.5155 38.7412C12.5238 38.7612 12.536 38.7793 12.5513 38.7946C12.5667 38.8099 12.5849 38.822 12.6049 38.8303C12.625 38.8386 12.6464 38.8428 12.6681 38.8428L15.8381 38.8372C15.8598 38.8372 15.8812 38.8329 15.9012 38.8246C15.9212 38.8162 15.9394 38.8041 15.9547 38.7887C15.97 38.7734 15.9821 38.7551 15.9904 38.7351C15.9986 38.7151 16.0028 38.6936 16.0028 38.672L15.9972 35.452ZM20.6868 35.4907C20.6867 35.4632 20.6811 35.4359 20.6704 35.4105C20.6597 35.385 20.6441 35.362 20.6245 35.3426C20.6049 35.3232 20.5817 35.3078 20.5561 35.2974C20.5306 35.287 20.5033 35.2817 20.4757 35.2818L17.3557 35.2982C17.3282 35.2983 17.3009 35.3039 17.2755 35.3146C17.25 35.3253 17.227 35.3409 17.2076 35.3605C17.1882 35.3801 17.1728 35.4033 17.1624 35.4289C17.152 35.4544 17.1467 35.4817 17.1469 35.5093L17.1632 38.6292C17.1633 38.6568 17.1689 38.6841 17.1796 38.7095C17.1903 38.735 17.2059 38.758 17.2255 38.7774C17.2451 38.7968 17.2683 38.8122 17.2939 38.8226C17.3194 38.833 17.3467 38.8383 17.3743 38.8382L20.4942 38.8218C20.5218 38.8217 20.5491 38.8161 20.5745 38.8054C20.6 38.7947 20.623 38.7791 20.6424 38.7595C20.6618 38.7399 20.6772 38.7167 20.6876 38.6911C20.698 38.6656 20.7033 38.6383 20.7031 38.6107L20.6868 35.4907ZM25.375 35.43C25.375 35.3955 25.3613 35.3625 25.3369 35.3381C25.3125 35.3137 25.2795 35.3 25.245 35.3H22.005C21.9705 35.3 21.9375 35.3137 21.9131 35.3381C21.8887 35.3625 21.875 35.3955 21.875 35.43V38.7C21.875 38.7345 21.8887 38.7675 21.9131 38.7919C21.9375 38.8163 21.9705 38.83 22.005 38.83H25.245C25.2795 38.83 25.3125 38.8163 25.3369 38.7919C25.3613 38.7675 25.375 38.7345 25.375 38.7V35.43ZM30.075 35.5C30.075 35.4724 30.0696 35.4451 30.059 35.4196C30.0485 35.3942 30.033 35.371 30.0135 35.3515C29.994 35.332 29.9708 35.3165 29.9454 35.306C29.9199 35.2954 29.8926 35.29 29.865 35.29H26.745C26.6893 35.29 26.6359 35.3121 26.5965 35.3515C26.5571 35.3909 26.535 35.4443 26.535 35.5V38.62C26.535 38.6757 26.5571 38.7291 26.5965 38.7685C26.6359 38.8079 26.6893 38.83 26.745 38.83H29.865C29.8926 38.83 29.9199 38.8246 29.9454 38.814C29.9708 38.8035 29.994 38.788 30.0135 38.7685C30.033 38.749 30.0485 38.7258 30.059 38.7004C30.0696 38.6749 30.075 38.6476 30.075 38.62V35.5ZM34.7396 35.4989C34.7395 35.47 34.7337 35.4414 34.7226 35.4148C34.7114 35.3881 34.6951 35.3639 34.6746 35.3436C34.6541 35.3232 34.6298 35.3071 34.6031 35.2961C34.5764 35.2851 34.5477 35.2796 34.5188 35.2797L31.4589 35.2904C31.43 35.2905 31.4014 35.2962 31.3747 35.3074C31.3481 35.3185 31.3239 35.3348 31.3035 35.3553C31.2831 35.3758 31.267 35.4001 31.2561 35.4269C31.2451 35.4536 31.2395 35.4822 31.2396 35.5111L31.2504 38.6011C31.2505 38.63 31.2563 38.6586 31.2674 38.6852C31.2786 38.7119 31.2949 38.7361 31.3154 38.7564C31.3359 38.7768 31.3602 38.7929 31.3869 38.8039C31.4136 38.8149 31.4423 38.8204 31.4711 38.8204L34.5312 38.8097C34.56 38.8096 34.5886 38.8038 34.6153 38.7926C34.6419 38.7815 34.6661 38.7652 34.6865 38.7447C34.7069 38.7242 34.723 38.6999 34.7339 38.6731C34.7449 38.6464 34.7505 38.6178 34.7504 38.5889L34.7396 35.4989Z" fill="#97C4F6"/>
<path d="M15.6848 11.8346C13.9248 10.7596 11.0498 8.00964 11.4998 5.69964C11.6898 4.72964 12.2831 4.00465 13.2798 3.52465C16.4831 1.99465 19.7131 1.95631 22.9698 3.40965C25.1048 4.35965 25.5948 6.22964 24.3898 8.22964C22.6748 11.0696 19.0998 13.9146 15.6848 11.8346ZM23.7748 5.55464C21.8848 2.86964 15.2398 2.90464 13.1098 5.17964C12.5998 5.72298 12.6948 5.86465 13.3948 5.60465C16.8148 4.34465 20.2148 4.40464 23.5948 5.78464C23.6255 5.79885 23.6601 5.80227 23.693 5.79434C23.7258 5.78641 23.7551 5.7676 23.7759 5.74097C23.7968 5.71433 23.808 5.68143 23.8078 5.64761C23.8076 5.61379 23.796 5.58103 23.7748 5.55464ZM23.4798 6.99964C20.1748 5.47964 16.3098 5.46964 13.0148 6.99964C12.9844 7.01381 12.9573 7.03418 12.9353 7.05945C12.9133 7.08472 12.8968 7.11432 12.8869 7.14635C12.877 7.17839 12.8739 7.21214 12.8779 7.24543C12.8818 7.27872 12.8927 7.31081 12.9098 7.33964C14.4448 9.97464 17.6598 12.9446 20.7148 10.4496C22.0715 9.33964 23.0365 8.33298 23.6098 7.42964C23.6329 7.39372 23.648 7.35321 23.6539 7.3109C23.6598 7.2686 23.6565 7.22551 23.6441 7.18462C23.6317 7.14373 23.6106 7.10601 23.5823 7.07407C23.5539 7.04214 23.5189 7.01674 23.4798 6.99964Z" fill="#97C4F6"/>
<path d="M9.11983 9.87003C6.6265 12.6867 5.56483 15.9934 5.93483 19.79C5.93832 19.8279 5.95023 19.8645 5.96969 19.8972C5.98915 19.9298 6.01567 19.9577 6.04731 19.9788C6.07895 19.9999 6.1149 20.0137 6.15254 20.0191C6.19017 20.0245 6.22854 20.0214 6.26483 20.01L8.24983 19.355C8.29576 19.3399 8.34434 19.3344 8.39249 19.3389C8.44065 19.3434 8.48735 19.3579 8.52963 19.3814C8.57191 19.4049 8.60887 19.4369 8.63816 19.4754C8.66746 19.5139 8.68846 19.558 8.69983 19.605L8.73983 19.765C8.77514 19.9134 8.75634 20.0697 8.68678 20.2061C8.61721 20.3424 8.50137 20.4501 8.35983 20.51C6.30983 21.38 3.90483 21.76 2.97483 19.255C1.73483 15.9 3.31983 11.585 5.61983 9.13004C6.99483 7.65504 8.82483 7.46503 10.3148 8.99003C13.0648 11.81 14.6498 16.555 10.5148 19.31C10.4238 19.3709 10.3137 19.3965 10.2058 19.3817C10.0978 19.3669 9.99958 19.3129 9.92983 19.23L9.82983 19.11C9.55983 18.7967 9.59817 18.5267 9.94483 18.3C13.2748 16.14 11.7048 12.195 9.60983 9.86503C9.4465 9.6817 9.28317 9.68337 9.11983 9.87003ZM4.74483 19.335C4.52983 15.66 5.61983 12.125 8.01483 9.42504C8.3215 9.07837 8.25483 8.9767 7.81483 9.12003C4.69483 10.13 2.52483 16.83 4.38983 19.46C4.65317 19.8334 4.7715 19.7917 4.74483 19.335Z" fill="#97C4F6"/>
<path d="M24.0948 17.5098C21.7298 14.4048 26.5498 4.50482 30.8798 9.15982C33.1498 11.5948 34.7098 15.7248 33.5898 19.0898C32.0598 23.6898 25.6998 19.6148 24.0948 17.5098ZM31.8098 18.2398C31.8264 19.5865 32.0698 19.6298 32.5398 18.3698C33.6048 15.5398 31.6748 11.3948 29.5248 9.50482C29.2314 9.24482 28.9298 9.11982 28.6198 9.12982C28.3998 9.13315 28.3614 9.21982 28.5048 9.38982C30.6648 11.9265 31.7664 14.8765 31.8098 18.2398ZM30.5548 19.8198C30.9998 16.1448 29.8448 12.4198 27.2748 9.73482C27.2598 9.71939 27.242 9.70713 27.2222 9.69875C27.2025 9.69038 27.1812 9.68606 27.1598 9.68606C27.1383 9.68606 27.1171 9.69038 27.0973 9.69875C27.0776 9.70713 27.0597 9.71939 27.0448 9.73482C25.6148 11.1982 24.8048 12.9565 24.6148 15.0098C24.3648 17.7348 28.1898 19.5448 30.3198 19.9898C30.3469 19.9949 30.3747 19.9944 30.4016 19.9885C30.4284 19.9826 30.4537 19.9712 30.4757 19.9553C30.4978 19.9393 30.5162 19.919 30.5298 19.8957C30.5434 19.8724 30.5519 19.8466 30.5548 19.8198Z" fill="#97C4F6"/>
<path d="M19.9949 18.2509C19.9949 18.7137 19.811 19.1575 19.4838 19.4848C19.1565 19.812 18.7127 19.9959 18.2499 19.9959C17.7871 19.9959 17.3432 19.812 17.016 19.4848C16.6887 19.1575 16.5049 18.7137 16.5049 18.2509C16.5049 17.7881 16.6887 17.3442 17.016 17.017C17.3432 16.6897 17.7871 16.5059 18.2499 16.5059C18.7127 16.5059 19.1565 16.6897 19.4838 17.017C19.811 17.3442 19.9949 17.7881 19.9949 18.2509ZM18.8199 18.2459C18.8199 18.1697 18.8049 18.0943 18.7757 18.0239C18.7466 17.9535 18.7039 17.8896 18.65 17.8357C18.5961 17.7819 18.5322 17.7392 18.4618 17.71C18.3915 17.6809 18.3161 17.6659 18.2399 17.6659C18.0861 17.6659 17.9385 17.727 17.8298 17.8357C17.721 17.9445 17.6599 18.092 17.6599 18.2459C17.6599 18.3997 17.721 18.5472 17.8298 18.656C17.9385 18.7648 18.0861 18.8259 18.2399 18.8259C18.3161 18.8259 18.3915 18.8109 18.4618 18.7817C18.5322 18.7526 18.5961 18.7098 18.65 18.656C18.7039 18.6021 18.7466 18.5382 18.7757 18.4678C18.8049 18.3974 18.8199 18.322 18.8199 18.2459Z" fill="#97C4F6"/>
<path d="M13.9998 33.0741C10.4148 32.9091 6.39978 29.7741 5.33978 26.6441C3.68478 21.7391 13.7398 20.3341 15.9148 23.9441C17.3848 26.3891 19.0798 33.3091 13.9998 33.0741ZM16.1898 29.9541C16.5698 28.3991 15.8098 25.9741 14.9998 24.6191C13.5848 22.2541 9.44978 22.9991 7.48478 23.9641C7.45897 23.9769 7.43602 23.9948 7.41734 24.0166C7.39867 24.0385 7.38467 24.0638 7.37623 24.091C7.36779 24.1182 7.36507 24.1467 7.36827 24.1748C7.37146 24.2028 7.38048 24.2298 7.39478 24.2541C9.23811 27.4241 11.9448 29.4591 15.5148 30.3591C15.8748 30.4524 16.0998 30.3174 16.1898 29.9541ZM14.9148 31.3941C11.6448 30.5391 8.51478 28.3341 6.92478 25.5741C6.46811 24.7841 6.28811 24.8424 6.38478 25.7491C6.73478 29.0741 11.7498 32.2291 14.8798 31.8741C15.7498 31.7741 15.7614 31.6141 14.9148 31.3941Z" fill="#97C4F6"/>
<path d="M20.825 23.4747C23.29 20.3197 34.96 21.7997 30.07 28.6147C28.8667 30.2947 27.245 31.5681 25.205 32.4347C17.505 35.7097 18.345 26.6497 20.825 23.4747ZM20.75 30.3997C24.4434 29.5631 27.2334 27.5147 29.12 24.2547C29.1346 24.229 29.1436 24.2006 29.1467 24.1712C29.1498 24.1419 29.1467 24.1122 29.1378 24.0841C29.1289 24.0559 29.1143 24.0299 29.0949 24.0076C29.0755 23.9854 29.0517 23.9674 29.025 23.9547C27 22.9797 22.6 22.2447 21.31 24.8247C20.4534 26.5381 20.1184 28.2897 20.305 30.0797C20.3317 30.3531 20.48 30.4597 20.75 30.3997ZM29.73 25.4947C28 28.3647 24.795 30.5647 21.475 31.4197C20.9217 31.5631 20.9234 31.7014 21.48 31.8347C24.74 32.6097 29.655 28.8147 30.16 25.6547C30.2867 24.8681 30.1434 24.8147 29.73 25.4947Z" fill="#97C4F6"/>
</g>
<defs>
<clipPath id="clip0_2475_183">
<rect width="40" height="40" fill="white"/>
</clipPath>
</defs>
</svg>
