<svg width="40" height="40" viewBox="0 0 40 40" fill="none" xmlns="http://www.w3.org/2000/svg">
<g clip-path="url(#clip0_2512_59)">
<path d="M20 0C17.3296 0 14.7455 0.545625 12.3191 1.6218C9.97641 2.66086 7.8957 4.1407 6.13477 6.02008C6.02874 6.13325 5.97201 6.28389 5.97705 6.43889C5.98209 6.59388 6.04849 6.74052 6.16164 6.84656C6.39727 7.06758 6.76727 7.05523 6.98812 6.81969C10.3527 3.22891 15.0954 1.16945 20 1.16945C29.834 1.16945 37.8345 9.17 37.8345 19.0039C37.8345 23.3148 36.2784 29.7628 33.8702 35.4311C33.8077 35.5785 33.7032 35.7042 33.5697 35.7925C33.4362 35.8809 33.2796 35.9279 33.1195 35.9277C32.9727 35.9277 32.8287 35.8877 32.7028 35.8121L35.3516 28.1778C35.5723 27.5411 35.511 26.8411 35.193 26.2555C35.8547 23.4995 36.2048 20.9933 36.2048 19.0038C36.2048 17.5766 36.0169 16.157 35.6464 14.7843C35.6439 14.7751 35.6412 14.766 35.6383 14.757C34.6798 11.79 32.6245 9.12063 29.851 7.24055C27.0002 5.30813 23.5938 4.28664 20 4.28664C16.4062 4.28664 12.9998 5.30813 10.149 7.2407C7.37555 9.12078 5.32023 11.7902 4.36172 14.7571C4.35882 14.7662 4.35611 14.7753 4.35359 14.7845C3.98269 16.1603 3.79495 17.579 3.79523 19.004C3.79523 20.9956 4.14547 23.4989 4.80719 26.2552C4.48898 26.8408 4.4275 27.541 4.64836 28.1779L7.29703 35.8122C7.26532 35.8311 7.23239 35.8479 7.19844 35.8625C6.785 36.0384 6.30555 35.8447 6.12977 35.4312C3.72164 29.7628 2.16555 23.3148 2.16555 19.0039C2.16555 15.3018 3.2943 11.7491 5.42984 8.72984C5.4742 8.66716 5.50577 8.59636 5.52275 8.52147C5.53973 8.44659 5.5418 8.36909 5.52883 8.29341C5.51586 8.21773 5.4881 8.14534 5.44715 8.08038C5.4062 8.01543 5.35285 7.95918 5.29016 7.91484C5.22748 7.87048 5.15667 7.8389 5.08179 7.82191C5.0069 7.80492 4.9294 7.80286 4.85371 7.81583C4.77803 7.8288 4.70564 7.85656 4.64069 7.89752C4.57573 7.93847 4.51948 7.99183 4.47516 8.05453C2.19906 11.2723 0.996094 15.0587 0.996094 19.0039C0.996094 23.4595 2.58875 30.087 5.05359 35.8884C5.37422 36.6431 6.11016 37.0967 6.88258 37.0967C7.14102 37.0967 7.40344 37.0459 7.6557 36.9388C7.66508 36.9348 7.67414 36.9301 7.68344 36.9259L7.91625 37.597C8.04084 37.9548 8.24862 38.2778 8.52248 38.5395C8.79635 38.8013 9.12846 38.9942 9.49148 39.1024L12.1333 39.887C12.3841 39.9617 12.6443 39.9998 12.906 40C13.2057 40 13.5049 39.9497 13.7939 39.8494L16.1781 39.017C17.0295 38.7216 17.5462 38.176 17.9395 37.3651C18.3326 36.5541 18.3865 35.6387 18.0911 34.7873L14.377 24.0823C13.7673 22.3247 11.8409 21.3908 10.0836 22.0005L7.86805 22.7691C7.33155 22.9541 6.86714 23.3038 6.54102 23.7682L5.70836 24.9488C5.22086 22.6927 4.96453 20.6564 4.96453 19.0039C4.96453 17.6843 5.1375 16.372 5.47883 15.1031C7.32164 9.42235 13.2906 5.45609 20 5.45609C26.7094 5.45609 32.6784 9.42235 34.5211 15.1031C34.8628 16.3752 35.0357 17.6867 35.0354 19.0039C35.0354 20.6544 34.7791 22.6925 34.2917 24.949L33.4591 23.7684C33.1329 23.3039 32.6684 22.9542 32.1319 22.7692L29.9164 22.0005C28.1586 21.3909 26.2328 22.3248 25.623 24.0823L21.9089 34.7873C21.6135 35.6388 21.6674 36.5542 22.0605 37.3652C22.4537 38.1761 23.1391 38.7854 23.9905 39.0808L26.2059 39.8495C26.4914 39.9489 26.7916 39.9998 27.0939 40.0001C27.3556 39.9999 27.6159 39.9618 27.8666 39.887L30.5084 39.1025C30.8715 38.9942 31.2036 38.8013 31.4774 38.5396C31.7513 38.2779 31.9591 37.9548 32.0837 37.5971L32.3165 36.926C32.3258 36.9302 32.3348 36.9348 32.3442 36.9388C32.5893 37.0435 32.8531 37.0974 33.1196 37.0973C33.5092 37.0977 33.8903 36.9832 34.2153 36.7682C34.5402 36.5532 34.7946 36.2472 34.9466 35.8884C37.4113 30.0871 39.004 23.4595 39.004 19.004C39.0039 8.52508 30.4788 0 20 0ZM7.4968 24.4421C7.68229 24.178 7.9464 23.9792 8.25148 23.8741L10.467 23.1054C10.6987 23.0248 10.9422 22.9835 11.1876 22.9834C12.1007 22.9834 12.9565 23.5556 13.2723 24.4655L16.9863 35.1706C17.1793 35.7269 17.1441 36.3251 16.8873 36.8549C16.6304 37.3848 16.1826 37.7829 15.6263 37.9759L13.9631 38.5529L9.50703 25.7088C9.45479 25.5641 9.34765 25.4458 9.20883 25.3796C9.07001 25.3134 8.91069 25.3045 8.76538 25.3549C8.62007 25.4053 8.50047 25.511 8.43249 25.6489C8.36451 25.7869 8.35362 25.9461 8.40219 26.092L12.8208 38.8279C12.7007 38.8211 12.5817 38.8004 12.4664 38.766L9.82461 37.9815C9.63951 37.9263 9.47016 37.8279 9.33052 37.6944C9.19088 37.561 9.08494 37.3962 9.02141 37.2138L5.75344 27.7947C5.69034 27.6121 5.6715 27.4171 5.69847 27.2258C5.72545 27.0345 5.79746 26.8524 5.90859 26.6944L7.4968 24.4421ZM30.9788 37.2138C30.9153 37.3962 30.8093 37.5609 30.6697 37.6943C30.5301 37.8278 30.3607 37.9262 30.1756 37.9814L27.5338 38.7659C27.4185 38.8003 27.2996 38.821 27.1795 38.8278L28.1447 36.0456C28.1933 35.8997 28.1824 35.7405 28.1144 35.6025C28.0464 35.4646 27.9268 35.3589 27.7815 35.3085C27.6362 35.2581 27.4769 35.267 27.338 35.3332C27.1992 35.3994 27.0921 35.5177 27.0398 35.6623L26.037 38.5529L24.3739 37.9759C23.8176 37.7829 23.3698 37.3848 23.1129 36.8549C22.856 36.3251 22.8209 35.7269 23.0138 35.1706L26.7279 24.4655C27.0436 23.5555 27.8994 22.9834 28.8126 22.9834C29.0517 22.9834 29.2948 23.0227 29.5332 23.1054L31.1962 23.6824L27.8668 33.2787C27.8416 33.3512 27.831 33.428 27.8355 33.5047C27.84 33.5813 27.8596 33.6563 27.8931 33.7254C27.9266 33.7945 27.9734 33.8563 28.0308 33.9074C28.0882 33.9584 28.155 33.9976 28.2276 34.0227C28.3741 34.0735 28.5348 34.0641 28.6743 33.9964C28.8138 33.9287 28.9208 33.8084 28.9716 33.662L32.2634 24.1741C32.3535 24.2539 32.434 24.3438 32.5033 24.4422L34.0916 26.6943C34.2028 26.8523 34.2748 27.0345 34.3018 27.2258C34.3287 27.4171 34.3099 27.612 34.2468 27.7946L30.9788 37.2138Z" fill="#F2C8D2"/>
</g>
<defs>
<clipPath id="clip0_2512_59">
<rect width="40" height="40" fill="white"/>
</clipPath>
</defs>
</svg>
