<svg width="40" height="40" viewBox="0 0 40 40" fill="none" xmlns="http://www.w3.org/2000/svg">
<path d="M26.4548 0H27.0998C27.7632 0.376667 28.0015 0.816667 27.8148 1.32C25.8048 6.77 27.5348 11.92 31.0248 16.27C32.1115 17.6233 32.8248 18.6767 33.1648 19.43C37.3448 28.68 31.3698 38.54 21.4148 40H18.5248C15.8182 39.5867 13.3982 38.5967 11.2648 37.03C11.0082 36.8433 10.9682 36.6183 11.1448 36.355L11.2798 36.155C11.3122 36.1078 11.3538 36.0676 11.4021 36.0368C11.4505 36.0061 11.5045 35.9854 11.561 35.9761C11.6175 35.9667 11.6753 35.9689 11.731 35.9825C11.7866 35.996 11.839 36.0207 11.8848 36.055C25.1448 45.98 40.9098 28.02 29.4298 16.08C28.6932 15.3167 27.8182 13.6617 26.8048 11.115C25.5282 7.92167 25.4282 4.70333 26.5048 1.46C26.5515 1.32 26.5015 1.26667 26.3548 1.3C22.1882 2.25667 18.9332 4.50333 16.5898 8.04C15.8598 9.14667 15.4132 9.04167 15.2498 7.725L14.8498 4.485C14.8265 4.28833 14.7415 4.25667 14.5948 4.39C14.0448 4.88333 13.5632 5.43167 13.1498 6.035C9.4565 11.4617 7.3265 17.3667 6.75983 23.75C6.39983 27.8633 7.53816 31.4283 10.1748 34.445C10.246 34.5259 10.2849 34.6301 10.2839 34.7373C10.283 34.8444 10.2424 34.947 10.1698 35.025L10.0648 35.135C9.80816 35.415 9.5515 35.4133 9.29483 35.13C2.10983 27.165 6.73983 13.815 11.7998 6.045C12.7165 4.64167 13.5232 3.65333 14.2198 3.08C14.9998 2.44 15.8048 2.99 15.9448 3.915C16.0582 4.675 16.1398 5.41 16.1898 6.12C16.2065 6.39 16.2982 6.41833 16.4648 6.205C19.0998 2.805 22.3498 1.25 26.4548 0Z" fill="#BAE9FF"/>
<path d="M19.7899 17.1298L16.9899 20.5498C16.9049 20.6522 16.7859 20.7207 16.6547 20.7427C16.5234 20.7648 16.3887 20.7389 16.2749 20.6698L16.1449 20.5898C16.0909 20.556 16.0447 20.511 16.0094 20.458C15.9741 20.4049 15.9505 20.345 15.9401 20.2821C15.9297 20.2193 15.9328 20.1549 15.9491 20.0933C15.9655 20.0317 15.9947 19.9743 16.0349 19.9248L19.0649 16.2398C19.1883 16.0899 19.344 15.9697 19.5203 15.8883C19.6967 15.8069 19.8891 15.7664 20.0833 15.7697C20.2775 15.7731 20.4685 15.8203 20.6419 15.9077C20.8153 15.9952 20.9667 16.1207 21.0849 16.2748L26.0249 22.7298C26.0745 22.7953 26.11 22.8704 26.1291 22.9501C26.1483 23.0299 26.1506 23.1127 26.1361 23.1932C26.1215 23.2737 26.0903 23.3501 26.0444 23.4175C25.9986 23.485 25.9391 23.542 25.8699 23.5848L25.6849 23.6998C25.6156 23.7438 25.5321 23.7599 25.4507 23.7451C25.3694 23.7303 25.296 23.6857 25.2449 23.6198L20.3049 17.1348C20.2752 17.0956 20.2369 17.0637 20.1928 17.0416C20.1488 17.0194 20.1001 17.0077 20.0505 17.0072C20.0009 17.0067 19.9517 17.0175 19.9065 17.0388C19.8614 17.06 19.8215 17.0912 19.7899 17.1298Z" fill="#BAE9FF"/>
<path d="M14.4352 31.4794C18.8452 38.1194 28.8952 33.1244 26.1852 25.4944C26.1653 25.4408 26.16 25.3828 26.1701 25.3265C26.1801 25.2702 26.2051 25.2176 26.2423 25.1742C26.2796 25.1308 26.3278 25.0982 26.382 25.0798C26.4361 25.0613 26.4942 25.0578 26.5502 25.0694L26.8252 25.1244C27.2019 25.2011 27.4319 25.4244 27.5152 25.7944C29.2602 33.4444 20.7802 38.9644 14.8352 33.6544C10.9802 30.2094 11.7302 25.6994 14.6952 21.9544C14.7581 21.8769 14.8468 21.8246 14.945 21.8072C15.0433 21.7897 15.1445 21.8083 15.2302 21.8594L15.3552 21.9394C15.4169 21.9769 15.4705 22.0264 15.5126 22.0848C15.5548 22.1433 15.5847 22.2096 15.6006 22.2796C15.6165 22.3497 15.618 22.4221 15.605 22.4926C15.5921 22.563 15.5649 22.6299 15.5252 22.6894C13.6452 25.5344 12.2902 28.2544 14.4352 31.4794Z" fill="#BAE9FF"/>
</svg>
