<svg width="40" height="40" viewBox="0 0 40 40" fill="none" xmlns="http://www.w3.org/2000/svg">
<path d="M40 12.7151V14.7351C39.6667 16.5018 38.8683 17.9934 37.605 19.2101C37.549 19.2646 37.506 19.3306 37.4791 19.4033C37.4523 19.476 37.4423 19.5536 37.45 19.6301C37.7233 22.6134 36.5283 24.7001 33.865 25.8901C33.6717 25.9768 33.545 26.1218 33.485 26.3251C32.6117 29.2218 30.6983 31.0201 27.745 31.7201C27.5917 31.7568 27.5083 31.8534 27.495 32.0101C27.2417 35.1068 25.6367 37.0968 22.68 37.9801C22.2767 38.1034 22.05 37.9551 22 37.5351L21.975 37.3501C21.9643 37.2498 21.9896 37.149 22.0464 37.0656C22.1032 36.9823 22.1877 36.9218 22.285 36.8951C24.705 36.2351 26.0533 34.6418 26.33 32.1151C26.3533 31.8984 26.2583 31.8101 26.045 31.8501C25.5817 31.9401 25.1833 31.8318 24.85 31.5251C24.7718 31.4549 24.7176 31.3618 24.6953 31.2591C24.673 31.1563 24.6837 31.0492 24.7258 30.9529C24.7678 30.8565 24.8392 30.7759 24.9297 30.7224C25.0203 30.669 25.1253 30.6454 25.23 30.6551C29.935 31.0501 33.23 27.6201 32.44 22.9351C32.4308 22.8793 32.4333 22.8222 32.4473 22.7674C32.4612 22.7126 32.4864 22.6613 32.5211 22.6167C32.5559 22.5721 32.5995 22.5351 32.6492 22.5082C32.6989 22.4813 32.7537 22.4649 32.81 22.4601L32.975 22.4451C33.3883 22.4118 33.61 22.6018 33.64 23.0151L33.75 24.3901C33.7667 24.6201 33.87 24.6701 34.06 24.5401C36.3633 22.9868 36.9117 20.8884 35.705 18.2451C35.6573 18.1425 35.6436 18.0274 35.666 17.9165C35.6884 17.8056 35.7457 17.7048 35.8295 17.6288C35.9133 17.5529 36.0192 17.5057 36.1318 17.4942C36.2443 17.4827 36.3576 17.5076 36.455 17.5651C36.655 17.6818 36.7967 17.8501 36.88 18.0701C36.9567 18.2768 37.06 18.2918 37.19 18.1151C39.5133 15.0118 39.4133 12.0168 36.89 9.13011C36.4967 8.68011 36.2433 8.74844 36.13 9.33511C36.06 9.67844 35.93 9.97511 35.74 10.2251C35.6367 10.3618 35.5 10.4201 35.33 10.4001C35.0833 10.3734 34.92 10.2368 34.84 9.99011C34.7833 9.81678 34.7833 9.64511 34.84 9.47511C36.215 5.14011 31.7 2.30011 27.89 4.61511C27.7633 4.69178 27.75 4.78511 27.85 4.89511L28.78 5.90011C28.865 5.99212 28.9106 6.11363 28.9068 6.23817C28.9031 6.36272 28.8503 6.48023 28.76 6.56511L28.635 6.68511C28.3583 6.95178 28.105 6.93178 27.875 6.62511C26.025 4.18011 22.5 4.48011 20.725 6.86511C20.6405 6.97868 20.5949 7.11547 20.595 7.25511L20.58 9.43511C20.5787 9.55491 20.5302 9.66936 20.445 9.75362C20.3598 9.83787 20.2448 9.88512 20.125 9.88511H19.905C19.5817 9.88511 19.42 9.72511 19.42 9.40511L19.41 6.99011C19.4098 6.81946 19.3457 6.65388 19.23 6.52511C15.24 2.06011 8.44 1.86511 4.22 6.15011C-1.605 12.0601 1.965 20.5801 6.47 25.9101C10.1333 30.2401 14.3517 33.9051 19.125 36.9051C19.1529 36.923 19.1851 36.9331 19.2183 36.9343C19.2514 36.9356 19.2843 36.9278 19.3134 36.912C19.3425 36.8961 19.3669 36.8728 19.3839 36.8443C19.4009 36.8158 19.4099 36.7833 19.41 36.7501L19.415 11.8351C19.415 11.4984 19.5817 11.3351 19.915 11.3451L20.135 11.3551C20.435 11.3651 20.585 11.5218 20.585 11.8251C20.575 14.8984 20.5783 17.9851 20.595 21.0851C20.61 23.4651 21.47 25.0001 23.935 25.1101C23.9916 25.1124 24.0471 25.1265 24.0981 25.1514C24.149 25.1762 24.1942 25.2114 24.2308 25.2546C24.2675 25.2978 24.2948 25.3482 24.311 25.4025C24.3272 25.4568 24.332 25.5139 24.325 25.5701L24.305 25.7451C24.2888 25.882 24.2222 26.0078 24.1185 26.0976C24.0148 26.1874 23.8815 26.2347 23.745 26.2301C22.625 26.1968 21.645 25.8151 20.805 25.0851C20.6717 24.9651 20.6033 24.9951 20.6 25.1751C20.5767 28.9518 20.575 32.7268 20.595 36.5001C20.605 38.1951 19.285 38.4101 18.07 37.6151C11.265 33.1601 2.09 25.2101 0.415 16.7801C0.281667 16.1201 0.143333 15.4618 0 14.8051V12.3151C0.813333 7.87511 2.97833 4.80511 6.495 3.10511C11.17 0.84511 16.305 1.83511 19.91 5.57011C20.0333 5.69678 20.1567 5.69844 20.28 5.57511C22.01 3.84178 24.06 3.36344 26.43 4.14011C26.5933 4.19344 26.74 4.16178 26.87 4.04511C30.25 0.97011 34.97 2.72511 36.125 7.00511C36.1683 7.16178 36.2567 7.28178 36.39 7.36511C38.33 8.59844 39.5333 10.3818 40 12.7151Z" fill="#C9A5D7"/>
<path d="M27.8852 16.2403C27.6786 17.0103 27.6419 17.7919 27.7752 18.5853C27.7881 18.6649 27.7726 18.7466 27.7315 18.816C27.6904 18.8854 27.6262 18.9382 27.5502 18.9653L27.3352 19.0453C27.2705 19.069 27.2015 19.0789 27.1326 19.0745C27.0636 19.07 26.9963 19.0512 26.9348 19.0193C26.8733 18.9873 26.8189 18.943 26.7751 18.8889C26.7313 18.8349 26.699 18.7724 26.6802 18.7053C26.3702 17.5853 26.4786 16.5203 27.0052 15.5103C27.0886 15.3503 27.0719 15.2003 26.9552 15.0603C26.2386 14.2169 25.8836 13.2386 25.8902 12.1253C25.89 12.0239 25.9283 11.9263 25.9972 11.8528C26.0661 11.7793 26.1603 11.7354 26.2602 11.7303L26.4352 11.7203C26.8086 11.7003 27.0119 11.8769 27.0452 12.2503C27.2186 14.2136 28.2836 15.2669 30.2402 15.4103C30.3757 15.4201 30.5027 15.4796 30.5969 15.5775C30.691 15.6753 30.7456 15.8046 30.7502 15.9403L30.7552 16.0853C30.7595 16.1929 30.7222 16.298 30.6513 16.3782C30.5804 16.4585 30.4814 16.5076 30.3752 16.5153C29.6252 16.5753 28.9219 16.4286 28.2652 16.0753C28.2301 16.0566 28.1912 16.0461 28.1514 16.0446C28.1116 16.043 28.072 16.0505 28.0355 16.0663C27.999 16.0822 27.9665 16.106 27.9405 16.1361C27.9145 16.1663 27.8956 16.2019 27.8852 16.2403Z" fill="#C9A5D7"/>
</svg>
