<svg width="40" height="40" viewBox="0 0 40 40" fill="none" xmlns="http://www.w3.org/2000/svg">
<path d="M0 36.6691V27.1391C0.386667 26.8225 0.695 26.7558 0.925 26.9391C1.075 27.0558 1.15 27.2858 1.15 27.6291C1.15333 30.5491 1.15333 33.4475 1.15 36.3241C1.15 36.3851 1.17476 36.4436 1.21883 36.4868C1.2629 36.5299 1.32267 36.5541 1.385 36.5541L7.97 36.5491C8.00713 36.5491 8.04274 36.5338 8.06899 36.5067C8.09525 36.4795 8.11 36.4426 8.11 36.4041V18.4941C8.11 18.3275 8.02833 18.2441 7.865 18.2441L1.455 18.2491C1.255 18.2491 1.155 18.3475 1.155 18.5441L1.15 24.9091C1.15 25.0991 1.06333 25.2358 0.89 25.3191C0.59 25.4591 0.293333 25.3741 0 25.0641V18.0191C0.36 17.4441 0.71 17.1341 1.44 17.1291C3.65667 17.1025 5.88 17.1008 8.11 17.1241C8.28217 17.1273 8.44858 17.1851 8.585 17.2891C9.095 17.6858 9.31667 18.2108 9.25 18.8641C9.23 19.0541 9.29833 19.0941 9.455 18.9841C14.485 15.4508 17.365 10.7908 18.095 5.00412C18.2383 3.88079 18.405 3.19745 18.595 2.95412C20.44 0.629121 23.695 2.58912 24.325 4.79912C24.5017 5.40912 24.4967 6.54412 24.31 8.20412C24.0233 10.7641 23.7417 13.3258 23.465 15.8891C23.445 16.0825 23.5317 16.1808 23.725 16.1841L25.855 16.2141C25.9034 16.2148 25.9511 16.225 25.9955 16.2443C26.0399 16.2635 26.0799 16.2914 26.1134 16.3263C26.1469 16.3612 26.1732 16.4024 26.1906 16.4475C26.208 16.4926 26.2163 16.5408 26.215 16.5891L26.21 16.7891C26.2 17.1758 26.0017 17.3691 25.615 17.3691L22.765 17.3741C22.6872 17.3739 22.6103 17.3573 22.5394 17.3254C22.4684 17.2935 22.4049 17.2471 22.3531 17.1891C22.3012 17.1311 22.2621 17.0629 22.2383 16.9888C22.2145 16.9147 22.2066 16.8365 22.215 16.7591L23.34 6.52412C23.4967 5.09079 22.94 4.03245 21.67 3.34912L21.53 3.26912C20.2 2.55245 19.4533 2.94579 19.29 4.44912C18.545 11.3241 15.125 16.4841 9.485 20.4191C9.41267 20.4681 9.35344 20.5343 9.31247 20.6119C9.27151 20.6895 9.25006 20.7761 9.25 20.8641L9.255 33.8791C9.255 34.0625 9.33833 34.1875 9.505 34.2541C11.4817 35.0641 13.4583 35.8475 15.435 36.6041C16.6 37.0491 17.615 36.9491 18.815 36.9341C18.9628 36.9313 19.106 36.9861 19.2142 37.0868C19.3224 37.1876 19.3872 37.3265 19.395 37.4741L19.4 37.6091C19.4034 37.6669 19.3953 37.7248 19.3763 37.7795C19.3572 37.8342 19.3276 37.8846 19.289 37.9278C19.2505 37.971 19.2038 38.0061 19.1516 38.0312C19.0994 38.0564 19.0428 38.0709 18.985 38.0741C17.52 38.1741 16.335 38.2241 14.905 37.6341C13.1117 36.9008 11.3083 36.1925 9.495 35.5091C9.28833 35.4325 9.20167 35.5041 9.235 35.7241C9.465 37.2591 8.625 37.7141 7.22 37.7141C5.26333 37.7175 3.315 37.7191 1.375 37.7191C0.771667 37.7191 0.313333 37.3691 0 36.6691Z" fill="#F3C7D4"/>
<path d="M39.9998 23.819V25.224C39.6698 26.1807 39.0748 26.9107 38.2148 27.414C38.0714 27.5007 38.0431 27.6157 38.1298 27.759C39.3998 29.859 38.6998 32.189 36.2448 32.799C36.0514 32.8457 36.0064 32.9524 36.1098 33.119C37.5048 35.369 36.2448 37.929 33.4998 37.984C29.5464 38.0707 25.4864 38.1074 21.3198 38.094C21.2618 38.0941 21.2044 38.0824 21.1511 38.0595C21.0979 38.0366 21.0499 38.003 21.0101 37.9609C20.9703 37.9187 20.9395 37.8688 20.9197 37.8144C20.8998 37.7599 20.8914 37.7019 20.8948 37.644L20.9048 37.499C20.9125 37.3465 20.9786 37.2027 21.0893 37.0976C21.2001 36.9924 21.347 36.9338 21.4998 36.934L33.8698 36.929C34.2802 36.9291 34.6743 36.7685 34.9677 36.4816C35.2612 36.1947 35.4306 35.8043 35.4398 35.394L35.4548 34.804C35.4608 34.5551 35.4169 34.3075 35.3256 34.0758C35.2344 33.844 35.0977 33.6328 34.9235 33.4544C34.7493 33.276 34.5412 33.1341 34.3113 33.037C34.0814 32.94 33.8344 32.8896 33.5848 32.889L29.1248 32.879C28.9904 32.879 28.8614 32.826 28.7659 32.7314C28.6704 32.6369 28.6161 32.5084 28.6148 32.374V32.214C28.6141 32.1558 28.6251 32.0981 28.6472 32.0441C28.6693 31.9902 28.7019 31.9411 28.7433 31.8997C28.7847 31.8583 28.834 31.8254 28.8883 31.803C28.9426 31.7806 29.0009 31.769 29.0598 31.769L35.7248 31.764C35.982 31.7643 36.2367 31.7124 36.4733 31.6113C36.7099 31.5102 36.9235 31.3622 37.1011 31.1761C37.2788 30.99 37.4168 30.7698 37.5068 30.5288C37.5968 30.2878 37.637 30.031 37.6248 29.774L37.5998 29.199C37.5806 28.806 37.4116 28.4353 37.1278 28.1636C36.844 27.8919 36.467 27.7399 36.0748 27.739L29.2448 27.734C29.0889 27.7343 28.9388 27.6749 28.8254 27.5679C28.7119 27.461 28.6437 27.3147 28.6348 27.159L28.6248 27.024C28.6207 26.9651 28.6287 26.9059 28.6485 26.8503C28.6682 26.7946 28.6993 26.7436 28.7396 26.7004C28.78 26.6572 28.8288 26.6228 28.883 26.5994C28.9372 26.5759 28.9957 26.5639 29.0548 26.564L37.2348 26.554C37.4409 26.5541 37.6449 26.5128 37.8347 26.4327C38.0245 26.3525 38.1963 26.235 38.3399 26.0872C38.4836 25.9394 38.596 25.7643 38.6707 25.5722C38.7454 25.3801 38.7808 25.175 38.7748 24.969L38.7598 24.454C38.7454 23.9319 38.5279 23.4359 38.1534 23.0717C37.779 22.7075 37.2771 22.5038 36.7548 22.504H28.9998C28.8981 22.5041 28.8003 22.4644 28.7275 22.3934C28.6546 22.3224 28.6124 22.2257 28.6098 22.124L28.6048 21.889C28.6028 21.8221 28.6143 21.7555 28.6388 21.6931C28.6633 21.6307 28.7002 21.5738 28.7473 21.5258C28.7944 21.4778 28.8507 21.4396 28.913 21.4135C28.9753 21.3875 29.0422 21.374 29.1098 21.374L36.1948 21.369C37.5781 21.369 38.2214 20.6807 38.1248 19.304L38.0948 18.869C38.0657 18.4632 37.8846 18.0834 37.5877 17.8061C37.2909 17.5287 36.9004 17.3743 36.4948 17.374H28.2098C28.0666 17.374 27.9292 17.3171 27.8279 17.2159C27.7267 17.1146 27.6698 16.9773 27.6698 16.834L27.6648 16.639C27.6648 16.525 27.7101 16.4156 27.7907 16.335C27.8714 16.2543 27.9807 16.209 28.0948 16.209C30.9914 16.2224 33.7098 16.2224 36.2498 16.209C39.0048 16.194 40.0798 19.469 38.4748 21.469C38.3681 21.599 38.3798 21.719 38.5098 21.829C39.1664 22.3724 39.6631 23.0357 39.9998 23.819Z" fill="#F3C7D4"/>
<path d="M6.6752 33.2941C6.6752 33.8378 6.45921 34.3593 6.07476 34.7437C5.69031 35.1282 5.16889 35.3441 4.6252 35.3441C4.0815 35.3441 3.56008 35.1282 3.17563 34.7437C2.79118 34.3593 2.5752 33.8378 2.5752 33.2941C2.5752 32.7504 2.79118 32.229 3.17563 31.8446C3.56008 31.4601 4.0815 31.2441 4.6252 31.2441C5.16889 31.2441 5.69031 31.4601 6.07476 31.8446C6.45921 32.229 6.6752 32.7504 6.6752 33.2941ZM5.5302 33.3041C5.5302 33.0654 5.43537 32.8365 5.26659 32.6677C5.09781 32.499 4.86889 32.4041 4.6302 32.4041C4.3915 32.4041 4.16258 32.499 3.9938 32.6677C3.82502 32.8365 3.7302 33.0654 3.7302 33.3041C3.7302 33.5428 3.82502 33.7718 3.9938 33.9405C4.16258 34.1093 4.3915 34.2041 4.6302 34.2041C4.86889 34.2041 5.09781 34.1093 5.26659 33.9405C5.43537 33.7718 5.5302 33.5428 5.5302 33.3041Z" fill="#F3C7D4"/>
</svg>
