<svg width="40" height="40" viewBox="0 0 40 40" fill="none" xmlns="http://www.w3.org/2000/svg">
<g clip-path="url(#clip0_2475_168)">
<path d="M0 33.9352V29.7702C0.686667 28.8069 1.94 28.4569 3.76 28.7202C3.96667 28.7502 4.165 28.7252 4.355 28.6452L9.575 26.4802C9.68029 26.4366 9.79811 26.4345 9.90417 26.4745C10.0102 26.5145 10.0964 26.5935 10.145 26.6952L10.215 26.8402C10.2458 26.904 10.2635 26.9734 10.2667 27.0441C10.27 27.1148 10.2589 27.1854 10.2341 27.2514C10.2093 27.3174 10.1713 27.3775 10.1224 27.4281C10.0736 27.4786 10.0149 27.5185 9.95 27.5452L5.115 29.5552C5.02167 29.5952 4.975 29.6669 4.975 29.7702V31.7202C4.975 31.7702 4.99667 31.7852 5.04 31.7652L13 28.6052C13.26 28.5019 13.29 28.3519 13.09 28.1552L11.06 26.1252C10.8422 25.907 10.6934 25.6292 10.6321 25.3261C10.5707 25.023 10.5996 24.7081 10.715 24.4202L14.965 13.7802C14.9766 13.7493 14.98 13.7159 14.9748 13.6833C14.9696 13.6507 14.956 13.62 14.9353 13.5942C14.9146 13.5685 14.8875 13.5486 14.8568 13.5365C14.8261 13.5244 14.7927 13.5205 14.76 13.5252L13.88 13.6602C13.6833 13.6902 13.5133 13.7752 13.37 13.9152L10.53 16.7352C10.3327 16.931 10.0969 17.0835 9.83741 17.183C9.57794 17.2825 9.30058 17.3268 9.02303 17.3132C8.74547 17.2995 8.4738 17.2282 8.22535 17.1037C7.97689 16.9793 7.7571 16.8044 7.58 16.5902L7.26 16.2052C6.99273 15.8803 6.85421 15.4685 6.87081 15.0481C6.8874 14.6277 7.05795 14.2281 7.35 13.9252C9.19667 12.0052 10.4483 10.7702 11.105 10.2202C12.3 9.21023 14.925 9.38022 16.435 9.35522C16.5125 9.3535 16.5883 9.33138 16.655 9.29104C16.7216 9.2507 16.7768 9.19354 16.815 9.12523C17.2917 8.24856 17.985 7.60689 18.895 7.20022C19.065 7.12356 19.1433 6.99023 19.13 6.80023C18.9967 4.82689 19.31 3.21356 20.07 1.96022C21.445 -0.304775 24.57 -0.299775 26.175 1.66522C27.665 3.49022 26.37 7.81522 24.71 8.94522C24.55 9.05522 24.5167 9.19522 24.61 9.36522C24.8567 9.81522 24.9433 10.2986 24.87 10.8152C24.8467 10.9852 24.9017 11.1252 25.035 11.2352C25.715 11.7802 26.28 12.1252 27.21 12.1052C28.7533 12.0719 30.2917 12.0919 31.825 12.1652C32.214 12.1846 32.5805 12.353 32.848 12.6353C33.1154 12.9176 33.263 13.292 33.26 13.6802L33.255 14.1502C33.2526 14.6576 33.053 15.1442 32.6985 15.5071C32.3439 15.8701 31.8622 16.081 31.355 16.0952L25.505 16.2652C25.3942 16.2684 25.2847 16.2389 25.19 16.1802L23.465 15.0652C23.4333 15.0447 23.3975 15.0313 23.36 15.026C23.3226 15.0207 23.2845 15.0236 23.2483 15.0346C23.2122 15.0455 23.1788 15.0642 23.1506 15.0894C23.1224 15.1145 23.1 15.1455 23.085 15.1802L21.3 19.4202C21.2777 19.4726 21.2448 19.5198 21.2033 19.5588C21.1617 19.5978 21.1125 19.6279 21.0585 19.6471C21.0046 19.6664 20.9472 19.6743 20.8898 19.6706C20.8324 19.6668 20.7763 19.6514 20.725 19.6252L20.585 19.5552C20.2717 19.3952 20.1833 19.1519 20.32 18.8252L23.8 10.5252C23.8457 10.4146 23.8628 10.2942 23.8499 10.1752C23.8369 10.0562 23.7943 9.94255 23.7259 9.84475C23.6576 9.74695 23.5657 9.66821 23.4589 9.61584C23.3521 9.56347 23.2338 9.53918 23.115 9.54523C21.8817 9.60856 20.8433 9.20689 20 8.34023C19.8667 8.20356 19.7083 8.16189 19.525 8.21523C19.0483 8.35856 18.63 8.59856 18.27 8.93523C18.2451 8.95811 18.2277 8.98787 18.2198 9.02073C18.2119 9.05359 18.214 9.08804 18.2258 9.1197C18.2377 9.15135 18.2586 9.17877 18.2861 9.19846C18.3135 9.21815 18.3462 9.2292 18.38 9.23022L19.08 9.24522C19.2267 9.24856 19.3267 9.32022 19.38 9.46023C19.5833 9.99689 19.4783 10.2786 19.065 10.3052C17.885 10.3852 16.7717 10.4586 15.725 10.5252C15.585 10.5352 15.515 10.6102 15.515 10.7502L15.53 12.2302C15.53 12.256 15.5352 12.2816 15.5454 12.3053C15.5555 12.329 15.5704 12.3505 15.5891 12.3682C15.6079 12.386 15.63 12.3998 15.6542 12.4087C15.6784 12.4177 15.7042 12.4216 15.73 12.4202L18.37 12.3002C18.4261 12.2975 18.4822 12.3064 18.5349 12.3263C18.5876 12.3462 18.6357 12.3767 18.6764 12.4159C18.7171 12.4552 18.7494 12.5024 18.7715 12.5547C18.7937 12.607 18.805 12.6633 18.805 12.7202V12.8602C18.8017 13.2269 18.6167 13.4169 18.25 13.4302L16.51 13.4952C16.3367 13.5019 16.22 13.5869 16.16 13.7502L14.585 17.8502C14.5217 18.0169 14.5733 18.1352 14.74 18.2052C18.0733 19.5952 21.39 21.0036 24.69 22.4302C25.24 22.6669 25.4283 23.1886 25.255 23.9952C25.2183 24.1619 25.2583 24.3086 25.375 24.4352C25.875 24.9919 26.1467 25.4286 26.19 25.7452C26.5767 28.6219 26.9533 31.4986 27.32 34.3752C27.48 35.6352 28.135 35.7202 28.865 36.4602C30.615 38.2352 29.215 39.7602 27.13 39.8052C25.405 39.8402 23.345 40.1952 22.95 37.8752C22.83 37.1702 23 36.0852 22.85 35.2102C22.4767 32.9836 22.045 30.7686 21.555 28.5652C21.5183 28.4119 21.4233 28.3519 21.27 28.3852C19.875 28.6702 18.965 27.5002 17.715 26.7352C17.575 26.6486 17.4583 26.6736 17.365 26.8102C16.525 28.0502 16.3 29.6102 14.39 29.4002C14.2133 29.3802 14.045 29.4036 13.885 29.4702C11.0983 30.5869 8.31 31.6936 5.52 32.7902C3.795 33.4702 1.885 37.5552 0 33.9352ZM25.785 4.12522C25.265 0.710225 21.36 0.290225 20.665 3.60522C20.625 3.80189 20.6883 3.95522 20.855 4.06522L21.255 4.33022C21.2956 4.35748 21.3412 4.37642 21.3891 4.3859C21.437 4.39538 21.4862 4.39522 21.5337 4.38543C21.5813 4.37563 21.6263 4.35641 21.666 4.32889C21.7057 4.30136 21.7394 4.26611 21.765 4.22522C22.78 2.61522 24.18 3.89023 25.22 4.50523C25.6733 4.77189 25.8617 4.64522 25.785 4.12522ZM22.505 5.04523C21.885 5.78023 21.305 5.50023 20.535 5.22522C20.3817 5.16856 20.2917 5.22023 20.265 5.38023C19.735 8.44023 23.34 9.54023 25.165 6.68022C25.2183 6.59635 25.2541 6.5026 25.2704 6.40458C25.2867 6.30655 25.283 6.20625 25.2597 6.10966C25.2364 6.01306 25.1938 5.92216 25.1346 5.84237C25.0754 5.76258 25.0007 5.69553 24.915 5.64523L23.585 4.86023C23.1717 4.61689 22.8117 4.67856 22.505 5.04523ZM13.48 12.4952L14.09 12.4702C14.2867 12.4636 14.3833 12.3602 14.38 12.1602L14.37 10.8752C14.3667 10.7119 14.2833 10.6219 14.12 10.6052C13.13 10.5052 12.415 10.6152 11.64 11.3252C10.5033 12.3686 9.385 13.4419 8.285 14.5452C8.13197 14.6982 8.04558 14.9054 8.04464 15.1217C8.04371 15.338 8.1283 15.546 8.28 15.7002L8.41 15.8352C8.50295 15.9304 8.61387 16.0061 8.73639 16.0581C8.85891 16.1102 8.99061 16.1374 9.12395 16.1383C9.25729 16.1393 9.38962 16.1138 9.51336 16.0635C9.6371 16.0132 9.7498 15.9391 9.845 15.8452L13.03 12.6852C13.1533 12.5619 13.3033 12.4986 13.48 12.4952ZM24.96 14.6552C24.9812 14.6689 25.0054 14.677 25.0305 14.6789C25.0557 14.6807 25.0808 14.6762 25.1038 14.6657C25.1267 14.6553 25.1466 14.6392 25.1617 14.619C25.1767 14.5988 25.1865 14.5752 25.19 14.5502L25.44 12.9052C25.4439 12.8756 25.4388 12.8455 25.4254 12.8188C25.4121 12.792 25.391 12.7699 25.365 12.7552L24.46 12.2402C24.441 12.2295 24.4198 12.223 24.3981 12.2213C24.3763 12.2196 24.3544 12.2226 24.3339 12.2302C24.3134 12.2379 24.2949 12.2499 24.2795 12.2654C24.2641 12.2809 24.2524 12.2997 24.245 12.3202L23.74 13.7552C23.7277 13.7875 23.727 13.8231 23.7379 13.8559C23.7489 13.8887 23.7708 13.9167 23.8 13.9352L24.96 14.6552ZM26.35 13.3302L26.375 14.9602C26.375 14.9894 26.3866 15.0174 26.4072 15.038C26.4278 15.0586 26.4558 15.0702 26.485 15.0702L30.985 15.0002C31.1452 14.9976 31.3035 14.9723 31.4508 14.9256C31.598 14.879 31.7314 14.8119 31.8433 14.7284C31.9552 14.6448 32.0434 14.5463 32.1029 14.4385C32.1624 14.3307 32.192 14.2158 32.19 14.1002V14.0102C32.1881 13.8947 32.1546 13.7807 32.0914 13.675C32.0283 13.5692 31.9368 13.4737 31.8221 13.3938C31.7074 13.3139 31.5718 13.2513 31.423 13.2095C31.2743 13.1677 31.1152 13.1476 30.955 13.1502L26.455 13.2202C26.4267 13.2215 26.4 13.2337 26.3804 13.2542C26.3609 13.2746 26.35 13.3019 26.35 13.3302ZM11.705 24.9302C11.6831 24.984 11.6776 25.0431 11.6892 25.1C11.7008 25.157 11.7289 25.2092 11.77 25.2502L14.76 28.2602C14.7919 28.2924 14.8308 28.3169 14.8737 28.3316C14.9166 28.3464 14.9624 28.351 15.0073 28.3452C15.0523 28.3394 15.0954 28.3233 15.1331 28.2981C15.1709 28.273 15.2023 28.2395 15.225 28.2002L19.02 21.5902C19.0409 21.5537 19.0538 21.5131 19.0577 21.4712C19.0617 21.4293 19.0566 21.3871 19.0429 21.3473C19.0292 21.3075 19.0071 21.2711 18.9781 21.2406C18.9492 21.21 18.914 21.1861 18.875 21.1702L14.345 19.2702C14.3089 19.2547 14.2701 19.2465 14.2309 19.2462C14.1916 19.2458 14.1527 19.2534 14.1164 19.2683C14.08 19.2832 14.0471 19.3052 14.0194 19.333C13.9916 19.3608 13.9698 19.3938 13.955 19.4302L11.705 24.9302ZM24.16 23.8702C24.192 23.8364 24.2153 23.7954 24.2281 23.7506C24.2408 23.7058 24.2426 23.6586 24.2333 23.613C24.224 23.5674 24.2038 23.5247 24.1745 23.4886C24.1452 23.4524 24.1077 23.4238 24.065 23.4052L20.48 21.8552C20.4144 21.8258 20.3403 21.8218 20.2719 21.844C20.2035 21.8662 20.1458 21.9129 20.11 21.9752L18.185 25.3252C18.1495 25.3878 18.1385 25.4614 18.1542 25.5316C18.1699 25.6018 18.2112 25.6637 18.27 25.7052L20.54 27.3002C20.5964 27.34 20.6652 27.3583 20.734 27.3519C20.8027 27.3455 20.8669 27.3147 20.915 27.2652L24.16 23.8702ZM23.905 34.5152C23.9247 34.6176 23.9793 34.71 24.0596 34.7766C24.1398 34.8431 24.2407 34.8798 24.345 34.8802L25.72 34.8702C25.7836 34.87 25.8464 34.8563 25.9043 34.83C25.9623 34.8037 26.0139 34.7655 26.056 34.7177C26.098 34.67 26.1295 34.6139 26.1483 34.5532C26.1671 34.4924 26.1728 34.4284 26.165 34.3652L25.055 25.6702C25.0442 25.5868 25.0102 25.508 24.957 25.4429C24.9037 25.3778 24.8332 25.3289 24.7535 25.3018C24.6739 25.2748 24.5882 25.2706 24.5063 25.2897C24.4243 25.3089 24.3494 25.3506 24.29 25.4102L22.64 27.0802C22.5884 27.1328 22.5504 27.1972 22.5295 27.2678C22.5086 27.3384 22.5053 27.4131 22.52 27.4852L23.905 34.5152ZM3.465 32.7752C4.03 31.9302 3.8 31.0852 3.82 30.1352C3.82333 29.9252 3.72 29.8202 3.51 29.8202L1.495 29.8452C1.40304 29.8465 1.3153 29.884 1.25074 29.9495C1.18618 30.015 1.14999 30.1033 1.15 30.1952L1.155 33.6452C1.1553 33.7509 1.1835 33.8546 1.23675 33.9459C1.29 34.0372 1.36641 34.1127 1.45825 34.165C1.55009 34.2173 1.6541 34.2444 1.75977 34.2435C1.86543 34.2427 1.969 34.2139 2.06 34.1602C2.60333 33.8336 3.07167 33.3719 3.465 32.7752ZM24.05 36.5452L24.09 37.9252C24.1033 38.3752 24.335 38.6136 24.785 38.6402C25.7417 38.6969 26.6883 38.7169 27.625 38.7002C28.0883 38.6902 28.355 38.4936 28.425 38.1102C28.4783 37.8236 28.3983 37.5819 28.185 37.3852L26.92 36.2052C26.7691 36.067 26.5729 35.9903 26.37 35.9902L24.58 35.9952C24.2133 35.9986 24.0367 36.1819 24.05 36.5452Z" fill="#FDC79B"/>
<path d="M40.0001 33.8347V35.4798C37.6351 43.8598 26.5851 38.5698 30.6601 31.9048C31.9151 29.8548 34.7401 29.1298 36.9051 30.0598C38.4351 30.7164 39.4668 31.9747 40.0001 33.8347ZM38.8501 34.7247C38.8501 33.6798 38.435 32.6776 37.6961 31.9387C36.9572 31.1999 35.9551 30.7848 34.9101 30.7848C33.8652 30.7848 32.863 31.1999 32.1241 31.9387C31.3852 32.6776 30.9701 33.6798 30.9701 34.7247C30.9701 35.7697 31.3852 36.7719 32.1241 37.5108C32.863 38.2496 33.8652 38.6648 34.9101 38.6648C35.9551 38.6648 36.9572 38.2496 37.6961 37.5108C38.435 36.7719 38.8501 35.7697 38.8501 34.7247Z" fill="#FDC79B"/>
</g>
<defs>
<clipPath id="clip0_2475_168">
<rect width="40" height="40" fill="white"/>
</clipPath>
</defs>
</svg>
