<svg width="40" height="40" viewBox="0 0 40 40" fill="none" xmlns="http://www.w3.org/2000/svg">
<rect x="4.6" y="4.6" width="30.8" height="30.8" rx="2.4" stroke="#BE94C6" stroke-width="1.2"/>
<path d="M24.5712 30.2854C24.4423 30.2854 24.3158 30.265 24.1918 30.224C24.0677 30.1831 23.9512 30.1171 23.8421 30.0262L22.9641 29.2893C21.8827 28.4068 20.9279 27.5449 20.0995 26.7033C19.2711 25.8618 18.8569 24.9453 18.8569 23.9537C18.8569 23.1531 19.1546 22.4844 19.7498 21.9477C20.345 21.411 21.0841 21.1426 21.9671 21.1426C22.473 21.1426 22.9517 21.2404 23.4031 21.436C23.8545 21.6316 24.2438 21.9113 24.5712 22.2752C24.9184 21.9113 25.3128 21.6316 25.7543 21.436C26.1957 21.2404 26.6694 21.1426 27.1754 21.1426C28.0583 21.1426 28.7974 21.411 29.3926 21.9477C29.9879 22.4844 30.2855 23.1531 30.2855 23.9537C30.2855 24.9453 29.8713 25.8618 29.0429 26.7033C28.2146 27.5449 27.2597 28.4068 26.1784 29.2893L25.3004 30.0262C25.1913 30.1171 25.0747 30.1831 24.9507 30.224C24.8267 30.265 24.7002 30.2854 24.5712 30.2854Z" fill="#BE94C6"/>
</svg>
