<svg width="40" height="40" viewBox="0 0 40 40" fill="none" xmlns="http://www.w3.org/2000/svg">
<path d="M40 21.3832V21.8575C39.6305 22.3032 39.1848 22.6823 38.6629 22.9947C38.5029 23.0899 38.3562 23.0708 38.2229 22.9375L34.9086 19.6632C34.8791 19.6318 34.8403 19.6108 34.7979 19.6032C34.7555 19.5956 34.7118 19.6019 34.6733 19.6212C34.6347 19.6404 34.6035 19.6716 34.5841 19.7101C34.5647 19.7485 34.5583 19.7922 34.5657 19.8347C36.4114 33.3489 23.4571 42.2518 11.2971 36.1375C11.1295 36.0537 10.9771 36.0766 10.84 36.2061C9.08 37.867 7.28952 37.9337 5.46857 36.4061C3.64 34.8747 1.81714 32.8442 0 30.3147V28.7204C0.542857 26.9375 2.29714 25.6975 3.37714 24.5375C3.5219 24.3851 3.59048 24.2042 3.58286 23.9947C3.38095 17.1032 6.22667 12.0099 12.12 8.71465C12.1767 8.68315 12.2392 8.66346 12.3037 8.65678C12.3682 8.65011 12.4335 8.65658 12.4954 8.6758C12.5574 8.69503 12.6148 8.72661 12.6642 8.76865C12.7136 8.81068 12.754 8.86229 12.7829 8.92037L12.88 9.12037C13.021 9.40227 12.9505 9.61751 12.6686 9.76608C9.2781 11.507 6.92 14.1699 5.59429 17.7547C5.44571 18.1547 5.57524 18.2937 5.98286 18.1718C6.44381 18.0347 6.94857 17.8308 7.49714 17.5604C8.64571 16.9947 9.45143 17.5947 9.06857 18.8347C8.32 21.2632 9.17714 22.1032 10.4171 23.9889C10.76 24.5032 10.6495 25.2042 10.0857 26.0918C10.0779 26.1056 10.0731 26.1209 10.0718 26.1366C10.0705 26.1523 10.0727 26.168 10.0782 26.1824C10.0838 26.1968 10.0925 26.2095 10.1037 26.2195C10.1149 26.2296 10.1283 26.2367 10.1429 26.2404C10.1886 26.2556 10.2362 26.2708 10.2857 26.2861C10.3238 26.2975 10.36 26.2842 10.3943 26.2461L14.8114 21.8175C14.9562 21.6727 14.9771 21.5127 14.8743 21.3375C13.5086 18.9947 12.7543 17.4289 14.6686 15.1204C15.4571 14.1661 15.2971 13.4575 15.2514 12.2861C15.1886 10.8518 16.6629 9.62894 17.4286 8.50894C17.5771 8.2918 17.5238 8.2118 17.2686 8.26894L15.1429 8.74322C15.0442 8.76499 14.941 8.75587 14.8471 8.71708C14.7531 8.67829 14.6729 8.61166 14.6171 8.52608L14.4857 8.32608C14.454 8.27622 14.4342 8.21979 14.4276 8.16108C14.421 8.10238 14.4279 8.04294 14.4477 7.9873C14.4675 7.93166 14.4998 7.88127 14.542 7.83997C14.5843 7.79866 14.6354 7.76753 14.6914 7.74894C16.9924 7.00608 19.3276 6.84989 21.6971 7.28037C22.3867 7.40608 22.4838 7.22132 21.9886 6.72608L19.12 3.85751C18.9935 3.73121 18.91 3.56831 18.8813 3.39191C18.8526 3.21551 18.8801 3.03454 18.96 2.87465C19.4286 1.94132 20.1029 1.6937 20.9829 2.1318C22.2971 2.78703 23.6152 3.42513 24.9371 4.04608C25.027 4.08744 25.1282 4.09636 25.2232 4.0713C25.3183 4.04625 25.401 3.98879 25.4571 3.90894C25.701 3.56227 26.0038 3.28037 26.3657 3.06322C26.5333 2.96418 26.7086 2.94894 26.8914 3.01751C28.0914 3.45561 28.5352 4.21751 28.2229 5.30322C28.1657 5.50894 28.2324 5.65941 28.4229 5.75465L30.6914 6.88037C30.7941 6.93047 30.9107 6.94361 31.0212 6.91754C31.1318 6.89147 31.2293 6.82781 31.2971 6.73751C32.5276 5.10322 34.0591 3.92418 35.8914 3.20037C38.1086 2.32037 39.4514 3.70322 38.6057 5.8918C37.8895 7.74322 36.7505 9.24227 35.1886 10.3889C35.0585 10.4831 34.9659 10.6202 34.9272 10.776C34.8885 10.9318 34.9062 11.0963 34.9771 11.2404L36.1086 13.5432C36.2114 13.7566 36.3562 13.7908 36.5429 13.6461L36.7829 13.4632C36.9581 13.3299 37.1486 13.3089 37.3543 13.4004C38.0552 13.7204 38.5581 14.2347 38.8629 14.9432C38.9505 15.1527 38.9162 15.3394 38.76 15.5032L37.8571 16.4404C37.7124 16.5927 37.6876 16.7642 37.7829 16.9547L40 21.3832ZM26.1429 12.1432C26.1124 11.9032 26.1848 11.7089 26.36 11.5604C26.3934 11.5331 26.4207 11.4991 26.4401 11.4606C26.4596 11.4221 26.4707 11.3799 26.4729 11.3369C26.475 11.2938 26.4681 11.2507 26.4526 11.2105C26.4371 11.1703 26.4134 11.1337 26.3829 11.1032L24.6 9.31465C24.4705 9.18894 24.3219 9.16037 24.1543 9.22894C23.3238 9.58703 22.661 9.40037 22.1657 8.66894C22.1122 8.59018 22.0419 8.52424 21.9599 8.47583C21.8779 8.42743 21.7862 8.39775 21.6914 8.38894L19.6343 8.18894C19.4476 8.1737 19.2933 8.23656 19.1714 8.37751C18.4362 9.21941 17.7067 10.0708 16.9829 10.9318C15.88 12.2461 16.8686 13.7261 16.04 15.1661C15.7581 15.6537 15.3981 16.0975 14.96 16.4975C14.8791 16.5694 14.8139 16.6573 14.7687 16.7557C14.7234 16.854 14.6991 16.9607 14.6971 17.0689C14.659 18.3566 15.0152 19.5089 15.7657 20.5261C15.7844 20.5507 15.8082 20.571 15.8354 20.5857C15.8625 20.6004 15.8926 20.6091 15.9234 20.6113C15.9542 20.6135 15.9852 20.609 16.0141 20.5983C16.0431 20.5875 16.0695 20.5707 16.0914 20.5489L17.7429 18.8804C17.7619 18.8617 17.777 18.8395 17.7873 18.815C17.7976 18.7905 17.8029 18.7641 17.8029 18.7375C17.8029 18.7109 17.7976 18.6846 17.7873 18.66C17.777 18.6355 17.7619 18.6133 17.7429 18.5947L16.0229 16.8861C15.9611 16.8248 15.9218 16.7442 15.9115 16.6572C15.9011 16.5701 15.9202 16.4817 15.9657 16.4061C16.2629 15.9261 16.6381 15.5051 17.0914 15.1432C17.259 15.0061 17.4419 14.9813 17.64 15.0689L21.1657 16.6232C21.2559 16.6612 21.3554 16.6706 21.4506 16.6502C21.5457 16.6297 21.6319 16.5804 21.6971 16.5089L24.3029 13.5661C24.5086 13.3299 24.7238 13.3223 24.9486 13.5432L25.1086 13.6975C25.1833 13.7699 25.2277 13.868 25.233 13.9719C25.2383 14.0758 25.2041 14.1779 25.1371 14.2575L22.4229 17.4747C22.2589 17.6682 22.0374 17.8041 21.7906 17.8628C21.5439 17.9214 21.2849 17.8995 21.0514 17.8004L17.7257 16.3718C17.6881 16.3555 17.6463 16.3525 17.6071 16.3634C17.5678 16.3742 17.5334 16.3983 17.5091 16.4317C17.4848 16.4652 17.4722 16.5061 17.4731 16.548C17.474 16.59 17.4885 16.6305 17.5143 16.6632C18.3086 17.5947 19.9486 18.7947 20.4571 19.8232C20.72 20.3566 20.7067 20.7832 20.4171 21.1032C19.7848 21.7966 19.8838 21.9299 20.7143 21.5032C22.3086 20.6861 23.9371 23.2632 25.0914 24.2347C25.1271 24.2648 25.1722 24.2821 25.2192 24.2839C25.2663 24.2856 25.3123 24.2716 25.3498 24.2442C25.3872 24.2168 25.4137 24.1776 25.425 24.1332C25.4362 24.0889 25.4314 24.042 25.4114 24.0004L24.0286 20.8118C23.9314 20.5913 23.9051 20.3463 23.9532 20.1107C24.0013 19.8752 24.1215 19.6609 24.2971 19.4975L29.7486 14.4061C29.9654 14.2033 30.253 14.0933 30.5498 14.0997C30.8467 14.1061 31.1292 14.2284 31.3371 14.4404L33.8457 16.9832C33.9905 17.1318 34.0267 17.3032 33.9543 17.4975C33.8629 17.7413 33.7333 18.0023 33.5657 18.2804C33.5048 18.3832 33.5048 18.4823 33.5657 18.5775C33.6686 18.7375 33.7867 18.7508 33.92 18.6175C34.1371 18.408 34.3867 18.2556 34.6686 18.1604C34.8629 18.0956 35.0324 18.1356 35.1771 18.2804L37.9429 21.0518C38.7162 21.8289 38.861 21.7261 38.3771 20.7432L36.4114 16.7489C36.3613 16.6451 36.3442 16.5288 36.3626 16.4161C36.3811 16.3034 36.4341 16.2 36.5143 16.1204L37.3886 15.2575C37.4495 15.1966 37.4781 15.1223 37.4743 15.0347C37.4743 14.9661 37.4743 14.8956 37.4743 14.8232C37.4743 14.7956 37.4672 14.7685 37.4537 14.7445C37.4401 14.7204 37.4206 14.7 37.3967 14.6853C37.3729 14.6705 37.3456 14.6618 37.3172 14.66C37.2888 14.6581 37.2603 14.6632 37.2343 14.6747C36.9524 14.8042 36.7143 14.9966 36.52 15.2518C36.4654 15.3232 36.3934 15.3794 36.3109 15.4151C36.2284 15.4508 36.1381 15.4647 36.0487 15.4555C35.9593 15.4463 35.8737 15.4144 35.8002 15.3627C35.7266 15.311 35.6675 15.2414 35.6286 15.1604L33.6914 11.1947C33.6056 11.0177 33.5787 10.8179 33.6147 10.6246C33.6506 10.4313 33.7477 10.2545 33.8914 10.1204C35.6514 8.4918 37.1257 7.1718 37.7657 4.71465C37.7894 4.62614 37.7903 4.53306 37.7684 4.4441C37.7464 4.35513 37.7023 4.27318 37.6401 4.20587C37.5779 4.13856 37.4997 4.08808 37.4128 4.05914C37.3258 4.0302 37.233 4.02374 37.1429 4.04037C34.8857 4.43465 33.2286 6.2118 31.7029 7.80037C31.5433 7.96605 31.3355 8.07692 31.1095 8.11697C30.8836 8.15703 30.6511 8.1242 30.4457 8.02322L26.6171 6.14322C26.5247 6.09905 26.4464 6.03013 26.3908 5.94411C26.3351 5.8581 26.3044 5.75836 26.3021 5.65596C26.2997 5.55356 26.3258 5.45251 26.3773 5.36401C26.4289 5.27552 26.504 5.20306 26.5943 5.15465C26.8762 5.00608 27.0171 4.77941 27.0171 4.47465C27.0169 4.42511 27.002 4.37675 26.9744 4.33564C26.9467 4.29453 26.9075 4.2625 26.8618 4.24357C26.816 4.22465 26.7656 4.21967 26.717 4.22927C26.6684 4.23886 26.6237 4.2626 26.5886 4.29751L25.5771 5.3318C25.4476 5.46132 25.299 5.48608 25.1314 5.40608L21.1257 3.46894C20.1162 2.98132 20.0076 3.1337 20.8 3.92608L23.4914 6.6118C23.6819 6.80227 23.701 7.00989 23.5486 7.23465L23.12 7.86322C23.099 7.89332 23.0868 7.92861 23.0845 7.96522C23.0823 8.00183 23.0901 8.03835 23.1072 8.0708C23.1243 8.10324 23.15 8.13036 23.1815 8.14918C23.213 8.168 23.249 8.1778 23.2857 8.17751C23.6171 8.1737 23.9181 8.08037 24.1886 7.89751C24.2644 7.84677 24.3548 7.82213 24.4465 7.82728C24.5381 7.83243 24.626 7.86709 24.6971 7.92608C25.6 8.67275 26.4629 9.45751 27.2857 10.2804C28.04 11.0347 27.6114 12.8347 26.4514 12.5032C26.2686 12.4499 26.1657 12.3299 26.1429 12.1432ZM33.6057 22.1261L33.3943 20.0975C33.387 20.0203 33.3627 19.9455 33.3233 19.8784C33.2838 19.8113 33.23 19.7534 33.1657 19.7089C32.4076 19.1832 32.2076 18.4918 32.5657 17.6347C32.5977 17.5565 32.6061 17.4708 32.5898 17.3885C32.5735 17.3061 32.5333 17.2307 32.4743 17.1718L30.6914 15.4404C30.581 15.3299 30.4648 15.3261 30.3429 15.4289C28.7943 16.7375 26.8571 18.3261 26.9657 19.9832C26.9771 20.1775 27.08 20.2785 27.2743 20.2861C29.4724 20.3927 31.4629 21.0766 33.2457 22.3375C33.52 22.5318 33.64 22.4613 33.6057 22.1261ZM9.24 24.2289C8.24572 22.4004 6.81714 21.3718 7.93714 18.8461C7.94272 18.8326 7.94449 18.8177 7.94224 18.8033C7.93998 18.7888 7.93381 18.7752 7.92438 18.764C7.91495 18.7529 7.90263 18.7445 7.88876 18.7398C7.87489 18.7351 7.86 18.7343 7.84571 18.7375L5.26857 19.4975C5.14667 19.5356 5.07429 19.6156 5.05143 19.7375C4.38095 23.2194 4.8781 26.5089 6.54286 29.6061C6.65714 29.8118 6.7981 29.8327 6.96571 29.6689L8.52571 28.1147C8.66286 27.9775 8.74857 27.8137 8.78286 27.6232L9.32 24.7204C9.35048 24.5489 9.32381 24.3851 9.24 24.2289ZM16.3429 29.8347C16.0381 29.6404 16.0133 29.4156 16.2686 29.1604L22.0114 23.4061C22.0506 23.3664 22.0816 23.3194 22.1025 23.2677C22.1235 23.216 22.134 23.1607 22.1334 23.1049C22.1329 23.0491 22.1213 22.994 22.0994 22.9427C22.0775 22.8914 22.0457 22.845 22.0057 22.8061L21.8 22.6118C21.7157 22.5294 21.6042 22.4804 21.4865 22.4741C21.3687 22.4678 21.2527 22.5046 21.16 22.5775C19.7771 23.6747 18.4 22.0804 19.1429 20.6861C19.2533 20.4804 19.2933 20.3089 19.2629 20.1718C19.2171 19.9623 19.0933 19.827 18.8914 19.7661C18.7086 19.7051 18.5467 19.7432 18.4057 19.8804C14.3638 23.8727 10.3448 27.8899 6.34857 31.9318C5.72571 32.5604 5.06286 32.7947 4.25143 33.0747C4.06857 33.1394 4.04 33.2442 4.16571 33.3889C5.53714 35.0118 7.84571 37.5318 9.62286 35.7661C11.2381 34.1661 12.8629 32.5661 14.4971 30.9661C14.5379 30.9267 14.5869 30.8968 14.6406 30.8786C14.6943 30.8604 14.7514 30.8544 14.8077 30.8609C14.864 30.8675 14.9181 30.8865 14.9662 30.9165C15.0143 30.9466 15.0551 30.9869 15.0857 31.0347L15.1886 31.2004C15.3562 31.4632 15.3314 31.707 15.1143 31.9318L13.7829 33.3089C13.7464 33.3455 13.7208 33.3914 13.7088 33.4415C13.6968 33.4917 13.6989 33.5442 13.7148 33.5933C13.7308 33.6424 13.76 33.6861 13.7992 33.7196C13.8385 33.7531 13.8862 33.7751 13.9371 33.7832C15.4648 34.0499 16.2438 34.9566 16.2743 36.5032C16.2781 36.7356 16.3981 36.8594 16.6343 36.8747L19.7657 37.0404C20.0095 37.0556 20.2248 36.9832 20.4114 36.8232C22.3257 35.1947 21.96 33.2118 23.8343 31.7089C23.881 31.6714 23.9193 31.6245 23.9467 31.5713C23.9742 31.5181 23.99 31.4599 23.9932 31.4005C23.9965 31.341 23.987 31.2817 23.9656 31.2266C23.9441 31.1714 23.911 31.1215 23.8686 31.0804C21.6857 28.9032 21.2286 27.0861 23.5714 24.7204C23.5959 24.6958 23.6153 24.6666 23.6282 24.6343C23.6412 24.602 23.6476 24.5674 23.6471 24.5323C23.6466 24.4972 23.6391 24.4625 23.6251 24.43C23.6112 24.3976 23.591 24.3681 23.5657 24.3432L23.4457 24.2289C23.2324 24.0232 23.021 24.0251 22.8114 24.2347L17.1886 29.8689C17.1022 29.9562 16.9894 30.0118 16.8688 30.0263C16.7481 30.0409 16.6271 30.0136 16.5257 29.9489L16.3429 29.8347ZM25.9943 20.8004L25.6571 20.0175C25.6386 19.9745 25.6088 19.9372 25.571 19.9096C25.5332 19.8819 25.4886 19.8649 25.442 19.8602C25.3954 19.8556 25.3484 19.8635 25.3058 19.8831C25.2633 19.9027 25.2267 19.9333 25.2 19.9718C25.0552 20.1813 25.0343 20.3889 25.1371 20.5947C25.9029 22.1032 26.4724 23.4899 26.8457 24.7547C26.9029 24.9451 27.0171 24.9927 27.1886 24.8975C29.5943 23.5375 31.04 25.1432 32.7886 26.3318C32.9981 26.4727 33.1276 26.4194 33.1771 26.1718L33.5086 24.4175C33.5293 24.3077 33.5206 24.1944 33.4835 24.0891C33.4464 23.9837 33.3821 23.89 33.2971 23.8175C31.4838 22.2708 29.3771 21.4842 26.9771 21.4575C26.7675 21.454 26.5633 21.3901 26.389 21.2736C26.2147 21.157 26.0777 20.9927 25.9943 20.8004ZM25.0743 31.2918C25.0229 32.8804 23.6971 32.7947 23.3486 34.2232C23.1619 35.008 22.84 35.7489 22.3829 36.4461C22.2381 36.6708 22.2952 36.747 22.5543 36.6747C27.3352 35.3794 30.6952 32.4537 32.6343 27.8975C32.6603 27.834 32.6643 27.7637 32.6456 27.6983C32.6269 27.6329 32.5866 27.5762 32.5314 27.5375C31.3829 26.7204 29.68 25.1089 28.1714 25.6461C26.7714 26.1432 25.9257 26.0575 24.6343 25.5889C24.4514 25.5242 24.301 25.5718 24.1829 25.7318C22.6914 27.7718 22.88 28.5718 24.6514 30.2632C24.9448 30.5451 25.0857 30.888 25.0743 31.2918ZM3.16571 26.3604C2.04571 27.2404 0.88 28.5489 1.23429 30.0632C1.70857 32.0861 4.40571 32.5489 5.68 30.8975C5.7981 30.7451 5.80762 30.587 5.70857 30.4232C4.86286 28.9985 4.27619 27.4708 3.94857 25.8404C3.94148 25.8081 3.92493 25.7788 3.90104 25.756C3.87715 25.7332 3.847 25.7181 3.81447 25.7126C3.78194 25.7071 3.7485 25.7114 3.71843 25.725C3.68837 25.7386 3.66305 25.7609 3.64571 25.7889L3.55429 25.9261C3.45143 26.0937 3.3219 26.2385 3.16571 26.3604ZM12.5029 34.4461L12.1943 35.0975C12.1769 35.1362 12.1756 35.1801 12.1906 35.2198C12.2056 35.2594 12.2357 35.2915 12.2743 35.3089L13.9829 36.1147C14.2171 36.2253 14.4601 36.2936 14.6584 36.3043C14.8566 36.315 14.9939 36.2673 15.04 36.1718L15.1429 35.9547C15.1874 35.8585 15.1372 35.7228 15.0033 35.5771C14.8694 35.4314 14.6627 35.2877 14.4286 35.1775L12.7143 34.3718C12.6763 34.354 12.6329 34.3519 12.5934 34.3657C12.5539 34.3796 12.5214 34.4085 12.5029 34.4461Z" fill="#97C5F6"/>
</svg>
