<svg width="40" height="40" viewBox="0 0 40 40" fill="none" xmlns="http://www.w3.org/2000/svg">
<path d="M40 3.55469V31.7597L23.025 31.7897C22.955 31.7897 22.92 31.8247 22.92 31.8947L22.9 32.8847C22.9 32.958 22.9367 32.9947 23.01 32.9947L29.57 32.9997C30.7467 32.9997 31.5617 33.543 32.015 34.6297L32.16 34.9697C32.5867 35.9897 32.2483 36.4997 31.145 36.4997H8.85C7.73333 36.4997 7.40333 35.9897 7.86 34.9697L8.025 34.5997C8.50167 33.533 9.325 32.9997 10.495 32.9997H16.87C17.0333 32.9997 17.115 32.918 17.115 32.7547V31.1297C17.115 30.9958 17.1682 30.8673 17.2629 30.7726C17.3576 30.6779 17.4861 30.6247 17.62 30.6247H26.875C27.0417 30.6247 27.1267 30.5414 27.13 30.3747L27.14 29.7747C27.1407 29.7263 27.1317 29.6783 27.1137 29.6335C27.0956 29.5886 27.0688 29.5478 27.0349 29.5134C27.0009 29.4789 26.9605 29.4516 26.9158 29.4329C26.8712 29.4143 26.8234 29.4047 26.775 29.4047L2.83 29.4147C2.70933 29.4147 2.5936 29.3662 2.50827 29.28C2.42294 29.1937 2.375 29.0767 2.375 28.9547V6.37469C2.375 6.24341 2.42768 6.1175 2.52145 6.02467C2.61521 5.93184 2.74239 5.87969 2.875 5.87969H37.14C37.2766 5.87969 37.4076 5.93342 37.5042 6.02906C37.6007 6.12471 37.655 6.25443 37.655 6.38969L37.66 28.8697C37.66 29.0107 37.6043 29.146 37.5051 29.2462C37.4058 29.3464 37.271 29.4034 37.13 29.4047H35.605C35.5586 29.4046 35.5127 29.4141 35.4701 29.4326C35.4275 29.4512 35.3891 29.4784 35.3572 29.5126C35.3254 29.5468 35.3008 29.5872 35.2849 29.6314C35.269 29.6757 35.2623 29.7227 35.265 29.7697L35.3 30.3147C35.31 30.5247 35.42 30.6297 35.63 30.6297L38.605 30.6247C38.6673 30.6247 38.7271 30.5999 38.7712 30.5559C38.8152 30.5118 38.84 30.452 38.84 30.3897L38.845 4.99969C38.845 4.90819 38.8087 4.82044 38.744 4.75574C38.6793 4.69104 38.5915 4.65469 38.5 4.65469L1.375 4.65969C1.31798 4.65969 1.26329 4.68234 1.22297 4.72266C1.18265 4.76298 1.16 4.81767 1.16 4.87469L1.155 30.3897C1.155 30.5464 1.23333 30.6247 1.39 30.6247H15.49C15.5887 30.6246 15.6837 30.6624 15.7554 30.7303C15.8271 30.7982 15.8699 30.8911 15.875 30.9897L15.88 31.1847C15.9 31.6014 15.7017 31.8097 15.285 31.8097L0 31.7497V3.55969L40 3.55469ZM36.5 7.20969C36.5 7.16195 36.481 7.11616 36.4473 7.08241C36.4135 7.04865 36.3677 7.02969 36.32 7.02969H3.68C3.63226 7.02969 3.58648 7.04865 3.55272 7.08241C3.51896 7.11616 3.5 7.16195 3.5 7.20969V28.1597C3.5 28.2074 3.51896 28.2532 3.55272 28.287C3.58648 28.3207 3.63226 28.3397 3.68 28.3397H36.32C36.3677 28.3397 36.4135 28.3207 36.4473 28.287C36.481 28.2532 36.5 28.2074 36.5 28.1597V7.20969ZM29.4566 29.7082C29.4554 29.6662 29.4459 29.6248 29.4288 29.5864C29.4116 29.5481 29.3871 29.5135 29.3565 29.4846C29.326 29.4557 29.2901 29.4331 29.2508 29.4182C29.2115 29.4032 29.1697 29.3961 29.1277 29.3972L28.5779 29.4126C28.5359 29.4138 28.4946 29.4232 28.4562 29.4404C28.4178 29.4575 28.3832 29.4821 28.3544 29.5126C28.3255 29.5431 28.3029 29.5791 28.2879 29.6183C28.2729 29.6576 28.2658 29.6994 28.267 29.7414L28.2834 30.3312C28.2846 30.3732 28.2941 30.4146 28.3112 30.4529C28.3284 30.4913 28.3529 30.5259 28.3835 30.5548C28.414 30.5837 28.4499 30.6062 28.4892 30.6212C28.5285 30.6362 28.5703 30.6433 28.6123 30.6421L29.1621 30.6268C29.2041 30.6256 29.2454 30.6162 29.2838 30.599C29.3222 30.5819 29.3568 30.5573 29.3856 30.5268C29.4145 30.4962 29.4371 30.4603 29.4521 30.421C29.4671 30.3818 29.4742 30.3399 29.473 30.2979L29.4566 29.7082ZM31.854 29.707C31.8561 29.6314 31.8281 29.5581 31.7761 29.5032C31.7242 29.4483 31.6526 29.4163 31.577 29.4141L30.9173 29.3957C30.8417 29.3936 30.7684 29.4216 30.7135 29.4735C30.6586 29.5255 30.6266 29.5971 30.6245 29.6726L30.6061 30.3324C30.6039 30.4079 30.6319 30.4812 30.6839 30.5362C30.7358 30.5911 30.8074 30.6231 30.8829 30.6252L31.5427 30.6436C31.6183 30.6457 31.6916 30.6178 31.7465 30.5658C31.8014 30.5139 31.8334 30.4423 31.8356 30.3667L31.854 29.707ZM34.1173 29.697C34.1156 29.6557 34.1059 29.6151 34.0885 29.5775C34.0711 29.54 34.0466 29.5062 34.0162 29.4782C33.9858 29.4501 33.9501 29.4283 33.9113 29.4141C33.8725 29.3998 33.8312 29.3933 33.7899 29.3949L33.2803 29.4154C33.1968 29.4188 33.1181 29.4552 33.0615 29.5166C33.0048 29.5779 32.9749 29.6593 32.9782 29.7428L33.0027 30.3523C33.0044 30.3937 33.0141 30.4343 33.0315 30.4718C33.0489 30.5094 33.0734 30.5431 33.1038 30.5712C33.1342 30.5992 33.1699 30.621 33.2087 30.6353C33.2475 30.6496 33.2888 30.6561 33.3301 30.6544L33.8397 30.6339C33.9232 30.6306 34.0019 30.5942 34.0585 30.5328C34.1152 30.4714 34.1451 30.3901 34.1418 30.3066L34.1173 29.697ZM21.8106 32.0278C21.8107 31.9982 21.8049 31.969 21.7937 31.9417C21.7824 31.9143 21.7659 31.8895 21.745 31.8686C21.7242 31.8476 21.6994 31.831 21.6721 31.8197C21.6448 31.8083 21.6156 31.8024 21.5861 31.8024L18.466 31.797C18.4365 31.7969 18.4072 31.8027 18.3799 31.814C18.3526 31.8252 18.3278 31.8417 18.3068 31.8626C18.2859 31.8835 18.2693 31.9082 18.2579 31.9355C18.2466 31.9628 18.2407 31.992 18.2407 32.0216L18.2393 32.7716C18.2393 32.8011 18.2451 32.8304 18.2563 32.8577C18.2676 32.885 18.2841 32.9099 18.305 32.9308C18.3258 32.9517 18.3506 32.9683 18.3779 32.9797C18.4052 32.9911 18.4344 32.9969 18.4639 32.997L21.584 33.0024C21.6135 33.0024 21.6428 32.9967 21.6701 32.9854C21.6974 32.9742 21.7222 32.9576 21.7432 32.9368C21.7641 32.9159 21.7807 32.8911 21.7921 32.8639C21.8034 32.8366 21.8093 32.8073 21.8093 32.7778L21.8106 32.0278ZM10.32 34.1247C10.2605 34.1252 10.202 34.1407 10.15 34.1697L9.23 34.6797C9.16159 34.7179 9.10772 34.7776 9.0768 34.8496C9.04587 34.9215 9.03962 35.0017 9.05903 35.0776C9.07843 35.1535 9.12239 35.2209 9.18407 35.2692C9.24574 35.3175 9.32166 35.344 9.4 35.3447H30.63C30.7088 35.3451 30.7854 35.3194 30.848 35.2715C30.9105 35.2236 30.9553 35.1562 30.9753 35.08C30.9954 35.0039 30.9895 34.9232 30.9587 34.8507C30.9278 34.7782 30.8738 34.7181 30.805 34.6797L29.875 34.1697C29.823 34.1407 29.7645 34.1252 29.705 34.1247H10.32Z" fill="#C491C8"/>
<path d="M16.375 22.9046L16.38 12.4246C16.3799 12.3192 16.4076 12.2157 16.4602 12.1245C16.5129 12.0332 16.5886 11.9574 16.6798 11.9047C16.7711 11.852 16.8745 11.8242 16.9799 11.8242C17.0853 11.8242 17.1888 11.8519 17.28 11.9046L26.36 17.1446C26.4514 17.1972 26.5273 17.273 26.5801 17.3643C26.6329 17.4556 26.6607 17.5592 26.6607 17.6646C26.6607 17.7701 26.6329 17.8736 26.5801 17.9649C26.5273 18.0562 26.4514 18.132 26.36 18.1846L17.275 23.4246C17.1838 23.4773 17.0803 23.505 16.9749 23.505C16.8695 23.505 16.7661 23.4772 16.6748 23.4245C16.5836 23.3718 16.5079 23.296 16.4552 23.2047C16.4026 23.1135 16.3749 23.01 16.375 22.9046ZM17.51 21.6796C17.5097 21.7078 17.517 21.7356 17.5309 21.7601C17.5448 21.7846 17.565 21.805 17.5894 21.8192C17.6137 21.8335 17.6414 21.841 17.6696 21.841C17.6978 21.8411 17.7256 21.8337 17.75 21.8196L24.71 17.8146C24.735 17.8008 24.7559 17.7805 24.7704 17.7559C24.7849 17.7312 24.7925 17.7032 24.7925 17.6746C24.7925 17.646 24.7849 17.618 24.7704 17.5933C24.7559 17.5687 24.735 17.5484 24.71 17.5346L17.75 13.4896C17.7259 13.4757 17.6987 13.4683 17.6709 13.4681C17.6431 13.468 17.6157 13.4751 17.5915 13.4887C17.5673 13.5023 17.547 13.522 17.5327 13.5458C17.5185 13.5697 17.5106 13.5968 17.51 13.6246V21.6796Z" fill="#C491C8"/>
</svg>
