<svg width="34" height="34" viewBox="0 0 34 34" fill="none" xmlns="http://www.w3.org/2000/svg">
<g id="check_circle_FILL0_wght400_GRAD0_opsz24 1">
<path id="Vector" d="M15.0166 23.5166L25.0041 13.5291L23.0208 11.5458L15.0166 19.5499L10.9791 15.5124L8.99575 17.4958L15.0166 23.5166ZM16.9999 31.1666C15.0402 31.1666 13.1985 30.7947 11.4749 30.051C9.75131 29.3072 8.252 28.2978 6.977 27.0228C5.702 25.7478 4.69263 24.2485 3.94888 22.5249C3.20513 20.8013 2.83325 18.9596 2.83325 16.9999C2.83325 15.0402 3.20513 13.1985 3.94888 11.4749C4.69263 9.75131 5.702 8.252 6.977 6.977C8.252 5.702 9.75131 4.69263 11.4749 3.94888C13.1985 3.20513 15.0402 2.83325 16.9999 2.83325C18.9596 2.83325 20.8013 3.20513 22.5249 3.94888C24.2485 4.69263 25.7478 5.702 27.0228 6.977C28.2978 8.252 29.3072 9.75131 30.051 11.4749C30.7947 13.1985 31.1666 15.0402 31.1666 16.9999C31.1666 18.9596 30.7947 20.8013 30.051 22.5249C29.3072 24.2485 28.2978 25.7478 27.0228 27.0228C25.7478 28.2978 24.2485 29.3072 22.5249 30.051C20.8013 30.7947 18.9596 31.1666 16.9999 31.1666ZM16.9999 28.3333C20.1638 28.3333 22.8437 27.2353 25.0395 25.0395C27.2353 22.8437 28.3333 20.1638 28.3333 16.9999C28.3333 13.836 27.2353 11.1562 25.0395 8.96034C22.8437 6.7645 20.1638 5.66659 16.9999 5.66659C13.836 5.66659 11.1562 6.7645 8.96034 8.96034C6.7645 11.1562 5.66659 13.836 5.66659 16.9999C5.66659 20.1638 6.7645 22.8437 8.96034 25.0395C11.1562 27.2353 13.836 28.3333 16.9999 28.3333Z" fill="url(#paint0_linear_1287_175)"/>
</g>
<defs>
<linearGradient id="paint0_linear_1287_175" x1="31" y1="16" x2="2.5" y2="17.5" gradientUnits="userSpaceOnUse">
<stop stop-color="#7BC6CC"/>
<stop offset="1" stop-color="#BE94C6"/>
</linearGradient>
</defs>
</svg>
