<svg width="267" height="207" viewBox="0 0 267 207" fill="none" xmlns="http://www.w3.org/2000/svg">
<g clip-path="url(#clip0_156_1076)">
<path d="M34.7894 91.0894C24.8629 86.9199 16.9055 79.1138 12.5462 69.2693C10.1072 63.6926 8.91644 57.645 8.23845 51.5962C7.57327 45.6617 7.43745 39.4018 9.99144 34.0038C11.3898 31.0483 13.53 28.5055 16.2033 26.6232C18.8767 24.7408 21.9922 23.5831 25.2461 23.2629C28.4999 22.9427 31.7813 23.4708 34.7703 24.7959C37.7594 26.1211 40.3542 28.1979 42.3018 30.8241C43.9782 33.0845 45.1569 35.7968 45.1869 38.6108C45.25 44.5135 40.5038 49.2506 38.4216 54.7741C36.2699 60.4822 37.0455 66.8067 37.4112 72.8958C37.777 78.985 37.5452 85.5863 33.8505 90.4402" fill="#F2F2F2"/>
<path d="M212.82 165.727C223.303 163.272 232.45 156.902 238.391 147.922C241.726 142.831 243.908 137.066 245.586 131.215C247.231 125.475 248.409 119.325 246.791 113.577C245.906 110.43 244.22 107.566 241.898 105.264C239.576 102.962 236.697 101.301 233.542 100.442C230.387 99.5839 227.064 99.5574 223.895 100.365C220.727 101.173 217.822 102.788 215.464 105.053C213.434 107.002 211.82 109.48 211.321 112.249C210.274 118.059 214.164 123.521 215.295 129.315C216.465 135.302 214.645 141.408 213.269 147.351C211.893 153.294 211.02 159.841 213.854 165.244" fill="#F2F2F2"/>
<path d="M132.873 156.248C117.931 156.296 103.393 151.396 91.5283 142.313C79.9114 133.438 71.4243 121.092 67.2983 107.066L67.8892 106.895C76.2332 135.591 102.956 155.633 132.873 155.633C141.818 155.65 150.677 153.883 158.931 150.434L159.168 151.002C150.839 154.482 141.9 156.265 132.873 156.248Z" fill="#E6E6E6"/>
<path d="M197.466 67.7424C188.59 39.3656 162.632 20.3 132.873 20.3C124.055 20.284 115.319 22.0016 107.163 25.3552L106.929 24.7863C117.839 20.3181 129.719 18.7465 141.416 20.224C153.113 21.7014 164.229 26.1778 173.685 33.2186C185.194 41.8406 193.715 53.8488 198.053 67.5588L197.466 67.7424Z" fill="#E6E6E6"/>
<path d="M215.918 177.779C187.935 177.779 165.168 155.013 165.168 127.029C165.168 99.0451 187.935 76.2788 215.918 76.2788C243.902 76.2788 266.668 99.0451 266.668 127.029C266.668 155.013 243.902 177.779 215.918 177.779ZM215.918 76.894C188.274 76.894 165.784 99.3844 165.784 127.029C165.784 154.673 188.274 177.164 215.918 177.164C243.563 177.164 266.053 154.673 266.053 127.029C266.053 99.3844 243.563 76.894 215.918 76.894Z" fill="#3F3D56"/>
<path d="M50.75 101.5C22.7663 101.5 0 78.7337 0 50.75C0 22.7663 22.7663 0 50.75 0C78.7337 0 101.5 22.7663 101.5 50.75C101.5 78.7337 78.7337 101.5 50.75 101.5ZM50.75 0.615152C23.1056 0.615152 0.615152 23.1056 0.615152 50.75C0.615152 78.3944 23.1056 100.885 50.75 100.885C78.3944 100.885 100.885 78.3944 100.885 50.75C100.885 23.1056 78.3944 0.615152 50.75 0.615152Z" fill="#3F3D56"/>
<path d="M46.8043 51.0355L42.3228 59.7394L46.7478 62.2761C46.7478 62.2761 49.7834 52.4992 49.8728 52.1282C50.3305 51.9411 50.7207 51.6195 50.9916 51.2059C51.2626 50.7923 51.4016 50.3061 51.3903 49.8118C51.3789 49.3174 51.2178 48.8381 50.9281 48.4374C50.6385 48.0366 50.234 47.7332 49.7682 47.5673C49.3023 47.4014 48.7971 47.3808 48.3194 47.5083C47.8416 47.6358 47.4138 47.9053 47.0925 48.2813C46.7713 48.6572 46.5717 49.1218 46.5203 49.6136C46.4688 50.1053 46.5678 50.6012 46.8043 51.0355Z" fill="#A0616A"/>
<path d="M23.8052 52.2192C25.8043 59.6258 32.9897 64.33 38.9565 69.9697C39.6913 70.2275 40.4717 70.3292 41.248 70.2682C42.0243 70.2072 42.7793 69.9849 43.4647 69.6155C44.1502 69.2462 44.7511 68.7378 45.2289 68.123C45.7067 67.5082 46.051 66.8004 46.2397 66.0449L48.2507 58.1747L43.1393 58.038L41.024 60.337L34.1795 55.4597L23.8052 52.2192Z" fill="#3F3D56"/>
<path d="M208.373 134.914C209.241 134.971 210.053 135.364 210.635 136.01C211.217 136.656 211.525 137.504 211.492 138.373C211.482 138.55 211.458 138.725 211.42 138.898L221.275 145.106L215.826 147.516L207.303 141.251C206.6 141.036 205.987 140.594 205.561 139.995C205.136 139.395 204.92 138.672 204.949 137.937C204.969 137.519 205.072 137.109 205.25 136.731C205.429 136.353 205.68 136.013 205.99 135.732C206.3 135.451 206.662 135.233 207.056 135.092C207.45 134.951 207.868 134.889 208.286 134.909C208.315 134.91 208.344 134.912 208.373 134.914Z" fill="#FFB6B6"/>
<path d="M217.877 142.284L215.435 147.324L225.092 153.538C225.779 153.984 226.569 154.247 227.386 154.302C228.204 154.357 229.021 154.202 229.762 153.851C230.662 153.42 231.398 152.709 231.859 151.823C232.319 150.937 232.479 149.926 232.315 148.942L229.181 131.052C228.971 129.8 228.289 128.676 227.275 127.912C226.262 127.147 224.994 126.8 223.732 126.942C222.491 127.078 221.355 127.701 220.573 128.674C219.792 129.648 219.429 130.892 219.565 132.133C219.57 132.181 219.576 132.23 219.583 132.278C219.607 132.45 219.64 132.621 219.682 132.789L223.103 145.512L217.877 142.284Z" fill="#BE94C6"/>
<path d="M209.1 144.328L205.463 134.944C205.339 134.623 205.347 134.265 205.486 133.95C205.625 133.635 205.884 133.388 206.204 133.264L208.25 132.471C208.571 132.347 208.928 132.355 209.243 132.494C209.558 132.633 209.805 132.892 209.93 133.213L213.567 142.596C213.691 142.918 213.682 143.275 213.543 143.59C213.404 143.905 213.146 144.152 212.825 144.277L210.78 145.069C210.459 145.193 210.101 145.185 209.786 145.046C209.471 144.907 209.224 144.649 209.1 144.328Z" fill="#3F3D56"/>
<path d="M206.629 133.649C206.456 133.716 206.317 133.85 206.242 134.019C206.167 134.189 206.163 134.382 206.23 134.555L209.866 143.939C209.934 144.112 210.067 144.251 210.237 144.326C210.406 144.401 210.599 144.405 210.772 144.338L212.817 143.546C212.99 143.478 213.129 143.345 213.204 143.176C213.279 143.006 213.284 142.813 213.217 142.64L209.58 133.256C209.513 133.083 209.38 132.944 209.21 132.869C209.04 132.794 208.848 132.79 208.675 132.857L206.629 133.649Z" fill="#BE94C6"/>
<path d="M217.19 163.908H231.001V150.097H217.19V163.908Z" fill="#FFB8B8"/>
<path d="M184.438 190.772L179.163 188.997L176.226 203.355L179.8 204.557L184.438 190.772Z" fill="#FFB6B6"/>
<path d="M193.792 188.04L188.376 189.321L193.469 203.062L197.139 202.194L193.792 188.04Z" fill="#FFB6B6"/>
<path d="M230.506 167.516C233.274 185.971 196.411 175.06 196.411 175.06L184.853 191.005L178.086 189.774C178.086 189.774 181.131 180.203 186.569 167.371C188.984 161.672 216.404 163.065 216.404 163.065L216.973 158.597L232.659 158.289L230.506 167.516Z" fill="#2F2E41"/>
<path d="M195.248 171.101L185.208 171.332C186.817 185.175 188.236 190.697 188.236 190.697L194.08 188.851L195.248 171.101Z" fill="#2F2E41"/>
<path d="M222.616 127.654L225.396 124.08L229.362 123.908L229.758 127.269L231.722 128.175C233.684 135.629 233.987 143.422 232.61 151.006C232.347 151.254 232.154 151.567 232.053 151.914C231.951 152.261 231.944 152.629 232.032 152.98L232.159 153.488L232.147 153.507C231.729 154.166 231.587 154.964 231.752 155.727L232.691 157.395C233.028 157.994 233.23 158.66 233.283 159.346C233.336 160.031 233.24 160.72 233 161.365C232.76 162.009 232.383 162.594 231.894 163.078C231.405 163.562 230.817 163.933 230.17 164.167C224.403 166.258 218.996 167.036 214.996 161.17L213.738 140.725L222.616 127.654Z" fill="#BE94C6"/>
<path d="M225.529 125.029C229.578 125.029 232.861 121.747 232.861 117.697C232.861 113.648 229.578 110.365 225.529 110.365C221.479 110.365 218.197 113.648 218.197 117.697C218.197 121.747 221.479 125.029 225.529 125.029Z" fill="#FFB8B8"/>
<path d="M229.209 108.859C232.314 108.919 234.776 111.798 234.709 115.291C237.006 117.688 236.247 120.621 234.327 123.758C230.815 124.165 229.996 124.335 226.916 125.591L226.511 123.695L225.591 126.164C224.808 126.525 224.032 126.921 223.261 127.352C222.707 124.811 222.844 122.342 224.333 120.191C225.656 118.28 222.437 116.011 220.135 116.331L220.169 114.576L219.591 116.321C218.693 116.98 217.701 116.742 216.683 116.265C215.032 107.687 227.811 105.341 229.209 108.859Z" fill="#2F2E41"/>
<path d="M181.424 206.985L179.074 206.678L178.945 204.405L177.581 206.483L171.348 205.669C171.049 205.63 170.77 205.497 170.553 205.288C170.335 205.08 170.19 204.807 170.139 204.51C170.087 204.213 170.132 203.908 170.266 203.638C170.4 203.368 170.617 203.149 170.885 203.011L176.312 200.224L176.605 197.981L181.799 198.977L181.424 206.985Z" fill="#2F2E41"/>
<path d="M198.487 205.691L196.137 205.994L195.432 203.828L194.643 206.186L188.408 206.988C188.11 207.027 187.806 206.969 187.543 206.822C187.279 206.676 187.069 206.45 186.944 206.176C186.818 205.902 186.783 205.595 186.844 205.3C186.905 205.005 187.059 204.737 187.283 204.536L191.819 200.457L191.531 198.213L196.807 197.852L198.487 205.691Z" fill="#2F2E41"/>
<path d="M209.258 136.63C210.125 136.687 210.937 137.08 211.519 137.726C212.102 138.372 212.409 139.219 212.376 140.088C212.366 140.265 212.342 140.44 212.304 140.613L222.159 146.822L216.711 149.231L208.187 142.966C207.484 142.751 206.872 142.31 206.446 141.71C206.02 141.111 205.804 140.387 205.833 139.652C205.853 139.234 205.956 138.825 206.134 138.446C206.313 138.068 206.565 137.728 206.875 137.447C207.184 137.166 207.547 136.949 207.941 136.807C208.334 136.666 208.752 136.604 209.17 136.624C209.199 136.626 209.228 136.628 209.258 136.63Z" fill="#FFB6B6"/>
<path d="M218.761 144L216.318 149.039L225.976 155.254C226.663 155.7 227.453 155.963 228.27 156.017C229.087 156.072 229.905 155.917 230.646 155.567C231.546 155.136 232.282 154.424 232.742 153.538C233.203 152.653 233.363 151.642 233.199 150.657L230.065 132.767C229.855 131.515 229.173 130.391 228.159 129.627C227.145 128.863 225.878 128.516 224.616 128.658C224.002 128.725 223.406 128.912 222.864 129.21C222.322 129.507 221.844 129.908 221.457 130.39C221.07 130.872 220.782 131.425 220.609 132.019C220.436 132.612 220.381 133.234 220.449 133.848C220.454 133.897 220.46 133.945 220.467 133.994C220.49 134.165 220.523 134.336 220.565 134.504L223.986 147.227L218.761 144Z" fill="#BE94C6"/>
<path d="M33.9609 143.028L37.0588 144.425L43.9233 133.141L39.3512 131.079L33.9609 143.028Z" fill="#A0616A"/>
<path d="M32.394 146.21L41.9202 150.507L41.9745 150.387C42.4181 149.403 42.4529 148.284 42.0713 147.275C41.6897 146.266 40.9229 145.45 39.9396 145.006L38.7949 142.901L34.9527 142.756L34.1211 142.381L32.394 146.21Z" fill="#2F2E41"/>
<path d="M72.3294 127.682L75.6011 126.764L73.6154 113.706L68.7861 115.062L72.3294 127.682Z" fill="#A0616A"/>
<path d="M73.1723 131.128L83.234 128.304L83.1983 128.176C82.9067 127.138 82.2145 126.257 81.2739 125.729C80.3333 125.201 79.2214 125.068 78.1827 125.359L75.9531 124.481L72.9154 126.838L72.0371 127.085L73.1723 131.128Z" fill="#2F2E41"/>
<path d="M22.8093 89.528C22.893 91.9487 28.0411 98.4794 30.7486 99.4158C31.2089 99.5752 31.4778 99.6629 31.4778 99.6629L32.4202 99.378L43.8321 95.9253C45.8304 97.1008 51.7914 97.6985 56.6825 97.9973C60.5755 98.2344 62.7454 100.27 62.7454 100.27C63.8939 109.004 67.2049 115.372 71.0232 123.198L75.6055 122.401L71.2765 93.2497C71.183 92.6201 70.9066 92.032 70.4816 91.5582C70.0567 91.0845 69.5018 90.746 68.8861 90.585L37.7456 82.4394C37.7456 82.4394 36.0283 82.1286 32.4062 83.8758C26.4433 86.7527 22.7495 87.7668 22.8093 89.528Z" fill="#2F2E41"/>
<path d="M28.7599 89.0597C27.7155 91.245 29.2632 99.4157 31.2316 101.497L31.7541 101.853L31.9308 101.945C33.1116 105.939 45.7832 117.621 45.7832 117.621C41.5029 123.074 37.6886 129.726 35.9866 137.179L40.9358 138.987L54.8672 118.189C55.2321 117.645 55.4236 117.002 55.4164 116.347C55.4093 115.691 55.2038 115.053 54.8271 114.516L49.1436 106.421L39.8826 88.4818C33.2651 88.2777 29.5207 87.4701 28.7599 89.0597Z" fill="#2F2E41"/>
<path d="M22.9954 90.4798C22.98 90.4798 22.6173 89.5303 22.6099 89.5281C22.4866 89.4937 20.8169 89.3289 21.1924 86.5645L21.6728 83.5221L21.2038 80.8357L20.4149 80.0468L21.6828 78.779L20.9057 73.0286L20.6074 61.5153C19.8587 57.5605 20.0542 53.9434 23.6814 52.2016L27.8397 48.3446L32.5715 48.2874L37.9398 51.4699L40.5407 56.655L41.5495 70.7075L42.3028 72.4651L42.2383 72.5235C42.2333 72.528 41.7314 72.9818 41.506 73.2313C41.3968 73.3864 41.6017 74.5445 41.8547 75.5278L42.1791 77.9552L41.3615 78.5395L42.4245 79.795L45.3222 84.6931L45.1486 84.6499C44.953 84.6012 43.1307 87.3366 23.1293 90.3783C23.037 90.3924 23.0337 90.4798 22.9954 90.4798Z" fill="#3F3D56"/>
<path d="M45.8986 60.0672L44.2428 59.2032C43.983 59.0673 43.7877 58.8338 43.6998 58.5541C43.612 58.2744 43.6386 57.9713 43.7739 57.7112L47.7383 50.1139C47.8742 49.8541 48.1076 49.6588 48.3873 49.5709C48.667 49.483 48.9702 49.5097 49.2302 49.645L50.886 50.509C51.1458 50.645 51.3411 50.8784 51.429 51.1581C51.5169 51.4378 51.4902 51.7409 51.3549 52.001L47.3905 59.5984C47.2546 59.8581 47.0212 60.0534 46.7415 60.1413C46.4618 60.2292 46.1587 60.2025 45.8986 60.0672Z" fill="#3F3D56"/>
<path d="M48.8342 49.9314C48.6941 49.8585 48.5307 49.8441 48.38 49.8915C48.2292 49.9388 48.1035 50.044 48.0302 50.184L44.0659 57.7814C43.993 57.9215 43.9786 58.0849 44.026 58.2356C44.0733 58.3863 44.1786 58.5121 44.3185 58.5854L45.9743 59.4494C46.1145 59.5223 46.2779 59.5366 46.4286 59.4893C46.5793 59.4419 46.7051 59.3367 46.7783 59.1967L50.7427 51.5994C50.8156 51.4592 50.8299 51.2959 50.7826 51.1451C50.7352 50.9944 50.63 50.8686 50.49 50.7954L48.8342 49.9314Z" fill="#BE94C6"/>
<path d="M31.2717 47.2502C35.0081 47.2502 38.0371 44.2213 38.0371 40.4849C38.0371 36.7484 35.0081 33.7195 31.2717 33.7195C27.5353 33.7195 24.5063 36.7484 24.5063 40.4849C24.5063 44.2213 27.5353 47.2502 31.2717 47.2502Z" fill="#A0616A"/>
<path d="M27.9445 44.8422C27.6479 44.6063 27.2779 44.4821 26.899 44.4911C26.7815 44.5104 26.6694 44.5545 26.5702 44.6204C26.4709 44.6863 26.3868 44.7725 26.3234 44.8733C26.2882 44.9176 26.2424 44.9525 26.1903 44.9746C26.1382 44.9968 26.0814 45.0056 26.0251 45.0003C25.3032 45.0266 23.7645 43.6874 23.6593 41.1034C23.6093 39.8754 22.8745 37.7973 24.0442 36.6719C24.1226 36.2177 25.036 31.5233 29.1532 31.3939C33.3684 31.26 36.1743 32.1067 36.8484 33.7132C37.3165 34.9886 37.6724 36.3025 37.912 37.6398L38.0533 38.435L37.7231 37.698C37.7168 37.6842 37.1145 36.3647 35.9974 35.9245C35.9793 36.1392 35.9247 36.3493 35.8359 36.5457C35.4714 37.3356 34.5526 37.8511 33.495 37.8591C32.7643 37.8366 32.0437 37.6816 31.3683 37.4018C31.4448 37.5121 31.4877 37.6423 31.4919 37.7765C31.4961 37.9107 31.4615 38.0432 31.392 38.1582C31.3226 38.2731 31.2215 38.3655 31.1007 38.4243C30.98 38.483 30.8448 38.5056 30.7116 38.4893L30.516 38.465C30.4544 38.4573 30.3921 38.4714 30.3398 38.5049C30.2875 38.5383 30.2486 38.5891 30.2298 38.6482C30.211 38.7074 30.2135 38.7713 30.2368 38.8288C30.2602 38.8863 30.303 38.9339 30.3578 38.9631L30.5299 39.0552L30.321 39.1562C29.4799 39.5315 28.7869 40.1748 28.3503 40.9857C27.9137 41.7966 27.7581 42.7293 27.9078 43.6381L28.1514 45.0083L27.9445 44.8422Z" fill="#2F2E41"/>
<path d="M135.06 149.383C134.875 149.392 134.692 149.343 134.535 149.244C134.379 149.145 134.256 149 134.185 148.829C134.113 148.658 134.096 148.47 134.136 148.289C134.175 148.108 134.269 147.943 134.405 147.818L134.467 147.572C134.459 147.552 134.451 147.532 134.442 147.512C134.256 147.072 133.944 146.697 133.545 146.434C133.146 146.17 132.678 146.031 132.2 146.032C131.722 146.034 131.255 146.177 130.858 146.444C130.461 146.71 130.151 147.087 129.968 147.529C129.236 149.292 128.304 151.057 128.075 152.921C127.974 153.745 128.016 154.58 128.201 155.389C126.482 151.639 125.589 147.564 125.584 143.439C125.583 142.404 125.641 141.37 125.756 140.342C125.851 139.498 125.983 138.661 126.152 137.83C127.073 133.319 129.051 129.092 131.924 125.495C133.314 124.736 134.438 123.57 135.145 122.152C135.401 121.643 135.582 121.099 135.682 120.538C135.525 120.559 135.366 120.571 135.209 120.582C135.16 120.584 135.109 120.587 135.06 120.589L135.042 120.59C134.869 120.598 134.698 120.556 134.549 120.469C134.401 120.381 134.28 120.253 134.202 120.099C134.125 119.945 134.093 119.772 134.112 119.6C134.13 119.429 134.198 119.266 134.307 119.132C134.374 119.049 134.442 118.966 134.51 118.882C134.613 118.754 134.718 118.628 134.821 118.499C134.833 118.487 134.844 118.474 134.854 118.461C134.973 118.314 135.091 118.17 135.209 118.024C134.993 117.689 134.703 117.408 134.361 117.203C133.176 116.509 131.54 116.99 130.684 118.062C129.826 119.134 129.664 120.638 129.962 121.978C130.255 123.117 130.74 124.199 131.397 125.176C131.332 125.258 131.265 125.338 131.201 125.42C130.026 126.931 129.002 128.553 128.144 130.264C128.353 128.347 128.103 126.409 127.417 124.608C126.721 122.929 125.417 121.515 124.268 120.064C122.888 118.321 120.059 119.082 119.816 121.291C119.814 121.313 119.812 121.334 119.809 121.355C119.98 121.452 120.147 121.554 120.31 121.662C120.516 121.799 120.675 121.995 120.767 122.224C120.859 122.453 120.879 122.705 120.826 122.946C120.773 123.187 120.648 123.406 120.468 123.575C120.287 123.744 120.06 123.854 119.816 123.892L119.791 123.895C119.852 124.51 119.96 125.12 120.113 125.718C120.557 127.389 121.341 128.951 122.416 130.304C123.492 131.658 124.835 132.775 126.363 133.585C126.463 133.637 126.561 133.688 126.661 133.737C125.798 136.181 125.257 138.727 125.052 141.311C124.935 142.835 124.942 144.366 125.072 145.89L125.064 145.836C124.735 144.142 123.832 142.613 122.506 141.509C120.538 139.892 117.757 139.296 115.633 137.996C115.407 137.851 115.145 137.774 114.877 137.773C114.608 137.773 114.346 137.849 114.119 137.993C113.893 138.136 113.712 138.342 113.599 138.585C113.485 138.828 113.444 139.098 113.479 139.364C113.482 139.383 113.485 139.402 113.488 139.421C113.804 139.55 114.112 139.699 114.411 139.866C114.581 139.962 114.748 140.064 114.912 140.172C115.117 140.309 115.276 140.505 115.368 140.735C115.46 140.964 115.481 141.215 115.427 141.456C115.374 141.697 115.249 141.916 115.069 142.085C114.889 142.254 114.662 142.364 114.418 142.402L114.393 142.406C114.375 142.409 114.359 142.411 114.341 142.414C114.882 143.705 115.641 144.894 116.586 145.928C117.752 147.18 119.162 148.18 120.729 148.867C122.295 149.555 123.986 149.915 125.697 149.926H125.699C126.164 151.944 126.837 153.908 127.707 155.787H134.88C134.906 155.708 134.929 155.625 134.952 155.546C134.288 155.588 133.622 155.548 132.967 155.428C133.5 154.775 134.032 154.116 134.564 153.463C134.576 153.451 134.587 153.438 134.597 153.425C134.867 153.091 135.14 152.759 135.41 152.425L135.41 152.424C135.424 151.4 135.306 150.378 135.06 149.383Z" fill="#E6E6E6"/>
<path d="M169.538 38.1601C169.677 38.2831 169.774 38.4457 169.817 38.6259C169.86 38.8061 169.846 38.9951 169.778 39.1673C169.71 39.3396 169.591 39.4867 169.436 39.5888C169.282 39.6909 169.099 39.7431 168.914 39.7382L168.698 39.8712C168.69 39.891 168.682 39.9108 168.675 39.9307C168.501 40.376 168.462 40.8628 168.564 41.3299C168.666 41.797 168.904 42.2235 169.248 42.5559C169.591 42.8883 170.026 43.1118 170.496 43.1983C170.966 43.2847 171.451 43.2303 171.891 43.0418C173.645 42.2904 175.544 41.6763 177.01 40.5018C177.657 39.9824 178.209 39.3546 178.642 38.6464C177.256 42.5313 175.051 46.0727 172.176 49.0306C171.454 49.772 170.691 50.4726 169.89 51.1289C169.234 51.6663 168.555 52.1738 167.854 52.6513C164.046 55.2382 159.679 56.885 155.111 57.4565C153.586 57.0294 151.967 57.08 150.471 57.6015C149.932 57.7876 149.423 58.0508 148.96 58.3827C149.086 58.4775 149.209 58.5795 149.329 58.6816C149.366 58.7139 149.404 58.7479 149.441 58.7802L149.455 58.7924C149.584 58.9072 149.677 59.0567 149.722 59.2231C149.768 59.3894 149.765 59.5654 149.713 59.73C149.661 59.8945 149.563 60.0405 149.43 60.1504C149.297 60.2604 149.135 60.3295 148.963 60.3496C148.857 60.362 148.75 60.3744 148.644 60.3867C148.48 60.4069 148.317 60.4236 148.153 60.4439C148.136 60.4443 148.119 60.4458 148.103 60.4482C147.916 60.4706 147.73 60.4911 147.543 60.5135C147.464 60.9041 147.476 61.3078 147.579 61.693C147.943 63.0173 149.449 63.8142 150.811 63.644C152.174 63.4756 153.34 62.5116 154.061 61.3443C154.646 60.3234 155.054 59.2103 155.266 58.0527C155.369 58.0386 155.473 58.0282 155.576 58.0141C157.472 57.7522 159.338 57.3052 161.146 56.6794C159.659 57.906 158.485 59.4681 157.719 61.2372C157.046 62.9251 156.993 64.8479 156.803 66.6888C156.574 68.9 159.131 70.3298 160.847 68.917C160.864 68.9033 160.881 68.8896 160.897 68.8758C160.842 68.6879 160.794 68.4981 160.752 68.3067C160.701 68.0652 160.724 67.8139 160.818 67.5856C160.912 67.3574 161.073 67.1628 161.279 67.0275C161.486 66.8921 161.728 66.8223 161.975 66.8272C162.222 66.8321 162.461 66.9114 162.662 67.0547L162.683 67.0694C163.069 66.5867 163.417 66.0753 163.725 65.5398C164.574 64.0333 165.102 62.3679 165.276 60.6478C165.451 58.9277 165.268 57.1901 164.74 55.5438C164.704 55.437 164.67 55.332 164.632 55.227C166.956 54.0786 169.12 52.633 171.071 50.9264C172.219 49.9162 173.282 48.8148 174.252 47.6331L174.22 47.6771C173.274 49.1198 172.854 50.8449 173.032 52.5611C173.313 55.0932 174.889 57.4608 175.503 59.8739C175.563 60.1352 175.697 60.3738 175.889 60.5614C176.081 60.7491 176.322 60.8781 176.584 60.9331C176.847 60.9881 177.12 60.967 177.371 60.8721C177.621 60.7772 177.84 60.6125 178 60.3975C178.011 60.382 178.023 60.3664 178.034 60.3508C177.897 60.0375 177.78 59.716 177.683 59.3881C177.628 59.2001 177.58 59.0104 177.538 58.819C177.487 58.5775 177.51 58.3262 177.604 58.0979C177.698 57.8696 177.859 57.6751 178.065 57.5397C178.272 57.4044 178.514 57.3346 178.761 57.3395C179.008 57.3443 179.247 57.4236 179.448 57.567L179.469 57.5817C179.484 57.5924 179.496 57.6013 179.511 57.612C180.025 56.3095 180.311 54.9283 180.357 53.5287C180.395 51.8183 180.083 50.118 179.441 48.5322C178.799 46.9463 177.84 45.5084 176.622 44.3065L176.62 44.3047C177.696 42.5353 178.585 40.6588 179.274 38.7056L174.137 33.6992C174.063 33.7383 173.989 33.7811 173.917 33.822C174.421 34.2555 174.871 34.7492 175.255 35.292C174.419 35.3882 173.578 35.4881 172.741 35.5843C172.724 35.5847 172.707 35.5862 172.69 35.5886C172.264 35.6395 171.837 35.6868 171.411 35.7377L171.41 35.7379C170.685 36.4615 170.056 37.2758 169.538 38.1601Z" fill="#E6E6E6"/>
<path d="M45.8788 58.2374L39.4106 65.5862L43.0838 69.1251C43.0838 69.1251 48.4112 60.3833 48.5884 60.0452C49.0779 59.9754 49.5347 59.7586 49.8983 59.4235C50.2619 59.0884 50.5152 58.6508 50.6248 58.1686C50.7343 57.6864 50.6948 57.1823 50.5116 56.723C50.3284 56.2637 50.0101 55.8709 49.5988 55.5964C49.1874 55.322 48.7025 55.1789 48.208 55.186C47.7136 55.1932 47.233 55.3503 46.8298 55.6366C46.4266 55.9228 46.1198 56.3248 45.95 56.7892C45.7802 57.2536 45.7554 57.7586 45.8788 58.2374Z" fill="#A0616A"/>
<path d="M23.2852 53.7791C23.4184 61.4495 29.2403 67.7634 33.6522 74.6876C34.3019 75.1167 35.034 75.4056 35.8018 75.5357C36.5695 75.6658 37.3559 75.6343 38.1107 75.4431C38.8656 75.252 39.5722 74.9054 40.1855 74.4257C40.7988 73.9459 41.3052 73.3434 41.6724 72.6567L45.5414 65.5142L40.6175 64.1356L38.0055 65.8495L32.5566 59.4508L23.2852 53.7791Z" fill="#3F3D56"/>
</g>
<defs>
<clipPath id="clip0_156_1076">
<rect width="266.668" height="207" fill="white"/>
</clipPath>
</defs>
</svg>
