<svg width="20" height="20" viewBox="0 0 20 20" fill="none" xmlns="http://www.w3.org/2000/svg">
<g id="settings_accessibility_FILL1_wght400_GRAD0_opsz20 1" clip-path="url(#clip0_1469_361)">
<path id="Vector" d="M9.99483 3.5C9.51217 3.5 9.10069 3.32814 8.76042 2.98442C8.42014 2.64069 8.25 2.2275 8.25 1.74483C8.25 1.26217 8.42186 0.850694 8.76558 0.510417C9.10931 0.170139 9.5225 0 10.0052 0C10.4878 0 10.8993 0.171861 11.2396 0.515583C11.5799 0.859305 11.75 1.2725 11.75 1.75517C11.75 2.23783 11.5781 2.64931 11.2344 2.98958C10.8907 3.32986 10.4775 3.5 9.99483 3.5ZM7.5 15.75V6.10417C6.73611 6.03472 5.98264 5.93056 5.23958 5.79167C4.49653 5.65278 3.75 5.46528 3 5.22917L3.375 3.83333C4.45833 4.13889 5.55208 4.36806 6.65625 4.52083C7.76042 4.67361 8.875 4.75 10 4.75C11.125 4.75 12.2396 4.67361 13.3438 4.52083C14.4479 4.36806 15.5417 4.13889 16.625 3.83333L17 5.22917C16.25 5.46528 15.5035 5.65278 14.7604 5.79167C14.0174 5.93056 13.2639 6.03351 12.5 6.10052V15.75H11V10.75H9V15.75H7.5ZM6.75 19.75C6.52778 19.75 6.34722 19.684 6.20833 19.5521C6.06944 19.4201 6 19.2361 6 19C6 18.7639 6.06944 18.5799 6.20833 18.4479C6.34722 18.316 6.52778 18.25 6.75 18.25C6.97222 18.25 7.15278 18.316 7.29167 18.4479C7.43056 18.5799 7.5 18.7639 7.5 19C7.5 19.2361 7.43056 19.4201 7.29167 19.5521C7.15278 19.684 6.97222 19.75 6.75 19.75ZM10 19.75C9.77778 19.75 9.59722 19.684 9.45833 19.5521C9.31944 19.4201 9.25 19.2361 9.25 19C9.25 18.7639 9.31944 18.5799 9.45833 18.4479C9.59722 18.316 9.77778 18.25 10 18.25C10.2222 18.25 10.4028 18.316 10.5417 18.4479C10.6806 18.5799 10.75 18.7639 10.75 19C10.75 19.2361 10.6806 19.4201 10.5417 19.5521C10.4028 19.684 10.2222 19.75 10 19.75ZM13.25 19.75C13.0278 19.75 12.8472 19.684 12.7083 19.5521C12.5694 19.4201 12.5 19.2361 12.5 19C12.5 18.7639 12.5694 18.5799 12.7083 18.4479C12.8472 18.316 13.0278 18.25 13.25 18.25C13.4722 18.25 13.6528 18.316 13.7917 18.4479C13.9306 18.5799 14 18.7639 14 19C14 19.2361 13.9306 19.4201 13.7917 19.5521C13.6528 19.684 13.4722 19.75 13.25 19.75Z" fill="#1E1E1E" fill-opacity="0.8"/>
</g>
<defs>
<clipPath id="clip0_1469_361">
<rect width="20" height="20" fill="white"/>
</clipPath>
</defs>
</svg>
