<svg width="11" height="13" viewBox="0 0 11 13" fill="none" xmlns="http://www.w3.org/2000/svg">
<path id="Vector" d="M2.35308 2.84375C1.97385 2.84375 1.65055 2.70411 1.38318 2.42484C1.11582 2.14556 0.982143 1.80984 0.982143 1.41768C0.982143 1.02551 1.11718 0.691189 1.38724 0.414714C1.65731 0.138238 1.98196 0 2.3612 0C2.74044 0 3.06374 0.139637 3.3311 0.418911C3.59846 0.698186 3.73214 1.03391 3.73214 1.42607C3.73214 1.81824 3.59711 2.15256 3.32704 2.42904C3.05697 2.70551 2.73232 2.84375 2.35308 2.84375ZM9.03572 5.6875C8.7629 5.6875 8.531 5.58876 8.34003 5.39128C8.14906 5.19379 8.05357 4.95399 8.05357 4.67188C8.05357 4.38976 8.14906 4.14996 8.34003 3.95247C8.531 3.75499 8.7629 3.65625 9.03572 3.65625C9.30853 3.65625 9.54043 3.75499 9.7314 3.95247C9.92237 4.14996 10.0179 4.38976 10.0179 4.67188C10.0179 4.95399 9.92237 5.19379 9.7314 5.39128C9.54043 5.58876 9.30853 5.6875 9.03572 5.6875ZM1.17857 13V8.53125H0V4.875C0 4.53984 0.115402 4.25293 0.346205 4.01426C0.577009 3.77559 0.854464 3.65625 1.17857 3.65625H3.6503C3.8614 3.65625 4.05331 3.70985 4.22603 3.81706C4.39876 3.92426 4.54514 4.06814 4.66518 4.2487L6.67857 7.71875L7.62798 6.73698C7.70437 6.65799 7.78992 6.59874 7.88463 6.55925C7.97933 6.51975 8.07929 6.5 8.18452 6.5H10.2143C10.4325 6.5 10.6181 6.57899 10.7708 6.73698C10.9236 6.89497 11 7.08681 11 7.3125V9.75H10.2143V13H7.85714V8.22656L7.16964 8.9375H6.00744L4.32143 6.02604V13H1.17857Z" fill="white"/>
</svg>
