<svg width="20" height="20" viewBox="0 0 20 20" fill="none" xmlns="http://www.w3.org/2000/svg">
<g id="diversity_1_FILL0_wght400_GRAD0_opsz20 1" clip-path="url(#clip0_479_1370)">
<path id="Vector" d="M5.5 2.5C6.375 2.5 7.20486 2.68056 7.98958 3.04167C8.77431 3.40278 9.44444 3.91667 10 4.58333C10.5556 3.91667 11.2257 3.40278 12.0104 3.04167C12.7951 2.68056 13.625 2.5 14.5 2.5C16.0278 2.5 17.3264 3.03472 18.3958 4.10417C19.4653 5.17361 20 6.47222 20 8C20 8.48611 19.941 8.97222 19.8229 9.45833C19.7049 9.94444 19.5278 10.4306 19.2917 10.9167C19.1389 10.6389 18.9444 10.3958 18.7083 10.1875C18.4722 9.97917 18.2083 9.8125 17.9167 9.6875C18.0278 9.39583 18.1111 9.11111 18.1667 8.83333C18.2222 8.55556 18.25 8.27778 18.25 8C18.25 6.95833 17.8854 6.07292 17.1562 5.34375C16.4271 4.61458 15.5417 4.25 14.5 4.25C13.6667 4.25 12.8924 4.50694 12.1771 5.02083C11.4618 5.53472 10.7361 6.25 10 7.16667C9.26389 6.25 8.53819 5.53472 7.82292 5.02083C7.10764 4.50694 6.33333 4.25 5.5 4.25C4.45833 4.25 3.57292 4.61458 2.84375 5.34375C2.11458 6.07292 1.75 6.95833 1.75 8C1.75 8.27778 1.77778 8.55556 1.83333 8.83333C1.88889 9.11111 1.97222 9.39583 2.08333 9.6875C1.80556 9.82639 1.54514 10 1.30208 10.2083C1.05903 10.4167 0.861111 10.6597 0.708333 10.9375C0.472222 10.4514 0.295139 9.96181 0.177083 9.46875C0.0590278 8.97569 0 8.48611 0 8C0 6.47222 0.534722 5.17361 1.60417 4.10417C2.67361 3.03472 3.97222 2.5 5.5 2.5ZM0.875 18.3333C0.638889 18.3333 0.434028 18.2465 0.260417 18.0729C0.0868056 17.8993 0 17.6944 0 17.4583V16.9375C0 16.3125 0.315972 15.8056 0.947917 15.4167C1.57986 15.0278 2.40278 14.8333 3.41667 14.8333C3.56944 14.8333 3.72222 14.8368 3.875 14.8438C4.02778 14.8507 4.18056 14.8681 4.33333 14.8958C4.11111 15.2014 3.94444 15.5312 3.83333 15.8854C3.72222 16.2396 3.66667 16.6111 3.66667 17V18.3333H0.875ZM5.875 18.3333C5.63889 18.3333 5.43403 18.2465 5.26042 18.0729C5.08681 17.8993 5 17.6944 5 17.4583V17C5 16.0972 5.46181 15.3646 6.38542 14.8021C7.30903 14.2396 8.51389 13.9583 10 13.9583C11.5 13.9583 12.7083 14.2396 13.625 14.8021C14.5417 15.3646 15 16.0972 15 17V17.4583C15 17.6944 14.9132 17.8993 14.7396 18.0729C14.566 18.2465 14.3611 18.3333 14.125 18.3333H5.875ZM16.3333 18.3333V17C16.3333 16.5972 16.2778 16.2222 16.1667 15.875C16.0556 15.5278 15.8889 15.2014 15.6667 14.8958C15.8194 14.8681 15.9722 14.8507 16.125 14.8438C16.2778 14.8368 16.4306 14.8333 16.5833 14.8333C17.5972 14.8333 18.4201 15.0278 19.0521 15.4167C19.684 15.8056 20 16.3125 20 16.9375V17.4583C20 17.6944 19.9132 17.8993 19.7396 18.0729C19.566 18.2465 19.3611 18.3333 19.125 18.3333H16.3333ZM10 15.7083C9.29167 15.7083 8.64931 15.7951 8.07292 15.9688C7.49653 16.1424 7.11111 16.3472 6.91667 16.5833H13.0833C12.8889 16.3472 12.5035 16.1424 11.9271 15.9688C11.3507 15.7951 10.7083 15.7083 10 15.7083ZM3.375 14.25C2.88889 14.25 2.47569 14.0799 2.13542 13.7396C1.79514 13.3993 1.625 12.9861 1.625 12.5C1.625 12.0139 1.79514 11.6007 2.13542 11.2604C2.47569 10.9201 2.88889 10.75 3.375 10.75C3.86111 10.75 4.27431 10.9201 4.61458 11.2604C4.95486 11.6007 5.125 12.0139 5.125 12.5C5.125 12.9861 4.95486 13.3993 4.61458 13.7396C4.27431 14.0799 3.86111 14.25 3.375 14.25ZM16.625 14.25C16.1389 14.25 15.7257 14.0799 15.3854 13.7396C15.0451 13.3993 14.875 12.9861 14.875 12.5C14.875 12.0139 15.0451 11.6007 15.3854 11.2604C15.7257 10.9201 16.1389 10.75 16.625 10.75C17.1111 10.75 17.5243 10.9201 17.8646 11.2604C18.2049 11.6007 18.375 12.0139 18.375 12.5C18.375 12.9861 18.2049 13.3993 17.8646 13.7396C17.5243 14.0799 17.1111 14.25 16.625 14.25ZM10 13.3333C9.30556 13.3333 8.71528 13.0903 8.22917 12.6042C7.74306 12.1181 7.5 11.5278 7.5 10.8333C7.5 10.1389 7.74306 9.54861 8.22917 9.0625C8.71528 8.57639 9.30556 8.33333 10 8.33333C10.6944 8.33333 11.2847 8.57639 11.7708 9.0625C12.2569 9.54861 12.5 10.1389 12.5 10.8333C12.5 11.5278 12.2569 12.1181 11.7708 12.6042C11.2847 13.0903 10.6944 13.3333 10 13.3333ZM10 10.0833C9.79167 10.0833 9.61458 10.1562 9.46875 10.3021C9.32292 10.4479 9.25 10.625 9.25 10.8333C9.25 11.0417 9.32292 11.2188 9.46875 11.3646C9.61458 11.5104 9.79167 11.5833 10 11.5833C10.2083 11.5833 10.3854 11.5104 10.5312 11.3646C10.6771 11.2188 10.75 11.0417 10.75 10.8333C10.75 10.625 10.6771 10.4479 10.5312 10.3021C10.3854 10.1562 10.2083 10.0833 10 10.0833Z" fill="#1E1E1E" fill-opacity="0.8"/>
</g>
<defs>
<clipPath id="clip0_479_1370">
<rect width="20" height="20" fill="white"/>
</clipPath>
</defs>
</svg>
