<svg width="20" height="20" viewBox="0 0 20 20" fill="none" xmlns="http://www.w3.org/2000/svg">
<g id="partner_exchange_FILL0_wght400_GRAD0_opsz20 1">
<path id="Vector" d="M5.46532 12.0471C5.55057 12.0954 5.62763 12.159 5.69853 12.2448C5.79401 12.3812 5.89451 12.5121 6 12.6374V14.125V15H2V12.5C2 12.3455 2.04261 12.2466 2.14461 12.1446C2.24661 12.0426 2.34552 12 2.5 12H5.27083C5.35594 12 5.41407 12.0181 5.46532 12.0471ZM14 14.125V12.6374C14.1055 12.5121 14.206 12.3812 14.3015 12.2448C14.3724 12.159 14.4494 12.0954 14.5347 12.0471C14.5859 12.0181 14.6441 12 14.7292 12H17.5C17.6545 12 17.7534 12.0426 17.8554 12.1446C17.9574 12.2466 18 12.3455 18 12.5V15H14V14.125ZM3.5 9C3.06774 9 2.73272 8.86017 2.43627 8.56373C2.13983 8.26728 2 7.93226 2 7.5C2 7.06775 2.13983 6.73272 2.43627 6.43627C2.73272 6.13983 3.06774 6 3.5 6C3.93226 6 4.26728 6.13983 4.56373 6.43627C4.86017 6.73272 5 7.06775 5 7.5C5 7.93226 4.86017 8.26728 4.56373 8.56373C4.26728 8.86017 3.93226 9 3.5 9ZM16.5 9C16.0677 9 15.7327 8.86017 15.4363 8.56373C15.1398 8.26728 15 7.93225 15 7.5C15 7.06775 15.1398 6.73272 15.4363 6.43627C15.7327 6.13983 16.0677 6 16.5 6C16.9323 6 17.2673 6.13983 17.5637 6.43627C17.8602 6.73272 18 7.06774 18 7.5C18 7.93226 17.8602 8.26728 17.5637 8.56373C17.2673 8.86017 16.9323 9 16.5 9Z" stroke="#1E1E1E" stroke-opacity="0.8" stroke-width="2"/>
<path id="Vector_2" d="M10 11C9.93229 11 9.86589 10.9866 9.80078 10.9597C9.73568 10.9328 9.67448 10.8896 9.61719 10.8299L9.15625 10.3463C8.58854 9.76716 8.08724 9.20149 7.65234 8.64925C7.21745 8.09701 7 7.49552 7 6.84478C7 6.3193 7.15586 5.88046 7.46758 5.52828C7.7793 5.17609 8.16771 5 8.63281 5C8.89946 5 9.15102 5.06418 9.38749 5.19254C9.62396 5.3209 9.82812 5.50448 10 5.74328C10.1823 5.50448 10.3897 5.3209 10.6223 5.19254C10.8549 5.06418 11.1024 5 11.3647 5C11.8299 5 12.2188 5.17609 12.5312 5.52828C12.8438 5.88046 13 6.3193 13 6.84478C13 7.49552 12.7826 8.09701 12.3477 8.64925C11.9128 9.20149 11.4115 9.76716 10.8438 10.3463L10.3828 10.8299C10.3255 10.8896 10.2643 10.9328 10.1992 10.9597C10.1341 10.9866 10.0677 11 10 11ZM9.73438 6.41493C9.60938 6.17015 9.45312 5.9806 9.26562 5.84627C9.07812 5.71194 8.86719 5.64478 8.63281 5.64478C8.32701 5.64478 8.07217 5.75821 7.8683 5.98507C7.66443 6.21194 7.5625 6.49968 7.5625 6.8483C7.5625 7.15043 7.65625 7.46866 7.84375 7.80298C8.03125 8.13731 8.25521 8.46418 8.51562 8.78358C8.77604 9.10298 9.04427 9.4 9.32031 9.67463C9.59635 9.94925 9.82292 10.1761 10 10.3552C10.1771 10.1761 10.4036 9.94925 10.6797 9.67463C10.9557 9.4 11.224 9.10298 11.4844 8.78358C11.7448 8.46418 11.9688 8.13731 12.1562 7.80298C12.3438 7.46866 12.4375 7.15043 12.4375 6.8483C12.4375 6.49968 12.3356 6.21194 12.1317 5.98507C11.9278 5.75821 11.673 5.64478 11.3672 5.64478C11.1328 5.64478 10.9206 5.71194 10.7305 5.84627C10.5404 5.9806 10.3828 6.17015 10.2578 6.41493C10.2318 6.47463 10.1952 6.51791 10.1481 6.54478C10.1009 6.57164 10.0515 6.58507 9.99962 6.58507C9.94779 6.58507 9.89714 6.57164 9.84766 6.54478C9.79818 6.51791 9.76042 6.47463 9.73438 6.41493Z" fill="#1E1E1E" fill-opacity="0.8"/>
</g>
</svg>
