<svg width="24" height="24" viewBox="0 0 24 24" fill="none" xmlns="http://www.w3.org/2000/svg">
<g id="groups_3_FILL0_wght400_GRAD0_opsz24 1" clip-path="url(#clip0_479_1377)">
<path id="Vector" d="M4 13.525L6.525 11L4 8.475L1.475 11L4 13.525ZM17.5 13L20 9L22.5 13H17.5ZM12 12C11.1667 12 10.4583 11.7083 9.875 11.125C9.29167 10.5417 9 9.83333 9 9C9 8.15 9.29167 7.4375 9.875 6.8625C10.4583 6.2875 11.1667 6 12 6C12.85 6 13.5625 6.2875 14.1375 6.8625C14.7125 7.4375 15 8.15 15 9C15 9.83333 14.7125 10.5417 14.1375 11.125C13.5625 11.7083 12.85 12 12 12ZM12 8C11.7167 8 11.4792 8.09583 11.2875 8.2875C11.0958 8.47917 11 8.71667 11 9C11 9.28333 11.0958 9.52083 11.2875 9.7125C11.4792 9.90417 11.7167 10 12 10C12.2833 10 12.5208 9.90417 12.7125 9.7125C12.9042 9.52083 13 9.28333 13 9C13 8.71667 12.9042 8.47917 12.7125 8.2875C12.5208 8.09583 12.2833 8 12 8ZM0 18V16.425C0 15.6917 0.370833 15.1042 1.1125 14.6625C1.85417 14.2208 2.81667 14 4 14C4.21667 14 4.425 14.0042 4.625 14.0125C4.825 14.0208 5.01667 14.0417 5.2 14.075C4.96667 14.4083 4.79167 14.7667 4.675 15.15C4.55833 15.5333 4.5 15.9417 4.5 16.375V18H0ZM6 18V16.375C6 15.2917 6.55417 14.4167 7.6625 13.75C8.77083 13.0833 10.2167 12.75 12 12.75C13.8 12.75 15.25 13.0833 16.35 13.75C17.45 14.4167 18 15.2917 18 16.375V18H6ZM20 14C21.2 14 22.1667 14.2208 22.9 14.6625C23.6333 15.1042 24 15.6917 24 16.425V18H19.5V16.375C19.5 15.9417 19.4458 15.5333 19.3375 15.15C19.2292 14.7667 19.0667 14.4083 18.85 14.075C19.0333 14.0417 19.2208 14.0208 19.4125 14.0125C19.6042 14.0042 19.8 14 20 14ZM12 14.75C11.05 14.75 10.2 14.875 9.45 15.125C8.7 15.375 8.25833 15.6667 8.125 16H15.9C15.75 15.6667 15.3042 15.375 14.5625 15.125C13.8208 14.875 12.9667 14.75 12 14.75Z" fill="#1E1E1E" fill-opacity="0.8"/>
</g>
<defs>
<clipPath id="clip0_479_1377">
<rect width="24" height="24" fill="white"/>
</clipPath>
</defs>
</svg>
