<svg width="18" height="18" viewBox="0 0 18 18" fill="none" xmlns="http://www.w3.org/2000/svg">
<path id="Vector" d="M12.4591 8.91667C12.3475 8.91667 12.2396 8.89583 12.1354 8.85417C12.0312 8.8125 11.9375 8.75694 11.8542 8.6875C10.6736 7.60417 9.64236 6.56944 8.76042 5.58333C7.87847 4.59722 7.4375 3.66667 7.4375 2.79167C7.4375 2.01389 7.70833 1.35417 8.25 0.8125C8.79167 0.270833 9.45139 0 10.2292 0C10.6736 0 11.0903 0.0902778 11.4792 0.270833C11.8681 0.451389 12.1944 0.694444 12.4583 1C12.7222 0.694444 13.0486 0.451389 13.4375 0.270833C13.8264 0.0902778 14.2431 0 14.6875 0C15.4653 0 16.125 0.270833 16.6667 0.8125C17.2083 1.35417 17.4792 2.01389 17.4792 2.79167C17.4792 3.66667 17.0382 4.59722 16.1562 5.58333C15.2743 6.56944 14.2431 7.60417 13.0625 8.6875C12.9792 8.75694 12.8857 8.8125 12.782 8.85417C12.6784 8.89583 12.5707 8.91667 12.4591 8.91667ZM12.4583 6.875C13.25 6.11111 13.9931 5.35178 14.6875 4.597C15.3819 3.84222 15.7292 3.24044 15.7292 2.79167C15.7292 2.5 15.6285 2.25347 15.4271 2.05208C15.2257 1.85069 14.9792 1.75 14.6875 1.75C14.4931 1.75 14.3194 1.78819 14.1667 1.86458C14.0139 1.94097 13.8889 2.03472 13.7917 2.14583L12.4792 3.70833L11.1667 2.14583C11.0556 2.03472 10.9201 1.94097 10.7604 1.86458C10.6007 1.78819 10.4236 1.75 10.2292 1.75C9.9375 1.75 9.69097 1.85069 9.48958 2.05208C9.28819 2.25347 9.1875 2.5 9.1875 2.79167C9.1875 3.24044 9.53472 3.84222 10.2292 4.597C10.9236 5.35178 11.6667 6.11111 12.4583 6.875ZM10.7917 15.2708L15.6667 13.7292C15.5972 13.6042 15.4944 13.5035 15.3582 13.4271C15.222 13.3507 15.0679 13.3125 14.8958 13.3125H10.6458C10.3542 13.3125 10.1007 13.2986 9.88542 13.2708C9.67014 13.2431 9.44444 13.1944 9.20833 13.125L8.08333 12.75C7.85 12.6764 7.68403 12.5292 7.58542 12.3085C7.48681 12.0877 7.47222 11.8595 7.54167 11.6241C7.61111 11.3886 7.75548 11.2188 7.97477 11.1146C8.19406 11.0104 8.4247 10.9931 8.66667 11.0625L9.60417 11.375C9.79861 11.4444 10.0174 11.4931 10.2604 11.5208C10.5035 11.5486 10.8889 11.5625 11.4167 11.5625H11.6458C11.6458 11.4097 11.6007 11.2708 11.5104 11.1458C11.4201 11.0208 11.3125 10.9306 11.1875 10.875L6.39583 9.125H5.14583V13.7292L10.7917 15.2708ZM10.3333 16.9375L5.14583 15.5C5.03472 15.9028 4.82292 16.2083 4.51042 16.4167C4.19792 16.625 3.82639 16.7292 3.39583 16.7292H1.75C1.26875 16.7292 0.856771 16.5578 0.514063 16.2151C0.171354 15.8724 0 15.4604 0 14.9792V9.125C0 8.64375 0.171354 8.23177 0.514063 7.88906C0.856771 7.54635 1.26875 7.375 1.75 7.375H6.39583C6.50694 7.375 6.61111 7.38542 6.70833 7.40625C6.80556 7.42708 6.90278 7.45139 7 7.47917L11.8125 9.27083C12.2847 9.45139 12.6632 9.75694 12.9479 10.1875C13.2326 10.6181 13.375 11.0764 13.375 11.5625H14.8958C15.6192 11.5625 16.2341 11.8056 16.7405 12.2917C17.2468 12.7778 17.5 13.3819 17.5 14.1042C17.5 14.4097 17.4097 14.6597 17.2292 14.8542C17.0486 15.0486 16.8194 15.1944 16.5417 15.2917L11.3333 16.9375C11.1667 16.9931 11 17.0174 10.8333 17.0104C10.6667 17.0035 10.5 16.9792 10.3333 16.9375ZM1.72917 14.9792H3.39583V9.125H1.72917V14.9792Z" fill="#1E1E1E" fill-opacity="0.8"/>
</svg>
