<svg width="16" height="14" viewBox="0 0 16 14" fill="none" xmlns="http://www.w3.org/2000/svg">
<g id="Vector">
<path d="M8 13.9583C7.81944 13.9583 7.64236 13.9271 7.46875 13.8646C7.29514 13.8021 7.13194 13.7014 6.97917 13.5625L5.75 12.4375C4.23611 11.0903 2.89931 9.77431 1.73958 8.48958C0.579861 7.20486 0 5.80556 0 4.29167C0 3.06919 0.415625 2.0483 1.24688 1.22898C2.07813 0.40966 3.11389 0 4.35417 0C5.06524 0 5.73606 0.149306 6.36665 0.447917C6.99722 0.746528 7.54167 1.17361 8 1.72917C8.48611 1.17361 9.03931 0.746528 9.65958 0.447917C10.2799 0.149306 10.9397 0 11.6392 0C12.8797 0 13.9167 0.40966 14.75 1.22898C15.5833 2.0483 16 3.06919 16 4.29167C16 5.80556 15.4201 7.20486 14.2604 8.48958C13.1007 9.77431 11.7639 11.0903 10.25 12.4375L9.02083 13.5625C8.86806 13.7014 8.70486 13.8021 8.53125 13.8646C8.35764 13.9271 8.18056 13.9583 8 13.9583ZM7.29167 3.29167C6.95833 2.72222 6.54167 2.28125 6.04167 1.96875C5.54167 1.65625 4.97917 1.5 4.35417 1.5C3.53869 1.5 2.85913 1.76389 2.31548 2.29167C1.77183 2.81944 1.5 3.48884 1.5 4.29985C1.5 5.00273 1.75 5.74306 2.25 6.52083C2.75 7.29861 3.34722 8.05903 4.04167 8.80208C4.73611 9.54514 5.45139 10.2361 6.1875 10.875C6.92361 11.5139 7.52778 12.0417 8 12.4583C8.47222 12.0417 9.07639 11.5139 9.8125 10.875C10.5486 10.2361 11.2639 9.54514 11.9583 8.80208C12.6528 8.05903 13.25 7.29861 13.75 6.52083C14.25 5.74306 14.5 5.00273 14.5 4.29985C14.5 3.48884 14.2282 2.81944 13.6845 2.29167C13.1409 1.76389 12.4613 1.5 11.6458 1.5C11.0208 1.5 10.4549 1.65625 9.94792 1.96875C9.44097 2.28125 9.02083 2.72222 8.6875 3.29167C8.61806 3.43056 8.5205 3.53125 8.39483 3.59375C8.26918 3.65625 8.13724 3.6875 7.999 3.6875C7.86078 3.6875 7.72569 3.65625 7.59375 3.59375C7.46181 3.53125 7.36111 3.43056 7.29167 3.29167Z" fill="#1E1E1E" fill-opacity="0.8"/>
<path d="M6.08758 12.0687L6.08761 12.0686L6.08239 12.064C4.57988 10.7269 3.2564 9.4237 2.11073 8.15455C1.02124 6.94763 0.5 5.66404 0.5 4.29167C0.5 3.19598 0.866877 2.30557 1.59786 1.58508C2.32927 0.864171 3.23614 0.5 4.35417 0.5C4.99269 0.5 5.59027 0.633495 6.15265 0.89981C6.7147 1.16597 7.20115 1.54655 7.61431 2.04736L7.98879 2.50127L8.37629 2.05842C8.82124 1.5499 9.32126 1.16572 9.87647 0.898429C10.428 0.632927 11.0136 0.5 11.6392 0.5C12.7575 0.5 13.6658 0.864216 14.3995 1.58552C15.1324 2.30611 15.5 3.19637 15.5 4.29167C15.5 5.66404 14.9788 6.94763 13.8893 8.15455C12.7436 9.4237 11.4201 10.7269 9.91761 12.064L9.91757 12.0639L9.91242 12.0687L8.6845 13.1925C8.68432 13.1927 8.68415 13.1928 8.68397 13.193C8.57414 13.2927 8.46669 13.3564 8.36189 13.3941C8.24139 13.4375 8.12154 13.4583 8 13.4583C7.87846 13.4583 7.75861 13.4375 7.63811 13.3941C7.53333 13.3564 7.4259 13.2928 7.31609 13.1931C7.31589 13.1929 7.3157 13.1927 7.3155 13.1925L6.08758 12.0687ZM7.73888 3.06806L7.73151 3.05331L7.72317 3.03908C7.35394 2.4083 6.88303 1.90498 6.30667 1.54475C5.72236 1.17956 5.067 1 4.35417 1C3.41956 1 2.61171 1.30723 1.9672 1.93291C1.31922 2.56197 1 3.36424 1 4.29985C1 5.1245 1.29361 5.95775 1.82941 6.79121C2.34719 7.59664 2.96341 8.38062 3.67637 9.14349C4.38218 9.89871 5.10996 10.6018 5.85976 11.2526C6.59534 11.891 7.19838 12.4178 7.66919 12.8333L8 13.1251L8.33081 12.8333C8.80162 12.4178 9.40466 11.891 10.1402 11.2526C10.89 10.6018 11.6178 9.89871 12.3236 9.14349C13.0366 8.38062 13.6528 7.59664 14.1706 6.79121C14.7064 5.95775 15 5.1245 15 4.29985C15 3.36424 14.6808 2.56197 14.0328 1.93291C13.3883 1.30723 12.5804 1 11.6458 1C10.933 1 10.2754 1.17954 9.68554 1.54312C9.10162 1.90307 8.62614 2.40674 8.25599 3.03908L8.24766 3.05331L8.24029 3.06806C8.21394 3.12075 8.19029 3.13706 8.17218 3.14606L8.17216 3.14607C8.1146 3.1747 8.05875 3.1875 7.999 3.1875C7.93896 3.1875 7.87668 3.17451 7.80779 3.14188C7.78359 3.13041 7.76172 3.11374 7.73888 3.06806Z" stroke="#1E1E1E" stroke-opacity="0.8"/>
</g>
</svg>
