<svg width="16" height="15" viewBox="0 0 16 15" fill="none" xmlns="http://www.w3.org/2000/svg">
<path d="M0.104167 5.375L2.8125 0.645833C2.88194 0.520833 2.97569 0.427083 3.09375 0.364583C3.21181 0.302083 3.33333 0.270833 3.45833 0.270833C3.58333 0.270833 3.70486 0.302083 3.82292 0.364583C3.94097 0.427083 4.03472 0.520833 4.10417 0.645833L6.8125 5.375C6.88194 5.5 6.91667 5.62847 6.91667 5.76042C6.91667 5.89236 6.88194 6.01389 6.8125 6.125C6.74306 6.23611 6.65625 6.32639 6.55208 6.39583C6.44792 6.46528 6.32051 6.5 6.16988 6.5H0.746792C0.596153 6.5 0.46875 6.46528 0.364583 6.39583C0.260417 6.32639 0.173611 6.23611 0.104167 6.125C0.0347222 6.01389 0 5.89236 0 5.76042C0 5.62847 0.0347222 5.5 0.104167 5.375ZM3.45833 14.5C2.625 14.5 1.91667 14.2067 1.33333 13.62C0.75 13.0334 0.458333 12.3282 0.458333 11.5044C0.458333 10.6681 0.75 9.95833 1.33333 9.375C1.91667 8.79167 2.625 8.5 3.45833 8.5C4.29167 8.5 5 8.79167 5.58333 9.375C6.16667 9.95833 6.45833 10.6667 6.45833 11.5C6.45833 12.3333 6.16667 13.0417 5.58333 13.625C5 14.2083 4.29167 14.5 3.45833 14.5ZM3.46275 13C3.87647 13 4.22917 12.8527 4.52083 12.5581C4.8125 12.2635 4.95833 11.9093 4.95833 11.4956C4.95833 11.0819 4.81103 10.7292 4.51642 10.4375C4.22179 10.1458 3.86762 10 3.45392 10C3.04019 10 2.6875 10.1473 2.39583 10.4419C2.10417 10.7365 1.95833 11.0907 1.95833 11.5044C1.95833 11.9181 2.10564 12.2708 2.40025 12.5625C2.69488 12.8542 3.04904 13 3.46275 13ZM2.0625 5H4.85417L3.45833 2.52083L2.0625 5ZM8.45833 13.7508V9.2559C8.45833 9.04363 8.53013 8.86458 8.67371 8.71875C8.81731 8.57292 8.99524 8.5 9.2075 8.5H13.7024C13.9147 8.5 14.0938 8.57179 14.2396 8.71538C14.3854 8.85897 14.4583 9.0369 14.4583 9.24917V13.7441C14.4583 13.9564 14.3865 14.1354 14.243 14.2812C14.0994 14.4271 13.9214 14.5 13.7092 14.5H9.21423C9.00197 14.5 8.82292 14.4282 8.67708 14.2846C8.53125 14.141 8.45833 13.9631 8.45833 13.7508ZM9.95833 13H12.9583V10H9.95833V13ZM10.9792 6.10417L9.91667 5.20833C9.04167 4.47222 8.44444 3.90278 8.125 3.5C7.80556 3.09722 7.64583 2.63097 7.64583 2.10125C7.64583 1.51986 7.84028 1.02431 8.22917 0.614583C8.61806 0.204861 9.12124 0 9.73873 0C10.0935 0 10.4132 0.0729167 10.6979 0.21875C10.9826 0.364583 11.2361 0.590278 11.4583 0.895833C11.6806 0.590278 11.9375 0.364583 12.2292 0.21875C12.5208 0.0729167 12.8415 0 13.1912 0C13.7998 0 14.2986 0.203209 14.6875 0.609626C15.0764 1.01603 15.2708 1.51421 15.2708 2.10417C15.2708 2.63194 15.1146 3.09028 14.8021 3.47917C14.4896 3.86806 13.8958 4.4375 13.0208 5.1875L11.9375 6.10417C11.8033 6.21528 11.6448 6.27083 11.4619 6.27083C11.279 6.27083 11.1181 6.21528 10.9792 6.10417ZM11.4583 4.5C12.4028 3.70833 13.0243 3.16319 13.3229 2.86458C13.6215 2.56597 13.7708 2.30556 13.7708 2.08333C13.7708 1.93056 13.7153 1.79514 13.6042 1.67708C13.4931 1.55903 13.3629 1.5 13.2138 1.5C13.099 1.5 12.9931 1.52778 12.8958 1.58333C12.7986 1.63889 12.7153 1.70833 12.6458 1.79167L11.4583 2.89583L10.2917 1.79167C10.2083 1.70833 10.1166 1.63889 10.0165 1.58333C9.91642 1.52778 9.81369 1.5 9.70833 1.5C9.55556 1.5 9.42361 1.55903 9.3125 1.67708C9.20139 1.79514 9.14583 1.93056 9.14583 2.08333C9.14583 2.31944 9.30208 2.59028 9.61458 2.89583C9.92708 3.20139 10.5417 3.73611 11.4583 4.5Z" fill="#1E1E1E" fill-opacity="0.8"/>
</svg>
