<svg width="17" height="12" viewBox="0 0 17 12" fill="none" xmlns="http://www.w3.org/2000/svg">
<path id="Vector" d="M1.275 12C0.924375 12 0.624219 11.8741 0.374531 11.6223C0.124844 11.3705 0 11.0679 0 10.7143H2.975C2.62438 10.7143 2.32422 10.5884 2.07453 10.3366C1.82484 10.0848 1.7 9.78214 1.7 9.42857V1.28571C1.7 0.932143 1.82484 0.629465 2.07453 0.377679C2.32422 0.125893 2.62438 0 2.975 0H14.025C14.3756 0 14.6758 0.125893 14.9255 0.377679C15.1752 0.629465 15.3 0.932143 15.3 1.28571V9.42857C15.3 9.78214 15.1752 10.0848 14.9255 10.3366C14.6758 10.5884 14.3756 10.7143 14.025 10.7143H17C17 11.0714 16.8752 11.375 16.6255 11.625C16.3758 11.875 16.0756 12 15.725 12H1.275ZM8.49626 11.3571C8.67584 11.3571 8.8276 11.2959 8.95156 11.1734C9.07552 11.0509 9.1375 10.8991 9.1375 10.7181C9.1375 10.537 9.07677 10.3839 8.9553 10.2589C8.83382 10.1339 8.6833 10.0714 8.50374 10.0714C8.32416 10.0714 8.1724 10.1327 8.04844 10.2552C7.92448 10.3777 7.8625 10.5294 7.8625 10.7105C7.8625 10.8916 7.92323 11.0446 8.0447 11.1696C8.16618 11.2946 8.3167 11.3571 8.49626 11.3571ZM2.975 9.42857H14.025V1.28571H2.975V9.42857Z" fill="white"/>
</svg>
