<svg width="20" height="20" viewBox="0 0 20 20" fill="none" xmlns="http://www.w3.org/2000/svg">
<g id="neurology_FILL1_wght400_GRAD0_opsz20 1">
<path id="Vector" d="M11.75 17C11.5742 17 11.4018 16.9861 11.2327 16.9583C11.0637 16.9306 10.9028 16.8843 10.75 16.8194V3.20833C10.9077 3.13889 11.0686 3.08681 11.2328 3.05208C11.3971 3.01736 11.5694 3 11.75 3C12.421 3 12.9985 3.22917 13.4824 3.6875C13.9664 4.14583 14.2222 4.70833 14.25 5.375C15.0417 5.47222 15.6979 5.81057 16.2188 6.39004C16.7396 6.96951 17 7.652 17 8.4375C17 8.72826 16.9618 9.00582 16.8854 9.27017C16.809 9.5345 16.7014 9.78472 16.5625 10.0208C16.7292 10.2986 16.8438 10.5764 16.9062 10.8542C16.9688 11.1319 17 11.4061 17 11.6767C17 12.4756 16.7326 13.1701 16.1979 13.7604C15.6632 14.3507 15 14.6806 14.2083 14.75C14.1389 15.3889 13.875 15.9236 13.4167 16.3542C12.9583 16.7847 12.4028 17 11.75 17ZM8.22917 17C7.57639 17 7.02083 16.7847 6.5625 16.3542C6.10417 15.9236 5.84028 15.3889 5.77083 14.75C4.97917 14.6667 4.31944 14.3333 3.79167 13.75C3.26389 13.1667 3 12.4721 3 11.6662C3 11.3887 3.03125 11.1007 3.09375 10.8021C3.15625 10.5035 3.26389 10.2361 3.41667 10C3.27778 9.76293 3.17361 9.51269 3.10417 9.24929C3.03472 8.98588 3 8.71294 3 8.43048C3 7.64729 3.25694 6.97002 3.77083 6.39869C4.28472 5.82734 4.9375 5.48611 5.72917 5.375C5.75694 4.70833 6.0141 4.14583 6.50065 3.6875C6.98719 3.22917 7.56336 3 8.22917 3C8.40972 3 8.58681 3.02083 8.76042 3.0625C8.93403 3.10417 9.09722 3.15735 9.25 3.22206V16.7917C9.09722 16.8611 8.93403 16.9132 8.76042 16.9479C8.58681 16.9826 8.40972 17 8.22917 17Z" fill="#1E1E1E" fill-opacity="0.8"/>
</g>
</svg>
