<svg width="14" height="16" viewBox="0 0 14 16" fill="none" xmlns="http://www.w3.org/2000/svg">
<path id="Vector" d="M8.75 16V11.5625L6.90278 10L6.125 13.3333L0 12.2708L0.340278 10.8125L4.73958 11.5625L6.00347 6.08333L4.08333 6.79167V9H2.33333V5.79167L6.82986 4.16667C6.97569 4.11111 7.12558 4.06944 7.27951 4.04167C7.43345 4.01389 7.59144 4 7.75347 4C8.19097 4 8.58391 4.08681 8.93229 4.26042C9.28067 4.43403 9.56829 4.6875 9.79514 5.02083L10.1354 5.5C10.6215 6.20833 11.1725 6.71875 11.7882 7.03125C12.4039 7.34375 13.1412 7.5 14 7.5V9C13.0764 9 12.2135 8.82639 11.4115 8.47917C10.6094 8.13194 9.92477 7.63889 9.35764 7L8.79861 9.5L10.5 10.9583V16H8.75ZM9.33333 3.5C8.7662 3.5 8.28414 3.32986 7.88715 2.98958C7.49016 2.64931 7.29167 2.23611 7.29167 1.75C7.29167 1.26389 7.49016 0.850694 7.88715 0.510417C8.28414 0.170139 8.7662 0 9.33333 0C9.90046 0 10.3825 0.170139 10.7795 0.510417C11.1765 0.850694 11.375 1.26389 11.375 1.75C11.375 2.23611 11.1765 2.64931 10.7795 2.98958C10.3825 3.32986 9.90046 3.5 9.33333 3.5Z" fill="#1E1E1E" fill-opacity="0.8"/>
</svg>
