<svg width="11" height="10" viewBox="0 0 11 10" fill="none" xmlns="http://www.w3.org/2000/svg">
<path id="Vector" d="M4.8125 9.60463V8.57556H9.28125V4.75939C9.28125 3.7113 8.91469 2.81802 8.18157 2.07957C7.44843 1.34112 6.55564 0.971897 5.50318 0.971897C4.45071 0.971897 3.55686 1.34112 2.82161 2.07957C2.08637 2.81802 1.71875 3.71131 1.71875 4.75944V8.00386H1.03125C0.747656 8.00386 0.504883 7.9003 0.30293 7.69318C0.100977 7.48605 0 7.23706 0 6.9462V5.88855C0 5.6694 0.062066 5.47407 0.186198 5.30256C0.31033 5.13104 0.477431 5.02147 0.6875 4.97383L0.730469 4.2449C0.816406 3.64461 0.99783 3.08482 1.27474 2.56552C1.55165 2.04622 1.90256 1.59601 2.32747 1.21487C2.75239 0.833735 3.23692 0.535973 3.78108 0.321584C4.32524 0.107195 4.89816 0 5.49983 0C6.10151 0 6.67354 0.107462 7.21593 0.322384C7.75832 0.537317 8.24291 0.835079 8.6697 1.21567C9.0965 1.59627 9.44835 2.04384 9.72526 2.55838C10.0022 3.07291 10.1836 3.63032 10.2695 4.23061L10.3125 4.97383C10.513 5.02147 10.6777 5.1239 10.8066 5.28112C10.9355 5.43834 11 5.62176 11 5.83138V7.03196C11 7.24159 10.9355 7.42501 10.8066 7.58223C10.6777 7.73944 10.513 7.84187 10.3125 7.88952V8.57556C10.3125 8.85855 10.2115 9.10081 10.0096 9.30234C9.80762 9.50387 9.56484 9.60463 9.28125 9.60463H4.8125ZM3.95615 5.83138C3.8109 5.83138 3.68815 5.78236 3.58789 5.68433C3.48763 5.58628 3.4375 5.46479 3.4375 5.31986C3.4375 5.17493 3.48662 5.05243 3.58487 4.95239C3.68312 4.85234 3.80487 4.80231 3.9501 4.80231C4.09535 4.80231 4.2181 4.85133 4.31836 4.94937C4.41862 5.04742 4.46875 5.16891 4.46875 5.31383C4.46875 5.45877 4.41963 5.58126 4.32138 5.68131C4.22313 5.78136 4.10138 5.83138 3.95615 5.83138ZM7.0499 5.83138C6.90465 5.83138 6.7819 5.78236 6.68164 5.68433C6.58138 5.58628 6.53125 5.46479 6.53125 5.31986C6.53125 5.17493 6.58037 5.05243 6.67862 4.95239C6.77687 4.85234 6.89862 4.80231 7.04385 4.80231C7.1891 4.80231 7.31185 4.85133 7.41211 4.94937C7.51237 5.04742 7.5625 5.16891 7.5625 5.31383C7.5625 5.45877 7.51338 5.58126 7.41513 5.68131C7.31688 5.78136 7.19513 5.83138 7.0499 5.83138ZM2.42057 5.11675C2.33464 4.1925 2.60057 3.39449 3.21839 2.72274C3.83619 2.05099 4.60628 1.71511 5.52865 1.71511C6.31163 1.71511 6.99197 1.97714 7.56966 2.50121C8.14735 3.02527 8.47917 3.67796 8.5651 4.45929C7.75347 4.45929 7.01584 4.23776 6.35221 3.79469C5.68859 3.35162 5.17535 2.77276 4.8125 2.05813C4.67882 2.73465 4.4043 3.34209 3.98893 3.88044C3.57357 4.4188 3.05078 4.8309 2.42057 5.11675Z" fill="white"/>
</svg>
